<svg width="20" height="22" viewBox="0 0 20 22" fill="none" xmlns="http://www.w3.org/2000/svg">
<path fill-rule="evenodd" clip-rule="evenodd" d="M9.35681 3.88184H10.1924C11.6646 3.88181 12.8694 3.88178 13.836 4.0012C14.8474 4.12615 15.7271 4.39427 16.4824 5.02163C17.2377 5.64859 17.6633 6.46342 17.9726 7.43434C18.2684 8.3628 18.4905 9.54749 18.7619 10.9954L18.7743 11.0612L18.7912 11.1513C19.1741 13.194 19.4833 14.8426 19.5405 16.1517C19.5999 17.5099 19.4012 18.7063 18.5765 19.7001C17.7518 20.6932 16.6122 21.1091 15.2664 21.301C13.9682 21.4862 12.2893 21.4862 10.2091 21.4861H9.34008C7.25993 21.4862 5.58131 21.4862 4.28329 21.301C2.93766 21.1091 1.79861 20.6934 0.973951 19.7004C0.149274 18.7066 -0.0496443 17.5099 0.00974045 16.1517C0.0669728 14.8426 0.376075 13.194 0.759065 11.1513L0.775951 11.0612L0.789839 10.9871C1.06055 9.54317 1.28214 8.3612 1.57704 7.4346C1.88607 6.46357 2.31152 5.64845 3.0672 5.02133C3.82275 4.39431 4.70217 4.12618 5.71363 4.0012C6.6801 3.88178 7.88466 3.88181 9.35681 3.88184ZM5.97977 6.15521C5.19174 6.25258 4.7694 6.42914 4.45325 6.6915C4.13724 6.95375 3.88601 7.3362 3.64522 8.09281C3.39531 8.87805 3.19642 9.92921 2.90918 11.4612C2.50606 13.6115 2.22779 15.1091 2.17806 16.2465C2.12965 17.3538 2.31103 17.9129 2.64389 18.314C2.97678 18.7147 3.49304 18.9959 4.58981 19.1524C5.71653 19.3131 7.23946 19.3157 9.4264 19.3157H10.1229C12.3098 19.3157 13.833 19.3131 14.96 19.1524C16.0571 18.9959 16.5735 18.7147 16.9063 18.314C17.2392 17.9129 17.4206 17.3538 17.3722 16.2465C17.3224 15.1091 17.0442 13.6114 16.641 11.4611C16.3538 9.92935 16.1547 8.87821 15.9046 8.09308C15.6636 7.33652 15.4122 6.95388 15.096 6.6915C14.7806 6.42948 14.3582 6.2526 13.5699 6.15521C12.7519 6.05416 11.6817 6.05223 10.1229 6.05223H9.4264C7.86757 6.05223 6.79761 6.05416 5.97977 6.15521Z" fill="#656565"/>
<path fill-rule="evenodd" clip-rule="evenodd" d="M9.77459 2.19383C9.2949 2.19383 8.83486 2.38439 8.49567 2.72358C8.15648 3.06276 7.96593 3.5228 7.96593 4.00249V4.96711C7.96593 5.56645 7.48007 6.05231 6.88073 6.05231C6.28139 6.05231 5.79553 5.56645 5.79553 4.96711V4.00249C5.79553 2.94718 6.21475 1.93509 6.96097 1.18888C7.70719 0.442658 8.71928 0.0234375 9.77459 0.0234375C10.8299 0.0234375 11.842 0.442658 12.5882 1.18888C13.3344 1.93509 13.7536 2.94718 13.7536 4.00249V4.96711C13.7536 5.56645 13.2678 6.05231 12.6684 6.05231C12.0691 6.05231 11.5832 5.56645 11.5832 4.96711V4.00249C11.5832 3.5228 11.3927 3.06276 11.0535 2.72358C10.7143 2.38439 10.2543 2.19383 9.77459 2.19383Z" fill="#656565"/>
</svg>
