<svg width="25" height="22" viewBox="0 0 25 22" fill="none" xmlns="http://www.w3.org/2000/svg">
<path d="M17.8137 0.0236816C15.6578 0.0236816 13.7444 0.874661 12.4481 2.33731C11.1518 0.874661 9.23843 0.0236816 7.08255 0.0236816C5.20484 0.0259535 3.40468 0.772878 2.07694 2.10062C0.749196 3.42836 0.00227189 5.22852 0 7.10623C0 14.8691 11.3546 21.0717 11.8375 21.3325C12.0252 21.4336 12.235 21.4865 12.4481 21.4865C12.6613 21.4865 12.8711 21.4336 13.0587 21.3325C13.5416 21.0717 24.8962 14.8691 24.8962 7.10623C24.894 5.22852 24.147 3.42836 22.8193 2.10062C21.4915 0.772878 19.6914 0.0259535 17.8137 0.0236816ZM17.2245 15.3005C15.73 16.5688 14.1323 17.7102 12.4481 18.713C10.7639 17.7102 9.16624 16.5688 7.67169 15.3005C5.34625 13.3056 2.57547 10.2633 2.57547 7.10623C2.57547 5.91088 3.05032 4.76449 3.89556 3.91925C4.7408 3.07401 5.8872 2.59915 7.08255 2.59915C8.99269 2.59915 10.5916 3.60788 11.2559 5.23257C11.3526 5.46942 11.5176 5.6721 11.7299 5.81477C11.9423 5.95744 12.1923 6.03363 12.4481 6.03363C12.7039 6.03363 12.954 5.95744 13.1663 5.81477C13.3786 5.6721 13.5437 5.46942 13.6403 5.23257C14.3046 3.60788 15.9035 2.59915 17.8137 2.59915C19.009 2.59915 20.1554 3.07401 21.0007 3.91925C21.8459 4.76449 22.3208 5.91088 22.3208 7.10623C22.3208 10.2633 19.55 13.3056 17.2245 15.3005Z" fill="#656565"/>
</svg>
