<svg width="50" height="50" viewBox="0 0 50 50" fill="none" xmlns="http://www.w3.org/2000/svg">
<path d="M41.2494 24.1608L42.7494 22.3958C43.1098 21.9708 43.3169 21.4371 43.3373 20.8803C43.3577 20.3234 43.1902 19.7759 42.8619 19.3258L35.6186 9.38076C35.3825 9.05551 35.0726 8.79093 34.7143 8.60876C34.3561 8.42668 33.9597 8.33226 33.5577 8.33326H9.77441C9.37349 8.3321 8.97791 8.42593 8.62032 8.60718C8.26266 8.78835 7.95307 9.05176 7.71691 9.37576L0.476076 19.3249C0.147159 19.7754 -0.0205084 20.3234 7.49393e-05 20.8808C0.0205749 21.4382 0.228242 21.9724 0.589409 22.3974L19.7236 44.9408C19.9639 45.2209 20.262 45.4458 20.5973 45.5998C20.9327 45.754 21.2974 45.8338 21.6665 45.8338C22.0356 45.8338 22.4003 45.754 22.7357 45.5998C23.071 45.4458 23.3691 45.2209 23.6094 44.9408L25.0694 43.2233C26.1245 45.0928 27.6157 46.6796 29.4159 47.8488C31.2162 49.018 33.2724 49.7349 35.4093 49.9385C37.5463 50.1421 39.7009 49.8263 41.6896 49.0182C43.6782 48.2099 45.4422 46.9333 46.8314 45.2966C48.2205 43.66 49.1937 41.712 49.6679 39.6184C50.1422 37.5248 50.1037 35.3476 49.5556 33.2722C49.0074 31.1967 47.9659 29.2843 46.5197 27.6979C45.0736 26.1115 43.2655 24.8981 41.2494 24.1608ZM36.6661 23.3333C33.2484 23.3341 29.9627 24.6528 27.4927 27.0149L28.9669 21.6666H41.1769L39.4994 23.6433C38.5688 23.4386 37.6189 23.3347 36.6661 23.3333ZM21.6661 41.8666L16.0936 21.6666H27.2386L24.7386 30.7499C23.9774 32.2762 23.519 33.9353 23.3886 35.6358L21.6661 41.8666ZM16.4352 19.9999L21.6661 10.8458L26.8969 19.9999H16.4352ZM41.2861 19.9999H29.7686L34.8327 11.1358L41.2861 19.9999ZM33.5636 9.99993L28.3327 19.1533L23.1019 9.99993H33.5636ZM20.2302 9.99993L14.9994 19.1533L9.76858 9.99993H20.2302ZM8.49941 11.1358L13.5636 19.9999H2.04608L8.49941 11.1358ZM2.15524 21.6666H14.3652L20.2436 42.9783L2.15524 21.6666ZM23.0877 42.9791L23.8377 40.2591C23.9627 40.7058 24.1102 41.1449 24.2802 41.5758L23.0877 42.9791ZM36.6661 48.3333C34.3586 48.3333 32.103 47.649 30.1844 46.3671C28.2658 45.0852 26.7705 43.2631 25.8875 41.1313C25.0044 38.9994 24.7734 36.6537 25.2236 34.3906C25.6737 32.1274 26.7849 30.0487 28.4165 28.417C30.0481 26.7854 32.1269 25.6743 34.39 25.2241C36.6532 24.7739 38.9989 25.005 41.1307 25.888C43.2625 26.771 45.0846 28.2663 46.3666 30.1849C47.6485 32.1035 48.3327 34.3592 48.3327 36.6666C48.3261 43.1074 43.1069 48.3266 36.6661 48.3333Z" fill="#83CFE3"/>
<path d="M43.5775 31.0775L33.3333 41.3217L29.7558 37.7442C29.5987 37.5923 29.3882 37.5083 29.1697 37.5102C28.9512 37.5122 28.7422 37.5998 28.5877 37.7543C28.4332 37.9088 28.3455 38.1178 28.3436 38.3363C28.3417 38.5548 28.4257 38.7653 28.5775 38.9225L32.7442 43.0892C32.9004 43.2454 33.1123 43.3332 33.3333 43.3332C33.5543 43.3332 33.7663 43.2454 33.9225 43.0892L44.7558 32.2558C44.9077 32.0987 44.9917 31.8882 44.9897 31.6697C44.9878 31.4512 44.9002 31.2422 44.7457 31.0877C44.5912 30.9332 44.3822 30.8455 44.1637 30.8436C43.9452 30.8417 43.7347 30.9257 43.5775 31.0775ZM44.1667 10C44.3877 10 44.5997 9.91217 44.7559 9.75592C44.9122 9.59967 45 9.38767 45 9.16667V8.33333C45 8.11233 44.9122 7.90033 44.7559 7.74408C44.5997 7.58783 44.3877 7.5 44.1667 7.5C43.9457 7.5 43.7337 7.58783 43.5774 7.74408C43.4212 7.90033 43.3333 8.11233 43.3333 8.33333V9.16667C43.3333 9.38767 43.4212 9.59967 43.5774 9.75592C43.7337 9.91217 43.9457 10 44.1667 10ZM45.8333 11.6667H46.6667C46.8877 11.6667 47.0997 11.5788 47.2559 11.4226C47.4122 11.2663 47.5 11.0543 47.5 10.8333C47.5 10.6123 47.4122 10.4003 47.2559 10.2441C47.0997 10.0878 46.8877 10 46.6667 10H45.8333C45.6123 10 45.4003 10.0878 45.2441 10.2441C45.0878 10.4003 45 10.6123 45 10.8333C45 11.0543 45.0878 11.2663 45.2441 11.4226C45.4003 11.5788 45.6123 11.6667 45.8333 11.6667ZM44.1667 11.6667C43.9457 11.6667 43.7337 11.7545 43.5774 11.9107C43.4212 12.067 43.3333 12.279 43.3333 12.5V13.3333C43.3333 13.5543 43.4212 13.7663 43.5774 13.9226C43.7337 14.0788 43.9457 14.1667 44.1667 14.1667C44.3877 14.1667 44.5997 14.0788 44.7559 13.9226C44.9122 13.7663 45 13.5543 45 13.3333V12.5C45 12.279 44.9122 12.067 44.7559 11.9107C44.5997 11.7545 44.3877 11.6667 44.1667 11.6667ZM41.6667 11.6667H42.5C42.721 11.6667 42.933 11.5788 43.0892 11.4226C43.2455 11.2663 43.3333 11.0543 43.3333 10.8333C43.3333 10.6123 43.2455 10.4003 43.0892 10.2441C42.933 10.0878 42.721 10 42.5 10H41.6667C41.4457 10 41.2337 10.0878 41.0774 10.2441C40.9212 10.4003 40.8333 10.6123 40.8333 10.8333C40.8333 11.0543 40.9212 11.2663 41.0774 11.4226C41.2337 11.5788 41.4457 11.6667 41.6667 11.6667ZM35.8333 2.5C36.0543 2.5 36.2663 2.41217 36.4226 2.25592C36.5788 2.09967 36.6667 1.88767 36.6667 1.66667V0.833333C36.6667 0.612333 36.5788 0.400333 36.4226 0.244083C36.2663 0.0878334 36.0543 0 35.8333 0C35.6123 0 35.4003 0.0878334 35.2441 0.244083C35.0878 0.400333 35 0.612333 35 0.833333V1.66667C35 1.88767 35.0878 2.09967 35.2441 2.25592C35.4003 2.41217 35.6123 2.5 35.8333 2.5ZM37.5 4.16667H38.3333C38.5543 4.16667 38.7663 4.07883 38.9226 3.92258C39.0788 3.76633 39.1667 3.55433 39.1667 3.33333C39.1667 3.11233 39.0788 2.90033 38.9226 2.74408C38.7663 2.58783 38.5543 2.5 38.3333 2.5H37.5C37.279 2.5 37.067 2.58783 36.9107 2.74408C36.7545 2.90033 36.6667 3.11233 36.6667 3.33333C36.6667 3.55433 36.7545 3.76633 36.9107 3.92258C37.067 4.07883 37.279 4.16667 37.5 4.16667ZM35.8333 4.16667C35.6123 4.16667 35.4003 4.2545 35.2441 4.41075C35.0878 4.567 35 4.779 35 5V5.83333C35 6.05433 35.0878 6.26633 35.2441 6.42258C35.4003 6.57883 35.6123 6.66667 35.8333 6.66667C36.0543 6.66667 36.2663 6.57883 36.4226 6.42258C36.5788 6.26633 36.6667 6.05433 36.6667 5.83333V5C36.6667 4.779 36.5788 4.567 36.4226 4.41075C36.2663 4.2545 36.0543 4.16667 35.8333 4.16667ZM33.3333 4.16667H34.1667C34.3877 4.16667 34.5997 4.07883 34.7559 3.92258C34.9122 3.76633 35 3.55433 35 3.33333C35 3.11233 34.9122 2.90033 34.7559 2.74408C34.5997 2.58783 34.3877 2.5 34.1667 2.5H33.3333C33.1123 2.5 32.9003 2.58783 32.7441 2.74408C32.5878 2.90033 32.5 3.11233 32.5 3.33333C32.5 3.55433 32.5878 3.76633 32.7441 3.92258C32.9003 4.07883 33.1123 4.16667 33.3333 4.16667ZM3.33333 5.83333C3.55433 5.83333 3.76633 5.7455 3.92258 5.58925C4.07883 5.433 4.16667 5.221 4.16667 5V4.16667C4.16667 3.94567 4.07883 3.73367 3.92258 3.57742C3.76633 3.42117 3.55433 3.33333 3.33333 3.33333C3.11233 3.33333 2.90033 3.42117 2.74408 3.57742C2.58783 3.73367 2.5 3.94567 2.5 4.16667V5C2.5 5.221 2.58783 5.433 2.74408 5.58925C2.90033 5.7455 3.11233 5.83333 3.33333 5.83333ZM5 7.5H5.83333C6.05433 7.5 6.26633 7.41217 6.42258 7.25592C6.57883 7.09967 6.66667 6.88767 6.66667 6.66667C6.66667 6.44567 6.57883 6.23367 6.42258 6.07742C6.26633 5.92117 6.05433 5.83333 5.83333 5.83333H5C4.779 5.83333 4.567 5.92117 4.41075 6.07742C4.2545 6.23367 4.16667 6.44567 4.16667 6.66667C4.16667 6.88767 4.2545 7.09967 4.41075 7.25592C4.567 7.41217 4.779 7.5 5 7.5ZM3.33333 7.5C3.11233 7.5 2.90033 7.58783 2.74408 7.74408C2.58783 7.90033 2.5 8.11233 2.5 8.33333V9.16667C2.5 9.38767 2.58783 9.59967 2.74408 9.75592C2.90033 9.91217 3.11233 10 3.33333 10C3.55433 10 3.76633 9.91217 3.92258 9.75592C4.07883 9.59967 4.16667 9.38767 4.16667 9.16667V8.33333C4.16667 8.11233 4.07883 7.90033 3.92258 7.74408C3.76633 7.58783 3.55433 7.5 3.33333 7.5ZM0.833333 7.5H1.66667C1.88767 7.5 2.09967 7.41217 2.25592 7.25592C2.41217 7.09967 2.5 6.88767 2.5 6.66667C2.5 6.44567 2.41217 6.23367 2.25592 6.07742C2.09967 5.92117 1.88767 5.83333 1.66667 5.83333H0.833333C0.612333 5.83333 0.400333 5.92117 0.244083 6.07742C0.0878334 6.23367 0 6.44567 0 6.66667C0 6.88767 0.0878334 7.09967 0.244083 7.25592C0.400333 7.41217 0.612333 7.5 0.833333 7.5ZM12.5 2.5C12.721 2.5 12.933 2.41217 13.0892 2.25592C13.2455 2.09967 13.3333 1.88767 13.3333 1.66667V0.833333C13.3333 0.612333 13.2455 0.400333 13.0892 0.244083C12.933 0.0878334 12.721 0 12.5 0C12.279 0 12.067 0.0878334 11.9107 0.244083C11.7545 0.400333 11.6667 0.612333 11.6667 0.833333V1.66667C11.6667 1.88767 11.7545 2.09967 11.9107 2.25592C12.067 2.41217 12.279 2.5 12.5 2.5ZM14.1667 4.16667H15C15.221 4.16667 15.433 4.07883 15.5892 3.92258C15.7455 3.76633 15.8333 3.55433 15.8333 3.33333C15.8333 3.11233 15.7455 2.90033 15.5892 2.74408C15.433 2.58783 15.221 2.5 15 2.5H14.1667C13.9457 2.5 13.7337 2.58783 13.5774 2.74408C13.4212 2.90033 13.3333 3.11233 13.3333 3.33333C13.3333 3.55433 13.4212 3.76633 13.5774 3.92258C13.7337 4.07883 13.9457 4.16667 14.1667 4.16667ZM12.5 4.16667C12.279 4.16667 12.067 4.2545 11.9107 4.41075C11.7545 4.567 11.6667 4.779 11.6667 5V5.83333C11.6667 6.05433 11.7545 6.26633 11.9107 6.42258C12.067 6.57883 12.279 6.66667 12.5 6.66667C12.721 6.66667 12.933 6.57883 13.0892 6.42258C13.2455 6.26633 13.3333 6.05433 13.3333 5.83333V5C13.3333 4.779 13.2455 4.567 13.0892 4.41075C12.933 4.2545 12.721 4.16667 12.5 4.16667ZM10 4.16667H10.8333C11.0543 4.16667 11.2663 4.07883 11.4226 3.92258C11.5788 3.76633 11.6667 3.55433 11.6667 3.33333C11.6667 3.11233 11.5788 2.90033 11.4226 2.74408C11.2663 2.58783 11.0543 2.5 10.8333 2.5H10C9.779 2.5 9.567 2.58783 9.41075 2.74408C9.2545 2.90033 9.16667 3.11233 9.16667 3.33333C9.16667 3.55433 9.2545 3.76633 9.41075 3.92258C9.567 4.07883 9.779 4.16667 10 4.16667Z" fill="#83CFE3"/>
</svg>
