<svg width="51" height="42" viewBox="0 0 51 42" fill="none" xmlns="http://www.w3.org/2000/svg">
<path d="M29.767 5.11439C30.0224 5.23289 30.3434 5.16047 30.4874 4.96172C30.6334 4.76047 30.548 4.5028 30.2959 4.38589L28.5754 3.58614C28.3244 3.47005 28.0013 3.53597 27.8552 3.73889C27.709 3.94014 27.7944 4.19781 28.0466 4.31464L29.767 5.11439Z" fill="#83CFE3" stroke="#83CFE3" stroke-width="0.833333"/>
<path d="M46.7507 20.6693C46.744 20.6662 46.7365 20.6645 46.7298 20.6614L43.4435 19.1303C43.0218 18.9339 42.5672 18.7984 42.0922 18.7079L42.0627 10.0947C42.0616 9.94443 41.9618 9.80568 41.7982 9.73043C41.794 9.72843 41.7888 9.72934 41.7846 9.72751L32.2914 5.31401C32.0403 5.19751 31.7173 5.26418 31.5712 5.46626C31.425 5.66751 31.5104 5.92559 31.7625 6.04251L40.4811 10.0958L33.3717 13.3796L15.7598 5.19168L22.869 1.90809L26.1854 3.44951C26.4344 3.56509 26.7586 3.49884 26.9058 3.29676C27.0518 3.09551 26.9664 2.83785 26.7143 2.72093L23.1345 1.05684C22.974 0.981178 22.7712 0.981177 22.6067 1.05609L1.2635 10.9141C1.07533 11.0013 1 11.1815 1 11.2788L1.00033 11.2796L1 11.2804L1.069 32.3647C1.069 32.5145 1.16883 32.6528 1.33133 32.7278L19.994 41.4037L19.9976 41.4045L19.9992 41.4058C20.0805 41.4433 20.171 41.4618 20.2616 41.4618C20.3521 41.4618 20.4437 41.4428 20.525 41.4053L29.7779 37.1292C29.917 37.211 30.0526 37.2963 30.2026 37.3664L33.52 38.9119C33.5221 38.9128 33.5242 38.9136 33.5242 38.9136L33.5267 38.9104C33.5337 38.9137 33.5397 38.9182 33.5467 38.9214C35.7019 39.9131 38.2899 39.4088 40.443 38.4143C45.5354 36.0617 49.6658 30.3323 49.6503 25.6418C49.6422 23.292 48.6121 21.5263 46.7507 20.6693ZM29.0748 16.3393L32.845 14.5975V17.6276L29.0748 19.3979V16.3393ZM28.5478 15.6078L10.9369 7.4201L14.7092 5.67784L32.3202 13.8653L28.5478 15.6078ZM27.4962 16.0934L20.1896 19.4683C13.8017 16.4986 9.30133 14.4063 2.5775 11.2804L9.88475 7.90534L27.4962 16.0934ZM2.12167 32.1207L2.05575 12.0127L19.6615 20.1974C19.7549 47.7807 19.7226 38.2341 19.7296 40.306L2.12167 32.1207ZM20.7162 20.2009L28.0212 16.8261V20.1343C28.0212 20.2853 28.122 20.4248 28.2866 20.5001C28.4432 20.5724 28.6459 20.5768 28.8145 20.4977L33.6383 18.2323C33.7999 18.1565 33.8987 18.0183 33.8987 17.8688V14.1107L41.011 10.8248L41.0377 18.5904C34.0522 18.381 26.2062 27.3844 27.4608 33.7393C27.7085 34.9879 28.3131 35.944 28.956 36.5354L20.7863 40.3113C20.7792 38.2418 20.8124 47.782 20.7162 20.2009ZM28.5147 33.7025C27.0262 26.8185 37.1932 17.1907 42.9126 19.8588L43.5464 20.1536C37.3162 20.6253 30.6241 27.9443 30.6399 33.9353C30.6465 35.162 30.9517 36.197 31.3663 36.933C29.7729 36.1563 28.9226 35.6044 28.5147 33.7025ZM39.9162 37.6842C37.6802 38.7173 35.6047 38.8963 34.0726 38.1908C32.2933 37.3719 31.7035 35.5919 31.6977 33.9337C31.6715 26.9153 41.0235 18.978 46.2352 21.4068L46.2358 21.406C47.7503 22.1088 48.5895 23.6133 48.5967 25.6443C48.6121 30.0652 44.7174 35.4665 39.9162 37.6842Z" fill="#83CFE3" stroke="#83CFE3" stroke-width="0.833333"/>
<path d="M42.2463 26.9696C41.4622 27.0021 40.6216 27.1886 39.6924 27.5372C39.6924 27.5208 39.6924 27.5038 39.6924 27.487L39.6862 26.2942C39.6862 25.5908 38.6751 25.6265 38.3311 26.109C36.0948 29.2037 35.5063 30.0115 34.6401 31.2234C34.3684 31.598 34.5176 31.9239 34.7862 32.0808C37.3529 33.2529 38.0877 33.5943 38.5142 33.7758C38.7722 33.9177 39.1245 33.9198 39.4444 33.6621C39.6193 33.5123 39.7109 33.323 39.7109 33.1127L39.7057 31.4293L39.7438 31.4132C40.4374 31.1222 41.0918 30.8473 41.736 30.6645C42.5941 30.4175 43.2424 30.4188 43.726 30.6793C44.0192 30.8283 44.259 31.0642 44.4731 31.295C44.6881 31.5013 45.0297 31.5469 45.3301 31.4098L45.4917 31.3123C45.6934 31.1604 45.7963 30.9674 45.7963 30.741C45.8015 29.8894 45.6605 29.1815 45.3662 28.5753C44.8177 27.4594 43.7507 26.9116 42.2463 26.9696ZM44.3032 29.9743C43.5336 29.5593 42.5776 29.5256 41.382 29.8709C40.6689 30.073 39.9496 30.3748 39.2541 30.6669L39.0451 30.7567C38.6788 30.9258 38.6501 31.1493 38.6511 31.365L38.6562 32.8768C38.4659 32.7916 38.2307 32.6843 35.6495 31.5099C36.5339 30.2722 37.8931 28.3993 38.6366 27.3705C38.6391 27.5657 38.6441 27.8077 38.6387 28.076C38.6407 28.3418 38.7982 28.4736 38.9299 28.5373C39.1192 28.6292 39.3384 28.6263 39.5895 28.523C40.6226 28.0772 41.5096 27.8443 42.3029 27.8113C43.3515 27.7723 44.0028 28.1064 44.3846 28.8823C44.5791 29.2819 44.6922 29.7454 44.756 30.264C44.6191 30.1583 44.4689 30.0582 44.3032 29.9743Z" fill="#83CFE3" stroke="#83CFE3" stroke-width="0.833333"/>
</svg>
