<svg width="50" height="50" viewBox="0 0 50 50" fill="none" xmlns="http://www.w3.org/2000/svg">
<mask id="mask0_1_359" style="mask-type:luminance" maskUnits="userSpaceOnUse" x="0" y="0" width="50" height="50">
<path d="M50 0H0V50H50V0Z" fill="white"/>
</mask>
<g mask="url(#mask0_1_359)">
<path d="M13.5417 39.5833H9.37504C9.09879 39.5833 8.83379 39.4735 8.63846 39.2782C8.44312 39.0828 8.33337 38.8178 8.33337 38.5416C8.33337 38.2653 8.44312 38.0003 8.63846 37.805C8.83379 37.6097 9.09879 37.4999 9.37504 37.4999H13.5417C13.818 37.4999 14.083 37.6097 14.2783 37.805C14.4736 38.0003 14.5834 38.2653 14.5834 38.5416C14.5834 38.8178 14.4736 39.0828 14.2783 39.2782C14.083 39.4735 13.818 39.5833 13.5417 39.5833ZM47.3959 39.5833H44.7917C44.5155 39.5833 44.2505 39.4735 44.0551 39.2782C43.8598 39.0828 43.75 38.8178 43.75 38.5416C43.75 38.2653 43.8598 38.0003 44.0551 37.805C44.2505 37.6097 44.5155 37.4999 44.7917 37.4999H46.5313L47.9355 30.0166C47.9167 26.1874 44.6459 22.9166 40.625 22.9166H33.7855L30.4709 37.4999H36.4584C36.7346 37.4999 36.9996 37.6097 37.195 37.805C37.3903 38.0003 37.5 38.2653 37.5 38.5416C37.5 38.8178 37.3903 39.0828 37.195 39.2782C36.9996 39.4735 36.7346 39.5833 36.4584 39.5833H29.1667C29.0104 39.5833 28.856 39.5483 28.7152 39.4806C28.5743 39.4129 28.4505 39.3143 28.3528 39.1923C28.2551 39.0703 28.1862 38.9278 28.1511 38.7755C28.116 38.6232 28.1156 38.4649 28.15 38.3124L31.9375 21.6458C31.9895 21.415 32.1186 21.2088 32.3034 21.0612C32.4881 20.9135 32.7177 20.8332 32.9542 20.8333H40.625C45.7938 20.8333 50 25.0395 50 30.2083L48.4188 38.7333C48.3745 38.9722 48.2479 39.1879 48.061 39.3433C47.8742 39.4985 47.6389 39.5834 47.3959 39.5833Z" fill="#83CFE3"/>
<path d="M40.625 43.75C37.7542 43.75 35.4167 41.4146 35.4167 38.5417C35.4167 35.6687 37.7542 33.3333 40.625 33.3333C43.4958 33.3333 45.8333 35.6687 45.8333 38.5417C45.8333 41.4146 43.4958 43.75 40.625 43.75ZM40.625 35.4167C38.9021 35.4167 37.5 36.8188 37.5 38.5417C37.5 40.2646 38.9021 41.6667 40.625 41.6667C42.3479 41.6667 43.75 40.2646 43.75 38.5417C43.75 36.8188 42.3479 35.4167 40.625 35.4167ZM17.7083 43.75C14.8375 43.75 12.5 41.4146 12.5 38.5417C12.5 35.6687 14.8375 33.3333 17.7083 33.3333C20.5792 33.3333 22.9167 35.6687 22.9167 38.5417C22.9167 41.4146 20.5792 43.75 17.7083 43.75ZM17.7083 35.4167C15.9854 35.4167 14.5833 36.8188 14.5833 38.5417C14.5833 40.2646 15.9854 41.6667 17.7083 41.6667C19.4312 41.6667 20.8333 40.2646 20.8333 38.5417C20.8333 36.8188 19.4312 35.4167 17.7083 35.4167ZM13.5417 20.8333H5.20833C4.93208 20.8333 4.66708 20.7236 4.47175 20.5282C4.27642 20.3329 4.16667 20.0679 4.16667 19.7917C4.16667 19.5154 4.27642 19.2504 4.47175 19.0551C4.66708 18.8598 4.93208 18.75 5.20833 18.75H13.5417C13.8179 18.75 14.0829 18.8598 14.2782 19.0551C14.4736 19.2504 14.5833 19.5154 14.5833 19.7917C14.5833 20.0679 14.4736 20.3329 14.2782 20.5282C14.0829 20.7236 13.8179 20.8333 13.5417 20.8333ZM13.5417 27.0833H3.125C2.84875 27.0833 2.58375 26.9736 2.38842 26.7782C2.19308 26.5829 2.08333 26.3179 2.08333 26.0417C2.08333 25.7654 2.19308 25.5004 2.38842 25.3051C2.58375 25.1098 2.84875 25 3.125 25H13.5417C13.8179 25 14.0829 25.1098 14.2782 25.3051C14.4736 25.5004 14.5833 25.7654 14.5833 26.0417C14.5833 26.3179 14.4736 26.5829 14.2782 26.7782C14.0829 26.9736 13.8179 27.0833 13.5417 27.0833ZM13.5417 33.3333H1.04167C0.765417 33.3333 0.500417 33.2236 0.305084 33.0283C0.10975 32.8329 0 32.5679 0 32.2917C0 32.0154 0.10975 31.7504 0.305084 31.5551C0.500417 31.3597 0.765417 31.25 1.04167 31.25H13.5417C13.8179 31.25 14.0829 31.3597 14.2782 31.5551C14.4736 31.7504 14.5833 32.0154 14.5833 32.2917C14.5833 32.5679 14.4736 32.8329 14.2782 33.0283C14.0829 33.2236 13.8179 33.3333 13.5417 33.3333Z" fill="#83CFE3"/>
<path d="M29.1667 39.5833H21.875C21.5988 39.5833 21.3338 39.4735 21.1385 39.2782C20.9431 39.0828 20.8334 38.8178 20.8334 38.5416C20.8334 38.2653 20.9431 38.0003 21.1385 37.805C21.3338 37.6097 21.5988 37.4999 21.875 37.4999H28.3355L33.0688 16.6666H9.37504C9.09879 16.6666 8.83379 16.5568 8.63846 16.3615C8.44312 16.1662 8.33337 15.9012 8.33337 15.6249C8.33337 15.3487 8.44312 15.0837 8.63846 14.8883C8.83379 14.693 9.09879 14.5833 9.37504 14.5833H34.375C34.5314 14.5832 34.6857 14.6183 34.8265 14.6859C34.9675 14.7536 35.0913 14.8522 35.189 14.9742C35.2866 15.0963 35.3555 15.2388 35.3906 15.391C35.4257 15.5433 35.4261 15.7016 35.3917 15.8541L30.1834 38.7708C30.1314 39.0015 30.0023 39.2077 29.8175 39.3553C29.6328 39.503 29.4032 39.5833 29.1667 39.5833Z" fill="#83CFE3"/>
</g>
</svg>
