<svg width="39" height="47" viewBox="0 0 39 47" fill="none" xmlns="http://www.w3.org/2000/svg">
<path d="M11.8021 41.8812C11.7948 41.8777 11.7876 41.8744 11.7802 41.8712C9.56858 40.9162 7.37708 39.9642 5.56125 38.7173C3.7565 37.4781 2.37208 35.9798 1.728 33.9556L1.72692 33.9522C0.661416 30.6669 2.05092 27.8965 3.4285 25.1498C3.48208 25.043 3.53567 24.9362 3.58908 24.8293C3.60583 24.7972 3.62267 24.765 3.63942 24.7328C4.80225 22.5047 5.97608 20.2557 5.65258 17.6676C5.65158 17.6591 5.65033 17.6507 5.64892 17.6423C5.47867 16.6207 4.77342 15.1569 4.00308 13.7778C3.21667 12.3698 2.306 10.9534 1.64825 9.99217C1.63817 9.97742 1.6275 9.96308 1.61617 9.94925L1 9.19625L4.51767 3.568L5.57142 3.849L5.57333 3.8495C7.52442 4.36292 9.27792 4.57008 10.9324 4.57008C13.9574 4.57008 16.3216 3.73067 18.1598 2.00108L18.1607 2.00017L19.2324 1L20.3041 2.00017L20.3052 2.00125C22.1433 3.73075 24.5075 4.57008 27.5324 4.57008C29.187 4.57008 30.9404 4.36292 32.8915 3.8495L32.8935 3.849L33.9472 3.568L37.4753 9.21292L36.8324 10.0701L36.8293 10.0743C36.1173 11.0406 35.1777 12.437 34.388 13.8382C33.6172 15.2057 32.9293 16.6792 32.8118 17.7717C32.4855 20.2955 33.6969 22.6697 34.8758 24.9293C34.9292 25.0362 34.9827 25.143 35.0363 25.2498C36.4139 27.9965 37.8034 30.7669 36.7379 34.0522L36.7368 34.0556C36.0928 36.0797 34.7083 37.5781 32.9037 38.8173C31.0878 40.0643 28.8963 41.0162 26.6847 41.9712L26.6832 41.9719C24.4045 42.9627 21.9311 44.09 20.2537 45.4476L19.2502 46.1643L18.2224 45.3567C16.8427 44.2369 14.9007 43.3312 13.0067 42.4478C12.601 42.2585 12.1974 42.0703 11.8021 41.8812Z" stroke="#83CFE3" stroke-width="1.25" stroke-miterlimit="10" stroke-linecap="round" stroke-linejoin="round"/>
<path d="M3.96082 9.64967C3.81299 9.43667 3.68499 9.25634 3.58382 9.11543L5.52499 5.96093C11.4562 7.37518 16.0163 6.60068 19.2315 3.88159C22.4414 6.60259 26.9216 7.37601 32.943 5.95826L34.8785 9.02284C34.7772 9.16626 34.6487 9.35017 34.5002 9.56726C34.1236 10.1178 33.6167 10.8844 33.0965 11.7473C32.577 12.6089 32.0393 13.5744 31.6043 14.5218C31.1741 15.4588 30.8255 16.4177 30.7127 17.2586C30.2485 20.4653 31.6599 23.1869 32.9172 25.6113C32.9665 25.7063 33.0155 25.8007 33.0641 25.8947C34.3952 28.4681 35.4447 30.6847 34.6377 33.1507L34.6348 33.1598C33.8243 35.7714 31.2774 37.399 28.0916 38.8916C27.3065 39.2594 26.4969 39.6132 25.6787 39.9706L25.6728 39.9732C24.8593 40.3286 24.0374 40.6877 23.2385 41.0619C21.8038 41.7339 20.4132 42.4684 19.2317 43.3528C18.0502 42.4683 16.6594 41.734 15.2245 41.0633C14.4234 40.6888 13.5993 40.33 12.7836 39.9754L12.7312 39.9526C11.9307 39.6046 11.1387 39.2603 10.37 38.9033C7.18124 37.4218 4.63765 35.8187 3.82823 33.2587C3.06515 30.7869 4.12024 28.5398 5.43848 25.9539C5.4849 25.8629 5.53165 25.7715 5.57857 25.6797C6.82382 23.2428 8.21507 20.5203 7.75082 17.3593C7.63823 16.4943 7.2904 15.5238 6.85957 14.5807C6.42407 13.6274 5.8859 12.6642 5.3659 11.8081C4.84515 10.9508 4.33774 10.1929 3.96082 9.64967Z" stroke="#83CFE3" stroke-width="1.25" stroke-miterlimit="10" stroke-linecap="round" stroke-linejoin="round"/>
<path d="M12.7566 26.4619C13.4176 26.4619 13.9738 26.6252 14.4249 26.9519C14.8838 27.2786 15.226 27.7375 15.4516 28.3286C15.6849 28.9197 15.8016 29.6158 15.8016 30.4169C15.8016 31.3036 15.681 32.0425 15.4399 32.6336C15.1988 33.2169 14.8526 33.6563 14.4016 33.9519C13.9505 34.2475 13.406 34.3952 12.7682 34.3952C12.1149 34.3952 11.5549 34.2513 11.0882 33.9636C10.6216 33.6758 10.2716 33.2442 10.0382 32.6686L11.2166 32.1203C11.3255 32.4858 11.5043 32.7775 11.7532 32.9952C12.0099 33.213 12.356 33.3219 12.7916 33.3219C13.1493 33.3219 13.4488 33.2519 13.6899 33.1119C13.931 32.9719 14.1216 32.7697 14.2616 32.5052C14.4093 32.2408 14.5143 31.9219 14.5766 31.5486C14.6388 31.1752 14.6699 30.7552 14.6699 30.2886C14.6699 30.2652 14.6699 30.2458 14.6699 30.2302C14.6699 30.2069 14.6699 30.1836 14.6699 30.1602H14.6232C14.5376 30.4713 14.3821 30.7242 14.1566 30.9186C13.9388 31.113 13.6899 31.2569 13.4099 31.3502C13.1299 31.4358 12.8499 31.4786 12.5699 31.4786C12.0721 31.4786 11.6288 31.3813 11.2399 31.1869C10.8588 30.9847 10.5593 30.7047 10.3416 30.3469C10.1238 29.9892 10.0149 29.5652 10.0149 29.0752C10.0149 28.5386 10.1238 28.0758 10.3416 27.6869C10.5671 27.298 10.8821 26.9986 11.2866 26.7886C11.6988 26.5708 12.1888 26.4619 12.7566 26.4619ZM12.7682 27.5586C12.2782 27.5586 11.901 27.6908 11.6366 27.9553C11.3799 28.2197 11.2516 28.5892 11.2516 29.0636C11.2516 29.4836 11.3876 29.8142 11.6599 30.0552C11.9399 30.2886 12.3093 30.4052 12.7682 30.4052C13.0638 30.4052 13.3243 30.3469 13.5499 30.2302C13.7755 30.1058 13.9505 29.9386 14.0749 29.7286C14.2071 29.5186 14.2732 29.2736 14.2732 28.9936C14.2732 28.698 14.2071 28.4452 14.0749 28.2352C13.9505 28.0175 13.7755 27.8503 13.5499 27.7336C13.3243 27.6169 13.0638 27.5586 12.7682 27.5586ZM18.8721 34.2786V28.9936C18.8721 28.838 18.8721 28.6786 18.8721 28.5152C18.8798 28.3442 18.8876 28.1653 18.8954 27.9786C18.631 28.2353 18.3276 28.4569 17.9854 28.6436C17.651 28.8225 17.3048 28.9508 16.9471 29.0286L16.7137 27.9436C16.8771 27.9203 17.0676 27.8658 17.2854 27.7803C17.5031 27.6947 17.7287 27.5858 17.9621 27.4536C18.1954 27.3213 18.4093 27.1813 18.6037 27.0336C18.7981 26.878 18.9498 26.7263 19.0587 26.5786H20.1087V34.2786H18.8721ZM25.0361 26.4619C25.4483 26.4619 25.8139 26.5202 26.1327 26.6369C26.4516 26.7458 26.7277 26.9208 26.9611 27.1619C27.2022 27.403 27.4006 27.718 27.5561 28.1069L26.4594 28.6319C26.3506 28.2975 26.1756 28.033 25.9344 27.8386C25.7011 27.6442 25.3744 27.5469 24.9544 27.5469C24.6511 27.5469 24.3827 27.6208 24.1494 27.7686C23.9161 27.9163 23.7177 28.1263 23.5544 28.3986C23.3911 28.663 23.2666 28.978 23.1811 29.3436C23.0956 29.7013 23.0527 30.0902 23.0527 30.5102C23.0527 30.5336 23.0527 30.5608 23.0527 30.5919C23.0527 30.6152 23.0527 30.658 23.0527 30.7203L23.0994 30.7436C23.185 30.4325 23.3366 30.1836 23.5544 29.9969C23.78 29.8025 24.0327 29.6586 24.3127 29.5652C24.5927 29.4719 24.8689 29.4253 25.1411 29.4253C25.6544 29.4253 26.1016 29.5263 26.4827 29.7286C26.8639 29.923 27.1594 30.203 27.3694 30.5686C27.5872 30.9342 27.6961 31.3697 27.6961 31.8752C27.6961 32.3886 27.5833 32.8358 27.3577 33.2169C27.1322 33.5902 26.8172 33.8819 26.4127 34.0919C26.0161 34.2942 25.5377 34.3952 24.9777 34.3952C24.3244 34.3952 23.7683 34.2319 23.3094 33.9052C22.8506 33.5786 22.5006 33.1197 22.2594 32.5286C22.0183 31.9375 21.8977 31.2452 21.8977 30.4519C21.8977 29.573 22.0339 28.838 22.3061 28.2469C22.5861 27.6558 22.9633 27.2125 23.4377 26.9169C23.9122 26.6136 24.445 26.4619 25.0361 26.4619ZM24.9544 30.4636C24.6589 30.4636 24.3983 30.5258 24.1727 30.6503C23.9472 30.7669 23.7683 30.9302 23.6361 31.1402C23.5116 31.3502 23.4494 31.5952 23.4494 31.8752C23.4494 32.1475 23.5156 32.3925 23.6477 32.6102C23.7877 32.828 23.9706 33.003 24.1961 33.1352C24.4216 33.2597 24.6744 33.3219 24.9544 33.3219C25.4289 33.3219 25.7983 33.1936 26.0627 32.9369C26.3272 32.6802 26.4594 32.3263 26.4594 31.8752C26.4594 31.5875 26.4011 31.3386 26.2844 31.1286C26.1677 30.9108 25.9966 30.7475 25.7711 30.6386C25.5533 30.5219 25.2811 30.4636 24.9544 30.4636Z" fill="#83CFE3"/>
<path d="M10.5889 20.9451V13.2451H13.6222C14.5477 13.2451 15.2244 13.4318 15.6522 13.8051C16.08 14.1784 16.2939 14.6957 16.2939 15.3568C16.2939 15.7612 16.1772 16.1228 15.9439 16.4418C15.7105 16.7528 15.3683 16.9512 14.9172 17.0368V17.0484C15.415 17.1262 15.8 17.3323 16.0722 17.6668C16.3522 17.9934 16.4922 18.3745 16.4922 18.8101C16.4922 19.4712 16.2511 19.9923 15.7689 20.3734C15.2866 20.7545 14.5866 20.9451 13.6689 20.9451H10.5889ZM11.8139 19.9068H13.7272C14.2172 19.9068 14.5827 19.8057 14.8239 19.6034C15.0727 19.4012 15.1972 19.1173 15.1972 18.7518C15.1972 18.3862 15.0727 18.1023 14.8239 17.9001C14.5827 17.6978 14.2172 17.5968 13.7272 17.5968H11.8139V19.9068ZM11.8139 16.5584H13.5289C14.5089 16.5584 14.9989 16.1812 14.9989 15.4268C14.9989 14.6723 14.5089 14.2951 13.5289 14.2951H11.8139V16.5584ZM19.5618 13.2451V20.9451H18.3135V13.2451H19.5618ZM24.4704 13.1284C25.1626 13.1284 25.7614 13.2607 26.267 13.5251C26.7726 13.7818 27.2004 14.1628 27.5504 14.6684L26.7104 15.4734C26.4148 15.0223 26.0804 14.6995 25.707 14.5051C25.3414 14.3028 24.9059 14.2018 24.4004 14.2018C24.027 14.2018 23.7198 14.2523 23.4787 14.3534C23.2376 14.4545 23.0587 14.5907 22.942 14.7618C22.8331 14.9251 22.7787 15.1118 22.7787 15.3218C22.7787 15.5628 22.8604 15.7728 23.0237 15.9518C23.1948 16.1307 23.5098 16.2707 23.9687 16.3718L25.532 16.7218C26.2787 16.8851 26.8076 17.134 27.1187 17.4684C27.4298 17.8028 27.5854 18.2268 27.5854 18.7401C27.5854 19.2145 27.457 19.6268 27.2004 19.9768C26.9437 20.3268 26.5859 20.5951 26.127 20.7818C25.6759 20.9684 25.1431 21.0618 24.5287 21.0618C23.9843 21.0618 23.4943 20.9918 23.0587 20.8518C22.6231 20.7118 22.242 20.5212 21.9154 20.2801C21.5887 20.039 21.3204 19.7628 21.1104 19.4518L21.9737 18.5884C22.137 18.8607 22.3431 19.1057 22.592 19.3234C22.841 19.5334 23.1287 19.6968 23.4554 19.8134C23.7898 19.9301 24.1593 19.9884 24.5637 19.9884C24.9214 19.9884 25.2287 19.9457 25.4854 19.8601C25.7498 19.7745 25.9481 19.6501 26.0804 19.4868C26.2204 19.3157 26.2904 19.1134 26.2904 18.8801C26.2904 18.6545 26.2126 18.4562 26.057 18.2851C25.9093 18.114 25.6293 17.9818 25.217 17.8884L23.5254 17.5034C23.0587 17.4023 22.6737 17.2584 22.3704 17.0718C22.067 16.8851 21.8415 16.6595 21.6937 16.3951C21.546 16.1228 21.472 15.8195 21.472 15.4851C21.472 15.0495 21.5887 14.6568 21.822 14.3068C22.0631 13.949 22.4093 13.6651 22.8604 13.4551C23.3115 13.2373 23.8481 13.1284 24.4704 13.1284Z" fill="#83CFE3"/>
</svg>
