<svg width="82" height="82" viewBox="0 0 82 82" fill="none" xmlns="http://www.w3.org/2000/svg">
<path fill-rule="evenodd" clip-rule="evenodd" d="M0 41C0 18.3563 18.3563 0 41 0C63.6437 0 82 18.3563 82 41C82 63.6437 63.6437 82 41 82C18.3563 82 0 63.6437 0 41ZM32.8 24.6C35.0644 24.6 36.9 26.4356 36.9 28.7V53.3C36.9 55.5644 35.0644 57.4 32.8 57.4C30.5356 57.4 28.7 55.5644 28.7 53.3V28.7C28.7 26.4356 30.5356 24.6 32.8 24.6ZM53.3 28.7C53.3 26.4356 51.4644 24.6 49.2 24.6C46.9356 24.6 45.1 26.4356 45.1 28.7V53.3C45.1 55.5644 46.9356 57.4 49.2 57.4C51.4644 57.4 53.3 55.5644 53.3 53.3V28.7Z" fill="white"/>
</svg>
