<svg width="82" height="82" viewBox="0 0 82 82" fill="none" xmlns="http://www.w3.org/2000/svg">
<path fill-rule="evenodd" clip-rule="evenodd" d="M41 0C18.3563 0 0 18.3563 0 41C0 63.6437 18.3563 82 41 82C63.6437 82 82 63.6437 82 41C82 18.3563 63.6437 0 41 0ZM35.3335 23.3579C32.3322 22.0781 28.9509 24.0222 28.5544 27.2665C28.3005 29.3445 27.8234 34.1009 27.8234 40.5316C27.8234 46.9659 28.301 51.724 28.5548 53.8002C28.9502 57.0333 32.3191 58.9887 35.3265 57.7103C37.2418 56.8961 41.5614 54.9453 47.1791 51.702C52.7949 48.4597 56.6435 45.6949 58.3071 44.4427C60.9223 42.4743 60.9066 38.5749 58.3021 36.619C56.6263 35.3605 52.7309 32.5624 47.181 29.3581C41.6322 26.1546 37.2619 24.1803 35.3335 23.3579Z" fill="white"/>
</svg>
