<svg width="16" height="15" viewBox="0 0 16 15" fill="none" xmlns="http://www.w3.org/2000/svg">
<g opacity="0.3" clip-path="url(#clip0_450_479)">
<path fill-rule="evenodd" clip-rule="evenodd" d="M15.9298 2.46585C13.5439 3.6806 12.351 5.10792 12.351 6.74784C13.3679 6.86932 14.2088 7.29954 14.8738 8.03852C15.5387 8.77749 15.8712 9.63287 15.8712 10.6047C15.8712 11.6372 15.5485 12.5078 14.9031 13.2164C14.2577 13.925 13.4461 14.2793 12.4683 14.2793C11.3731 14.2793 10.4246 13.8187 9.62279 12.8975C8.82096 11.9763 8.42005 10.8578 8.42005 9.54177C8.42005 5.59381 10.5517 2.50635 14.8151 0.279297L15.9298 2.46585ZM7.50978 2.46585C5.10429 3.6806 3.90156 5.10792 3.90156 6.74784C4.93808 6.86932 5.78878 7.29954 6.45372 8.03852C7.11865 8.77749 7.45111 9.63287 7.45111 10.6047C7.45111 11.6372 7.12354 12.5078 6.46838 13.2164C5.81323 13.925 4.99675 14.2793 4.0189 14.2793C2.92372 14.2793 1.98012 13.8187 1.18807 12.8975C0.39602 11.9763 0 10.8578 0 9.54177C0 5.59381 2.12188 2.50635 6.36571 0.279297L7.50978 2.46585Z" fill="#2EC5CE"/>
</g>
<defs>
<clipPath id="clip0_450_479">
<rect width="16" height="14" fill="white" transform="translate(0 0.279297)"/>
</clipPath>
</defs>
</svg>
