<svg width="23" height="22" viewBox="0 0 23 22" fill="none" xmlns="http://www.w3.org/2000/svg">
<path d="M22.2462 19.702C20.8247 17.2072 18.6051 15.2633 15.9447 14.1832C17.2677 13.1909 18.245 11.8075 18.7381 10.229C19.2312 8.65041 19.2151 6.95672 18.6921 5.38781C18.1692 3.8189 17.1658 2.45431 15.8242 1.48733C14.4826 0.520344 12.8707 0 11.2169 0C9.56316 0 7.9513 0.520344 6.60968 1.48733C5.26807 2.45431 4.26471 3.8189 3.74174 5.38781C3.21877 6.95672 3.2027 8.65041 3.6958 10.229C4.18891 11.8075 5.16619 13.1909 6.48921 14.1832C3.82874 15.2633 1.60912 17.2072 0.187647 19.702C0.0995671 19.8436 0.0408624 20.0015 0.0150226 20.1663C-0.0108171 20.331 -0.00326451 20.4993 0.0372316 20.6611C0.0777277 20.8229 0.150341 20.9749 0.250753 21.1081C0.351166 21.2412 0.477329 21.3528 0.621741 21.4363C0.766154 21.5197 0.925867 21.5733 1.09139 21.5937C1.25691 21.6142 1.42486 21.6012 1.58525 21.5555C1.74564 21.5097 1.8952 21.4322 2.02504 21.3276C2.15488 21.2229 2.26234 21.0932 2.34104 20.9461C4.21969 17.6989 7.53739 15.7622 11.2169 15.7622C14.8965 15.7622 18.2142 17.6999 20.0928 20.9461C20.2634 21.2204 20.5339 21.4176 20.8472 21.496C21.1605 21.5744 21.4921 21.5279 21.7717 21.3663C22.0514 21.2048 22.2572 20.9408 22.3458 20.6302C22.4343 20.3196 22.3986 19.9867 22.2462 19.702ZM5.82567 7.88265C5.82567 6.81636 6.14186 5.77402 6.73426 4.88743C7.32666 4.00084 8.16866 3.30983 9.15379 2.90177C10.1389 2.49372 11.2229 2.38696 12.2687 2.59498C13.3145 2.803 14.2752 3.31647 15.0291 4.07045C15.7831 4.82443 16.2966 5.78507 16.5046 6.83087C16.7126 7.87667 16.6059 8.96068 16.1978 9.9458C15.7898 10.9309 15.0987 11.7729 14.2122 12.3653C13.3256 12.9577 12.2832 13.2739 11.2169 13.2739C9.78759 13.2723 8.41725 12.7037 7.40655 11.693C6.39585 10.6823 5.82731 9.312 5.82567 7.88265Z" fill="#656565"/>
</svg>
