<svg width="400" height="302" viewBox="0 0 400 302" fill="none" xmlns="http://www.w3.org/2000/svg">
<path d="M0 301.38C66.5976 201.388 133.205 101.396 200.556 0.279297C215.978 23.0545 231.309 45.2571 245.906 67.9318C247.413 70.2626 245.615 76.0895 243.595 79.1335C196.598 150.242 149.4 221.23 102.031 292.097C99.5298 295.835 95.1696 298.316 91.6634 301.38C61.1123 301.38 30.5511 301.38 0 301.38Z" fill="#83CFE3"/>
<path d="M308.212 301.38C307.348 298.216 305.761 295.041 305.741 291.877C305.57 249.049 305.63 206.221 307.941 162.137C338.583 208.552 369.224 254.966 399.876 301.38C369.325 301.38 338.774 301.38 308.212 301.38Z" fill="#83CFE3"/>
</svg>
