<svg width="21" height="23" viewBox="0 0 21 23" fill="none" xmlns="http://www.w3.org/2000/svg">
<g id="Vector">
<mask id="path-1-outside-1_768_515" maskUnits="userSpaceOnUse" x="0" y="0" width="21" height="23" fill="black">
<rect fill="white" width="21" height="23"/>
<path d="M4.36174 18H16.6383C18.5809 18 19.6898 16.1609 18.5242 14.8721C18.0082 14.3016 17.6902 13.6249 17.6046 12.9153L17.1295 8.97519C16.8733 6.85063 15.1881 5.10719 12.9118 4.37366V4.26995C12.9118 3.01629 11.832 2 10.5 2C9.16799 2 8.08818 3.01629 8.08818 4.26995V4.37366C5.81189 5.10719 4.12669 6.85063 3.87049 8.97519L3.39536 12.9153C3.30978 13.6249 2.99178 14.3016 2.47577 14.8721C1.31018 16.1609 2.41909 18 4.36174 18Z"/>
</mask>
<path d="M14.6166 20.3699C14.8209 19.8568 14.5705 19.2753 14.0574 19.0709C13.5443 18.8666 12.9628 19.117 12.7584 19.6301L14.6166 20.3699ZM8.24155 19.6301C8.03724 19.117 7.45565 18.8666 6.94255 19.0709C6.42945 19.2753 6.17913 19.8568 6.38345 20.3699L8.24155 19.6301ZM12.7584 19.6301C12.4621 20.3743 11.6075 21 10.5 21V23C12.3356 23 13.985 21.9561 14.6166 20.3699L12.7584 19.6301ZM10.5 21C9.39245 21 8.53791 20.3743 8.24155 19.6301L6.38345 20.3699C7.01504 21.9561 8.66436 23 10.5 23V21ZM17.1295 8.97519L15.1439 9.21463V9.21463L17.1295 8.97519ZM17.6046 12.9153L19.5903 12.6758L17.6046 12.9153ZM3.39536 12.9153L1.40974 12.6758H1.40974L3.39536 12.9153ZM3.87049 8.97519L5.85611 9.21463L3.87049 8.97519ZM2.47577 14.8721L0.992457 13.5306H0.992457L2.47577 14.8721ZM18.5242 14.8721L17.0409 16.2137L17.0409 16.2137L18.5242 14.8721ZM12.9118 4.37366H10.9118C10.9118 5.2419 11.472 6.01096 12.2984 6.27726L12.9118 4.37366ZM8.08818 4.37366L8.70161 6.27726C9.528 6.01096 10.0882 5.2419 10.0882 4.37366H8.08818ZM16.6383 16H4.36174V20H16.6383V16ZM15.1439 9.21463L15.619 13.1547L19.5903 12.6758L19.1151 8.73574L15.1439 9.21463ZM5.38097 13.1547L5.85611 9.21463L1.88488 8.73574L1.40974 12.6758L5.38097 13.1547ZM3.95909 16.2137C4.73012 15.3612 5.24206 14.3066 5.38097 13.1547L1.40974 12.6758C1.3775 12.9432 1.25344 13.242 0.992457 13.5306L3.95909 16.2137ZM15.619 13.1547C15.7579 14.3066 16.2699 15.3612 17.0409 16.2137L20.0075 13.5306C19.7466 13.242 19.6225 12.9432 19.5903 12.6758L15.619 13.1547ZM4.36174 16C4.02362 16 3.94465 15.8514 3.96591 15.8866C3.97702 15.9051 4.00702 15.9704 3.99857 16.0713C3.98926 16.1826 3.94234 16.2322 3.95909 16.2137L0.992457 13.5306C-0.210399 14.8605 -0.267218 16.6126 0.540414 17.9521C1.3104 19.2291 2.7572 20 4.36174 20V16ZM16.6383 20C18.2428 20 19.6896 19.2291 20.4596 17.9521C21.2672 16.6126 21.2104 14.8605 20.0075 13.5306L17.0409 16.2137C17.0577 16.2322 17.0107 16.1826 17.0014 16.0713C16.993 15.9704 17.023 15.9051 17.0341 15.8866C17.0554 15.8514 16.9764 16 16.6383 16V20ZM14.9118 4.37366V4.26995H10.9118V4.37366H14.9118ZM19.1151 8.73574C18.7439 5.65716 16.356 3.38227 13.5252 2.47006L12.2984 6.27726C14.0202 6.83212 15.0027 8.0441 15.1439 9.21463L19.1151 8.73574ZM10.0882 4.37366V4.26995H6.08818V4.37366H10.0882ZM5.85611 9.21463C5.99726 8.04411 6.97979 6.83212 8.70161 6.27726L7.47475 2.47006C4.64399 3.38227 2.25613 5.65716 1.88488 8.73574L5.85611 9.21463ZM10.5 4C10.6528 4 10.7665 4.05708 10.8347 4.12125C10.9008 4.18345 10.9118 4.23602 10.9118 4.26995H14.9118C14.9118 1.79922 12.8206 0 10.5 0V4ZM10.5 0C8.17938 0 6.08818 1.79922 6.08818 4.26995H10.0882C10.0882 4.23602 10.0992 4.18345 10.1653 4.12125C10.2335 4.05708 10.3472 4 10.5 4V0Z" fill="#383838" mask="url(#path-1-outside-1_768_515)"/>
</g>
</svg>
