<svg width="39" height="39" viewBox="0 0 39 39" fill="none" xmlns="http://www.w3.org/2000/svg">
<g id="Group 1000002199">
<circle id="Ellipse 87" cx="19.9915" cy="19.5813" r="18.5085" fill="url(#paint0_linear_794_263)" stroke="#258FBB"/>
<g id="camera_2_fill">
<path d="M17.1403 20.0562C17.1403 18.4814 18.4169 17.2049 19.9916 17.2049C21.5663 17.2049 22.8429 18.4814 22.8429 20.0562C22.8429 21.6309 21.5663 22.9074 19.9916 22.9074C18.4169 22.9074 17.1403 21.6309 17.1403 20.0562Z" fill="white"/>
<path fill-rule="evenodd" clip-rule="evenodd" d="M17.3371 11.0271C16.959 11.0271 16.5964 11.1773 16.3291 11.4447L14.8458 12.928H12.3882C11.3383 12.928 10.4873 13.779 10.4873 14.8288V26.2339C10.4873 27.2838 11.3383 28.1348 12.3882 28.1348H27.595C28.6448 28.1348 29.4959 27.2837 29.4959 26.2339V14.8288C29.4959 13.779 28.6448 12.928 27.595 12.928H25.1374L23.6541 11.4447C23.3867 11.1773 23.0241 11.0271 22.646 11.0271H17.3371ZM19.9916 15.304C17.367 15.304 15.2394 17.4316 15.2394 20.0562C15.2394 22.6807 17.367 24.8083 19.9916 24.8083C22.6161 24.8083 24.7437 22.6807 24.7437 20.0562C24.7437 17.4316 22.6161 15.304 19.9916 15.304Z" fill="white"/>
</g>
</g>
<defs>
<linearGradient id="paint0_linear_794_263" x1="19.9915" y1="-13.767" x2="19.9915" y2="67.2694" gradientUnits="userSpaceOnUse">
<stop offset="0.323912" stop-color="#1EA8E0"/>
<stop offset="1" stop-color="#273D94"/>
</linearGradient>
</defs>
</svg>
