<svg width="20" height="20" viewBox="0 0 20 20" fill="none" xmlns="http://www.w3.org/2000/svg">
<g id="Union">
<path d="M9.5 20C5.93825 20 3.04561 17.1352 3.00053 13.5842C1.23434 12.8128 0 11.0505 0 9C0 6.23858 2.23858 4 5 4H7V5.99995C6.23145 5.99996 5.46294 6.29345 4.87701 6.8803C3.70636 8.05279 3.70785 9.95229 4.88035 11.1229L7.70371 13.9419C8.9725 15.2087 11.0275 15.2087 12.2963 13.9419L15.1197 11.1229C16.2921 9.95229 16.2936 8.05279 15.123 6.8803C14.5371 6.29345 13.7686 5.99996 13 5.99995V4H14C17.3137 4 20 6.68629 20 10C20 12.7648 18.13 15.0928 15.5858 15.7882C14.6601 18.2491 12.2845 20 9.5 20Z" fill="#81878D"/>
<path d="M13.7077 8.2934C14.0979 8.68423 14.0974 9.3174 13.7066 9.70761L10.8832 12.5265C10.3952 13.0138 9.60481 13.0138 9.11681 12.5265L6.29345 9.70761C5.90262 9.3174 5.90212 8.68423 6.29234 8.2934C6.68256 7.90257 7.31572 7.90207 7.70655 8.29229L9 9.58371V0.999952C9 0.447666 9.44772 -4.76837e-05 10 -4.76837e-05C10.5523 -4.76837e-05 11 0.447666 11 0.999952V9.58371L12.2934 8.29229C12.6843 7.90207 13.3174 7.90257 13.7077 8.2934Z" fill="#81878D"/>
</g>
</svg>
