<svg width="439" height="393" viewBox="0 0 439 393" fill="none" xmlns="http://www.w3.org/2000/svg">
<g clip-path="url(#clip0_726_3157)">
<g opacity="0.6">
<path d="M424.231 207.923C426.431 178.666 419.635 148.099 410.53 120.87C397.004 80.4109 370.754 38.9167 326.548 29.3445C301.057 23.8259 275.116 29.741 253.265 43.5761C232.251 56.8825 215.855 74.0772 190.012 77.4038C163.873 80.7744 137.052 79.4196 110.781 79.4196C43.2281 79.4196 -11.5905 150.501 2.11138 224.556C15.8243 298.589 80.43 349.92 135.26 349.92C184.525 349.92 225.048 320.311 271.839 312.369C295.042 308.425 318.344 313.096 341.305 307.181C367.994 300.318 393.089 283.928 407.879 260.212C417.952 244.053 422.857 226.241 424.231 207.923Z" fill="#22A4E6"/>
<path opacity="0.7" d="M424.231 207.923C426.431 178.666 419.635 148.099 410.53 120.87C397.004 80.4109 370.754 38.9167 326.548 29.3445C301.057 23.8259 275.116 29.741 253.265 43.5761C232.251 56.8825 215.855 74.0772 190.012 77.4038C163.873 80.7744 137.052 79.4196 110.781 79.4196C43.2281 79.4196 -11.5905 150.501 2.11138 224.556C15.8243 298.589 80.43 349.92 135.26 349.92C184.525 349.92 225.048 320.311 271.839 312.369C295.042 308.425 318.344 313.096 341.305 307.181C367.994 300.318 393.089 283.928 407.879 260.212C417.952 244.053 422.857 226.241 424.231 207.923Z" fill="white"/>
</g>
<path d="M416.336 197.646C416.336 197.646 416.336 192.171 408.682 184.493C401.028 176.827 396.102 172.443 396.102 172.443C396.102 172.443 392.275 185.044 399.379 192.711C406.494 200.377 416.336 207.504 416.336 207.504V197.646Z" fill="#22A4E6"/>
<path d="M405.218 231.859C405.218 231.859 405.218 226.384 397.564 218.707C389.911 211.04 384.984 206.656 384.984 206.656C384.984 206.656 381.157 219.258 388.261 226.924C395.376 234.591 405.218 241.718 405.218 241.718V231.859Z" fill="#22A4E6"/>
<path d="M415.852 206.976C415.852 206.976 416.435 201.523 424.858 194.716C433.282 187.897 438.637 184.064 438.637 184.064C438.637 184.064 441.112 196.996 433.238 203.869C425.364 210.743 414.818 216.779 414.818 216.779L415.852 206.976Z" fill="#22A4E6"/>
<path d="M402.425 247.39C402.425 247.39 403.569 242.037 412.663 236.144C421.757 230.25 427.487 227.001 427.487 227.001C427.487 227.001 428.597 240.12 420.042 246.134C411.486 252.138 400.369 257.039 400.369 257.039L402.425 247.39Z" fill="#22A4E6"/>
<path d="M404.954 291.44C404.954 291.44 404.954 285.966 412.608 278.288C420.262 270.621 425.188 266.237 425.188 266.237C425.188 266.237 429.015 278.839 421.911 286.505C414.796 294.172 404.954 301.299 404.954 301.299V291.44Z" fill="#22A4E6"/>
<path d="M404.822 302.191C404.822 302.191 405.603 296.771 399.104 288.091C392.616 279.411 388.36 274.366 388.36 274.366C388.36 274.366 382.785 286.296 388.734 294.899C394.683 303.501 403.415 311.95 403.415 311.95L404.822 302.191Z" fill="#22A4E6"/>
<path d="M397.268 334.058C397.268 334.058 397.268 328.583 404.921 320.906C412.575 313.239 417.502 308.855 417.502 308.855C417.502 308.855 421.328 321.456 414.224 329.123C407.11 336.79 397.268 343.916 397.268 343.916V334.058Z" fill="#22A4E6"/>
<path d="M402.381 362.951C402.381 362.951 400.995 357.652 406.461 348.289C411.926 338.926 415.577 333.441 415.577 333.441C415.577 333.441 422.472 344.654 417.523 353.885C412.586 363.105 404.866 372.501 404.866 372.501L402.381 362.951Z" fill="#22A4E6"/>
<path d="M417.029 196.247C416.578 202.107 415.918 208.165 414.928 213.254C411.904 228.918 404.338 239.03 401.303 253.173C398.279 267.317 406.967 285.547 404.635 303.722C402.304 321.897 395.244 331.998 397.268 344.126C399.28 356.253 409.881 389.101 409.881 389.101" stroke="#263238" stroke-miterlimit="10" stroke-linecap="round" stroke-linejoin="round"/>
<path d="M415.775 210.622L424.022 204.277" stroke="#263238" stroke-miterlimit="10" stroke-linecap="round" stroke-linejoin="round"/>
<path d="M416.16 203.319L412.707 197.161" stroke="#263238" stroke-miterlimit="10" stroke-linecap="round" stroke-linejoin="round"/>
<path d="M401.765 252.523C401.765 252.523 408.671 247.335 415.775 242.147" stroke="#263238" stroke-miterlimit="10" stroke-linecap="round" stroke-linejoin="round"/>
<path d="M405.218 241.717C405.218 241.717 399.467 230.416 392.935 222.915" stroke="#263238" stroke-miterlimit="10" stroke-linecap="round" stroke-linejoin="round"/>
<path d="M405.218 299.239C405.218 299.239 410.595 288.664 419.998 279.444" stroke="#263238" stroke-miterlimit="10" stroke-linecap="round" stroke-linejoin="round"/>
<path d="M403.876 306.927C403.876 306.927 400.423 298.666 396.388 292.707C392.352 286.748 391.78 285.977 391.78 285.977" stroke="#263238" stroke-miterlimit="10" stroke-linecap="round" stroke-linejoin="round"/>
<path d="M397.268 344.126C397.268 344.126 400.039 337.098 403.492 331.524C406.945 325.951 411.552 320.95 411.552 320.95" stroke="#263238" stroke-miterlimit="10" stroke-linecap="round" stroke-linejoin="round"/>
<path d="M404.877 372.49C404.877 372.49 404.064 365.925 406.945 360.351C409.826 354.777 413.081 347.474 414.433 344.588" stroke="#263238" stroke-miterlimit="10" stroke-linecap="round" stroke-linejoin="round"/>
<path d="M353.841 270.842C353.841 270.842 353.247 267.405 357.217 261.765C361.187 256.125 363.804 252.843 363.804 252.843C363.804 252.843 367.565 260.333 363.947 265.907C360.318 271.491 354.919 277.021 354.919 277.021L353.841 270.842Z" fill="#22A4E6"/>
<path d="M364.519 291.088C364.519 291.088 363.925 287.651 367.895 282.011C371.865 276.371 374.482 273.089 374.482 273.089C374.482 273.089 378.243 280.579 374.625 286.153C370.996 291.738 365.597 297.267 365.597 297.267L364.519 291.088Z" fill="#22A4E6"/>
<path d="M355.161 276.635C355.161 276.635 354.204 273.287 348.189 269.927C342.174 266.568 338.391 264.75 338.391 264.75C338.391 264.75 338.237 273.133 343.922 276.58C349.608 280.039 356.877 282.672 356.877 282.672L355.161 276.635Z" fill="#22A4E6"/>
<path d="M367.961 300.516C367.961 300.516 366.664 297.278 360.319 294.579C353.984 291.869 350.037 290.459 350.037 290.459C350.037 290.459 350.762 298.809 356.778 301.651C362.793 304.493 370.293 306.354 370.293 306.354L367.961 300.516Z" fill="#22A4E6"/>
<path d="M371.15 328.418C371.15 328.418 370.556 324.982 364.926 321.005C359.296 317.029 355.733 314.814 355.733 314.814C355.733 314.814 354.699 323.131 359.988 327.173C365.278 331.205 372.228 334.609 372.228 334.609L371.15 328.418Z" fill="#22A4E6"/>
<path d="M372.393 335.148C372.393 335.148 371.315 331.833 374.449 325.686C377.583 319.54 379.695 315.916 379.695 315.916C379.695 315.916 384.489 322.789 381.685 328.836C378.892 334.884 374.328 341.129 374.328 341.129L372.393 335.148Z" fill="#22A4E6"/>
<path d="M382.004 362.852C382.004 362.852 382.4 359.393 387.799 355.097C393.199 350.801 396.63 348.389 396.63 348.389C396.63 348.389 398.136 356.639 393.089 360.968C388.041 365.297 381.3 369.086 381.3 369.086L382.004 362.852Z" fill="#22A4E6"/>
<path d="M380.585 354.303C380.585 354.303 379.992 350.867 374.361 346.89C368.731 342.914 365.168 340.7 365.168 340.7C365.168 340.7 364.134 349.016 369.424 353.059C374.713 357.09 381.663 360.494 381.663 360.494L380.585 354.303Z" fill="#22A4E6"/>
<path d="M380.508 372.985C380.508 372.985 380.805 369.516 376.363 364.239C371.92 358.963 369.028 355.923 369.028 355.923C369.028 355.923 365.927 363.711 370.018 368.954C374.108 374.197 379.97 379.253 379.97 379.253L380.508 372.985Z" fill="#22A4E6"/>
<path d="M353.259 270.026C354.171 273.65 355.249 277.373 356.415 280.469C360.011 289.964 365.85 295.482 369.281 304.019C372.712 312.567 369.237 324.937 372.668 336.084C376.099 347.232 381.619 352.795 381.674 360.626C381.718 368.447 378.639 390.202 378.639 390.202" stroke="#263238" stroke-miterlimit="10" stroke-linecap="round" stroke-linejoin="round"/>
<path d="M355.601 278.916L349.74 275.832" stroke="#263238" stroke-miterlimit="10" stroke-linecap="round" stroke-linejoin="round"/>
<path d="M354.567 274.367L356.074 270.137" stroke="#263238" stroke-miterlimit="10" stroke-linecap="round" stroke-linejoin="round"/>
<path d="M368.929 303.667C368.929 303.667 364.035 301.166 359.021 298.677" stroke="#263238" stroke-miterlimit="10" stroke-linecap="round" stroke-linejoin="round"/>
<path d="M365.597 297.267C365.597 297.267 367.983 289.556 371.26 284.137" stroke="#263238" stroke-miterlimit="10" stroke-linecap="round" stroke-linejoin="round"/>
<path d="M371.821 333.331C371.821 333.331 367.301 327.283 360.406 322.525" stroke="#263238" stroke-miterlimit="10" stroke-linecap="round" stroke-linejoin="round"/>
<path d="M373.504 338.001C373.504 338.001 374.779 332.439 376.66 328.264C378.54 324.089 378.815 323.549 378.815 323.549" stroke="#263238" stroke-miterlimit="10" stroke-linecap="round" stroke-linejoin="round"/>
<path d="M381.41 366.553C381.41 366.553 385.292 361.783 387.711 359.999C390.131 358.214 391.802 356.43 391.802 356.43" stroke="#263238" stroke-miterlimit="10" stroke-linecap="round" stroke-linejoin="round"/>
<path d="M381.674 360.616C381.674 360.616 379.178 356.507 376.407 353.39C373.636 350.272 370.205 347.64 370.205 347.64" stroke="#263238" stroke-miterlimit="10" stroke-linecap="round" stroke-linejoin="round"/>
<path d="M379.981 379.231C379.981 379.231 379.772 375.035 377.363 371.851C374.955 368.668 372.118 364.438 370.963 362.786" stroke="#263238" stroke-miterlimit="10" stroke-linecap="round" stroke-linejoin="round"/>
<path d="M41.5126 222.86L36.696 209.08L41.5126 214.929L37.7297 194.253L43.569 209.08L45.6364 180.121L49.0784 207.692L52.8612 202.184V209.08L57.3369 199.772L54.9286 215.964L59.0524 213.21L52.5203 222.166L41.5126 222.86Z" fill="#22A4E6"/>
<path d="M56.6441 219.412H38.7524L41.9745 255.597H53.4331L56.6441 219.412Z" fill="#263238" stroke="#263238" stroke-miterlimit="10" stroke-linecap="round" stroke-linejoin="round"/>
<path d="M90.206 255.189H29.2512V384.507H90.206V255.189Z" fill="white" stroke="#263238" stroke-miterlimit="10" stroke-linecap="round" stroke-linejoin="round"/>
<path d="M93.538 255.189H59.7231V384.507H93.538V255.189Z" fill="white" stroke="#263238" stroke-miterlimit="10" stroke-linecap="round" stroke-linejoin="round"/>
<path d="M89.7332 255.189H59.7231V384.507H89.7332V255.189Z" fill="#263238" stroke="#263238" stroke-miterlimit="10" stroke-linecap="round" stroke-linejoin="round"/>
<path d="M86.3572 354.436H59.7231V380.917H86.3572V354.436Z" fill="#22A4E6" stroke="#263238" stroke-miterlimit="10" stroke-linecap="round" stroke-linejoin="round"/>
<path d="M86.3572 355.868H59.7231V359.261H86.3572V355.868Z" fill="white" stroke="#263238" stroke-miterlimit="10" stroke-linecap="round" stroke-linejoin="round"/>
<path d="M86.3572 375.365H59.7231V378.757H86.3572V375.365Z" fill="white" stroke="#263238" stroke-miterlimit="10" stroke-linecap="round" stroke-linejoin="round"/>
<path d="M64.7816 354.987V388.473" stroke="#263238" stroke-miterlimit="10" stroke-linecap="round" stroke-linejoin="round"/>
<path d="M74.0629 354.987V388.473" stroke="#263238" stroke-miterlimit="10" stroke-linecap="round" stroke-linejoin="round"/>
<path d="M82.2224 354.987V388.473" stroke="#263238" stroke-miterlimit="10" stroke-linecap="round" stroke-linejoin="round"/>
<path d="M86.3572 259.992H59.7231V298.93H86.3572V259.992Z" fill="#22A4E6" stroke="#263238" stroke-miterlimit="10" stroke-linecap="round" stroke-linejoin="round"/>
<path d="M86.3572 261.622H59.7231V265.477H86.3572V261.622Z" fill="white" stroke="#263238" stroke-miterlimit="10" stroke-linecap="round" stroke-linejoin="round"/>
<path d="M86.3572 286.583H59.7231V290.438H86.3572V286.583Z" fill="white" stroke="#263238" stroke-miterlimit="10" stroke-linecap="round" stroke-linejoin="round"/>
<path d="M64.7816 260.608V298.666" stroke="#263238" stroke-miterlimit="10" stroke-linecap="round" stroke-linejoin="round"/>
<path d="M74.0629 260.608V298.666" stroke="#263238" stroke-miterlimit="10" stroke-linecap="round" stroke-linejoin="round"/>
<path d="M82.2224 260.608V298.666" stroke="#263238" stroke-miterlimit="10" stroke-linecap="round" stroke-linejoin="round"/>
<path d="M86.3572 306.917H59.7231V345.855H86.3572V306.917Z" fill="#22A4E6" stroke="#263238" stroke-miterlimit="10" stroke-linecap="round" stroke-linejoin="round"/>
<path d="M86.3572 308.547H59.7231V312.402H86.3572V308.547Z" fill="white" stroke="#263238" stroke-miterlimit="10" stroke-linecap="round" stroke-linejoin="round"/>
<path d="M86.3572 333.507H59.7231V337.363H86.3572V333.507Z" fill="white" stroke="#263238" stroke-miterlimit="10" stroke-linecap="round" stroke-linejoin="round"/>
<path d="M64.7816 307.544V345.591" stroke="#263238" stroke-miterlimit="10" stroke-linecap="round" stroke-linejoin="round"/>
<path d="M74.0629 307.544V345.591" stroke="#263238" stroke-miterlimit="10" stroke-linecap="round" stroke-linejoin="round"/>
<path d="M82.2224 307.544V345.591" stroke="#263238" stroke-miterlimit="10" stroke-linecap="round" stroke-linejoin="round"/>
<path d="M90.195 298.391H59.7231V302.819H90.195V298.391Z" fill="white" stroke="#263238" stroke-miterlimit="10" stroke-linecap="round" stroke-linejoin="round"/>
<path d="M90.195 345.613H59.7231V350.041H90.195V345.613Z" fill="white" stroke="#263238" stroke-miterlimit="10" stroke-linecap="round" stroke-linejoin="round"/>
<path d="M90.2061 255.189V384.496" stroke="#263238" stroke-miterlimit="10" stroke-linecap="round" stroke-linejoin="round"/>
<path d="M55.4344 255.189V384.497H59.7232V259.992H89.6782V255.134L55.4344 255.189Z" fill="white" stroke="#263238" stroke-miterlimit="10" stroke-linecap="round" stroke-linejoin="round"/>
<path d="M59.7231 259.992V255.189" stroke="#263238" stroke-miterlimit="10" stroke-linecap="round" stroke-linejoin="round"/>
<path d="M89.9751 195.784C86.7751 189.615 85.4225 185.176 85.4225 184.152C85.4225 182.136 89.8652 180.913 89.8652 180.913C96.7271 177.278 129.002 182.533 143.529 184.956C158.056 187.379 168.14 187.379 168.14 187.379C168.14 187.379 170.152 185.76 172.582 183.744C175.013 181.729 186.295 168.389 190.738 167.178C195.181 165.966 199.206 168.797 199.206 168.797C199.206 168.797 206.463 173.247 205.254 174.051C204.044 174.855 186.295 190.221 181.853 193.041C177.41 195.861 168.14 194.66 160.068 196.28C153.118 197.668 124.967 199.386 118.512 199.915C118.512 199.915 112.057 201.93 103.985 198.703" fill="white"/>
<mask id="mask0_726_3157" style="mask-type:luminance" maskUnits="userSpaceOnUse" x="85" y="166" width="121" height="35">
<path d="M89.9751 195.784C86.7751 189.615 85.4225 185.176 85.4225 184.152C85.4225 182.136 89.8652 180.913 89.8652 180.913C96.7271 177.278 129.002 182.533 143.529 184.956C158.056 187.379 168.14 187.379 168.14 187.379C168.14 187.379 170.152 185.76 172.582 183.744C175.013 181.729 186.295 168.389 190.738 167.178C195.181 165.966 199.206 168.797 199.206 168.797C199.206 168.797 206.463 173.247 205.254 174.051C204.044 174.855 186.295 190.221 181.853 193.041C177.41 195.861 168.14 194.66 160.068 196.28C153.118 197.668 124.967 199.386 118.512 199.915C118.512 199.915 112.057 201.93 103.985 198.703" fill="white"/>
</mask>
<g mask="url(#mask0_726_3157)">
<path d="M199.195 168.797C199.195 168.797 195.159 165.966 190.727 167.178C186.285 168.389 174.991 181.729 172.572 183.744C170.152 185.76 168.129 187.379 168.129 187.379C168.129 187.379 158.045 187.379 143.518 184.956C128.992 182.533 96.7162 177.278 89.8543 180.913C89.8543 180.913 85.4116 182.125 85.4116 184.152C85.4116 184.615 85.6865 185.782 86.2914 187.49C86.6762 187.633 86.8962 187.71 86.8962 187.71C86.8962 187.71 94.9568 186.862 112.354 187.28C129.75 187.71 169.987 190.089 172.572 191.025C173.737 191.444 181.468 189.682 190.111 186.641C196.676 181.255 204.462 174.58 205.254 174.051C206.463 173.236 199.195 168.797 199.195 168.797Z" fill="#22A4E6"/>
</g>
<mask id="mask1_726_3157" style="mask-type:luminance" maskUnits="userSpaceOnUse" x="85" y="166" width="121" height="35">
<path d="M89.9751 195.784C86.7751 189.615 85.4225 185.176 85.4225 184.152C85.4225 182.136 89.8652 180.913 89.8652 180.913C96.7271 177.278 129.002 182.533 143.529 184.956C158.056 187.379 168.14 187.379 168.14 187.379C168.14 187.379 170.152 185.76 172.582 183.744C175.013 181.729 186.295 168.389 190.738 167.178C195.181 165.966 199.206 168.797 199.206 168.797C199.206 168.797 206.463 173.247 205.254 174.051C204.044 174.855 186.295 190.221 181.853 193.041C177.41 195.861 168.14 194.66 160.068 196.28C153.118 197.668 124.967 199.386 118.512 199.915C118.512 199.915 112.057 201.93 103.985 198.703" fill="white"/>
</mask>
<g mask="url(#mask1_726_3157)">
<path opacity="0.5" d="M199.195 168.797C199.195 168.797 195.159 165.966 190.727 167.178C186.285 168.389 174.991 181.729 172.572 183.744C170.152 185.76 168.129 187.379 168.129 187.379C168.129 187.379 158.045 187.379 143.518 184.956C128.992 182.533 96.7162 177.278 89.8543 180.913C89.8543 180.913 85.4116 182.125 85.4116 184.152C85.4116 184.615 85.6865 185.782 86.2914 187.49C86.6762 187.633 86.8962 187.71 86.8962 187.71C86.8962 187.71 94.9568 186.862 112.354 187.28C129.75 187.71 169.987 190.089 172.572 191.025C173.737 191.444 181.468 189.682 190.111 186.641C196.676 181.255 204.462 174.58 205.254 174.051C206.463 173.236 199.195 168.797 199.195 168.797Z" fill="white"/>
</g>
<path d="M89.9751 195.784C86.7751 189.615 85.4225 185.176 85.4225 184.152C85.4225 182.136 89.8652 180.913 89.8652 180.913C96.7271 177.278 129.002 182.533 143.529 184.956C158.056 187.379 168.14 187.379 168.14 187.379C168.14 187.379 170.152 185.76 172.582 183.744C175.013 181.729 186.295 168.389 190.738 167.178C195.181 165.966 199.206 168.797 199.206 168.797C199.206 168.797 206.463 173.247 205.254 174.051C204.044 174.855 186.295 190.221 181.853 193.041C177.41 195.861 168.14 194.66 160.068 196.28C153.118 197.668 124.967 199.386 118.512 199.915C118.512 199.915 112.057 201.93 103.985 198.703" stroke="#263238" stroke-miterlimit="10" stroke-linecap="round" stroke-linejoin="round"/>
<path d="M249.317 231.716C250.802 228.885 253.738 227.123 256.927 227.123H330.275C330.275 227.123 335.576 227.123 333.992 237.212C332.398 247.302 310.657 308.91 305.357 327.504C300.056 346.098 298.99 385.4 298.99 385.4H210.972C210.983 385.389 218.032 291.539 249.317 231.716Z" fill="white"/>
<mask id="mask2_726_3157" style="mask-type:luminance" maskUnits="userSpaceOnUse" x="210" y="227" width="125" height="159">
<path d="M249.317 231.716C250.802 228.885 253.738 227.123 256.927 227.123H330.275C330.275 227.123 335.576 227.123 333.992 237.212C332.398 247.302 310.657 308.91 305.357 327.504C300.056 346.098 298.99 385.4 298.99 385.4H210.972C210.983 385.389 218.032 291.539 249.317 231.716Z" fill="white"/>
</mask>
<g mask="url(#mask2_726_3157)">
<path opacity="0.16" d="M282.362 227.123H256.938C253.749 227.123 250.813 228.885 249.328 231.716C218.043 291.55 210.994 385.4 210.994 385.4H250.461L260.182 348.378L300.76 356.76C301.046 353.654 301.376 350.493 301.761 347.375L300.881 337.418C300.881 337.418 292.567 328.65 289.939 326.458C287.311 324.266 289.059 320.322 288.631 303.227C288.191 286.131 272.872 273.86 267.187 263.341C261.502 252.821 270.255 246.245 278.129 235.725C280.922 231.969 282.054 229.171 282.362 227.123Z" fill="black"/>
</g>
<path d="M249.317 231.716C250.802 228.885 253.738 227.123 256.927 227.123H330.275C330.275 227.123 335.576 227.123 333.992 237.212C332.398 247.302 310.657 308.91 305.357 327.504C300.056 346.098 298.99 385.4 298.99 385.4H210.972C210.983 385.389 218.032 291.539 249.317 231.716Z" stroke="#263238" stroke-miterlimit="10" stroke-linecap="round" stroke-linejoin="round"/>
<path d="M317.552 244.648C310.14 261.974 294.426 330.566 291.908 385.389H299.001C299.001 385.389 300.057 346.086 305.368 327.493C310.668 308.899 332.409 247.291 334.003 237.201C335.598 227.111 330.286 227.111 330.286 227.111C330.286 227.111 323.502 230.757 317.552 244.648Z" fill="#263238" stroke="#263238" stroke-miterlimit="10" stroke-linecap="round" stroke-linejoin="round"/>
<path d="M188.715 210.016C188.715 210.016 177.014 203.142 172.572 191.026C168.129 178.898 207.266 159.5 224.212 158.288C241.158 157.077 245.997 161.527 256.081 178.898C266.165 196.28 273.027 220.117 267.781 231.837C262.536 243.557 253.661 246.388 260.116 256.081C266.572 265.786 284.727 293.258 283.517 306.2C282.308 319.132 269.805 330.445 251.649 331.657C233.493 332.868 209.29 321.952 189.111 304.174C168.943 286.395 174.177 260.124 181.446 251.631C188.704 243.149 199.602 239.911 200.404 231.429C201.218 222.948 188.715 210.016 188.715 210.016Z" fill="#263238" stroke="#263238" stroke-miterlimit="10" stroke-linecap="round" stroke-linejoin="round"/>
<path d="M238.574 190.838C244.798 202.426 252.562 217.947 254.992 227.321C259.237 243.733 237.397 254.066 243.468 261.963" stroke="white" stroke-miterlimit="10" stroke-linecap="round" stroke-linejoin="round"/>
<path d="M230.117 175.66C230.117 175.66 232.537 179.79 235.88 185.882" stroke="white" stroke-miterlimit="10" stroke-linecap="round" stroke-linejoin="round"/>
<path d="M262.701 204.816C263.415 207.03 263.899 209.267 264.086 211.525" stroke="white" stroke-miterlimit="10" stroke-linecap="round" stroke-linejoin="round"/>
<path d="M234.362 169.579C234.362 169.579 253.464 183.723 261.095 200.653" stroke="white" stroke-miterlimit="10" stroke-linecap="round" stroke-linejoin="round"/>
<path d="M207.783 180.242C194.136 184.086 174.518 190.299 176.113 193.901" stroke="white" stroke-miterlimit="10" stroke-linecap="round" stroke-linejoin="round"/>
<path d="M220.407 176.871C220.407 176.871 217.482 177.598 213.15 178.766" stroke="white" stroke-miterlimit="10" stroke-linecap="round" stroke-linejoin="round"/>
<path d="M203.505 169.733C208.52 168.081 216.767 166.186 227.676 166.539" stroke="white" stroke-miterlimit="10" stroke-linecap="round" stroke-linejoin="round"/>
<path d="M197.952 172.013C197.952 172.013 199.272 171.275 201.779 170.35" stroke="white" stroke-miterlimit="10" stroke-linecap="round" stroke-linejoin="round"/>
<path d="M85.4225 184.152C85.4225 184.218 85.4225 184.296 85.4335 184.384C85.4225 184.296 85.4225 184.218 85.4225 184.152ZM89.9751 195.784C87.3689 190.772 85.9943 186.906 85.5764 185.089C85.9943 186.906 87.3689 190.772 89.9751 195.784ZM85.4445 184.45C85.4555 184.527 85.4665 184.604 85.4775 184.692C85.4665 184.593 85.4555 184.516 85.4445 184.45ZM85.4995 184.758C85.5215 184.857 85.5434 184.956 85.5654 185.078C85.5434 184.956 85.5215 184.857 85.4995 184.758ZM89.9751 195.784C93.1092 201.821 98.0137 209.509 105.195 217.297C119.721 233.06 161.685 274.279 165.71 277.11C169.745 279.94 168.536 288.026 165.71 296.1C162.883 304.185 152.392 315.905 152.799 328.837C153.206 341.769 157.242 361.574 156.835 365.617C156.428 369.659 146.344 383.395 146.344 383.395H250.439C250.439 383.395 237.474 366.883 237.474 361.233C237.474 355.571 255.278 283.168 256.092 277.914C256.894 272.659 253.672 269.024 247.217 268.617C240.762 268.209 216.151 262.955 214.942 258.912C213.732 254.87 221.397 239.515 221.397 239.515L197.193 240.726C197.193 240.726 195.983 251.235 194.367 253.251C192.75 255.266 190.331 251.235 184.679 248.404C179.027 245.573 168.14 243.15 164.104 239.922C160.068 236.684 121.338 200.312 121.338 200.312" fill="white"/>
<mask id="mask3_726_3157" style="mask-type:luminance" maskUnits="userSpaceOnUse" x="85" y="184" width="172" height="200">
<path d="M85.4225 184.152C85.4225 184.218 85.4225 184.296 85.4335 184.384C85.4225 184.296 85.4225 184.218 85.4225 184.152ZM89.9751 195.784C87.3689 190.772 85.9943 186.906 85.5764 185.089C85.9943 186.906 87.3689 190.772 89.9751 195.784ZM85.4445 184.45C85.4555 184.527 85.4665 184.604 85.4775 184.692C85.4665 184.593 85.4555 184.516 85.4445 184.45ZM85.4995 184.758C85.5215 184.857 85.5434 184.956 85.5654 185.078C85.5434 184.956 85.5215 184.857 85.4995 184.758ZM89.9751 195.784C93.1092 201.821 98.0137 209.509 105.195 217.297C119.721 233.06 161.685 274.279 165.71 277.11C169.745 279.94 168.536 288.026 165.71 296.1C162.883 304.185 152.392 315.905 152.799 328.837C153.206 341.769 157.242 361.574 156.835 365.617C156.428 369.659 146.344 383.395 146.344 383.395H250.439C250.439 383.395 237.474 366.883 237.474 361.233C237.474 355.571 255.278 283.168 256.092 277.914C256.894 272.659 253.672 269.024 247.217 268.617C240.762 268.209 216.151 262.955 214.942 258.912C213.732 254.87 221.397 239.515 221.397 239.515L197.193 240.726C197.193 240.726 195.983 251.235 194.367 253.251C192.75 255.266 190.331 251.235 184.679 248.404C179.027 245.573 168.14 243.15 164.104 239.922C160.068 236.684 121.338 200.312 121.338 200.312" fill="white"/>
</mask>
<g mask="url(#mask3_726_3157)">
<path d="M170.273 243.04C172.297 246.564 174.298 249.748 174.298 249.748C174.298 249.748 181.083 253.57 182.787 253.57C184.481 253.57 194.664 259.1 194.664 259.1C194.664 259.1 203.153 256.974 200.184 249.748C199.656 248.481 198.392 246.708 196.643 244.659C196.137 247.864 195.324 252.061 194.367 253.262C192.75 255.277 190.331 251.246 184.679 248.415C180.984 246.564 175.068 244.89 170.273 243.04Z" fill="#22A4E6"/>
<path d="M149.566 226.682C137.107 215.127 121.338 200.312 121.338 200.312L112.167 198.99L111.089 199.607C111.089 199.607 136.964 222.551 142.485 225.107C145.893 226.682 147.686 226.473 149.566 226.682Z" fill="#22A4E6"/>
<path d="M162.62 238.644C162.323 238.38 161.993 238.083 161.63 237.763C162.136 238.6 162.422 239.129 162.422 239.129C162.422 239.129 162.488 238.942 162.62 238.644Z" fill="#22A4E6"/>
</g>
<mask id="mask4_726_3157" style="mask-type:luminance" maskUnits="userSpaceOnUse" x="85" y="184" width="172" height="200">
<path d="M85.4225 184.152C85.4225 184.218 85.4225 184.296 85.4335 184.384C85.4225 184.296 85.4225 184.218 85.4225 184.152ZM89.9751 195.784C87.3689 190.772 85.9943 186.906 85.5764 185.089C85.9943 186.906 87.3689 190.772 89.9751 195.784ZM85.4445 184.45C85.4555 184.527 85.4665 184.604 85.4775 184.692C85.4665 184.593 85.4555 184.516 85.4445 184.45ZM85.4995 184.758C85.5215 184.857 85.5434 184.956 85.5654 185.078C85.5434 184.956 85.5215 184.857 85.4995 184.758ZM89.9751 195.784C93.1092 201.821 98.0137 209.509 105.195 217.297C119.721 233.06 161.685 274.279 165.71 277.11C169.745 279.94 168.536 288.026 165.71 296.1C162.883 304.185 152.392 315.905 152.799 328.837C153.206 341.769 157.242 361.574 156.835 365.617C156.428 369.659 146.344 383.395 146.344 383.395H250.439C250.439 383.395 237.474 366.883 237.474 361.233C237.474 355.571 255.278 283.168 256.092 277.914C256.894 272.659 253.672 269.024 247.217 268.617C240.762 268.209 216.151 262.955 214.942 258.912C213.732 254.87 221.397 239.515 221.397 239.515L197.193 240.726C197.193 240.726 195.983 251.235 194.367 253.251C192.75 255.266 190.331 251.235 184.679 248.404C179.027 245.573 168.14 243.15 164.104 239.922C160.068 236.684 121.338 200.312 121.338 200.312" fill="white"/>
</mask>
<g mask="url(#mask4_726_3157)">
<g opacity="0.5">
<path d="M170.273 243.04C172.297 246.564 174.298 249.748 174.298 249.748C174.298 249.748 181.083 253.57 182.787 253.57C184.481 253.57 194.664 259.1 194.664 259.1C194.664 259.1 203.153 256.974 200.184 249.748C199.656 248.481 198.392 246.708 196.643 244.659C196.137 247.864 195.324 252.061 194.367 253.262C192.75 255.277 190.331 251.246 184.679 248.415C180.984 246.564 175.068 244.89 170.273 243.04Z" fill="white"/>
<path d="M149.566 226.682C137.107 215.127 121.338 200.312 121.338 200.312L112.167 198.99L111.089 199.607C111.089 199.607 136.964 222.551 142.485 225.107C145.893 226.682 147.686 226.473 149.566 226.682Z" fill="white"/>
<path d="M162.62 238.644C162.323 238.38 161.993 238.083 161.63 237.763C162.136 238.6 162.422 239.129 162.422 239.129C162.422 239.129 162.488 238.942 162.62 238.644Z" fill="white"/>
</g>
</g>
<path d="M89.9751 195.784C93.1092 201.821 98.0137 209.509 105.195 217.297C119.721 233.06 161.685 274.279 165.71 277.11C169.745 279.94 168.536 288.026 165.71 296.1C162.883 304.185 152.392 315.905 152.799 328.837C153.206 341.769 157.242 361.574 156.835 365.617C156.428 369.659 146.344 383.395 146.344 383.395H250.439C250.439 383.395 237.474 366.883 237.474 361.233C237.474 355.571 255.278 283.168 256.092 277.914C256.894 272.659 253.672 269.024 247.217 268.617C240.762 268.209 216.151 262.955 214.942 258.912C213.732 254.87 221.397 239.515 221.397 239.515L197.193 240.726C197.193 240.726 195.983 251.235 194.367 253.251C192.75 255.266 190.331 251.235 184.679 248.404C179.027 245.573 168.14 243.15 164.104 239.922C160.068 236.684 121.338 200.312 121.338 200.312M85.4225 184.152C85.4225 184.218 85.4225 184.296 85.4335 184.384C85.4225 184.296 85.4225 184.218 85.4225 184.152ZM89.9751 195.784C87.3689 190.772 85.9943 186.906 85.5764 185.089C85.9943 186.906 87.3689 190.772 89.9751 195.784ZM85.4445 184.45C85.4555 184.527 85.4665 184.604 85.4775 184.692C85.4665 184.593 85.4555 184.516 85.4445 184.45ZM85.4995 184.758C85.5215 184.857 85.5434 184.956 85.5654 185.078C85.5434 184.956 85.5215 184.857 85.4995 184.758Z" stroke="#263238" stroke-miterlimit="10" stroke-linecap="round" stroke-linejoin="round"/>
<path d="M121.327 200.312C121.327 200.312 108.439 200.554 101.247 194.617" stroke="#263238" stroke-miterlimit="10" stroke-linecap="round" stroke-linejoin="round"/>
<path d="M214.931 258.912C213.721 254.87 221.386 239.515 221.386 239.515L197.182 240.726C197.182 240.726 195.973 251.235 194.356 253.251C192.74 255.266 190.32 251.235 184.668 248.404C184.239 248.184 183.766 247.974 183.282 247.765L181.809 270.809C181.809 270.809 183.931 293.115 209.378 288.863C219.682 287.144 230.678 277.936 240.124 267.592C230.425 265.797 215.855 262.008 214.931 258.912Z" fill="white"/>
<mask id="mask5_726_3157" style="mask-type:luminance" maskUnits="userSpaceOnUse" x="181" y="239" width="60" height="51">
<path d="M214.931 258.912C213.721 254.87 221.386 239.515 221.386 239.515L197.182 240.726C197.182 240.726 195.973 251.235 194.356 253.251C192.74 255.266 190.32 251.235 184.668 248.404C184.239 248.184 183.766 247.974 183.282 247.765L181.809 270.809C181.809 270.809 183.931 293.115 209.378 288.863C219.682 287.144 230.678 277.936 240.124 267.592C230.425 265.797 215.855 262.008 214.931 258.912Z" fill="white"/>
</mask>
<g mask="url(#mask5_726_3157)">
<path d="M214.249 242.566C214.249 242.566 212.786 250.783 211.61 259.871C210.433 268.969 209.564 275.711 209.564 275.711L214.931 258.912L220.979 241.09C220.99 241.101 215.129 241.101 214.249 242.566Z" fill="#22A4E6"/>
</g>
<mask id="mask6_726_3157" style="mask-type:luminance" maskUnits="userSpaceOnUse" x="181" y="239" width="60" height="51">
<path d="M214.931 258.912C213.721 254.87 221.386 239.515 221.386 239.515L197.182 240.726C197.182 240.726 195.973 251.235 194.356 253.251C192.74 255.266 190.32 251.235 184.668 248.404C184.239 248.184 183.766 247.974 183.282 247.765L181.809 270.809C181.809 270.809 183.931 293.115 209.378 288.863C219.682 287.144 230.678 277.936 240.124 267.592C230.425 265.797 215.855 262.008 214.931 258.912Z" fill="white"/>
</mask>
<g mask="url(#mask6_726_3157)">
<path opacity="0.5" d="M214.249 242.566C214.249 242.566 212.786 250.783 211.61 259.871C210.433 268.969 209.564 275.711 209.564 275.711L214.931 258.912L220.979 241.09C220.99 241.101 215.129 241.101 214.249 242.566Z" fill="white"/>
</g>
<path d="M214.931 258.912C213.721 254.87 221.386 239.515 221.386 239.515L197.182 240.726C197.182 240.726 195.973 251.235 194.356 253.251C192.74 255.266 190.32 251.235 184.668 248.404C184.239 248.184 183.766 247.974 183.282 247.765L181.809 270.809C181.809 270.809 183.931 293.115 209.378 288.863C219.682 287.144 230.678 277.936 240.124 267.592C230.425 265.797 215.855 262.008 214.931 258.912Z" stroke="#263238" stroke-miterlimit="10" stroke-linecap="round" stroke-linejoin="round"/>
<path d="M194.356 253.262C192.74 255.277 190.32 251.246 184.668 248.415C181.094 246.63 175.431 245 170.724 243.227C169.393 240.065 167.634 235.946 166.512 233.456C164.5 229.006 161.267 231.837 161.267 231.837C161.267 231.837 159.255 229.821 157.231 225.371C155.219 220.921 151.986 221.328 147.543 220.524C143.1 219.72 133.83 211.228 133.83 211.228C133.83 211.228 129.486 207.967 127.683 206.282C125.605 210.401 120.59 217.649 109.78 222.177C127.023 240.231 162.037 274.532 165.71 277.109C169.745 279.94 168.536 288.025 165.71 296.1C162.883 304.185 152.393 315.905 152.799 328.837C153.206 341.769 157.242 361.574 156.835 365.616C156.472 369.218 148.434 380.52 146.685 382.932L150.787 383.395H172.132C172.011 372.556 172.022 328.319 179.433 310.651C187.901 290.438 194.356 253.262 194.356 253.262Z" fill="#22A4E6"/>
<mask id="mask7_726_3157" style="mask-type:luminance" maskUnits="userSpaceOnUse" x="109" y="206" width="86" height="178">
<path d="M194.356 253.262C192.74 255.277 190.32 251.246 184.668 248.415C181.094 246.63 175.431 245 170.724 243.227C169.393 240.065 167.634 235.946 166.512 233.456C164.5 229.006 161.267 231.837 161.267 231.837C161.267 231.837 159.255 229.821 157.231 225.371C155.219 220.921 151.986 221.328 147.543 220.524C143.1 219.72 133.83 211.228 133.83 211.228C133.83 211.228 129.486 207.967 127.683 206.282C125.605 210.401 120.59 217.649 109.78 222.177C127.023 240.231 162.037 274.532 165.71 277.109C169.745 279.94 168.536 288.025 165.71 296.1C162.883 304.185 152.393 315.905 152.799 328.837C153.206 341.769 157.242 361.574 156.835 365.616C156.472 369.218 148.434 380.52 146.685 382.932L150.787 383.395H172.132C172.011 372.556 172.022 328.319 179.433 310.651C187.901 290.438 194.356 253.262 194.356 253.262Z" fill="white"/>
</mask>
<g mask="url(#mask7_726_3157)">
<path opacity="0.16" d="M184.679 248.415C181.105 246.63 175.442 245 170.735 243.227C169.404 240.065 167.645 235.946 166.523 233.456C164.511 229.006 161.278 231.837 161.278 231.837C161.278 231.837 159.265 229.821 157.242 225.371C155.23 220.921 151.997 221.328 147.554 220.524C143.111 219.72 133.841 211.228 133.841 211.228C133.841 211.228 129.497 207.967 127.694 206.282C127.001 207.659 125.967 209.377 124.516 211.228C131.73 217.33 139.691 223.807 142.474 225.096C147.994 227.64 149.258 225.525 153.503 228.07C157.748 230.614 162.411 239.118 162.411 239.118C162.411 239.118 164.951 232.322 167.073 236.992C169.196 241.663 174.287 249.737 174.287 249.737C174.287 249.737 181.072 253.559 182.776 253.559C184.107 253.559 190.628 256.941 193.399 258.406C194.015 255.189 194.356 253.239 194.356 253.239C192.74 255.277 190.32 251.235 184.679 248.415Z" fill="black"/>
</g>
<path d="M194.356 253.262C192.74 255.277 190.32 251.246 184.668 248.415C181.094 246.63 175.431 245 170.724 243.227C169.393 240.065 167.634 235.946 166.512 233.456C164.5 229.006 161.267 231.837 161.267 231.837C161.267 231.837 159.255 229.821 157.231 225.371C155.219 220.921 151.986 221.328 147.543 220.524C143.1 219.72 133.83 211.228 133.83 211.228C133.83 211.228 129.486 207.967 127.683 206.282C125.605 210.401 120.59 217.649 109.78 222.177C127.023 240.231 162.037 274.532 165.71 277.109C169.745 279.94 168.536 288.025 165.71 296.1C162.883 304.185 152.393 315.905 152.799 328.837C153.206 341.769 157.242 361.574 156.835 365.616C156.472 369.218 148.434 380.52 146.685 382.932L150.787 383.395H172.132C172.011 372.556 172.022 328.319 179.433 310.651C187.901 290.438 194.356 253.262 194.356 253.262Z" stroke="#263238" stroke-miterlimit="10" stroke-linecap="round" stroke-linejoin="round"/>
<path d="M194.642 251.852C194.642 251.852 189.627 250.31 186.537 253.008C183.447 255.718 178.818 269.63 176.123 284.699C173.418 299.768 179.422 310.64 179.422 310.64C179.422 310.64 185.768 293.974 187.692 285.856C189.627 277.748 194.642 251.852 194.642 251.852Z" fill="#22A4E6"/>
<mask id="mask8_726_3157" style="mask-type:luminance" maskUnits="userSpaceOnUse" x="175" y="251" width="20" height="60">
<path d="M194.642 251.852C194.642 251.852 189.627 250.31 186.537 253.008C183.447 255.718 178.818 269.63 176.123 284.699C173.418 299.768 179.422 310.64 179.422 310.64C179.422 310.64 185.768 293.974 187.692 285.856C189.627 277.748 194.642 251.852 194.642 251.852Z" fill="white"/>
</mask>
<g mask="url(#mask8_726_3157)">
<path opacity="0.16" d="M185.02 254.308C185.02 254.308 188.638 253.427 190.144 253.934C191.64 254.429 193.641 256.06 193.641 256.06L194.642 251.852C194.642 251.852 192.267 250.552 189.77 251.048C187.274 251.554 185.02 254.308 185.02 254.308Z" fill="black"/>
</g>
<path d="M194.642 251.852C194.642 251.852 189.627 250.31 186.537 253.008C183.447 255.718 178.818 269.63 176.123 284.699C173.418 299.768 179.422 310.64 179.422 310.64C179.422 310.64 185.768 293.974 187.692 285.856C189.627 277.748 194.642 251.852 194.642 251.852Z" stroke="#263238" stroke-miterlimit="10" stroke-linecap="round" stroke-linejoin="round"/>
<path d="M160.871 253.173L167.326 279.445L152.799 246.3" stroke="#263238" stroke-miterlimit="10" stroke-linecap="round" stroke-linejoin="round"/>
<path d="M203.406 383.395H250.439C250.439 383.395 237.474 366.883 237.474 361.232C237.474 355.57 255.278 283.168 256.091 277.913C256.894 272.659 253.672 269.024 247.217 268.616C240.762 268.209 216.151 262.955 214.942 258.912C214.942 258.912 205.661 291.649 202.439 313.878C199.656 332.945 202.526 372.512 203.406 383.395Z" fill="#22A4E6"/>
<mask id="mask9_726_3157" style="mask-type:luminance" maskUnits="userSpaceOnUse" x="201" y="258" width="56" height="126">
<path d="M203.406 383.395H250.439C250.439 383.395 237.474 366.883 237.474 361.232C237.474 355.57 255.278 283.168 256.091 277.913C256.894 272.659 253.672 269.024 247.217 268.616C240.762 268.209 216.151 262.955 214.942 258.912C214.942 258.912 205.661 291.649 202.439 313.878C199.656 332.945 202.526 372.512 203.406 383.395Z" fill="white"/>
</mask>
<g mask="url(#mask9_726_3157)">
<path opacity="0.16" d="M247.217 268.617C241.928 268.286 224.454 264.695 217.647 261.192L220.121 266.92C220.121 266.92 226.268 270.445 234.472 271.91C242.676 273.375 250.285 273.089 255.267 280.414C255.344 280.535 255.432 280.656 255.509 280.788C255.817 279.378 256.026 278.387 256.092 277.924C256.894 272.659 253.672 269.024 247.217 268.617Z" fill="black"/>
</g>
<path d="M203.406 383.395H250.439C250.439 383.395 237.474 366.883 237.474 361.232C237.474 355.57 255.278 283.168 256.091 277.913C256.894 272.659 253.672 269.024 247.217 268.616C240.762 268.209 216.151 262.955 214.942 258.912C214.942 258.912 205.661 291.649 202.439 313.878C199.656 332.945 202.526 372.512 203.406 383.395Z" stroke="#263238" stroke-miterlimit="10" stroke-linecap="round" stroke-linejoin="round"/>
<path d="M214.931 258.912C214.931 258.912 202.482 298.611 202.427 313.878C202.427 313.878 220.11 292.431 222.431 277.363C224.74 262.294 214.931 258.912 214.931 258.912Z" fill="#22A4E6"/>
<mask id="mask10_726_3157" style="mask-type:luminance" maskUnits="userSpaceOnUse" x="202" y="258" width="21" height="56">
<path d="M214.931 258.912C214.931 258.912 202.482 298.611 202.427 313.878C202.427 313.878 220.11 292.431 222.431 277.363C224.74 262.294 214.931 258.912 214.931 258.912Z" fill="white"/>
</mask>
<g mask="url(#mask10_726_3157)">
<path opacity="0.16" d="M212.786 263.979C212.786 263.979 218.351 263.395 222.452 268.672C222.452 268.672 220.011 261.479 214.931 258.912L212.786 263.979Z" fill="black"/>
</g>
<path d="M214.931 258.912C214.931 258.912 202.482 298.611 202.427 313.878C202.427 313.878 220.11 292.431 222.431 277.363C224.74 262.294 214.931 258.912 214.931 258.912Z" stroke="#263238" stroke-miterlimit="10" stroke-linecap="round" stroke-linejoin="round"/>
<path d="M347.837 375.938C347.837 375.938 356.953 376.312 362.914 377.172C368.885 378.031 374.922 378.13 374.922 378.13C374.922 378.13 371.656 371.466 368.115 369.582C364.563 367.699 358.207 364.317 352.874 365.066C347.529 365.815 339.909 371.168 340.524 372.931C341.129 374.693 344.01 375.42 347.837 375.938Z" fill="white"/>
<mask id="mask11_726_3157" style="mask-type:luminance" maskUnits="userSpaceOnUse" x="340" y="364" width="35" height="15">
<path d="M347.837 375.938C347.837 375.938 356.953 376.312 362.914 377.172C368.885 378.031 374.922 378.13 374.922 378.13C374.922 378.13 371.656 371.466 368.115 369.582C364.563 367.699 358.207 364.317 352.874 365.066C347.529 365.815 339.909 371.168 340.524 372.931C341.129 374.693 344.01 375.42 347.837 375.938Z" fill="white"/>
</mask>
<g mask="url(#mask11_726_3157)">
<path d="M347.837 375.938C347.837 375.938 356.953 376.312 362.914 377.172C368.885 378.031 374.922 378.13 374.922 378.13C374.922 378.13 371.656 371.466 368.115 369.582C364.563 367.699 358.207 364.317 352.874 365.066C347.529 365.815 339.909 371.168 340.524 372.931C341.129 374.693 344.01 375.42 347.837 375.938Z" fill="#22A4E6"/>
</g>
<mask id="mask12_726_3157" style="mask-type:luminance" maskUnits="userSpaceOnUse" x="340" y="364" width="35" height="15">
<path d="M347.837 375.938C347.837 375.938 356.953 376.312 362.914 377.172C368.885 378.031 374.922 378.13 374.922 378.13C374.922 378.13 371.656 371.466 368.115 369.582C364.563 367.699 358.207 364.317 352.874 365.066C347.529 365.815 339.909 371.168 340.524 372.931C341.129 374.693 344.01 375.42 347.837 375.938Z" fill="white"/>
</mask>
<g mask="url(#mask12_726_3157)">
<path opacity="0.5" d="M347.837 375.938C347.837 375.938 356.953 376.312 362.914 377.172C368.885 378.031 374.922 378.13 374.922 378.13C374.922 378.13 371.656 371.466 368.115 369.582C364.563 367.699 358.207 364.317 352.874 365.066C347.529 365.815 339.909 371.168 340.524 372.931C341.129 374.693 344.01 375.42 347.837 375.938Z" fill="white"/>
</g>
<path d="M347.837 375.938C347.837 375.938 356.953 376.312 362.914 377.172C368.885 378.031 374.922 378.13 374.922 378.13C374.922 378.13 371.656 371.466 368.115 369.582C364.563 367.699 358.207 364.317 352.874 365.066C347.529 365.815 339.909 371.168 340.524 372.931C341.129 374.693 344.01 375.42 347.837 375.938Z" stroke="#263238" stroke-miterlimit="10" stroke-linecap="round" stroke-linejoin="round"/>
<path d="M362.925 373.206C362.925 373.206 370.15 369.45 371.953 369.494C373.768 369.538 385.743 377.678 385.149 378.978C384.555 380.278 382.279 380.807 381.366 380.388C380.036 379.76 371.975 376.323 371.975 376.323L366.697 377.568L362.925 373.206Z" fill="white"/>
<mask id="mask13_726_3157" style="mask-type:luminance" maskUnits="userSpaceOnUse" x="362" y="369" width="24" height="12">
<path d="M362.925 373.206C362.925 373.206 370.15 369.45 371.953 369.494C373.768 369.538 385.743 377.678 385.149 378.978C384.555 380.278 382.279 380.807 381.366 380.388C380.036 379.76 371.975 376.323 371.975 376.323L366.697 377.568L362.925 373.206Z" fill="white"/>
</mask>
<g mask="url(#mask13_726_3157)">
<path d="M362.925 373.206C362.925 373.206 370.15 369.45 371.953 369.494C373.768 369.538 385.743 377.678 385.149 378.978C384.555 380.278 381.718 381.335 381.366 380.388C381.014 379.441 371.975 376.323 371.975 376.323L366.697 377.568L362.925 373.206Z" fill="#22A4E6"/>
</g>
<mask id="mask14_726_3157" style="mask-type:luminance" maskUnits="userSpaceOnUse" x="362" y="369" width="24" height="12">
<path d="M362.925 373.206C362.925 373.206 370.15 369.45 371.953 369.494C373.768 369.538 385.743 377.678 385.149 378.978C384.555 380.278 382.279 380.807 381.366 380.388C380.036 379.76 371.975 376.323 371.975 376.323L366.697 377.568L362.925 373.206Z" fill="white"/>
</mask>
<g mask="url(#mask14_726_3157)">
<path opacity="0.5" d="M362.925 373.206C362.925 373.206 370.15 369.45 371.953 369.494C373.768 369.538 385.743 377.678 385.149 378.978C384.555 380.278 381.718 381.335 381.366 380.388C381.014 379.441 371.975 376.323 371.975 376.323L366.697 377.568L362.925 373.206Z" fill="white"/>
</g>
<path d="M362.925 373.206C362.925 373.206 370.15 369.45 371.953 369.494C373.768 369.538 385.743 377.678 385.149 378.978C384.555 380.278 382.279 380.807 381.366 380.388C380.036 379.76 371.975 376.323 371.975 376.323L366.697 377.568L362.925 373.206Z" stroke="#263238" stroke-miterlimit="10" stroke-linecap="round" stroke-linejoin="round"/>
<path d="M357.811 367.027C357.811 367.027 367.444 366.718 369.358 367.688C371.271 368.668 379.915 383.505 378.617 384.585C377.319 385.664 373.746 385.334 373.855 384.144C373.965 382.955 365.894 374.991 365.894 374.991L359.615 373.614L357.811 367.027Z" fill="white"/>
<mask id="mask15_726_3157" style="mask-type:luminance" maskUnits="userSpaceOnUse" x="357" y="366" width="22" height="20">
<path d="M357.811 367.027C357.811 367.027 367.444 366.718 369.358 367.688C371.271 368.668 379.915 383.505 378.617 384.585C377.319 385.664 373.746 385.334 373.855 384.144C373.965 382.955 365.894 374.991 365.894 374.991L359.615 373.614L357.811 367.027Z" fill="white"/>
</mask>
<g mask="url(#mask15_726_3157)">
<path d="M357.811 367.027C357.811 367.027 367.444 366.718 369.358 367.688C371.271 368.668 379.915 383.505 378.617 384.585C377.319 385.664 373.746 385.334 373.855 384.144C373.965 382.955 365.894 374.991 365.894 374.991L359.615 373.614L357.811 367.027Z" fill="#22A4E6"/>
</g>
<mask id="mask16_726_3157" style="mask-type:luminance" maskUnits="userSpaceOnUse" x="357" y="366" width="22" height="20">
<path d="M357.811 367.027C357.811 367.027 367.444 366.718 369.358 367.688C371.271 368.668 379.915 383.505 378.617 384.585C377.319 385.664 373.746 385.334 373.855 384.144C373.965 382.955 365.894 374.991 365.894 374.991L359.615 373.614L357.811 367.027Z" fill="white"/>
</mask>
<g mask="url(#mask16_726_3157)">
<path opacity="0.5" d="M357.811 367.027C357.811 367.027 367.444 366.718 369.358 367.688C371.271 368.668 379.915 383.505 378.617 384.585C377.319 385.664 373.746 385.334 373.855 384.144C373.965 382.955 365.894 374.991 365.894 374.991L359.615 373.614L357.811 367.027Z" fill="white"/>
</g>
<path d="M357.811 367.027C357.811 367.027 367.444 366.718 369.358 367.688C371.271 368.668 379.915 383.505 378.617 384.585C377.319 385.664 373.746 385.334 373.855 384.144C373.965 382.955 365.894 374.991 365.894 374.991L359.615 373.614L357.811 367.027Z" stroke="#263238" stroke-miterlimit="10" stroke-linecap="round" stroke-linejoin="round"/>
<path d="M352.115 365.033C352.115 365.033 361.869 364.713 363.804 365.705C365.74 366.696 374.482 381.71 373.174 382.8C371.854 383.891 368.236 383.56 368.357 382.36C368.467 381.148 360.297 373.096 360.297 373.096L353.94 371.697L352.115 365.033Z" fill="white"/>
<mask id="mask17_726_3157" style="mask-type:luminance" maskUnits="userSpaceOnUse" x="352" y="364" width="22" height="20">
<path d="M352.115 365.033C352.115 365.033 361.869 364.713 363.804 365.705C365.74 366.696 374.482 381.71 373.174 382.8C371.854 383.891 368.236 383.56 368.357 382.36C368.467 381.148 360.297 373.096 360.297 373.096L353.94 371.697L352.115 365.033Z" fill="white"/>
</mask>
<g mask="url(#mask17_726_3157)">
<path d="M352.115 365.033C352.115 365.033 361.869 364.713 363.804 365.705C365.74 366.696 374.482 381.71 373.174 382.8C371.854 383.891 368.236 383.56 368.357 382.36C368.467 381.148 360.297 373.096 360.297 373.096L353.94 371.697L352.115 365.033Z" fill="#22A4E6"/>
</g>
<mask id="mask18_726_3157" style="mask-type:luminance" maskUnits="userSpaceOnUse" x="352" y="364" width="22" height="20">
<path d="M352.115 365.033C352.115 365.033 361.869 364.713 363.804 365.705C365.74 366.696 374.482 381.71 373.174 382.8C371.854 383.891 368.236 383.56 368.357 382.36C368.467 381.148 360.297 373.096 360.297 373.096L353.94 371.697L352.115 365.033Z" fill="white"/>
</mask>
<g mask="url(#mask18_726_3157)">
<path opacity="0.5" d="M352.115 365.033C352.115 365.033 361.869 364.713 363.804 365.705C365.74 366.696 374.482 381.71 373.174 382.8C371.854 383.891 368.236 383.56 368.357 382.36C368.467 381.148 360.297 373.096 360.297 373.096L353.94 371.697L352.115 365.033Z" fill="white"/>
</g>
<path d="M352.115 365.033C352.115 365.033 361.869 364.713 363.804 365.705C365.74 366.696 374.482 381.71 373.174 382.8C371.854 383.891 368.236 383.56 368.357 382.36C368.467 381.148 360.297 373.096 360.297 373.096L353.94 371.697L352.115 365.033Z" stroke="#263238" stroke-miterlimit="10" stroke-linecap="round" stroke-linejoin="round"/>
<path d="M241.202 309.054C248.262 319.948 262.437 347.552 266.572 350.658C273.027 355.505 316.178 367.269 320.334 370.496C324.491 373.724 324.194 376.94 328.142 378.119C332.09 379.297 346.848 382.69 352.467 383.208C358.086 383.726 355.579 380.245 355.579 380.245L345.979 373.68L354.347 371.609C354.347 371.609 362.738 381.721 364.31 382.272C365.883 382.822 368.665 382.25 368.478 381.038C368.181 379.044 359.219 362.731 356.052 362.037C352.874 361.343 333.586 364.019 333.586 364.019C333.586 364.019 293.129 336.691 292.403 335.721C292.403 335.721 289.984 328.848 287.96 326.017C285.937 323.186 284.727 324.001 284.727 324.001C284.727 324.001 285.53 320.366 284.32 319.154C283.111 317.943 277.865 312.689 277.865 312.689L277.634 312.997C276.579 310.772 275.446 308.271 274.225 305.408C270.849 297.444 258.896 275.094 256.872 271.866C255.377 269.465 242.742 267.736 236.342 266.998" fill="#22A4E6"/>
<mask id="mask19_726_3157" style="mask-type:luminance" maskUnits="userSpaceOnUse" x="236" y="266" width="133" height="118">
<path d="M241.202 309.054C248.262 319.948 262.437 347.552 266.572 350.658C273.027 355.505 316.178 367.269 320.334 370.496C324.491 373.724 324.194 376.94 328.142 378.119C332.09 379.297 346.848 382.69 352.467 383.208C358.086 383.726 355.579 380.245 355.579 380.245L345.979 373.68L354.347 371.609C354.347 371.609 362.738 381.721 364.31 382.272C365.883 382.822 368.665 382.25 368.478 381.038C368.181 379.044 359.219 362.731 356.052 362.037C352.874 361.343 333.586 364.019 333.586 364.019C333.586 364.019 293.129 336.691 292.403 335.721C292.403 335.721 289.984 328.848 287.96 326.017C285.937 323.186 284.727 324.001 284.727 324.001C284.727 324.001 285.53 320.366 284.32 319.154C283.111 317.943 277.865 312.689 277.865 312.689L277.634 312.997C276.579 310.772 275.446 308.271 274.225 305.408C270.849 297.444 258.896 275.094 256.872 271.866C255.377 269.465 242.742 267.736 236.342 266.998" fill="white"/>
</mask>
<g mask="url(#mask19_726_3157)">
<path opacity="0.16" d="M269.321 309.747C274.588 314.44 272.84 314.44 271.663 318.548C270.486 322.657 272.543 317.083 277.524 317.37C282.506 317.667 281.043 324.122 280.449 325.29C279.856 326.457 286.597 327.933 285.431 330.566C284.254 333.21 277.524 337.021 273.719 340.832C269.915 344.643 283.682 334.675 288.367 334.377C289.786 334.289 290.973 334.465 291.952 334.443C291.16 332.328 289.456 328.066 287.971 325.984C285.959 323.153 284.738 323.968 284.738 323.968C284.738 323.968 285.541 320.333 284.331 319.121C283.122 317.91 277.876 312.655 277.876 312.655L277.645 312.964C276.59 310.739 275.457 308.238 274.236 305.374C270.86 297.41 258.907 275.061 256.883 271.833C255.388 269.432 242.753 267.702 236.353 266.964L236.935 272.064L237.078 272.175C237.078 272.175 244.985 273.64 247.624 273.937C250.263 274.234 253.485 276.581 253.189 278.343C252.892 280.105 245.282 288.025 247.624 288.609C249.966 289.193 252.606 282.738 255.245 283.619C257.895 284.523 264.042 305.055 269.321 309.747Z" fill="black"/>
</g>
<path d="M241.202 309.054C248.262 319.948 262.437 347.552 266.572 350.658C273.027 355.505 316.178 367.269 320.334 370.496C324.491 373.724 324.194 376.94 328.142 378.119C332.09 379.297 346.848 382.69 352.467 383.208C358.086 383.726 355.579 380.245 355.579 380.245L345.979 373.68L354.347 371.609C354.347 371.609 362.738 381.721 364.31 382.272C365.883 382.822 368.665 382.25 368.478 381.038C368.181 379.044 359.219 362.731 356.052 362.037C352.874 361.343 333.586 364.019 333.586 364.019C333.586 364.019 293.129 336.691 292.403 335.721C292.403 335.721 289.984 328.848 287.96 326.017C285.937 323.186 284.727 324.001 284.727 324.001C284.727 324.001 285.53 320.366 284.32 319.154C283.111 317.943 277.865 312.689 277.865 312.689L277.634 312.997C276.579 310.772 275.446 308.271 274.225 305.408C270.849 297.444 258.896 275.094 256.872 271.866C255.377 269.465 242.742 267.736 236.342 266.998" stroke="#263238" stroke-miterlimit="10" stroke-linecap="round" stroke-linejoin="round"/>
<path d="M241.312 294.084C241.015 295.075 240.751 296.078 240.564 297.08" stroke="#263238" stroke-miterlimit="10" stroke-linecap="round" stroke-linejoin="round"/>
<path d="M252.001 275.876C252.001 275.876 246.843 281.505 243.335 288.929" stroke="#263238" stroke-miterlimit="10" stroke-linecap="round" stroke-linejoin="round"/>
<path d="M268.155 338.42C271.124 334.069 275.831 328.429 281.065 326.832" stroke="#263238" stroke-miterlimit="10" stroke-linecap="round" stroke-linejoin="round"/>
<path d="M264.867 343.84C264.867 343.84 265.395 342.804 266.34 341.24" stroke="#263238" stroke-miterlimit="10" stroke-linecap="round" stroke-linejoin="round"/>
<path d="M264.867 336.878C264.867 336.878 270.266 323.351 275.666 319.871C281.065 316.39 277.986 323.351 277.986 323.351" stroke="#263238" stroke-miterlimit="10" stroke-linecap="round" stroke-linejoin="round"/>
<path d="M320.346 370.497C324.502 373.724 324.205 376.94 328.153 378.119C332.101 379.298 346.859 382.69 352.478 383.208C358.097 383.726 355.59 380.245 355.59 380.245L345.99 373.68L354.358 371.609C354.358 371.609 362.749 381.721 364.321 382.272C365.894 382.823 368.885 383.021 368.489 381.038C367.719 377.172 359.23 362.731 356.063 362.037C352.885 361.343 333.597 364.02 333.597 364.02C333.597 364.02 296.747 338.652 292.711 335.942C277.062 337.451 269.596 345.668 266.484 350.581C266.517 350.603 266.561 350.647 266.594 350.669C273.038 355.505 316.189 367.269 320.346 370.497Z" fill="white"/>
<mask id="mask20_726_3157" style="mask-type:luminance" maskUnits="userSpaceOnUse" x="266" y="335" width="103" height="49">
<path d="M320.346 370.497C324.502 373.724 324.205 376.94 328.153 378.119C332.101 379.298 346.859 382.69 352.478 383.208C358.097 383.726 355.59 380.245 355.59 380.245L345.99 373.68L354.358 371.609C354.358 371.609 362.749 381.721 364.321 382.272C365.894 382.823 368.885 383.021 368.489 381.038C367.719 377.172 359.23 362.731 356.063 362.037C352.885 361.343 333.597 364.02 333.597 364.02C333.597 364.02 296.747 338.652 292.711 335.942C277.062 337.451 269.596 345.668 266.484 350.581C266.517 350.603 266.561 350.647 266.594 350.669C273.038 355.505 316.189 367.269 320.346 370.497Z" fill="white"/>
</mask>
<g mask="url(#mask20_726_3157)">
<path d="M368.478 381.027C366.488 376.125 359.219 362.72 356.052 362.026C352.874 361.332 333.586 364.008 333.586 364.008C333.586 364.008 296.736 338.64 292.7 335.931C288.004 336.382 284.067 337.44 280.735 338.828C286.553 342.11 325.327 364.141 330.21 365.143C335.411 366.211 352.72 363.392 355.777 365.44C357.712 366.74 363.442 375.894 367.368 382.393C368.489 382.205 368.885 382.018 368.478 381.027Z" fill="#22A4E6"/>
</g>
<mask id="mask21_726_3157" style="mask-type:luminance" maskUnits="userSpaceOnUse" x="266" y="335" width="103" height="49">
<path d="M320.346 370.497C324.502 373.724 324.205 376.94 328.153 378.119C332.101 379.298 346.859 382.69 352.478 383.208C358.097 383.726 355.59 380.245 355.59 380.245L345.99 373.68L354.358 371.609C354.358 371.609 362.749 381.721 364.321 382.272C365.894 382.823 368.885 383.021 368.489 381.038C367.719 377.172 359.23 362.731 356.063 362.037C352.885 361.343 333.597 364.02 333.597 364.02C333.597 364.02 296.747 338.652 292.711 335.942C277.062 337.451 269.596 345.668 266.484 350.581C266.517 350.603 266.561 350.647 266.594 350.669C273.038 355.505 316.189 367.269 320.346 370.497Z" fill="white"/>
</mask>
<g mask="url(#mask21_726_3157)">
<path opacity="0.5" d="M368.478 381.027C365.355 374.01 359.219 362.72 356.052 362.026C352.874 361.332 333.586 364.008 333.586 364.008C333.586 364.008 296.736 338.64 292.7 335.931C288.004 336.382 284.067 337.44 280.735 338.828C286.553 342.11 325.327 364.141 330.21 365.143C335.411 366.211 352.72 363.392 355.777 365.44C357.712 366.74 363.442 375.894 367.368 382.393C368.489 382.205 368.918 382.007 368.478 381.027Z" fill="white"/>
</g>
<path d="M320.346 370.497C324.502 373.724 324.205 376.94 328.153 378.119C332.101 379.298 346.859 382.69 352.478 383.208C358.097 383.726 355.59 380.245 355.59 380.245L345.99 373.68L354.358 371.609C354.358 371.609 362.749 381.721 364.321 382.272C365.894 382.823 368.885 383.021 368.489 381.038C367.719 377.172 359.23 362.731 356.063 362.037C352.885 361.343 333.597 364.02 333.597 364.02C333.597 364.02 296.747 338.652 292.711 335.942C277.062 337.451 269.596 345.668 266.484 350.581C266.517 350.603 266.561 350.647 266.594 350.669C273.038 355.505 316.189 367.269 320.346 370.497Z" stroke="#263238" stroke-miterlimit="10" stroke-linecap="round" stroke-linejoin="round"/>
<path d="M223.145 178.149L190.023 191.995C190.023 191.995 189.682 200.554 185.768 208.859C181.853 217.165 184.14 232.85 187.901 241.321C191.662 249.792 208.234 246.476 214.337 245.419C220.44 244.361 226.368 241.905 226.368 241.905C226.368 241.905 231.778 244.339 237.089 240.407C237.089 240.407 219.33 190.552 223.145 178.149Z" fill="white"/>
<mask id="mask22_726_3157" style="mask-type:luminance" maskUnits="userSpaceOnUse" x="183" y="178" width="55" height="69">
<path d="M223.145 178.149L190.023 191.995C190.023 191.995 189.682 200.554 185.768 208.859C181.853 217.165 184.14 232.85 187.901 241.321C191.662 249.792 208.234 246.476 214.337 245.419C220.44 244.361 226.368 241.905 226.368 241.905C226.368 241.905 231.778 244.339 237.089 240.407C237.089 240.407 219.33 190.552 223.145 178.149Z" fill="white"/>
</mask>
<g mask="url(#mask22_726_3157)">
<path d="M223.145 178.149L190.023 191.995C190.023 191.995 189.682 200.554 185.768 208.859C181.853 217.165 184.14 232.85 187.901 241.321C188.539 242.753 189.551 243.855 190.815 244.681V244.042C190.815 244.042 184.668 228.786 185.834 219.985C187.01 211.183 191.981 206.777 192.575 201.204C193.157 195.63 192.872 192.986 204 188.878C215.129 184.769 219.813 180.958 220.99 185.066C222.167 189.175 226.851 216.162 230.073 222.617C233.295 229.072 232.999 235.824 228.028 238.755C224.014 241.123 217.911 244.24 212.006 245.826C212.886 245.672 213.677 245.54 214.348 245.419C220.451 244.361 226.379 241.905 226.379 241.905C226.379 241.905 231.789 244.339 237.1 240.407C237.089 240.407 219.33 190.552 223.145 178.149Z" fill="#22A4E6"/>
</g>
<mask id="mask23_726_3157" style="mask-type:luminance" maskUnits="userSpaceOnUse" x="183" y="178" width="55" height="69">
<path d="M223.145 178.149L190.023 191.995C190.023 191.995 189.682 200.554 185.768 208.859C181.853 217.165 184.14 232.85 187.901 241.321C191.662 249.792 208.234 246.476 214.337 245.419C220.44 244.361 226.368 241.905 226.368 241.905C226.368 241.905 231.778 244.339 237.089 240.407C237.089 240.407 219.33 190.552 223.145 178.149Z" fill="white"/>
</mask>
<g mask="url(#mask23_726_3157)">
<path opacity="0.5" d="M223.145 178.149L190.023 191.995C190.023 191.995 189.682 200.554 185.768 208.859C181.853 217.165 184.14 232.85 187.901 241.321C188.539 242.753 189.551 243.855 190.815 244.681V244.042C190.815 244.042 184.668 228.786 185.834 219.985C187.01 211.183 191.981 206.777 192.575 201.204C193.157 195.63 192.872 192.986 204 188.878C215.129 184.769 219.813 180.958 220.99 185.066C222.167 189.175 226.851 216.162 230.073 222.617C233.295 229.072 232.999 235.824 228.028 238.755C224.014 241.123 217.911 244.24 212.006 245.826C212.886 245.672 213.677 245.54 214.348 245.419C220.451 244.361 226.379 241.905 226.379 241.905C226.379 241.905 231.789 244.339 237.1 240.407C237.089 240.407 219.33 190.552 223.145 178.149Z" fill="white"/>
</g>
<path d="M223.145 178.149L190.023 191.995C190.023 191.995 189.682 200.554 185.768 208.859C181.853 217.165 184.14 232.85 187.901 241.321C191.662 249.792 208.234 246.476 214.337 245.419C220.44 244.361 226.368 241.905 226.368 241.905C226.368 241.905 231.778 244.339 237.089 240.407C237.089 240.407 219.33 190.552 223.145 178.149Z" stroke="#263238" stroke-miterlimit="10" stroke-linecap="round" stroke-linejoin="round"/>
<path d="M206.409 199.86C206.409 199.86 206.585 203.396 205.705 205.632C204.825 207.868 196.523 216.493 196.775 217.418C197.028 218.343 197.776 221.362 199.25 221.659" stroke="#263238" stroke-miterlimit="10" stroke-linecap="round" stroke-linejoin="round"/>
<path d="M215.591 207.603C216.745 205.29 220.539 207.548 220.484 212.758" stroke="#263238" stroke-miterlimit="10" stroke-linecap="round" stroke-linejoin="round"/>
<path d="M196.819 200.796C196.819 200.796 200.052 199.364 202.934 204.619" stroke="#263238" stroke-miterlimit="10" stroke-linecap="round" stroke-linejoin="round"/>
<path d="M211.016 215.237C211.016 215.237 216.459 215.204 221.056 219.456" stroke="#263238" stroke-width="0.5" stroke-miterlimit="10" stroke-linecap="round" stroke-linejoin="round"/>
<path d="M192.916 208.353C192.916 208.353 196.533 208.859 198.513 209.906" stroke="#263238" stroke-width="0.5" stroke-miterlimit="10" stroke-linecap="round" stroke-linejoin="round"/>
<path d="M206.057 194.991C206.057 194.991 203.45 193.438 200.492 194.859C197.534 196.28 195.72 197.855 195.918 196.027C196.115 194.198 199.601 192.205 200.635 191.94C201.669 191.676 206.342 190.927 206.057 194.991Z" fill="#263238"/>
<path d="M214.348 190.861C214.348 190.861 219.308 194.694 221.485 200.179C223.662 205.665 225.422 199.662 223.662 196.06C221.892 192.469 216.932 188.635 214.348 190.861Z" fill="#263238"/>
<path d="M237.529 249.825C237.529 252.391 236.088 254.473 234.296 254.473C232.515 254.473 231.063 252.391 231.063 249.825C231.063 247.258 232.504 240.726 234.296 240.726C236.088 240.726 237.529 247.258 237.529 249.825Z" fill="#22A4E6" stroke="#263238" stroke-miterlimit="10" stroke-linecap="round" stroke-linejoin="round"/>
<path d="M215.899 206.601C215.778 206.921 215.679 207.262 215.602 207.637C215.283 209.267 214.964 212.67 215.657 212.814C216.35 212.957 217.801 209.773 218.12 208.143C218.186 207.802 218.219 207.482 218.241 207.174C217.438 206.921 216.624 206.733 215.899 206.601Z" fill="#263238"/>
<path d="M197.149 200.499C197.05 200.774 196.973 201.06 196.907 201.38C196.588 203.01 196.588 206.59 197.292 206.733C197.985 206.876 199.107 203.517 199.437 201.886C199.525 201.468 199.558 201.06 199.569 200.686C198.667 200.432 197.853 200.41 197.149 200.499Z" fill="#263238"/>
<path d="M215.646 207.659L216.723 205.61C216.723 205.61 219.561 206.084 221.221 208.209" stroke="#263238" stroke-width="0.75" stroke-miterlimit="10" stroke-linecap="round" stroke-linejoin="round"/>
<path d="M197.149 200.499L198.271 199.21C198.271 199.21 198.744 198.967 201.339 200.157" stroke="#263238" stroke-width="0.75" stroke-miterlimit="10" stroke-linecap="round" stroke-linejoin="round"/>
<path d="M192.97 230.35C192.97 230.35 194.818 226.946 197.292 226.946C199.766 226.946 201.614 232.509 201.614 232.509" stroke="#263238" stroke-miterlimit="10" stroke-linecap="round" stroke-linejoin="round"/>
<path d="M113.387 377.138C110.605 377.138 107.614 375.981 106.459 375.486C105.239 374.968 104.678 373.558 105.206 372.335C105.722 371.113 107.141 370.551 108.351 371.079C110.561 372.027 113.398 372.6 114.168 372.28C115.553 370.716 117.709 361.221 114.927 356.705C114.311 355.691 113.728 355.515 113.343 355.46C111.771 355.24 109.439 356.87 108.615 357.641C107.647 358.544 106.129 358.489 105.228 357.52C104.326 356.55 104.381 355.03 105.349 354.127C105.788 353.72 109.758 350.129 113.992 350.701C115.433 350.9 117.467 351.66 119.017 354.193C123.108 360.846 120.304 373.536 117.17 376.047C116.136 376.851 114.795 377.138 113.387 377.138Z" fill="white"/>
<mask id="mask24_726_3157" style="mask-type:luminance" maskUnits="userSpaceOnUse" x="104" y="350" width="18" height="28">
<path d="M113.387 377.138C110.605 377.138 107.614 375.981 106.459 375.486C105.239 374.968 104.678 373.558 105.206 372.335C105.722 371.113 107.141 370.551 108.351 371.079C110.561 372.027 113.398 372.6 114.168 372.28C115.553 370.716 117.709 361.221 114.927 356.705C114.311 355.691 113.728 355.515 113.343 355.46C111.771 355.24 109.439 356.87 108.615 357.641C107.647 358.544 106.129 358.489 105.228 357.52C104.326 356.55 104.381 355.03 105.349 354.127C105.788 353.72 109.758 350.129 113.992 350.701C115.433 350.9 117.467 351.66 119.017 354.193C123.108 360.846 120.304 373.536 117.17 376.047C116.136 376.851 114.795 377.138 113.387 377.138Z" fill="white"/>
</mask>
<g mask="url(#mask24_726_3157)">
<path d="M116.576 355.967C115.565 354.017 114.245 353.433 113.31 353.279C110.561 352.838 107.977 355.603 107.691 355.912C107.141 356.517 107.075 357.476 107.449 358.203C107.867 358.115 108.274 357.927 108.604 357.619C109.428 356.848 111.76 355.229 113.332 355.438C113.717 355.493 114.3 355.68 114.916 356.683C117.698 361.199 115.543 370.694 114.157 372.258C113.387 372.589 110.55 372.005 108.34 371.057C108.065 370.936 107.768 370.881 107.482 370.87C107.548 371.498 107.878 372.071 108.406 372.346C109.153 372.732 111.1 373.613 112.914 373.613C113.827 373.613 114.696 373.382 115.367 372.754C117.412 370.837 119.226 361.089 116.576 355.967Z" fill="#22A4E6"/>
</g>
<mask id="mask25_726_3157" style="mask-type:luminance" maskUnits="userSpaceOnUse" x="104" y="350" width="18" height="28">
<path d="M113.387 377.138C110.605 377.138 107.614 375.981 106.459 375.486C105.239 374.968 104.678 373.558 105.206 372.335C105.722 371.113 107.141 370.551 108.351 371.079C110.561 372.027 113.398 372.6 114.168 372.28C115.553 370.716 117.709 361.221 114.927 356.705C114.311 355.691 113.728 355.515 113.343 355.46C111.771 355.24 109.439 356.87 108.615 357.641C107.647 358.544 106.129 358.489 105.228 357.52C104.326 356.55 104.381 355.03 105.349 354.127C105.788 353.72 109.758 350.129 113.992 350.701C115.433 350.9 117.467 351.66 119.017 354.193C123.108 360.846 120.304 373.536 117.17 376.047C116.136 376.851 114.795 377.138 113.387 377.138Z" fill="white"/>
</mask>
<g mask="url(#mask25_726_3157)">
<path opacity="0.5" d="M116.576 355.967C115.565 354.017 114.245 353.433 113.31 353.279C110.561 352.838 107.977 355.603 107.691 355.912C107.141 356.517 107.075 357.476 107.449 358.203C107.867 358.115 108.274 357.927 108.604 357.619C109.428 356.848 111.76 355.229 113.332 355.438C113.717 355.493 114.3 355.68 114.916 356.683C117.698 361.199 115.543 370.694 114.157 372.258C113.387 372.589 110.55 372.005 108.34 371.057C108.065 370.936 107.768 370.881 107.482 370.87C107.548 371.498 107.878 372.071 108.406 372.346C109.153 372.732 111.1 373.613 112.914 373.613C113.827 373.613 114.696 373.382 115.367 372.754C117.412 370.837 119.226 361.089 116.576 355.967Z" fill="white"/>
</g>
<path d="M113.387 377.138C110.605 377.138 107.614 375.981 106.459 375.486C105.239 374.968 104.678 373.558 105.206 372.335C105.722 371.113 107.141 370.551 108.351 371.079C110.561 372.027 113.398 372.6 114.168 372.28C115.553 370.716 117.709 361.221 114.927 356.705C114.311 355.691 113.728 355.515 113.343 355.46C111.771 355.24 109.439 356.87 108.615 357.641C107.647 358.544 106.129 358.489 105.228 357.52C104.326 356.55 104.381 355.03 105.349 354.127C105.788 353.72 109.758 350.129 113.992 350.701C115.433 350.9 117.467 351.66 119.017 354.193C123.108 360.846 120.304 373.536 117.17 376.047C116.136 376.851 114.795 377.138 113.387 377.138Z" stroke="#263238" stroke-miterlimit="10" stroke-linecap="round" stroke-linejoin="round"/>
<path d="M109.142 348.719H82.6953V383.879H109.142V348.719Z" fill="white"/>
<mask id="mask26_726_3157" style="mask-type:luminance" maskUnits="userSpaceOnUse" x="82" y="348" width="28" height="36">
<path d="M109.142 348.719H82.6953V383.879H109.142V348.719Z" fill="white"/>
</mask>
<g mask="url(#mask26_726_3157)">
<path d="M93.5271 348.719H82.6953V383.879H93.5271V348.719Z" fill="#22A4E6"/>
</g>
<mask id="mask27_726_3157" style="mask-type:luminance" maskUnits="userSpaceOnUse" x="82" y="348" width="28" height="36">
<path d="M109.142 348.719H82.6953V383.879H109.142V348.719Z" fill="white"/>
</mask>
<g mask="url(#mask27_726_3157)">
<path opacity="0.5" d="M93.5271 348.719H82.6953V383.879H93.5271V348.719Z" fill="white"/>
</g>
<path d="M109.142 348.719H82.6953V383.879H109.142V348.719Z" stroke="#263238" stroke-miterlimit="10" stroke-linecap="round" stroke-linejoin="round"/>
<path d="M254.475 383.395H141.506L137.811 321.181C137.382 318.603 139.361 316.246 141.979 316.246H254.002C256.619 316.246 258.599 318.592 258.17 321.181L254.475 383.395Z" fill="#263238" stroke="#263238" stroke-miterlimit="10" stroke-linecap="round" stroke-linejoin="round"/>
<path d="M147.059 317.733H253.178C255.751 317.733 257.708 320.013 257.279 322.513" stroke="white" stroke-miterlimit="10" stroke-linecap="round" stroke-linejoin="round"/>
<path d="M138.647 321.533C138.801 319.451 140.571 317.744 142.803 317.744" stroke="white" stroke-miterlimit="10" stroke-linecap="round" stroke-linejoin="round"/>
<path d="M254.948 377.336H141.022V383.395H254.948V377.336Z" fill="white" stroke="#263238" stroke-miterlimit="10" stroke-linecap="round" stroke-linejoin="round"/>
<path d="M197.589 354.909C202.047 354.909 205.661 352.739 205.661 350.062C205.661 347.386 202.047 345.216 197.589 345.216C193.131 345.216 189.518 347.386 189.518 350.062C189.518 352.739 193.131 354.909 197.589 354.909Z" fill="white" stroke="#263238" stroke-miterlimit="10" stroke-linecap="round" stroke-linejoin="round"/>
<path d="M426.783 382.679H2.46326V393H426.783V382.679Z" fill="#263238"/>
<path d="M316.76 142.283H112.628C105.744 142.283 100.169 136.699 100.169 129.803V12.4802C100.169 5.5847 105.744 0 112.628 0H316.76C323.644 0 329.22 5.5847 329.22 12.4802V129.803C329.22 136.699 323.644 142.283 316.76 142.283Z" fill="#22A4E6"/>
<path d="M220.084 81.7623C238.6 78.781 251.197 61.3286 248.221 42.7812C245.245 24.2339 227.822 11.6151 209.305 14.5965C190.789 17.5778 178.192 35.0302 181.168 53.5776C184.144 72.1249 201.567 84.7436 220.084 81.7623Z" fill="#263238"/>
<path d="M214.436 54.4701L203.131 69.0212C202.153 70.354 200.954 71.0259 199.535 71.0259C198.513 71.0259 197.633 70.6735 196.896 69.9795C196.159 69.2855 195.785 68.4153 195.785 67.3689C195.785 66.3885 196.159 65.3862 196.907 64.3618L209.806 48.3677L197.688 32.3847C197.105 31.5695 196.808 30.7103 196.808 29.7851C196.808 28.6395 197.237 27.6371 198.084 26.7999C198.941 25.9518 199.931 25.5332 201.053 25.5332C202.427 25.5332 203.604 26.2161 204.583 27.571L215.514 42.0009L226.543 27.8244C227.643 26.3043 228.908 25.5442 230.326 25.5442C231.305 25.5442 232.152 25.9077 232.855 26.6237C233.559 27.3397 233.922 28.1989 233.922 29.1792C233.922 29.9944 233.636 30.7764 233.075 31.5255L220.154 48.0923L232.646 64.6151C233.273 65.4523 233.581 66.3114 233.581 67.2147C233.581 68.3382 233.141 69.3076 232.273 70.1117C231.404 70.9158 230.403 71.3123 229.27 71.3123C227.852 71.3123 226.664 70.6404 225.707 69.3076L214.436 54.4701Z" fill="white"/>
<path d="M279.438 117.642H149.962C144.497 117.642 140.054 113.203 140.054 107.718C140.054 102.243 144.486 97.793 149.962 97.793H279.438C284.903 97.793 289.346 102.232 289.346 107.718C289.335 113.203 284.903 117.642 279.438 117.642Z" fill="white"/>
<path d="M167.689 110.923C167.513 110.923 167.359 110.857 167.227 110.725C167.095 110.593 167.029 110.427 167.029 110.24C167.029 110.097 167.073 109.943 167.161 109.788L168.14 108.246L166.127 108.301C165.907 108.301 165.742 108.235 165.622 108.103C165.501 107.971 165.446 107.817 165.446 107.629C165.446 107.442 165.501 107.288 165.622 107.156C165.742 107.024 165.907 106.958 166.127 106.958L168.118 107.013L167.183 105.526C167.084 105.349 167.029 105.184 167.029 105.041C167.029 104.843 167.095 104.677 167.227 104.545C167.359 104.413 167.524 104.347 167.7 104.347C167.953 104.347 168.151 104.468 168.283 104.721L169.25 106.451L170.174 104.788C170.35 104.49 170.57 104.336 170.845 104.336C171.021 104.336 171.175 104.402 171.307 104.534C171.439 104.666 171.505 104.821 171.505 105.019C171.505 105.162 171.461 105.316 171.373 105.459L170.394 107.013L172.406 106.958C172.626 106.958 172.791 107.024 172.912 107.156C173.033 107.288 173.088 107.442 173.088 107.629C173.088 107.817 173.033 107.971 172.912 108.103C172.791 108.235 172.626 108.301 172.406 108.301L170.372 108.246L171.274 109.656C171.384 109.855 171.439 110.042 171.439 110.218C171.439 110.416 171.373 110.582 171.241 110.714C171.109 110.846 170.966 110.912 170.79 110.912C170.526 110.912 170.317 110.769 170.152 110.482L169.239 108.863L168.327 110.482C168.184 110.769 167.964 110.923 167.689 110.923Z" fill="black"/>
<path d="M177.784 110.923C177.608 110.923 177.454 110.857 177.322 110.725C177.19 110.593 177.124 110.427 177.124 110.24C177.124 110.097 177.168 109.943 177.256 109.788L178.235 108.246L176.222 108.301C176.002 108.301 175.837 108.235 175.716 108.103C175.595 107.971 175.541 107.817 175.541 107.629C175.541 107.442 175.595 107.288 175.716 107.156C175.837 107.024 176.002 106.958 176.222 106.958L178.213 107.013L177.278 105.526C177.179 105.349 177.124 105.184 177.124 105.041C177.124 104.843 177.19 104.677 177.333 104.545C177.465 104.413 177.63 104.347 177.806 104.347C178.059 104.347 178.257 104.468 178.389 104.721L179.356 106.451L180.28 104.788C180.456 104.49 180.676 104.336 180.94 104.336C181.116 104.336 181.27 104.402 181.402 104.534C181.534 104.666 181.6 104.821 181.6 105.019C181.6 105.162 181.556 105.316 181.468 105.459L180.5 107.013L182.512 106.958C182.732 106.958 182.897 107.024 183.018 107.156C183.139 107.288 183.194 107.442 183.194 107.629C183.194 107.817 183.139 107.971 183.018 108.103C182.897 108.235 182.732 108.301 182.512 108.301L180.478 108.246L181.38 109.656C181.49 109.855 181.545 110.042 181.545 110.218C181.545 110.416 181.479 110.582 181.347 110.714C181.215 110.846 181.072 110.912 180.896 110.912C180.632 110.912 180.423 110.769 180.258 110.482L179.345 108.863L178.433 110.482C178.279 110.769 178.059 110.923 177.784 110.923Z" fill="black"/>
<path d="M187.879 110.923C187.703 110.923 187.549 110.857 187.417 110.725C187.285 110.593 187.219 110.427 187.219 110.24C187.219 110.097 187.263 109.943 187.351 109.788L188.33 108.246L186.317 108.301C186.097 108.301 185.932 108.235 185.811 108.103C185.69 107.971 185.635 107.817 185.635 107.629C185.635 107.442 185.69 107.288 185.811 107.156C185.932 107.024 186.097 106.958 186.317 106.958L188.308 107.013L187.373 105.526C187.274 105.349 187.219 105.184 187.219 105.041C187.219 104.843 187.285 104.677 187.428 104.545C187.56 104.413 187.725 104.347 187.901 104.347C188.154 104.347 188.352 104.468 188.484 104.721L189.451 106.451L190.375 104.788C190.551 104.49 190.771 104.336 191.035 104.336C191.211 104.336 191.365 104.402 191.497 104.534C191.629 104.666 191.695 104.821 191.695 105.019C191.695 105.162 191.651 105.316 191.563 105.459L190.595 107.013L192.607 106.958C192.827 106.958 192.992 107.024 193.113 107.156C193.234 107.288 193.289 107.442 193.289 107.629C193.289 107.817 193.234 107.971 193.113 108.103C192.992 108.235 192.827 108.301 192.607 108.301L190.573 108.246L191.475 109.656C191.585 109.855 191.64 110.042 191.64 110.218C191.64 110.416 191.574 110.582 191.442 110.714C191.31 110.846 191.167 110.912 190.991 110.912C190.727 110.912 190.518 110.769 190.353 110.482L189.44 108.863L188.528 110.482C188.374 110.769 188.154 110.923 187.879 110.923Z" fill="black"/>
<path d="M197.974 110.923C197.798 110.923 197.644 110.857 197.512 110.725C197.38 110.593 197.314 110.427 197.314 110.24C197.314 110.097 197.358 109.943 197.446 109.788L198.425 108.246L196.412 108.301C196.192 108.301 196.027 108.235 195.906 108.103C195.785 107.971 195.73 107.817 195.73 107.629C195.73 107.442 195.785 107.288 195.906 107.156C196.027 107.024 196.192 106.958 196.412 106.958L198.403 107.013L197.468 105.526C197.369 105.349 197.314 105.184 197.314 105.041C197.314 104.843 197.38 104.677 197.512 104.545C197.644 104.413 197.809 104.347 197.985 104.347C198.238 104.347 198.436 104.468 198.568 104.721L199.535 106.451L200.459 104.788C200.635 104.49 200.855 104.336 201.13 104.336C201.306 104.336 201.46 104.402 201.592 104.534C201.724 104.666 201.79 104.821 201.79 105.019C201.79 105.162 201.746 105.316 201.658 105.459L200.679 107.013L202.691 106.958C202.911 106.958 203.076 107.024 203.197 107.156C203.318 107.288 203.373 107.442 203.373 107.629C203.373 107.817 203.318 107.971 203.197 108.103C203.076 108.235 202.911 108.301 202.691 108.301L200.657 108.246L201.559 109.656C201.669 109.855 201.724 110.042 201.724 110.218C201.724 110.416 201.658 110.582 201.526 110.714C201.394 110.846 201.251 110.912 201.075 110.912C200.811 110.912 200.602 110.769 200.437 110.482L199.524 108.863L198.612 110.482C198.469 110.769 198.249 110.923 197.974 110.923Z" fill="black"/>
<path d="M208.08 110.923C207.904 110.923 207.75 110.857 207.618 110.725C207.486 110.593 207.42 110.427 207.42 110.24C207.42 110.097 207.464 109.943 207.552 109.788L208.531 108.246L206.518 108.301C206.298 108.301 206.133 108.235 206.012 108.103C205.891 107.971 205.836 107.817 205.836 107.629C205.836 107.442 205.891 107.288 206.012 107.156C206.133 107.024 206.298 106.958 206.518 106.958L208.509 107.013L207.574 105.526C207.475 105.349 207.42 105.184 207.42 105.041C207.42 104.843 207.486 104.677 207.629 104.545C207.761 104.413 207.926 104.347 208.102 104.347C208.355 104.347 208.553 104.468 208.685 104.721L209.652 106.451L210.576 104.788C210.752 104.49 210.972 104.336 211.236 104.336C211.412 104.336 211.566 104.402 211.698 104.534C211.83 104.666 211.896 104.821 211.896 105.019C211.896 105.162 211.852 105.316 211.764 105.459L210.796 107.013L212.808 106.958C213.028 106.958 213.193 107.024 213.314 107.156C213.435 107.288 213.49 107.442 213.49 107.629C213.49 107.817 213.435 107.971 213.314 108.103C213.193 108.235 213.028 108.301 212.808 108.301L210.774 108.246L211.676 109.656C211.786 109.855 211.841 110.042 211.841 110.218C211.841 110.416 211.775 110.582 211.643 110.714C211.511 110.846 211.368 110.912 211.192 110.912C210.928 110.912 210.719 110.769 210.554 110.482L209.641 108.863L208.729 110.482C208.564 110.769 208.344 110.923 208.08 110.923Z" fill="black"/>
<path d="M218.164 110.923C217.988 110.923 217.834 110.857 217.702 110.725C217.57 110.593 217.504 110.427 217.504 110.24C217.504 110.097 217.548 109.943 217.636 109.788L218.615 108.246L216.602 108.301C216.382 108.301 216.217 108.235 216.096 108.103C215.975 107.971 215.92 107.817 215.92 107.629C215.92 107.442 215.975 107.288 216.096 107.156C216.217 107.024 216.382 106.958 216.602 106.958L218.582 107.013L217.647 105.526C217.548 105.349 217.504 105.184 217.504 105.041C217.504 104.843 217.57 104.677 217.702 104.545C217.834 104.413 217.999 104.347 218.175 104.347C218.428 104.347 218.626 104.468 218.758 104.721L219.725 106.451L220.649 104.788C220.825 104.49 221.045 104.336 221.309 104.336C221.485 104.336 221.639 104.402 221.771 104.534C221.903 104.666 221.969 104.821 221.969 105.019C221.969 105.162 221.925 105.316 221.837 105.459L220.869 107.013L222.881 106.958C223.101 106.958 223.266 107.024 223.387 107.156C223.508 107.288 223.563 107.442 223.563 107.629C223.563 107.817 223.508 107.971 223.387 108.103C223.266 108.235 223.101 108.301 222.881 108.301L220.847 108.246L221.749 109.656C221.859 109.855 221.914 110.042 221.914 110.218C221.914 110.416 221.848 110.582 221.716 110.714C221.584 110.846 221.441 110.912 221.265 110.912C221.001 110.912 220.792 110.769 220.627 110.482L219.714 108.863L218.802 110.482C218.659 110.769 218.439 110.923 218.164 110.923Z" fill="black"/>
<path d="M228.259 110.923C228.083 110.923 227.929 110.857 227.797 110.725C227.665 110.593 227.599 110.427 227.599 110.24C227.599 110.097 227.643 109.943 227.731 109.788L228.71 108.246L226.697 108.301C226.477 108.301 226.312 108.235 226.191 108.103C226.07 107.971 226.015 107.817 226.015 107.629C226.015 107.442 226.07 107.288 226.191 107.156C226.312 107.024 226.477 106.958 226.697 106.958L228.688 107.013L227.753 105.526C227.654 105.349 227.61 105.184 227.61 105.041C227.61 104.843 227.676 104.677 227.808 104.545C227.94 104.413 228.105 104.347 228.281 104.347C228.534 104.347 228.732 104.468 228.864 104.721L229.831 106.451L230.755 104.788C230.931 104.49 231.151 104.336 231.415 104.336C231.591 104.336 231.745 104.402 231.877 104.534C232.009 104.666 232.075 104.821 232.075 105.019C232.075 105.162 232.031 105.316 231.943 105.459L230.975 107.013L232.987 106.958C233.207 106.958 233.372 107.024 233.493 107.156C233.614 107.288 233.669 107.442 233.669 107.629C233.669 107.817 233.614 107.971 233.493 108.103C233.372 108.235 233.207 108.301 232.987 108.301L230.953 108.246L231.855 109.656C231.965 109.855 232.02 110.042 232.02 110.218C232.02 110.416 231.954 110.582 231.822 110.714C231.69 110.846 231.547 110.912 231.371 110.912C231.107 110.912 230.898 110.769 230.733 110.482L229.82 108.863L228.908 110.482C228.754 110.769 228.534 110.923 228.259 110.923Z" fill="black"/>
<path d="M238.365 110.923C238.189 110.923 238.035 110.857 237.903 110.725C237.771 110.593 237.705 110.427 237.705 110.24C237.705 110.097 237.749 109.943 237.837 109.788L238.816 108.246L236.803 108.301C236.583 108.301 236.418 108.235 236.298 108.103C236.177 107.971 236.122 107.817 236.122 107.629C236.122 107.442 236.177 107.288 236.298 107.156C236.418 107.024 236.583 106.958 236.803 106.958L238.794 107.013L237.859 105.526C237.76 105.349 237.716 105.184 237.716 105.041C237.716 104.843 237.782 104.677 237.914 104.545C238.046 104.413 238.211 104.347 238.387 104.347C238.64 104.347 238.838 104.468 238.97 104.721L239.937 106.451L240.861 104.788C241.037 104.49 241.257 104.336 241.521 104.336C241.697 104.336 241.851 104.402 241.983 104.534C242.115 104.666 242.181 104.821 242.181 105.019C242.181 105.162 242.137 105.316 242.049 105.459L241.081 107.013L243.093 106.958C243.313 106.958 243.478 107.024 243.599 107.156C243.72 107.288 243.775 107.442 243.775 107.629C243.775 107.817 243.72 107.971 243.599 108.103C243.478 108.235 243.313 108.301 243.093 108.301L241.059 108.246L241.961 109.656C242.071 109.855 242.126 110.042 242.126 110.218C242.126 110.416 242.06 110.582 241.928 110.714C241.796 110.846 241.653 110.912 241.477 110.912C241.213 110.912 241.004 110.769 240.839 110.482L239.926 108.863L239.014 110.482C238.849 110.769 238.629 110.923 238.365 110.923Z" fill="black"/>
<path d="M248.46 110.923C248.284 110.923 248.13 110.857 247.998 110.725C247.866 110.593 247.8 110.427 247.8 110.24C247.8 110.097 247.844 109.943 247.932 109.788L248.911 108.246L246.898 108.301C246.678 108.301 246.513 108.235 246.393 108.103C246.272 107.971 246.217 107.817 246.217 107.629C246.217 107.442 246.272 107.288 246.393 107.156C246.513 107.024 246.678 106.958 246.898 106.958L248.889 107.013L247.954 105.526C247.855 105.349 247.811 105.184 247.811 105.041C247.811 104.843 247.877 104.677 248.009 104.545C248.141 104.413 248.306 104.347 248.482 104.347C248.735 104.347 248.933 104.468 249.065 104.721L250.032 106.451L250.956 104.788C251.132 104.49 251.352 104.336 251.616 104.336C251.792 104.336 251.946 104.402 252.078 104.534C252.21 104.666 252.276 104.821 252.276 105.019C252.276 105.162 252.232 105.316 252.144 105.459L251.176 107.013L253.188 106.958C253.408 106.958 253.573 107.024 253.694 107.156C253.815 107.288 253.87 107.442 253.87 107.629C253.87 107.817 253.815 107.971 253.694 108.103C253.573 108.235 253.408 108.301 253.188 108.301L251.154 108.246L252.056 109.656C252.166 109.855 252.221 110.042 252.221 110.218C252.221 110.416 252.155 110.582 252.023 110.714C251.891 110.846 251.748 110.912 251.572 110.912C251.308 110.912 251.099 110.769 250.934 110.482L250.021 108.863L249.109 110.482C248.944 110.769 248.724 110.923 248.46 110.923Z" fill="black"/>
<path d="M258.555 110.923C258.379 110.923 258.225 110.857 258.093 110.725C257.961 110.593 257.895 110.427 257.895 110.24C257.895 110.097 257.939 109.943 258.027 109.788L259.006 108.246L256.993 108.301C256.773 108.301 256.608 108.235 256.487 108.103C256.367 107.971 256.312 107.817 256.312 107.629C256.312 107.442 256.367 107.288 256.487 107.156C256.608 107.024 256.773 106.958 256.993 106.958L258.984 107.013L258.049 105.526C257.95 105.349 257.906 105.184 257.906 105.041C257.906 104.843 257.972 104.677 258.104 104.545C258.236 104.413 258.401 104.347 258.577 104.347C258.83 104.347 259.028 104.468 259.16 104.721L260.127 106.451L261.051 104.788C261.227 104.49 261.447 104.336 261.711 104.336C261.887 104.336 262.041 104.402 262.173 104.534C262.305 104.666 262.371 104.821 262.371 105.019C262.371 105.162 262.327 105.316 262.239 105.459L261.271 107.013L263.283 106.958C263.503 106.958 263.668 107.024 263.789 107.156C263.91 107.288 263.965 107.442 263.965 107.629C263.965 107.817 263.91 107.971 263.789 108.103C263.668 108.235 263.503 108.301 263.283 108.301L261.249 108.246L262.151 109.656C262.261 109.855 262.316 110.042 262.316 110.218C262.316 110.416 262.25 110.582 262.118 110.714C261.986 110.846 261.843 110.912 261.667 110.912C261.403 110.912 261.194 110.769 261.029 110.482L260.116 108.863L259.204 110.482C259.039 110.769 258.819 110.923 258.555 110.923Z" fill="black"/>
<path d="M293.095 135.289H306.544" stroke="white" stroke-width="3" stroke-miterlimit="10" stroke-linecap="round" stroke-linejoin="round"/>
<path d="M106.558 36.0967V125.518C106.558 130.915 110.924 135.288 116.312 135.288H280.328" stroke="white" stroke-width="3" stroke-miterlimit="10" stroke-linecap="round" stroke-linejoin="round"/>
<path d="M106.558 12.3701V25.7866" stroke="white" stroke-width="3" stroke-miterlimit="10" stroke-linecap="round" stroke-linejoin="round"/>
</g>
<defs>
<clipPath id="clip0_726_3157">
<rect width="439" height="393" fill="white"/>
</clipPath>
</defs>
</svg>
