<svg width="20" height="20" viewBox="0 0 20 20" fill="none" xmlns="http://www.w3.org/2000/svg">
<g id="Group">
<path id="Vector" d="M9.06817 0C9.4984 0 9.92863 0 10.3589 0C10.4135 0.0123603 10.4677 0.0285237 10.5229 0.0361301C10.8666 0.0817681 11.2146 0.105062 11.554 0.172569C13.9419 0.647964 15.8891 1.85024 17.3923 3.76228C18.3816 5.02113 19.0134 6.44446 19.2806 8.02516C19.3396 8.37267 19.3809 8.72256 19.4304 9.0715C19.4304 9.50173 19.4304 9.93197 19.4304 10.3622C19.4009 10.5994 19.3757 10.8371 19.341 11.0739C19.0662 12.9522 18.337 14.6332 17.0753 16.0532C14.7515 18.6683 11.8259 19.7612 8.3603 19.3381C6.48344 19.109 4.80862 18.3512 3.39479 17.0929C0.623237 14.6255 -0.458764 11.5293 0.176365 7.88301C0.597566 5.46325 1.86354 3.51127 3.80221 2.00474C5.05107 1.03399 6.46015 0.41407 8.02182 0.14975C8.36886 0.091276 8.71923 0.0494412 9.06817 0ZM9.13044 9.13901C9.13044 8.17348 9.13044 7.22269 9.13044 6.28758C8.03513 6.21104 6.95408 6.13498 5.87113 6.05939C5.66909 6.66172 5.40952 8.69404 5.48131 9.13948C6.69166 9.13901 7.90345 9.13901 9.13044 9.13901ZM10.2914 9.13568C11.5226 9.13568 12.7387 9.13568 13.9695 9.13568C13.9348 8.09504 13.8112 7.08007 13.5716 6.08411C12.4734 6.15352 11.3867 6.22245 10.2914 6.29186C10.2914 7.22839 10.2914 8.17395 10.2914 9.13568ZM1.16281 9.13758C2.21486 9.13758 3.24885 9.13758 4.25574 9.13758C4.39408 8.04322 4.53242 6.95361 4.66838 5.87732C3.90775 5.69714 3.1319 5.51364 2.34702 5.32776C1.65199 6.49533 1.25741 7.76179 1.16281 9.13758ZM10.288 13.101C10.3337 13.1095 10.3641 13.119 10.3945 13.12C10.7168 13.1323 11.0396 13.1328 11.3605 13.1566C12.0342 13.206 12.7073 13.2654 13.3805 13.3268C13.5179 13.3391 13.5811 13.3111 13.6034 13.159C13.7033 12.473 13.8245 11.7898 13.9215 11.1033C13.959 10.8385 13.9533 10.568 13.9671 10.3018C12.7244 10.3018 11.5084 10.3018 10.288 10.3018C10.288 11.2388 10.288 12.1606 10.288 13.101ZM17.1109 14.0517C17.7864 12.9037 18.1706 11.6534 18.2628 10.3013C17.205 10.3013 16.1668 10.3013 15.1665 10.3013C15.0273 11.3805 14.8903 12.4406 14.7544 13.496C15.5198 13.6762 16.3084 13.8625 17.1109 14.0517ZM18.2419 9.13806C18.2481 9.11238 18.2561 9.0948 18.2561 9.07721C18.2561 9.02681 18.2557 8.97595 18.2509 8.92555C18.1435 7.82787 17.8482 6.7839 17.3439 5.80125C17.119 5.36246 17.1185 5.36294 16.636 5.4951C16.6179 5.50033 16.5989 5.50223 16.5804 5.50651C15.9662 5.64295 15.3519 5.77939 14.7648 5.90964C14.8994 6.98166 15.0349 8.05891 15.1703 9.13758C16.1829 9.13806 17.2117 9.13806 18.2419 9.13806ZM5.45659 10.2947C5.5027 11.323 5.61679 12.3261 5.85925 13.293C6.96216 13.2236 8.04797 13.1556 9.13377 13.0872C9.13377 12.1544 9.13377 11.2284 9.13377 10.2947C7.91153 10.2947 6.70022 10.2947 5.45659 10.2947ZM4.26192 10.2999C3.25218 10.2999 2.21344 10.2999 1.16994 10.2999C1.16994 10.3394 1.16804 10.3646 1.17042 10.3893C1.26645 11.6481 1.62585 12.8267 2.24196 13.9291C2.29901 14.0308 2.36176 14.0052 2.44638 13.9842C2.94792 13.8606 3.45042 13.7389 3.95386 13.6234C4.20297 13.5664 4.4554 13.5231 4.66743 13.4817C4.53004 12.4064 4.39645 11.3572 4.26192 10.2999ZM10.2975 1.23555C10.2975 2.54147 10.2975 3.82741 10.2975 5.13665C11.2036 5.0796 12.0931 5.02398 12.9821 4.96646C13.0634 4.96123 13.1437 4.94459 13.2383 4.93128C13.1727 4.75538 13.1157 4.58947 13.0496 4.42688C12.6945 3.55548 12.259 2.7321 11.592 2.05323C11.2303 1.68385 10.82 1.38578 10.2975 1.23555ZM9.13425 14.2424C8.15113 14.3013 7.18037 14.3598 6.15589 14.4211C6.3703 14.906 6.54714 15.3505 6.76012 15.777C7.10668 16.4715 7.54357 17.1043 8.1497 17.6025C8.44064 17.8416 8.75821 18.036 9.13377 18.1287C9.13425 16.8352 9.13425 15.5607 9.13425 14.2424ZM9.13235 1.24744C7.77652 1.56167 6.62368 3.50652 6.21437 4.93603C7.18845 5.00069 8.15351 5.06487 9.13235 5.13C9.13235 3.8198 9.13235 2.54004 9.13235 1.24744ZM10.2895 18.1202C11.5588 17.8364 12.6964 16.0983 13.2236 14.4373C12.2419 14.3736 11.2702 14.3104 10.2895 14.2467C10.2895 15.5692 10.2895 16.8442 10.2895 18.1202ZM2.96836 15.0087C3.96384 16.2457 5.15043 17.1352 6.59468 17.6814C5.88254 16.7506 5.40001 15.709 5.0216 14.578C4.34226 14.7206 3.67338 14.8609 2.96836 15.0087ZM12.8343 17.6804C14.2609 17.1371 15.437 16.2671 16.4211 15.0525C15.7223 14.8989 15.0658 14.7544 14.3959 14.607C14.0218 15.7209 13.5393 16.7563 12.8343 17.6804ZM12.8832 1.76705C13.5687 2.68171 14.046 3.7 14.4078 4.8015C15.0767 4.66173 15.7327 4.52434 16.4225 4.3803C15.4446 3.18135 14.2866 2.31423 12.8832 1.76705ZM6.54239 1.76705C5.15756 2.30757 4.00901 3.159 3.04538 4.3299C3.72805 4.48013 4.37268 4.6218 5.03111 4.76632C5.38908 3.67671 5.86638 2.67315 6.54239 1.76705Z" fill="#2096D3"/>
</g>
</svg>
