<svg width="28" height="28" viewBox="0 0 28 28" fill="none" xmlns="http://www.w3.org/2000/svg">
<g id="circle">
<rect x="0.5" y="0.5" width="27" height="27" rx="4.5" fill="#FAFAFA"/>
<rect x="0.5" y="0.5" width="27" height="27" rx="4.5" stroke="#DCDCDC"/>
<path id="Icon" d="M10.6925 14.6282C10.5694 14.5052 10.5002 14.3384 10.5 14.1644V13.8319C10.502 13.6583 10.571 13.4922 10.6925 13.3682L15.19 8.87941C15.2721 8.79659 15.384 8.75 15.5006 8.75C15.6173 8.75 15.7291 8.79659 15.8113 8.87941L16.4325 9.50066C16.5148 9.5813 16.5612 9.69168 16.5612 9.80691C16.5612 9.92214 16.5148 10.0325 16.4325 10.1132L12.5387 13.9982L16.4325 17.8832C16.5153 17.9653 16.5619 18.0771 16.5619 18.1938C16.5619 18.3104 16.5153 18.4223 16.4325 18.5044L15.8113 19.1169C15.7291 19.1997 15.6173 19.2463 15.5006 19.2463C15.384 19.2463 15.2721 19.1997 15.19 19.1169L10.6925 14.6282Z" fill="#22A4E6"/>
</g>
</svg>
