<svg width="289" height="102" viewBox="0 0 289 102" fill="none" xmlns="http://www.w3.org/2000/svg">
<path d="M17.1641 63.3417C11.8015 60.4284 7.60138 56.3957 4.55892 51.2579C1.52123 46.1202 0 40.3175 0 33.8594C0 27.4013 1.53558 21.6034 4.60675 16.4609C7.67792 11.3184 11.8972 7.29044 17.255 4.37713C22.6128 1.46383 28.6212 0 35.2706 0C40.6619 0 45.5844 0.942399 50.038 2.82241C54.4917 4.70243 58.2518 7.42917 61.3229 11.0026L53.4249 18.4318C48.6603 13.2893 42.7954 10.7204 35.8351 10.7204C31.3192 10.7204 27.277 11.7058 23.7035 13.6815C20.13 15.6572 17.3411 18.3983 15.3319 21.9096C13.3228 25.4209 12.3229 29.4009 12.3229 33.8546C12.3229 38.3083 13.3275 42.2884 15.3319 45.7996C17.3363 49.3109 20.13 52.052 23.7035 54.0277C27.277 56.0034 31.324 56.9888 35.8351 56.9888C42.7954 56.9888 48.6555 54.3865 53.4249 49.1818L61.3229 56.7066C58.2518 60.2801 54.4726 63.0068 49.9902 64.8868C45.5078 66.7668 40.571 67.7092 35.1749 67.7092C28.5303 67.7188 22.5267 66.2598 17.1641 63.3417Z" fill="#111D29"/>
<path d="M67.8145 0.942627H80.0417V66.7766H67.8145V0.942627Z" fill="#111D29"/>
<path d="M107.41 11.2851H85.5909V0.942627H141.456V11.2899H119.637V66.7814H107.41V11.2851Z" fill="#111D29"/>
<path d="M148.602 0.942627H160.83V66.7766H148.602V0.942627Z" fill="#111D29"/>
<path d="M217.264 56.525V66.7766H167.886V0.942627H215.948V11.1942H180.113V28.3105H211.901V38.3755H180.113V56.5298H217.264V56.525Z" fill="#111D29"/>
<path d="M273.209 66.7766L225.056 0.942627H238.881L287.317 66.7766H273.209Z" fill="#111D29"/>
<path d="M73.0048 100.167C71.3832 99.2768 70.1155 98.0474 69.1922 96.4831C68.2737 94.9188 67.8097 93.1632 67.8097 91.2066C67.8097 89.2501 68.2689 87.4897 69.1922 85.9302C70.1107 84.3659 71.3879 83.1412 73.0192 82.2467C74.6505 81.3569 76.4683 80.9072 78.4822 80.9072C80.0561 80.9072 81.4912 81.1703 82.7972 81.6965C84.1032 82.2228 85.213 83.0073 86.1315 84.0406L84.261 85.8536C82.7446 84.2606 80.855 83.4665 78.5971 83.4665C77.0997 83.4665 75.7507 83.8014 74.5404 84.4711C73.3301 85.1408 72.3877 86.0689 71.7084 87.2457C71.0292 88.4225 70.6895 89.7428 70.6895 91.2019C70.6895 92.6609 71.0292 93.9764 71.7084 95.158C72.3877 96.3348 73.3349 97.2629 74.5404 97.9326C75.7507 98.6023 77.0997 98.9372 78.5971 98.9372C80.8406 98.9372 82.7302 98.1335 84.261 96.5214L86.1315 98.3344C85.213 99.3677 84.0936 100.157 82.7828 100.693C81.4673 101.229 80.0274 101.496 78.4535 101.496C76.4396 101.506 74.6218 101.056 73.0048 100.167Z" fill="#111D29"/>
<path d="M102.583 96.2385H91.8816L89.6667 101.271H86.7056L95.8234 81.1362H98.6697L107.816 101.271H104.798L102.583 96.2385ZM101.578 93.9375L97.2346 84.0735L92.891 93.9375H101.578Z" fill="#111D29"/>
<path d="M124.818 83.0113C126.315 84.2599 127.061 85.9725 127.061 88.1586C127.061 90.3448 126.315 92.0622 124.818 93.306C123.32 94.5545 121.268 95.1764 118.661 95.1764H113.686V101.276H110.811V81.1409H118.661C121.268 81.1409 123.32 81.7628 124.818 83.0113ZM122.746 91.5073C123.703 90.7323 124.186 89.6129 124.186 88.1586C124.186 86.6996 123.708 85.585 122.746 84.81C121.789 84.035 120.397 83.6476 118.575 83.6476H113.686V92.6793H118.575C120.397 92.6745 121.785 92.287 122.746 91.5073Z" fill="#111D29"/>
<path d="M131.285 81.1409H134.16V101.276H131.285V81.1409Z" fill="#111D29"/>
<path d="M144.201 83.6428H137.298V81.1409H153.951V83.6428H147.048V101.271H144.201V83.6428Z" fill="#111D29"/>
<path d="M168.905 96.2385H158.204L155.989 101.271H153.028L162.145 81.1362H164.992L174.138 101.271H171.12L168.905 96.2385ZM167.9 93.9375L163.557 84.0735L159.213 93.9375H167.9Z" fill="#111D29"/>
<path d="M177.133 81.1409H180.008V98.769H190.91V101.271H177.133V81.1409Z" fill="#111D29"/>
<path d="M215.513 101.507H201.592L275.559 0.942627H288.819L215.513 101.507Z" fill="url(#paint0_linear_702_94)"/>
<defs>
<linearGradient id="paint0_linear_702_94" x1="210.117" y1="99.3688" x2="278.182" y2="6.48499" gradientUnits="userSpaceOnUse">
<stop stop-color="#1DA8E0"/>
<stop offset="1" stop-color="#263C93"/>
</linearGradient>
</defs>
</svg>
