<svg width="457" height="447" viewBox="0 0 457 447" fill="none" xmlns="http://www.w3.org/2000/svg">
<g clip-path="url(#clip0_716_548)">
<path d="M457 300.761H281.714V199.654H457V300.761ZM282.784 299.695H455.93V200.72H282.784V299.695Z" fill="#E0E0E0"/>
<path d="M420.832 253.56H305.162V256.939H420.832V253.56Z" fill="#F0F0F0"/>
<path d="M428.802 266.17H305.162V269.859H428.802V266.17Z" fill="#F0F0F0"/>
<path d="M428.802 278.919H305.162V282.607H428.802V278.919Z" fill="#F0F0F0"/>
<path d="M345.588 235.268H305.162V244.041H345.588V235.268Z" fill="#F0F0F0"/>
<path d="M456.465 200.188H282.249V216.283H456.465V200.188Z" fill="#E0E0E0"/>
<path d="M443.062 213.885C442.837 213.672 445.083 210.975 448.079 207.862C451.074 204.75 453.673 202.394 453.898 202.607C454.123 202.82 451.876 205.517 448.881 208.63C445.886 211.742 443.276 214.088 443.062 213.885Z" fill="white"/>
<path d="M453.887 213.885C453.663 214.098 451.063 211.742 448.068 208.63C445.073 205.517 442.826 202.82 443.051 202.607C443.276 202.394 445.875 204.75 448.87 207.862C451.865 210.975 454.112 213.672 453.887 213.885Z" fill="white"/>
<path d="M241.267 0H67.0508V100.04H241.267V0Z" fill="#E6E6E6"/>
<path d="M205.645 53.3726H89.9751V56.7517H205.645V53.3726Z" fill="#F0F0F0"/>
<path d="M213.615 65.9722H89.9751V69.6604H213.615V65.9722Z" fill="#F0F0F0"/>
<path d="M213.615 78.7212H89.9751V82.4094H213.615V78.7212Z" fill="#F0F0F0"/>
<path d="M130.4 35.0703H89.9751V43.8432H130.4V35.0703Z" fill="#F0F0F0"/>
<path d="M241.267 0H67.0508V16.096H241.267V0Z" fill="#E0E0E0"/>
<path d="M227.275 13.6126C227.051 13.3994 229.297 10.7025 232.292 7.58988C235.288 4.47727 237.887 2.1215 238.112 2.33469C238.336 2.54788 236.09 5.24476 233.095 8.35737C230.099 11.47 227.489 13.8258 227.275 13.6126Z" fill="white"/>
<path d="M238.101 13.6126C237.876 13.8258 235.277 11.47 232.282 8.35737C229.286 5.24476 227.04 2.54788 227.265 2.33469C227.489 2.1215 230.089 4.47727 233.084 7.58988C236.079 10.7025 238.326 13.3994 238.101 13.6126Z" fill="white"/>
<path d="M175.286 185.84H0V84.7334H175.286V185.84ZM1.06973 184.774H174.216V85.7994H1.06973V184.774Z" fill="#E0E0E0"/>
<path d="M139.129 138.639H23.4592V142.018H139.129V138.639Z" fill="#F0F0F0"/>
<path d="M147.099 151.239H23.4592V154.927H147.099V151.239Z" fill="#F0F0F0"/>
<path d="M147.099 163.988H23.4592V167.676H147.099V163.988Z" fill="#F0F0F0"/>
<path d="M63.8844 120.336H23.4592V129.109H63.8844V120.336Z" fill="#F0F0F0"/>
<path d="M174.751 85.2666H0.534912V101.363H174.751V85.2666Z" fill="#E0E0E0"/>
<path d="M377.583 209.003H171.874V392.519H377.583V209.003Z" fill="#E6E6E6"/>
<path d="M182.218 151.196H21.0737V318.029H182.218V151.196Z" fill="#F0F0F0"/>
<path d="M182.218 151.196H21.0737V169.37H182.218V151.196Z" fill="#E0E0E0"/>
<path d="M34.3813 160.097C34.3813 162.047 32.8623 163.625 31.001 163.625C29.1289 163.625 27.6206 162.047 27.6206 160.097C27.6206 158.146 29.1396 156.568 31.001 156.568C32.8623 156.568 34.3813 158.146 34.3813 160.097Z" fill="white"/>
<path d="M48.1059 160.097C48.1059 162.047 46.5869 163.625 44.7256 163.625C42.8535 163.625 41.3452 162.047 41.3452 160.097C41.3452 158.146 42.8642 156.568 44.7256 156.568C46.5869 156.568 48.1059 158.146 48.1059 160.097Z" fill="white"/>
<path d="M61.8305 160.097C61.8305 162.047 60.3115 163.625 58.4502 163.625C56.5781 163.625 55.0698 162.047 55.0698 160.097C55.0698 158.146 56.5888 156.568 58.4502 156.568C60.3115 156.568 61.8305 158.146 61.8305 160.097Z" fill="white"/>
<path d="M433.99 36.4878H228.281V240.79H433.99V36.4878Z" fill="#F0F0F0"/>
<path d="M433.99 36.4878H228.281V60.4186H433.99V36.4878Z" fill="#E0E0E0"/>
<path d="M245.803 48.2131C245.803 50.7714 243.813 52.8501 241.353 52.8501C238.893 52.8501 236.903 50.7714 236.903 48.2131C236.903 45.6548 238.893 43.5762 241.353 43.5762C243.803 43.5656 245.803 45.6442 245.803 48.2131Z" fill="white"/>
<path d="M262.566 45.069C264.384 46.8811 264.448 49.7592 262.705 51.4861C260.961 53.2236 258.083 53.1596 256.265 51.3475C254.446 49.5353 254.382 46.6573 256.126 44.9304C257.859 43.1929 260.747 43.2568 262.566 45.069Z" fill="white"/>
<path d="M281.938 48.2136C281.938 50.7719 279.949 52.8505 277.488 52.8505C275.028 52.8505 273.038 50.7719 273.038 48.2136C273.038 45.6553 275.028 43.5767 277.488 43.5767C279.949 43.5767 281.938 45.6446 281.938 48.2136Z" fill="white"/>
<path d="M389.554 446.723C389.554 446.872 315.271 447 223.66 447C132.016 447 57.7549 446.872 57.7549 446.723C57.7549 446.574 132.016 446.446 223.66 446.446C315.271 446.446 389.554 446.563 389.554 446.723Z" fill="#263238"/>
<path d="M317.175 316.228C300.648 304.726 296.904 283.364 297.557 264.177C297.664 260.969 297.311 257.6 298.84 254.786C300.37 251.972 303.943 250.053 306.82 251.407C309.206 252.526 310.254 255.298 311.581 257.579C313.357 260.627 316.009 263.143 319.122 264.753C321.166 265.808 323.701 266.458 325.723 265.35C328.493 263.825 328.825 260.009 328.803 256.822C328.761 250.885 328.729 244.947 328.696 238.999C328.675 235.812 328.664 232.561 329.659 229.533C330.654 226.506 332.847 223.703 335.896 222.85C338.934 221.997 342.699 223.745 343.341 226.869C343.609 228.169 343.341 229.512 343.427 230.834C343.512 232.156 344.133 233.616 345.395 233.989C346.668 234.362 347.952 233.456 348.904 232.529C352.209 229.31 354.445 225.163 356.542 221.048C358.638 216.934 360.671 212.702 363.666 209.195C366.661 205.688 370.801 202.906 375.38 202.65C379.958 202.394 384.836 205.208 386.002 209.685C387.157 214.173 384.536 218.735 381.67 222.37C377.423 227.764 372.395 232.539 366.811 236.483C365.805 237.198 364.714 237.965 364.329 239.148C363.634 241.27 365.656 243.38 367.763 244.084C370.149 244.873 372.737 244.627 375.23 244.926C377.722 245.214 380.429 246.312 381.37 248.667C382.675 251.929 379.947 255.34 377.252 257.579C371.86 262.056 365.709 265.595 359.152 267.993C356.798 268.846 354.327 269.603 352.423 271.255C350.53 272.907 349.385 275.764 350.53 278.013C351.674 280.262 354.616 280.977 357.087 280.518C359.548 280.06 361.762 278.727 364.105 277.843C368.501 276.191 374.171 276.489 376.995 280.273C378.846 282.757 379.006 286.221 378.075 289.195C377.145 292.159 375.24 294.717 373.229 297.073C366.191 305.313 357.173 311.943 346.967 315.461C336.752 318.968 327.306 319.916 317.175 316.228Z" fill="url(#paint0_linear_716_548)"/>
<path d="M381.381 205.304C381.391 205.315 381.284 205.411 381.07 205.603C380.835 205.816 380.525 206.093 380.118 206.445C379.284 207.18 378.043 208.268 376.492 209.717C373.379 212.595 369.015 216.934 364.276 222.861C361.901 225.813 359.419 229.16 356.83 232.795C354.242 236.441 351.514 240.353 348.786 244.574C346.069 248.795 343.341 253.315 340.891 258.197C339.661 260.638 338.559 263.186 337.436 265.787C336.324 268.388 335.19 271.021 334.045 273.686C329.499 284.377 325.509 294.706 322.652 304.353C319.775 314 318.074 322.933 317.325 330.501C316.555 338.08 316.715 344.263 317.026 348.505C317.197 350.627 317.357 352.279 317.507 353.387C317.571 353.92 317.614 354.336 317.657 354.656C317.689 354.944 317.7 355.093 317.689 355.093C317.678 355.093 317.646 354.954 317.603 354.667C317.55 354.357 317.486 353.942 317.4 353.409C317.207 352.3 317.015 350.659 316.812 348.527C316.427 344.284 316.213 338.08 316.929 330.469C317.625 322.869 319.304 313.883 322.15 304.204C324.984 294.514 328.975 284.153 333.521 273.462C334.665 270.797 335.799 268.153 336.923 265.552C338.046 262.962 339.158 260.393 340.399 257.941C342.86 253.038 345.609 248.508 348.347 244.286C351.086 240.065 353.846 236.153 356.445 232.518C359.055 228.883 361.559 225.547 363.965 222.605C368.758 216.689 373.187 212.393 376.353 209.557C377.925 208.14 379.188 207.074 380.054 206.37C380.471 206.029 380.792 205.773 381.038 205.571C381.252 205.389 381.381 205.304 381.381 205.304Z" fill="#263238"/>
<path d="M340.56 257.909C340.517 257.92 340.41 257.43 340.25 256.545C340.078 255.66 339.886 254.381 339.661 252.793C339.212 249.616 338.731 245.214 338.228 240.364C337.725 235.503 337.19 231.122 336.687 227.966C336.441 226.389 336.227 225.11 336.078 224.236C335.928 223.351 335.864 222.86 335.896 222.85C335.939 222.839 336.078 223.319 336.302 224.182C336.527 225.046 336.805 226.314 337.105 227.892C337.714 231.047 338.313 235.439 338.816 240.3C339.298 245.096 339.736 249.435 340.078 252.739C340.239 254.232 340.378 255.5 340.485 256.513C340.571 257.408 340.603 257.899 340.56 257.909Z" fill="#263238"/>
<path d="M381.68 250.255C381.68 250.298 381.092 250.362 380.044 250.447C378.985 250.543 377.466 250.671 375.583 250.884C371.817 251.289 366.629 252.036 360.949 253.102C355.269 254.178 350.166 255.372 346.507 256.342C344.668 256.811 343.191 257.238 342.175 257.525C341.159 257.813 340.581 257.952 340.57 257.92C340.56 257.877 341.105 257.664 342.111 257.301C343.116 256.95 344.571 256.459 346.401 255.937C350.048 254.86 355.151 253.603 360.853 252.515C366.554 251.449 371.764 250.767 375.551 250.469C377.444 250.309 378.985 250.245 380.044 250.213C381.092 250.202 381.68 250.213 381.68 250.255Z" fill="#263238"/>
<path d="M322.653 303.436C322.631 303.447 322.535 303.277 322.374 302.935C322.182 302.53 321.957 302.051 321.668 301.454C321.059 300.164 320.235 298.277 319.251 295.932C317.272 291.242 314.737 284.665 312.03 277.384C309.324 270.093 306.863 263.506 304.981 258.783C304.061 256.481 303.301 254.594 302.734 253.187C302.488 252.579 302.296 252.078 302.135 251.663C302.007 251.311 301.943 251.119 301.964 251.119C301.985 251.108 302.082 251.279 302.242 251.62C302.435 252.025 302.659 252.505 302.948 253.102C303.558 254.392 304.382 256.278 305.366 258.623C307.345 263.314 309.88 269.891 312.586 277.182C315.282 284.473 317.753 291.05 319.636 295.783C320.556 298.085 321.315 299.972 321.882 301.379C322.128 301.987 322.321 302.498 322.481 302.903C322.61 303.245 322.674 303.426 322.653 303.436Z" fill="#263238"/>
<path d="M377.295 285.891C377.295 285.912 377.113 285.987 376.749 286.114C376.321 286.253 375.797 286.434 375.166 286.647C373.7 287.116 371.721 287.756 369.314 288.534C364.372 290.133 357.579 292.414 350.07 294.951C342.56 297.488 335.735 299.705 330.761 301.208C328.269 301.955 326.258 302.541 324.856 302.914C324.204 303.085 323.669 303.223 323.241 303.34C322.867 303.426 322.674 303.468 322.663 303.447C322.663 303.426 322.845 303.351 323.209 303.223C323.637 303.085 324.161 302.903 324.792 302.69C326.258 302.221 328.237 301.582 330.644 300.803C335.586 299.204 342.378 296.923 349.888 294.386C357.397 291.849 364.222 289.632 369.197 288.14C371.689 287.394 373.7 286.807 375.102 286.434C375.754 286.264 376.289 286.125 376.717 286.008C377.091 285.912 377.284 285.869 377.295 285.891Z" fill="#263238"/>
<path d="M355.001 27.3101L349.492 29.2714L347.139 22.0975C342.795 8.86895 328.921 1.79097 316.223 6.31064C303.526 10.841 296.733 25.2847 301.087 38.5133L303.44 45.6872L297.91 47.6593C293.609 49.1942 291.277 54.1296 292.753 58.6173L308.083 105.306C309.58 109.858 314.33 112.288 318.63 110.753L375.722 90.4043C380.086 88.848 382.418 83.8913 380.921 79.3396L365.581 32.6612C364.126 28.1735 359.366 25.7538 355.001 27.3101ZM311.484 34.8144C309.099 27.5659 312.822 19.6458 319.786 17.1621C326.739 14.6784 334.345 18.5692 336.719 25.8177L339.073 32.9916L313.838 41.9883L311.484 34.8144ZM343.587 76.227L347.502 88.1445C347.663 88.6455 347.374 89.1678 346.893 89.3383L341.416 91.289C340.998 91.4383 340.463 91.2144 340.292 90.7134L336.377 78.796C332.13 78.6148 328.194 75.8113 326.717 71.3342C324.824 65.5674 327.787 59.2676 333.339 57.2849C338.891 55.3022 344.935 58.3935 346.828 64.1603C348.305 68.648 346.839 73.3809 343.587 76.227Z" fill="url(#paint1_linear_716_548)"/>
<path d="M349.246 29.1544C349.299 29.3036 339.03 33.1304 326.311 37.714C313.592 42.2977 303.237 45.89 303.183 45.7514C303.13 45.6021 313.399 41.7754 326.118 37.1917C338.837 32.6081 349.192 29.0051 349.246 29.1544Z" fill="#263238"/>
<path d="M361.377 31.1157C361.388 31.1157 361.43 31.2117 361.505 31.3929C361.591 31.6061 361.687 31.8832 361.815 32.2243C362.094 33.0025 362.468 34.0791 362.96 35.4542C363.944 38.311 365.346 42.3723 367.068 47.3716C368.79 52.4243 370.823 58.415 373.09 65.0666C374.203 68.403 375.433 71.8781 376.599 75.545C377.145 77.3891 377.594 79.3505 377.401 81.3971C377.305 82.4098 377.027 83.4224 376.535 84.3498C376.032 85.2665 375.326 86.066 374.513 86.7269C372.866 88.038 370.94 88.8055 369.079 89.4877C367.207 90.1593 365.367 90.8095 363.559 91.4598C359.943 92.7496 356.456 93.9968 353.129 95.18C346.486 97.5357 340.506 99.657 335.468 101.448C330.462 103.207 326.397 104.624 323.54 105.626C322.16 106.095 321.069 106.468 320.288 106.735C319.935 106.852 319.657 106.938 319.443 107.012C319.251 107.076 319.154 107.097 319.144 107.087C319.144 107.076 319.229 107.033 319.422 106.959C319.636 106.874 319.914 106.767 320.256 106.628C321.027 106.341 322.107 105.936 323.476 105.424C326.322 104.379 330.365 102.898 335.34 101.075C340.367 99.2519 346.336 97.0987 352.969 94.7003C356.285 93.5064 359.772 92.2486 363.388 90.9481C365.196 90.2979 367.036 89.637 368.897 88.9654C370.737 88.2832 372.62 87.5264 374.171 86.2899C374.941 85.6716 375.594 84.9254 376.054 84.0833C376.514 83.2305 376.77 82.2925 376.856 81.3438C377.038 79.4251 376.61 77.517 376.086 75.7049C374.93 72.0806 373.711 68.5736 372.609 65.2371C370.384 58.5749 368.384 52.5629 366.704 47.4995C365.057 42.4789 363.709 38.3962 362.767 35.5288C362.318 34.1431 361.976 33.0451 361.719 32.267C361.612 31.9152 361.527 31.638 361.462 31.4142C361.387 31.2223 361.366 31.1157 361.377 31.1157Z" fill="#263238"/>
<path d="M331.253 16.4161C331.221 16.4587 330.686 16.1283 329.638 15.7126C328.579 15.3075 326.985 14.8385 324.963 14.7745C322.952 14.6999 320.513 15.009 318.074 16.075C315.646 17.1196 313.249 18.9851 311.538 21.5221C309.794 24.0484 309.024 26.9691 309.024 29.6127C309.003 32.2776 309.569 34.644 310.115 36.5841C310.682 38.5348 311.26 40.0698 311.634 41.1464C312.019 42.223 312.222 42.8093 312.19 42.8306C312.158 42.8413 311.88 42.2763 311.431 41.221C310.992 40.1657 310.35 38.6414 309.741 36.6907C309.142 34.74 308.521 32.3416 308.51 29.602C308.478 26.8732 309.27 23.8139 311.078 21.2023C312.854 18.58 315.346 16.6613 317.871 15.5953C320.406 14.5187 322.93 14.2522 324.984 14.3801C327.06 14.4974 328.675 15.041 329.723 15.51C330.237 15.7659 330.633 15.9684 330.889 16.139C331.135 16.3095 331.264 16.3948 331.253 16.4161Z" fill="#263238"/>
<path d="M331.745 58.1271C331.734 58.1164 331.927 58.0205 332.291 57.8606C332.654 57.69 333.2 57.4768 333.938 57.2636C334.665 57.0398 335.607 56.8692 336.719 56.8053C337.821 56.752 339.126 56.8692 340.474 57.3596C343.202 58.3189 345.727 61.1011 346.967 64.7893C347.566 66.6547 347.62 68.8186 347.021 70.9079C346.379 72.9865 345.213 74.9906 343.523 76.6748L343.598 76.387C345.02 80.2671 346.561 84.4989 348.176 88.9013L348.272 89.1678L348.005 89.2531C347.235 89.5089 346.4 89.7861 345.555 90.0739C343.758 90.6708 341.972 91.2678 340.228 91.8541L339.961 91.9393L339.875 91.6728C338.41 87.2491 336.805 83.0919 335.639 79.1052L335.874 79.2864C333.681 79.1371 331.713 78.2204 330.151 77.0265C328.579 75.822 327.37 74.3297 326.557 72.752C325.755 71.1744 325.359 69.5009 325.423 67.9552C325.466 66.4096 325.819 65.0132 326.322 63.8406C327.316 61.4635 328.803 59.9712 329.905 59.1504C331.018 58.3403 331.745 58.1271 331.745 58.1271C331.767 58.1697 331.071 58.4468 329.991 59.289C328.942 60.1311 327.52 61.6234 326.589 63.9579C325.658 66.239 325.252 69.5115 326.921 72.5708C327.723 74.0845 328.9 75.5129 330.419 76.6641C331.938 77.8047 333.82 78.6575 335.885 78.7854L336.067 78.796L336.12 78.9666C337.297 82.9213 338.912 87.0679 340.389 91.5129L340.036 91.3424C341.779 90.7561 343.555 90.1698 345.352 89.5622C346.186 89.2851 347.021 89.0079 347.802 88.7415L347.631 89.0932C346.026 84.6908 344.496 80.4589 343.084 76.5682L343.031 76.4083L343.159 76.2804C344.764 74.7027 345.93 72.752 346.54 70.7694C347.128 68.7653 347.085 66.708 346.54 64.9172C345.374 61.3356 342.967 58.6174 340.356 57.658C339.073 57.157 337.81 57.0185 336.73 57.0504C335.65 57.0931 334.719 57.221 333.992 57.4235C332.505 57.8073 331.756 58.1697 331.745 58.1271Z" fill="#263238"/>
<path d="M298.68 365.902L191.835 365.411C178.987 365.358 168.611 354.922 168.665 342.12L169.798 75.2036C169.852 62.3907 180.325 52.0509 193.183 52.1042L300.028 52.5946C312.875 52.6585 323.251 63.0836 323.198 75.8858L322.064 342.802C322.011 355.626 311.538 365.966 298.68 365.902Z" fill="#455A64"/>
<path d="M299.878 61.8152L279.157 61.7192C276.376 61.7086 274.119 64.043 274.108 66.9318L274.087 70.6733C274.076 73.562 271.808 75.9072 269.037 75.8858L228.655 75.7046C225.874 75.694 223.638 73.3382 223.649 70.4388L223.67 66.6973C223.681 63.8085 221.445 61.4421 218.664 61.4314L211.379 61.3994L193.247 61.3142C184.24 61.2715 176.912 68.52 176.869 77.4848L175.768 338.016C175.725 346.981 182.988 354.283 191.995 354.325L298.626 354.816C307.633 354.858 314.961 347.621 315.004 338.645L316.106 78.1137C316.138 69.1596 308.874 61.8578 299.878 61.8152Z" fill="white"/>
<path d="M285.522 320.076L206.233 319.714C205.41 319.714 204.747 318.818 204.757 317.72L204.843 297.051C204.843 295.953 205.517 295.069 206.34 295.079L285.629 295.442C286.453 295.442 287.116 296.337 287.105 297.435L287.02 318.104C287.02 319.191 286.346 320.076 285.522 320.076Z" fill="url(#paint2_linear_716_548)"/>
<path d="M230.356 310.141C229.917 310.141 229.489 310.067 229.083 309.907C228.676 309.758 228.366 309.555 228.142 309.32L228.388 308.819C228.591 309.033 228.88 309.214 229.233 309.352C229.586 309.502 229.96 309.576 230.345 309.576C230.72 309.576 231.019 309.534 231.255 309.438C231.49 309.342 231.661 309.214 231.779 309.043C231.886 308.883 231.95 308.692 231.95 308.5C231.95 308.255 231.886 308.063 231.757 307.913C231.629 307.764 231.447 307.647 231.233 307.562C231.019 307.476 230.784 307.402 230.516 307.338C230.26 307.274 229.992 307.199 229.735 307.125C229.479 307.05 229.233 306.954 229.019 306.826C228.805 306.698 228.623 306.538 228.495 306.336C228.366 306.133 228.291 305.867 228.302 305.536C228.302 305.227 228.388 304.95 228.537 304.694C228.698 304.438 228.933 304.236 229.254 304.076C229.575 303.916 229.992 303.841 230.495 303.852C230.827 303.852 231.158 303.905 231.49 304.001C231.821 304.097 232.1 304.236 232.335 304.406L232.121 304.929C231.864 304.747 231.597 304.62 231.308 304.534C231.019 304.449 230.752 304.406 230.484 304.406C230.131 304.406 229.832 304.449 229.596 304.556C229.361 304.652 229.19 304.79 229.083 304.961C228.976 305.131 228.912 305.312 228.912 305.526C228.912 305.771 228.976 305.963 229.104 306.112C229.233 306.261 229.415 306.378 229.629 306.464C229.842 306.549 230.089 306.624 230.345 306.688C230.602 306.751 230.859 306.826 231.126 306.901C231.383 306.975 231.618 307.082 231.843 307.199C232.057 307.327 232.239 307.487 232.367 307.69C232.495 307.892 232.56 308.148 232.56 308.478C232.56 308.777 232.474 309.054 232.314 309.31C232.153 309.566 231.907 309.768 231.586 309.928C231.287 310.067 230.869 310.152 230.356 310.141Z" fill="#E8E8E3"/>
<path d="M233.939 310.109L233.961 303.916H234.592L234.571 310.109H233.939Z" fill="#E8E8E3"/>
<path d="M236.507 310.12L236.528 303.927H237.042L241.117 309.321H240.85L240.871 303.937H241.492L241.47 310.131H240.957L236.881 304.737H237.149L237.127 310.12H236.507Z" fill="#E8E8E3"/>
<path d="M246.017 310.216C245.568 310.216 245.15 310.131 244.765 309.982C244.38 309.822 244.059 309.598 243.77 309.321C243.492 309.033 243.278 308.702 243.118 308.319C242.958 307.935 242.893 307.519 242.893 307.061C242.893 306.602 242.979 306.187 243.129 305.803C243.289 305.419 243.503 305.089 243.792 304.812C244.081 304.534 244.412 304.311 244.797 304.161C245.183 304.001 245.6 303.927 246.049 303.938C246.498 303.938 246.916 304.012 247.29 304.161C247.664 304.311 247.985 304.534 248.253 304.833L247.857 305.249C247.611 304.982 247.333 304.801 247.033 304.684C246.734 304.566 246.413 304.513 246.07 304.513C245.707 304.513 245.364 304.577 245.054 304.694C244.744 304.822 244.477 305.003 244.241 305.227C244.017 305.462 243.835 305.728 243.706 306.037C243.578 306.347 243.514 306.688 243.514 307.061C243.514 307.423 243.578 307.764 243.696 308.084C243.824 308.393 243.995 308.67 244.23 308.905C244.455 309.139 244.723 309.321 245.033 309.449C245.343 309.576 245.675 309.64 246.038 309.64C246.381 309.64 246.702 309.587 247.001 309.48C247.301 309.374 247.579 309.193 247.835 308.948L248.188 309.449C247.9 309.704 247.568 309.896 247.194 310.035C246.83 310.152 246.434 310.216 246.017 310.216ZM247.6 309.353L247.611 307.071H248.21L248.199 309.438L247.6 309.353Z" fill="#E8E8E3"/>
<path d="M254.596 310.259C253.837 310.259 253.238 310.024 252.81 309.566C252.371 309.107 252.157 308.436 252.168 307.551L252.179 304.001H252.81L252.799 307.519C252.799 308.255 252.949 308.788 253.27 309.139C253.58 309.491 254.029 309.662 254.607 309.672C255.185 309.672 255.644 309.502 255.955 309.161C256.276 308.82 256.436 308.276 256.436 307.54L256.447 304.023H257.057L257.046 307.572C257.046 308.468 256.821 309.129 256.383 309.587C255.955 310.035 255.356 310.259 254.596 310.259Z" fill="#E8E8E3"/>
<path d="M258.928 310.226L258.95 304.033L261.175 304.044C261.678 304.044 262.116 304.129 262.469 304.3C262.822 304.47 263.111 304.715 263.304 305.025C263.496 305.344 263.592 305.728 263.592 306.176C263.592 306.613 263.486 306.986 263.293 307.306C263.1 307.625 262.812 307.86 262.459 308.031C262.095 308.201 261.656 308.286 261.164 308.286L259.292 308.276L259.57 307.967L259.56 310.237L258.928 310.226ZM259.57 308.009L259.292 307.689L261.154 307.7C261.753 307.7 262.202 307.572 262.512 307.306C262.822 307.039 262.983 306.655 262.983 306.176C262.983 305.685 262.833 305.302 262.523 305.025C262.213 304.758 261.763 304.619 261.175 304.609L259.314 304.598L259.592 304.289L259.57 308.009Z" fill="#E8E8E3"/>
<path d="M222.037 138.384L194.523 138.257L194.5 143.289L222.013 143.415L222.037 138.384Z" fill="url(#paint3_linear_716_548)"/>
<path opacity="0.1" d="M222.037 138.384L194.523 138.257L194.5 143.289L222.013 143.415L222.037 138.384Z" fill="black"/>
<path d="M302.702 169.242C302.702 169.221 302.927 169.253 303.333 169.093C303.707 168.944 304.307 168.496 304.371 167.654C304.371 165.959 304.36 163.486 304.36 160.31C304.36 158.711 304.36 156.941 304.36 155.001C304.36 154.511 304.36 154.02 304.36 153.519C304.371 152.997 304.371 152.517 304.06 152.123C303.782 151.729 303.301 151.473 302.798 151.473C302.253 151.473 301.686 151.473 301.119 151.473C296.572 151.462 291.384 151.451 285.672 151.441C262.758 151.355 231.126 151.238 196.199 151.11C195.74 151.11 195.29 151.334 195.023 151.707C194.723 152.08 194.734 152.528 194.745 153.104C194.745 154.18 194.734 155.268 194.734 156.334C194.723 158.487 194.713 160.619 194.702 162.74C194.702 163.795 194.691 164.861 194.691 165.906C194.713 166.407 194.638 167.014 194.734 167.409C194.841 167.835 195.162 168.198 195.568 168.368C195.782 168.453 195.975 168.485 196.232 168.485H197.012L198.574 168.496C199.612 168.496 200.65 168.507 201.677 168.507C209.913 168.549 217.862 168.592 225.435 168.635C240.572 168.731 254.2 168.805 265.657 168.88C277.093 168.965 286.356 169.04 292.775 169.093C295.963 169.125 298.444 169.157 300.145 169.178C300.969 169.189 301.611 169.21 302.06 169.21C302.488 169.221 302.702 169.242 302.702 169.242C302.702 169.242 302.477 169.264 302.049 169.264C301.6 169.264 300.958 169.274 300.135 169.285C298.423 169.285 295.941 169.296 292.764 169.306C286.346 169.296 277.082 169.285 265.646 169.274C254.19 169.242 240.561 169.2 225.425 169.146C217.851 169.114 209.903 169.082 201.666 169.05C200.639 169.05 199.601 169.04 198.564 169.04L197.002 169.029H196.221C195.953 169.04 195.622 168.997 195.344 168.869C194.787 168.635 194.338 168.134 194.188 167.547C194.103 167.249 194.124 166.94 194.124 166.695V165.906C194.124 164.851 194.135 163.795 194.135 162.74C194.146 160.619 194.156 158.487 194.156 156.334C194.156 155.257 194.167 154.18 194.167 153.104C194.178 152.827 194.156 152.581 194.199 152.251C194.242 151.942 194.37 151.643 194.552 151.387C194.916 150.876 195.547 150.556 196.178 150.567C231.105 150.759 262.737 150.929 285.65 151.057C291.373 151.1 296.551 151.132 301.108 151.174C301.675 151.174 302.231 151.185 302.788 151.185C303.387 151.196 303.954 151.494 304.285 151.963C304.649 152.421 304.649 153.05 304.627 153.53C304.627 154.031 304.617 154.532 304.617 155.022C304.595 156.962 304.585 158.732 304.574 160.331C304.531 163.507 304.499 165.98 304.488 167.686C304.392 168.571 303.75 169.029 303.365 169.168C302.937 169.296 302.702 169.242 302.702 169.242Z" fill="#E0E0E0"/>
<path d="M252.224 157.837L201.904 157.605L201.882 162.306L252.202 162.538L252.224 157.837Z" fill="url(#paint4_linear_716_548)"/>
<path opacity="0.2" d="M252.224 157.837L201.904 157.605L201.882 162.306L252.202 162.538L252.224 157.837Z" fill="white"/>
<path d="M221.844 184.285L194.331 184.158L194.307 189.19L221.821 189.316L221.844 184.285Z" fill="url(#paint5_linear_716_548)"/>
<path opacity="0.1" d="M221.844 184.285L194.331 184.158L194.307 189.19L221.821 189.316L221.844 184.285Z" fill="black"/>
<path d="M301.996 215.143C301.996 215.121 302.22 215.143 302.627 215.025C303.012 214.898 303.643 214.578 303.986 213.821C304.167 213.448 304.189 212.989 304.167 212.467C304.167 211.945 304.167 211.38 304.157 210.772C304.157 209.546 304.157 208.129 304.146 206.551C304.146 204.963 304.146 203.193 304.146 201.264C304.146 200.784 304.146 200.283 304.146 199.782C304.167 199.271 304.103 198.802 303.836 198.375C303.579 197.959 303.162 197.629 302.67 197.48C302.188 197.33 301.621 197.416 301.054 197.384C296.519 197.373 291.363 197.362 285.65 197.352C262.812 197.267 231.297 197.149 196.488 197.021C195.525 197 194.627 197.789 194.531 198.738C194.499 199.75 194.509 200.869 194.499 201.925C194.488 204.067 194.477 206.199 194.466 208.31C194.466 209.365 194.456 210.42 194.456 211.465C194.477 211.987 194.402 212.531 194.52 212.957C194.638 213.395 194.926 213.789 195.301 214.055C195.697 214.322 196.114 214.418 196.627 214.397L198.178 214.407C199.216 214.407 200.243 214.418 201.27 214.418C209.475 214.46 217.401 214.503 224.943 214.546C240.026 214.642 253.612 214.716 265.026 214.791C276.419 214.876 285.65 214.951 292.047 215.004C295.224 215.047 297.696 215.068 299.396 215.089C300.22 215.111 300.851 215.121 301.311 215.121C301.782 215.121 301.996 215.143 301.996 215.143C301.996 215.143 301.771 215.164 301.343 215.164C300.894 215.164 300.263 215.175 299.428 215.185C297.728 215.185 295.257 215.196 292.079 215.207C285.682 215.196 276.451 215.185 265.058 215.175C253.644 215.143 240.058 215.1 224.975 215.047C217.434 215.015 209.507 214.983 201.302 214.951C200.275 214.951 199.248 214.94 198.21 214.94L196.659 214.929C196.135 214.961 195.493 214.834 195.023 214.492C194.541 214.162 194.178 213.661 194.017 213.096C193.857 212.499 193.953 211.977 193.932 211.465C193.932 210.42 193.942 209.365 193.942 208.31C193.953 206.199 193.964 204.067 193.964 201.925C193.974 200.837 193.953 199.814 193.996 198.674C194.113 197.448 195.258 196.435 196.51 196.467C231.319 196.659 262.833 196.829 285.672 196.957C291.373 197 296.53 197.032 301.065 197.075C301.621 197.107 302.188 197.011 302.766 197.192C303.322 197.362 303.793 197.746 304.082 198.226C304.392 198.695 304.456 199.292 304.424 199.782C304.424 200.283 304.413 200.784 304.413 201.264C304.392 203.193 304.381 204.963 304.371 206.551C304.349 208.139 304.339 209.546 304.328 210.772C304.317 211.38 304.317 211.945 304.306 212.467C304.317 212.979 304.285 213.48 304.082 213.864C303.707 214.652 303.044 214.972 302.638 215.079C302.22 215.185 301.996 215.143 301.996 215.143Z" fill="#E0E0E0"/>
<path d="M221.641 232.157L194.127 232.031L194.104 237.063L221.618 237.189L221.641 232.157Z" fill="url(#paint6_linear_716_548)"/>
<path opacity="0.1" d="M221.641 232.157L194.127 232.031L194.104 237.063L221.618 237.189L221.641 232.157Z" fill="black"/>
<path d="M301.793 263.026C301.793 263.005 302.017 263.026 302.424 262.909C302.809 262.781 303.44 262.461 303.782 261.704C303.964 261.331 303.986 260.873 303.964 260.35C303.964 259.828 303.964 259.263 303.954 258.655C303.954 257.43 303.954 256.012 303.943 254.434C303.943 252.846 303.943 251.076 303.943 249.147C303.943 248.667 303.943 248.166 303.943 247.665C303.964 247.154 303.9 246.685 303.633 246.258C303.376 245.843 302.959 245.512 302.467 245.363C301.985 245.214 301.418 245.299 300.851 245.267C296.316 245.256 291.16 245.246 285.458 245.235C262.619 245.15 231.105 245.032 196.296 244.905C195.333 244.883 194.434 245.661 194.338 246.621C194.306 247.633 194.317 248.753 194.306 249.808C194.295 251.951 194.285 254.082 194.274 256.193C194.274 257.248 194.263 258.304 194.263 259.348C194.285 259.871 194.21 260.414 194.327 260.841C194.445 261.278 194.734 261.672 195.108 261.939C195.504 262.205 195.921 262.301 196.435 262.28L197.986 262.29C199.024 262.29 200.051 262.301 201.077 262.301C209.282 262.344 217.209 262.386 224.751 262.429C239.834 262.525 253.419 262.6 264.833 262.674C276.226 262.759 285.458 262.834 291.855 262.887C295.032 262.93 297.503 262.951 299.204 262.973C300.028 262.983 300.669 263.005 301.119 263.005C301.579 263.005 301.793 263.026 301.793 263.026C301.793 263.026 301.568 263.047 301.14 263.047C300.691 263.047 300.06 263.058 299.225 263.069C297.524 263.069 295.053 263.079 291.876 263.09C285.479 263.079 276.248 263.069 264.855 263.058C253.441 263.026 239.855 262.983 224.772 262.93C217.23 262.898 209.304 262.866 201.099 262.834C200.072 262.834 199.045 262.823 198.007 262.823L196.456 262.813C195.932 262.845 195.29 262.717 194.82 262.376C194.338 262.045 193.974 261.544 193.814 260.979C193.654 260.382 193.75 259.86 193.728 259.338C193.728 258.293 193.739 257.238 193.739 256.182C193.75 254.072 193.761 251.94 193.761 249.797C193.771 248.71 193.75 247.687 193.793 246.546C193.91 245.32 195.055 244.308 196.306 244.34C231.116 244.531 262.63 244.702 285.469 244.83C291.17 244.873 296.326 244.905 300.862 244.947C301.418 244.979 301.985 244.883 302.563 245.064C303.119 245.235 303.59 245.619 303.879 246.098C304.189 246.567 304.253 247.164 304.221 247.655C304.221 248.156 304.21 248.657 304.21 249.136C304.189 251.066 304.178 252.835 304.168 254.424C304.146 256.012 304.135 257.419 304.125 258.645C304.114 259.252 304.114 259.817 304.103 260.34C304.114 260.851 304.082 261.352 303.879 261.736C303.504 262.525 302.841 262.845 302.435 262.951C302.017 263.058 301.793 263.026 301.793 263.026Z" fill="#E0E0E0"/>
<path d="M252.031 203.738L201.711 203.506L201.689 208.207L252.01 208.439L252.031 203.738Z" fill="url(#paint7_linear_716_548)"/>
<path opacity="0.2" d="M252.031 203.738L201.711 203.506L201.689 208.207L252.01 208.439L252.031 203.738Z" fill="white"/>
<path d="M206.276 254.317C206.266 255.607 205.282 256.651 204.062 256.641C202.843 256.63 201.869 255.585 201.869 254.296C201.88 253.006 202.864 251.961 204.083 251.972C205.303 251.972 206.287 253.027 206.276 254.317Z" fill="url(#paint8_linear_716_548)"/>
<path d="M213.091 254.349C213.08 255.638 212.096 256.683 210.876 256.672C209.657 256.662 208.683 255.617 208.683 254.327C208.683 253.037 209.678 251.993 210.898 252.003C212.117 252.003 213.101 253.059 213.091 254.349Z" fill="url(#paint9_linear_716_548)"/>
<path d="M219.916 254.381C219.916 255.671 218.921 256.715 217.701 256.705C216.482 256.705 215.508 255.649 215.508 254.36C215.519 253.07 216.503 252.025 217.723 252.036C218.931 252.036 219.916 253.091 219.916 254.381Z" fill="url(#paint10_linear_716_548)"/>
<path d="M226.73 254.413C226.73 255.702 225.735 256.747 224.515 256.736C223.296 256.736 222.323 255.681 222.323 254.391C222.323 253.101 223.317 252.057 224.537 252.067C225.756 252.067 226.73 253.123 226.73 254.413Z" fill="url(#paint11_linear_716_548)"/>
<path d="M233.544 254.445C233.544 255.735 232.549 256.779 231.329 256.769C230.11 256.769 229.136 255.713 229.136 254.423C229.147 253.134 230.131 252.089 231.351 252.1C232.57 252.1 233.554 253.155 233.544 254.445Z" fill="url(#paint12_linear_716_548)"/>
<path d="M240.358 254.477C240.358 255.766 239.363 256.811 238.144 256.8C236.924 256.8 235.951 255.745 235.951 254.455C235.951 253.165 236.946 252.121 238.165 252.131C239.385 252.131 240.369 253.187 240.358 254.477Z" fill="url(#paint13_linear_716_548)"/>
<path d="M247.183 254.509C247.172 255.799 246.188 256.843 244.969 256.833C243.749 256.822 242.776 255.777 242.776 254.487C242.776 253.198 243.77 252.153 244.99 252.164C246.209 252.164 247.183 253.219 247.183 254.509Z" fill="url(#paint14_linear_716_548)"/>
<path d="M253.997 254.541C253.997 255.83 253.002 256.875 251.783 256.864C250.563 256.854 249.59 255.809 249.59 254.519C249.59 253.229 250.585 252.185 251.804 252.195C253.024 252.195 254.008 253.251 253.997 254.541Z" fill="url(#paint15_linear_716_548)"/>
<path d="M260.811 254.573C260.811 255.863 259.816 256.907 258.597 256.897C257.378 256.897 256.404 255.841 256.404 254.551C256.415 253.262 257.399 252.217 258.618 252.228C259.838 252.228 260.822 253.283 260.811 254.573Z" fill="url(#paint16_linear_716_548)"/>
<g opacity="0.2">
<path d="M206.276 254.317C206.266 255.607 205.282 256.651 204.062 256.641C202.843 256.63 201.869 255.585 201.869 254.296C201.88 253.006 202.864 251.961 204.083 251.972C205.303 251.972 206.287 253.027 206.276 254.317Z" fill="white"/>
<path d="M213.091 254.349C213.08 255.638 212.096 256.683 210.876 256.672C209.657 256.662 208.683 255.617 208.683 254.327C208.683 253.037 209.678 251.993 210.898 252.003C212.117 252.003 213.101 253.059 213.091 254.349Z" fill="white"/>
<path d="M219.916 254.381C219.916 255.671 218.921 256.715 217.701 256.705C216.482 256.705 215.508 255.649 215.508 254.36C215.519 253.07 216.503 252.025 217.723 252.036C218.931 252.036 219.916 253.091 219.916 254.381Z" fill="white"/>
<path d="M226.73 254.413C226.73 255.702 225.735 256.747 224.515 256.736C223.296 256.736 222.323 255.681 222.323 254.391C222.323 253.101 223.317 252.057 224.537 252.067C225.756 252.067 226.73 253.123 226.73 254.413Z" fill="white"/>
<path d="M233.544 254.445C233.544 255.735 232.549 256.779 231.329 256.769C230.11 256.769 229.136 255.713 229.136 254.423C229.147 253.134 230.131 252.089 231.351 252.1C232.57 252.1 233.554 253.155 233.544 254.445Z" fill="white"/>
<path d="M240.358 254.477C240.358 255.766 239.363 256.811 238.144 256.8C236.924 256.8 235.951 255.745 235.951 254.455C235.951 253.165 236.946 252.121 238.165 252.131C239.385 252.131 240.369 253.187 240.358 254.477Z" fill="white"/>
<path d="M247.183 254.509C247.172 255.799 246.188 256.843 244.969 256.833C243.749 256.822 242.776 255.777 242.776 254.487C242.776 253.198 243.77 252.153 244.99 252.164C246.209 252.164 247.183 253.219 247.183 254.509Z" fill="white"/>
<path d="M253.997 254.541C253.997 255.83 253.002 256.875 251.783 256.864C250.563 256.854 249.59 255.809 249.59 254.519C249.59 253.229 250.585 252.185 251.804 252.195C253.024 252.195 254.008 253.251 253.997 254.541Z" fill="white"/>
<path d="M260.811 254.573C260.811 255.863 259.816 256.907 258.597 256.897C257.378 256.897 256.404 255.841 256.404 254.551C256.415 253.262 257.399 252.217 258.618 252.228C259.838 252.228 260.822 253.283 260.811 254.573Z" fill="white"/>
</g>
<path d="M251.13 100.68C252.574 100.083 253.591 98.6013 253.601 96.8531C253.612 94.5719 251.879 92.7065 249.729 92.6958C247.579 92.6852 245.835 94.5293 245.824 96.8105C245.814 98.5693 246.851 100.062 248.306 100.669C242.316 101.565 242.594 108.056 242.594 108.056L256.746 108.12C256.746 108.131 257.067 101.575 251.13 100.68Z" fill="url(#paint17_linear_716_548)"/>
<path opacity="0.1" d="M251.13 100.68C252.574 100.083 253.591 98.6013 253.601 96.8531C253.612 94.5719 251.879 92.7065 249.729 92.6958C247.579 92.6852 245.835 94.5293 245.824 96.8105C245.814 98.5693 246.851 100.062 248.306 100.669C242.316 101.565 242.594 108.056 242.594 108.056L256.746 108.12C256.746 108.131 257.067 101.575 251.13 100.68Z" fill="black"/>
<path d="M274.135 112.373L223.655 112.141L223.627 118.153L274.108 118.385L274.135 112.373Z" fill="url(#paint18_linear_716_548)"/>
<path opacity="0.2" d="M274.135 112.373L223.655 112.141L223.627 118.153L274.108 118.385L274.135 112.373Z" fill="white"/>
<path d="M88.5523 143.499C88.5523 143.51 88.3812 143.531 88.0603 143.553C87.7072 143.574 87.2259 143.617 86.6054 143.659C85.9636 143.67 85.1827 143.809 84.2627 143.968C83.8027 144.064 83.2999 144.096 82.7758 144.246C82.2516 144.395 81.7061 144.544 81.1177 144.704C78.8071 145.429 76.0258 146.58 73.2338 148.605C70.4418 150.609 67.6498 153.477 65.4675 157.218C64.3229 159.052 63.4885 161.184 62.7504 163.412C62.1407 165.682 61.6058 168.091 61.563 170.639C61.4453 171.907 61.5737 173.197 61.6272 174.508C61.6593 175.158 61.7983 175.809 61.8839 176.47C61.9695 177.13 62.0658 177.791 62.2583 178.442C62.8039 181.096 63.8843 183.686 65.2536 186.181C67.9921 191.18 72.5919 195.486 78.2829 197.981C81.1284 199.228 84.2734 199.91 87.4719 200.038C90.6704 200.241 93.9545 199.729 97.0674 198.663L98.0088 198.322L98.1371 198.279L98.2548 198.332C102.855 200.656 107.369 202.948 111.744 205.155L111.338 205.496C109.893 201.04 108.503 196.723 107.166 192.576L107.112 192.416L107.23 192.299C110.632 188.909 112.996 184.784 114.311 180.563C115.627 176.331 115.852 172.025 115.338 168.07C114.825 164.115 113.531 160.512 111.798 157.485C110.065 154.447 107.914 151.974 105.711 150.055C103.475 148.147 101.154 146.847 99.0785 145.855C96.9497 144.97 95.0563 144.405 93.4838 144.096C92.6922 143.958 91.9969 143.841 91.3871 143.745C90.7774 143.702 90.2639 143.67 89.836 143.638C89.4402 143.606 89.1193 143.585 88.8839 143.563C88.67 143.521 88.5523 143.51 88.5523 143.499C88.5523 143.489 88.6593 143.489 88.8733 143.489C89.1086 143.499 89.4295 143.499 89.8253 143.521C90.2532 143.542 90.7774 143.563 91.3871 143.585C92.0076 143.681 92.7136 143.777 93.5052 143.894C95.0991 144.171 97.0139 144.715 99.1748 145.589C101.282 146.569 103.636 147.859 105.914 149.778C108.171 151.707 110.364 154.191 112.14 157.272C113.916 160.331 115.253 163.987 115.788 168.006C116.323 172.014 116.119 176.395 114.793 180.712C113.466 185.008 111.07 189.218 107.604 192.683L107.668 192.406C109.016 196.552 110.418 200.869 111.862 205.314L112.076 205.965L111.466 205.656C107.091 203.449 102.577 201.168 97.966 198.833L98.2013 198.844L97.2386 199.196C94.0615 200.283 90.7025 200.805 87.4291 200.603C84.1557 200.464 80.9465 199.772 78.0369 198.492C72.2282 195.934 67.5428 191.532 64.7615 186.436C63.3709 183.899 62.2797 181.245 61.7342 178.548C61.5416 177.887 61.4453 177.216 61.3598 176.544C61.2742 175.873 61.1351 175.212 61.103 174.551C61.0495 173.218 60.9319 171.907 61.0495 170.628C61.103 168.049 61.6593 165.597 62.2904 163.294C63.0606 161.034 63.9164 158.881 65.0824 157.026C67.3182 153.242 70.1636 150.364 73.0091 148.36C75.8546 146.346 78.6787 145.205 81.0214 144.512C81.6098 144.363 82.1767 144.214 82.7009 144.075C83.2251 143.926 83.7385 143.904 84.1985 143.819C85.1292 143.67 85.9208 143.553 86.5626 143.563C87.1831 143.542 87.6752 143.531 88.0282 143.51C88.3919 143.489 88.5523 143.489 88.5523 143.499Z" fill="url(#paint19_linear_716_548)"/>
<path d="M94.6604 168.389H92.6814L88.3704 162.399V158.465C88.3704 158.465 85.311 158.273 85.6747 163.422C86.0384 168.571 85.6426 167.259 85.6426 167.259C85.6426 167.259 79.1493 167.281 78.6145 167.846C78.2187 168.251 78.0475 174.679 77.9726 178.164C77.9405 179.923 79.021 181.543 80.6576 181.959C80.893 182.023 81.1283 182.055 81.353 182.055C82.9683 182.055 91.2373 180.744 91.2373 180.744H94.6497V168.389H94.6604Z" fill="url(#paint20_linear_716_548)"/>
<path d="M100.319 167.313L99.0998 180.787H95.7195V167.579L100.319 167.313Z" fill="url(#paint21_linear_716_548)"/>
<path d="M140.637 441.617V432.492L124.238 432.386L124.099 446.158L125.116 446.233C129.641 446.52 148.136 446.947 151.164 446.009C154.555 444.975 140.637 441.617 140.637 441.617Z" fill="url(#paint22_linear_716_548)"/>
<path d="M151.559 445.167C151.559 445.316 145.43 445.444 137.856 445.444C130.293 445.444 124.153 445.316 124.153 445.167C124.153 445.018 130.282 444.89 137.856 444.89C145.419 444.89 151.559 445.007 151.559 445.167Z" fill="#263238"/>
<path d="M140.926 443.472C140.787 443.397 140.905 442.918 141.258 442.449C141.611 441.969 142.039 441.724 142.146 441.83C142.253 441.937 142.028 442.342 141.707 442.779C141.386 443.216 141.065 443.547 140.926 443.472Z" fill="#263238"/>
<path d="M141.975 444.079C141.836 444.026 141.911 443.482 142.231 442.917C142.552 442.342 142.98 442.001 143.098 442.097C143.216 442.193 143.012 442.662 142.713 443.184C142.413 443.717 142.114 444.133 141.975 444.079Z" fill="#263238"/>
<path d="M129.095 445.124C129.031 445.167 128.785 444.932 128.432 444.527C128.079 444.133 127.608 443.568 126.998 443.088C126.389 442.619 125.715 442.374 125.223 442.32C124.72 442.256 124.399 442.331 124.367 442.246C124.335 442.182 124.645 441.958 125.233 441.926C125.811 441.883 126.635 442.107 127.33 442.651C128.025 443.184 128.464 443.834 128.742 444.292C129.031 444.761 129.159 445.081 129.095 445.124Z" fill="#263238"/>
<path d="M140.98 441.755C141.065 441.883 140.776 442.203 140.306 442.374C139.835 442.544 139.418 442.491 139.396 442.331C139.375 442.182 139.707 442 140.113 441.851C140.52 441.702 140.894 441.627 140.98 441.755Z" fill="#263238"/>
<path d="M140.712 440.881C140.723 441.031 140.295 441.169 139.739 441.169C139.182 441.18 138.744 441.063 138.755 440.903C138.765 440.753 139.204 440.615 139.728 440.615C140.263 440.604 140.701 440.732 140.712 440.881Z" fill="#263238"/>
<path d="M181.02 441.617V432.492L164.621 432.386L164.482 446.019L165.498 446.094C170.023 446.382 188.519 446.947 191.546 446.019C194.937 444.975 181.02 441.617 181.02 441.617Z" fill="url(#paint23_linear_716_548)"/>
<path d="M191.942 445.188C191.942 445.337 185.812 445.465 178.239 445.465C170.676 445.465 164.535 445.337 164.535 445.188C164.535 445.039 170.665 444.911 178.239 444.911C185.812 444.911 191.942 445.028 191.942 445.188Z" fill="#263238"/>
<path d="M181.309 443.472C181.17 443.397 181.287 442.918 181.64 442.449C181.994 441.969 182.421 441.724 182.528 441.83C182.635 441.937 182.411 442.342 182.09 442.779C181.769 443.216 181.448 443.547 181.309 443.472Z" fill="#263238"/>
<path d="M182.357 444.079C182.218 444.026 182.293 443.482 182.614 442.917C182.935 442.342 183.363 442.001 183.48 442.097C183.598 442.193 183.395 442.662 183.095 443.184C182.796 443.717 182.496 444.133 182.357 444.079Z" fill="#263238"/>
<path d="M169.478 445.124C169.413 445.167 169.167 444.932 168.814 444.527C168.461 444.133 167.991 443.568 167.381 443.088C166.771 442.619 166.097 442.374 165.605 442.32C165.102 442.256 164.781 442.331 164.749 442.246C164.717 442.182 165.027 441.958 165.616 441.926C166.193 441.883 167.017 442.107 167.712 442.651C168.408 443.184 168.846 443.834 169.125 444.292C169.413 444.761 169.542 445.081 169.478 445.124Z" fill="#263238"/>
<path d="M181.362 441.755C181.437 441.883 181.159 442.203 180.688 442.374C180.218 442.544 179.8 442.491 179.779 442.331C179.758 442.182 180.089 442 180.496 441.851C180.913 441.702 181.277 441.627 181.362 441.755Z" fill="#263238"/>
<path d="M181.106 440.881C181.116 441.031 180.688 441.169 180.132 441.169C179.576 441.18 179.137 441.063 179.148 440.903C179.159 440.753 179.597 440.615 180.121 440.615C180.646 440.604 181.084 440.732 181.106 440.881Z" fill="#263238"/>
<path d="M241.438 170.969C241.01 170.532 239.962 170.735 239.962 170.735C239.962 170.735 240.144 169.488 239.951 168.891C239.759 168.283 238.411 168.4 238.411 168.4C238.411 168.4 238.325 167.825 238.443 166.887C238.475 166.652 238.347 166.482 238.133 166.354C237.491 165.97 236.122 165.991 236.122 165.991C235.298 165.405 238.636 160.747 239.876 159.254C241.096 157.783 240.893 156.6 239.791 156.6C239.042 156.6 235.138 161.077 233.95 162.58C232.763 164.083 229.564 168.262 229.457 164.925C229.35 161.589 228.002 159.062 227.168 158.636C226.323 158.21 225.424 159.212 225.884 160.139C226.259 160.885 226.494 162.335 226.633 163.422C226.74 164.318 226.708 165.234 226.505 166.119C225.949 168.613 225.35 170.244 225.061 170.937L224.975 170.895C224.975 170.895 201.623 193.205 199.943 194.793C198.424 196.222 168.087 193.099 162.011 192.459C160.353 192.278 157.892 191.937 155.753 192.033C153.121 192.15 152.651 192.523 150.008 192.555C141.932 192.662 135.193 193.45 130.186 194.292C124.132 195.316 119.157 199.612 117.285 205.442C111.156 224.523 97.2706 269.688 94.7995 295.058C92.8526 298.703 90.6704 302.967 89.7932 305.366C88.0709 310.034 88.4881 310.184 89.0658 310.301C90.6169 310.589 92.4033 302.21 93.0665 304.236C93.7298 306.261 89.6969 314.224 91.3336 314.458C93.473 314.767 95.1739 305.963 95.3665 305.227C95.559 304.513 96.6394 304.758 96.4255 305.408C96.1153 306.346 93.1093 316.292 95.1953 316.611C96.3506 316.793 96.479 314.682 96.479 314.682C96.479 314.682 98.6078 305.174 99.5919 305.355C100.587 305.536 99.5277 311.164 99.0357 313.041C98.5436 314.895 99.2389 315.876 100.234 315.407C100.918 315.087 102.555 309.395 103.004 307.529C103.454 305.664 104.577 300.537 106.085 303.511C107.593 306.485 109.883 308.212 110.824 308.254C111.765 308.286 112.161 306.997 111.348 306.346C110.685 305.824 109.861 304.619 109.284 303.681C108.802 302.914 108.449 302.072 108.257 301.187C107.508 297.776 107.508 295.793 107.508 295.793L107.337 294.695C109.733 282.874 116.633 248.177 126.56 226.015L130.646 234.394L132.422 240.598L121.532 267.396L167.969 266.788L161.048 240.203L169.456 212.488C178.559 212.691 201.944 213.032 205.87 211.284C210.769 209.099 236.122 177.258 236.122 177.258C237.833 175.905 239.577 174.434 240.861 173.165C240.85 173.144 242.358 171.918 241.438 170.969Z" fill="#FFBE9D"/>
<path d="M119.5 247.654C120.847 243.071 127.769 220.408 127.769 220.408C127.769 220.408 131.17 238.882 130.272 241.109C129.245 243.678 127.351 246.61 127.351 246.61C119.5 258.527 120.526 264.486 120.526 264.486L167.958 263.047C168.076 256.438 164.15 241.067 163.326 238.615C162.503 236.163 165.231 228.126 165.231 228.126C165.231 228.126 170.59 222.7 170.387 219.907C169.969 214.279 169.456 212.467 169.456 212.467L198.317 213.522L197.408 194.005L155.924 189.869C154.49 193.941 141.418 191.947 141.418 191.947C127.309 192.406 126.464 194.996 120.58 199.537C114.696 204.078 105.015 243.049 105.015 243.049L119.5 247.654Z" fill="url(#paint24_linear_716_548)"/>
<path d="M147.548 243.049C147.548 243.124 146.596 243.188 145.045 243.177C143.504 243.167 141.365 243.071 139.022 242.836C136.68 242.602 134.561 242.271 133.053 241.973C131.534 241.674 130.614 241.429 130.625 241.354C130.636 241.28 131.588 241.386 133.117 241.589C134.647 241.781 136.744 242.047 139.076 242.282C141.408 242.516 143.526 242.676 145.056 242.783C146.607 242.889 147.559 242.964 147.548 243.049Z" fill="#263238"/>
<path d="M150.8 239.031C150.821 239.095 149.837 239.468 148.211 239.916C146.585 240.353 144.296 240.843 141.729 241.152C139.161 241.45 136.818 241.514 135.139 241.472C133.449 241.429 132.411 241.291 132.411 241.216C132.411 241.131 133.459 241.131 135.139 241.077C136.818 241.024 139.129 240.907 141.664 240.598C144.2 240.299 146.478 239.873 148.125 239.532C149.762 239.18 150.778 238.945 150.8 239.031Z" fill="#263238"/>
<path d="M166.75 221.101C166.825 221.112 166.707 222.039 166.429 223.511C166.151 224.982 165.723 227.007 165.177 229.235C164.632 231.463 164.075 233.456 163.637 234.884C163.198 236.323 162.877 237.197 162.802 237.176C162.727 237.155 162.909 236.249 163.252 234.788C163.658 233.125 164.118 231.217 164.632 229.107C165.156 226.996 165.626 225.099 166.044 223.436C166.418 221.976 166.675 221.08 166.75 221.101Z" fill="#263238"/>
<path d="M120.002 244.947C119.959 245.096 116.686 244.339 112.696 243.252C108.695 242.165 105.497 241.163 105.539 241.014C105.582 240.864 108.856 241.632 112.846 242.709C116.836 243.796 120.034 244.798 120.002 244.947Z" fill="#263238"/>
<path d="M169.969 212.222C169.969 212.243 169.531 212.296 168.739 212.211C167.958 212.126 166.803 211.945 165.477 211.433C164.15 210.932 162.631 210.111 161.219 208.853C159.807 207.606 158.545 205.879 157.742 203.854C156.929 201.829 156.651 199.718 156.78 197.842C156.908 195.966 157.4 194.271 158.245 193.088C159.08 191.883 160.181 191.308 160.952 191.105C161.337 190.998 161.658 190.977 161.861 190.988C162.075 190.998 162.182 191.02 162.182 191.03C162.182 191.084 161.743 191.062 161.016 191.308C160.31 191.563 159.304 192.16 158.566 193.312C157.111 195.593 156.705 199.761 158.256 203.651C159.037 205.602 160.224 207.254 161.561 208.47C162.899 209.695 164.343 210.538 165.616 211.071C168.204 212.136 169.991 212.104 169.969 212.222Z" fill="#263238"/>
<path d="M194.905 213.139C194.755 213.139 194.637 208.736 194.648 203.321C194.659 197.896 194.787 193.493 194.948 193.493C195.097 193.493 195.215 197.896 195.204 203.321C195.194 208.747 195.065 213.139 194.905 213.139Z" fill="#263238"/>
<path d="M155.667 191.074C155.785 188.696 156.031 186.01 156.031 186.01C156.031 186.01 161.936 185.36 162.289 179.284C162.642 173.208 162.289 159.191 162.289 159.191L151.538 153.733L139.707 163.028L141.504 193.408L152.383 194.101C154.106 194.207 155.582 192.854 155.667 191.074Z" fill="#FFBE9D"/>
<path d="M156.726 174.466C156.748 174.466 156.748 174.583 156.63 174.732C156.523 174.871 156.288 175.041 155.956 175.031C155.272 174.999 154.608 174.242 154.373 173.325C154.255 172.856 154.255 172.387 154.341 171.971C154.416 171.566 154.651 171.161 154.983 171.055C155.143 170.991 155.314 171.001 155.432 171.065C155.56 171.129 155.635 171.225 155.678 171.311C155.753 171.492 155.699 171.598 155.678 171.588C155.657 171.588 155.657 171.492 155.571 171.374C155.486 171.257 155.282 171.151 155.068 171.268C154.844 171.374 154.683 171.662 154.63 172.025C154.566 172.387 154.566 172.814 154.683 173.229C154.897 174.05 155.475 174.732 155.978 174.796C156.234 174.828 156.438 174.732 156.555 174.636C156.662 174.551 156.705 174.466 156.726 174.466Z" fill="#EB996E"/>
<path d="M165.958 155.907C165.134 153.115 162.15 151.718 159.433 150.951C155.293 149.778 150.811 149.266 146.778 150.748C142.734 152.23 137.878 154.841 137.878 159.286C135.492 159.095 134.134 161.173 133.182 163.753C132.625 165.277 132.251 166.972 132.165 168.656L132.123 168.646C131.812 174.466 130.186 182.492 126.399 186.799C124.303 189.176 121.297 190.818 120.077 193.781C119.018 196.361 119.564 199.399 118.558 202C117.67 204.291 115.713 205.922 114.312 207.916C111.252 212.265 111.049 218.405 113.295 223.255C115.542 228.105 119.992 231.655 124.934 233.285C129.876 234.916 135.268 234.735 140.295 233.424C144.007 232.465 147.623 230.866 150.586 228.339C153.549 225.824 155.817 222.317 156.491 218.405C157.24 214.045 156.02 209.632 155.122 205.304C152.276 191.617 153.089 190.914 156.684 178.218C156.769 177.994 156.812 177.76 156.876 177.536C156.919 177.365 156.972 177.205 157.015 177.035H157.005C157.101 176.534 157.176 176.033 157.176 175.521C156.138 175.926 154.876 175.66 154.084 174.85C153.282 174.05 152.993 172.75 153.357 171.662C153.774 170.404 154.929 169.573 156.117 169.072C157.304 168.571 158.577 168.326 159.743 167.772C162.214 166.599 163.926 164.169 165.092 161.621C165.905 159.841 166.514 157.794 165.958 155.907Z" fill="#263238"/>
<path d="M157.154 174.732C157.186 174.721 157.4 175.116 157.721 175.787C158.042 176.459 158.47 177.408 158.941 178.506L159.026 178.708L158.802 178.729C158.449 178.761 158.085 178.793 157.71 178.825C156.962 178.879 156.341 178.964 155.614 178.953C155.496 178.932 155.368 178.825 155.336 178.708C155.293 178.591 155.304 178.495 155.314 178.41C155.346 178.239 155.378 178.122 155.411 177.973L155.603 177.216C155.838 176.299 156.01 175.734 156.052 175.745C156.095 175.755 156.01 176.342 155.828 177.269L155.678 178.037C155.624 178.292 155.528 178.676 155.667 178.655C156.202 178.634 156.962 178.548 157.668 178.495C158.042 178.463 158.395 178.442 158.759 178.41L158.62 178.634C158.16 177.536 157.775 176.566 157.507 175.873C157.25 175.169 157.111 174.743 157.154 174.732Z" fill="url(#paint25_linear_716_548)"/>
<path d="M120.527 264.486L167.959 263.047L188.583 343.356L184.785 435.477H159.679L162.792 345.318L144.446 289.408L147.27 439.048L121.928 439.421L119.254 298.767C119.147 294.855 117.852 286.04 118.334 282.16L120.527 264.486Z" fill="#263238"/>
<path d="M150.768 290.538C150.757 290.612 149.869 290.57 148.447 290.399C147.024 290.229 145.056 289.93 142.905 289.504C140.755 289.067 138.83 288.587 137.45 288.193C136.07 287.798 135.235 287.5 135.246 287.425C135.289 287.276 138.734 288.107 143.012 288.96C147.291 289.824 150.789 290.378 150.768 290.538Z" fill="#455A64"/>
<path d="M184.561 430.413C184.561 430.563 178.88 430.691 171.863 430.691C164.846 430.691 159.165 430.563 159.165 430.413C159.165 430.264 164.846 430.136 171.863 430.136C178.88 430.136 184.561 430.264 184.561 430.413Z" fill="#455A64"/>
<path d="M147.056 435.157C147.056 435.306 141.547 435.434 134.743 435.434C127.94 435.434 122.431 435.306 122.431 435.157C122.431 435.008 127.94 434.88 134.743 434.88C141.536 434.88 147.056 434.997 147.056 435.157Z" fill="#455A64"/>
<path d="M143.783 434.773C143.633 434.773 142.959 402.08 142.296 361.755C141.622 321.419 141.215 288.715 141.365 288.715C141.515 288.715 142.189 321.408 142.852 361.744C143.526 402.07 143.943 434.763 143.783 434.773Z" fill="#455A64"/>
<path d="M181.191 430.413C181.18 430.413 181.18 430.264 181.18 429.976C181.191 429.667 181.191 429.241 181.202 428.697C181.234 427.546 181.287 425.894 181.341 423.794C181.491 419.498 181.705 413.347 181.972 405.747C182.56 390.482 183.363 369.451 184.261 346.213C184.272 346 184.283 345.787 184.283 345.584L184.293 345.659C178.667 323.231 173.585 302.956 169.905 288.257C168.098 280.934 166.632 275.007 165.616 270.871C165.124 268.835 164.749 267.247 164.482 266.138C164.364 265.616 164.268 265.211 164.204 264.901C164.14 264.624 164.118 264.475 164.129 264.475C164.14 264.475 164.182 264.614 164.257 264.891C164.343 265.189 164.45 265.594 164.589 266.106C164.878 267.215 165.295 268.792 165.83 270.818C166.889 274.943 168.418 280.859 170.291 288.161C174.013 302.85 179.148 323.114 184.839 345.531L184.85 345.573V345.616C184.839 345.808 184.828 346.032 184.828 346.245C183.876 369.472 183.01 390.514 182.378 405.768C182.036 413.369 181.769 419.519 181.576 423.804C181.469 425.915 181.384 427.556 181.33 428.708C181.298 429.251 181.266 429.667 181.255 429.987C181.223 430.275 181.202 430.413 181.191 430.413Z" fill="#455A64"/>
<path d="M173.008 343.719C173.029 343.868 170.547 344.422 167.466 344.945C165.156 345.339 163.166 345.616 162.3 345.659V345.446C162.588 345.52 162.749 345.584 162.738 345.627C162.728 345.67 162.567 345.68 162.268 345.67L161.615 345.638L162.268 345.446C163.102 345.201 165.07 344.796 167.381 344.401C170.462 343.868 172.986 343.559 173.008 343.719Z" fill="#455A64"/>
<path d="M172.526 346.778C172.505 346.927 170.28 346.757 167.531 346.554C164.781 346.341 162.556 346.16 162.556 346.011C162.556 345.862 164.803 345.787 167.573 346C170.344 346.213 172.548 346.629 172.526 346.778Z" fill="#455A64"/>
<path opacity="0.2" d="M120.323 266.181C121.468 267.79 123.105 268.355 125.009 268.664C126.913 268.974 128.849 268.771 130.764 268.558C143.012 267.204 155.978 265.957 167.969 263.047C152.448 263.91 136.059 263.622 120.537 264.486C120.537 264.486 120.409 265.552 120.377 265.808" fill="black"/>
<g opacity="0.2">
<path d="M136.316 287.979L145.066 321.802L144.457 289.408L136.316 287.979Z" fill="black"/>
</g>
</g>
<defs>
<linearGradient id="paint0_linear_716_548" x1="341.884" y1="202.634" x2="341.884" y2="318.58" gradientUnits="userSpaceOnUse">
<stop stop-color="#4B83EF"/>
<stop offset="1" stop-color="#1EA4DD"/>
</linearGradient>
<linearGradient id="paint1_linear_716_548" x1="336.842" y1="4.94629" x2="336.842" y2="111.213" gradientUnits="userSpaceOnUse">
<stop stop-color="#4B83EF"/>
<stop offset="1" stop-color="#1EA4DD"/>
</linearGradient>
<linearGradient id="paint2_linear_716_548" x1="245.931" y1="295.079" x2="245.931" y2="320.076" gradientUnits="userSpaceOnUse">
<stop stop-color="#4B83EF"/>
<stop offset="1" stop-color="#1EA4DD"/>
</linearGradient>
<linearGradient id="paint3_linear_716_548" x1="208.28" y1="138.321" x2="208.257" y2="143.352" gradientUnits="userSpaceOnUse">
<stop stop-color="#4B83EF"/>
<stop offset="1" stop-color="#1EA4DD"/>
</linearGradient>
<linearGradient id="paint4_linear_716_548" x1="227.064" y1="157.721" x2="227.042" y2="162.422" gradientUnits="userSpaceOnUse">
<stop stop-color="#4B83EF"/>
<stop offset="1" stop-color="#1EA4DD"/>
</linearGradient>
<linearGradient id="paint5_linear_716_548" x1="208.087" y1="184.221" x2="208.064" y2="189.253" gradientUnits="userSpaceOnUse">
<stop stop-color="#4B83EF"/>
<stop offset="1" stop-color="#1EA4DD"/>
</linearGradient>
<linearGradient id="paint6_linear_716_548" x1="207.884" y1="232.094" x2="207.861" y2="237.126" gradientUnits="userSpaceOnUse">
<stop stop-color="#4B83EF"/>
<stop offset="1" stop-color="#1EA4DD"/>
</linearGradient>
<linearGradient id="paint7_linear_716_548" x1="226.871" y1="203.622" x2="226.85" y2="208.323" gradientUnits="userSpaceOnUse">
<stop stop-color="#4B83EF"/>
<stop offset="1" stop-color="#1EA4DD"/>
</linearGradient>
<linearGradient id="paint8_linear_716_548" x1="204.073" y1="251.972" x2="204.073" y2="256.641" gradientUnits="userSpaceOnUse">
<stop stop-color="#4B83EF"/>
<stop offset="1" stop-color="#1EA4DD"/>
</linearGradient>
<linearGradient id="paint9_linear_716_548" x1="210.887" y1="252.003" x2="210.887" y2="256.672" gradientUnits="userSpaceOnUse">
<stop stop-color="#4B83EF"/>
<stop offset="1" stop-color="#1EA4DD"/>
</linearGradient>
<linearGradient id="paint10_linear_716_548" x1="217.712" y1="252.036" x2="217.712" y2="256.705" gradientUnits="userSpaceOnUse">
<stop stop-color="#4B83EF"/>
<stop offset="1" stop-color="#1EA4DD"/>
</linearGradient>
<linearGradient id="paint11_linear_716_548" x1="224.526" y1="252.067" x2="224.526" y2="256.736" gradientUnits="userSpaceOnUse">
<stop stop-color="#4B83EF"/>
<stop offset="1" stop-color="#1EA4DD"/>
</linearGradient>
<linearGradient id="paint12_linear_716_548" x1="231.34" y1="252.1" x2="231.34" y2="256.769" gradientUnits="userSpaceOnUse">
<stop stop-color="#4B83EF"/>
<stop offset="1" stop-color="#1EA4DD"/>
</linearGradient>
<linearGradient id="paint13_linear_716_548" x1="238.154" y1="252.131" x2="238.154" y2="256.8" gradientUnits="userSpaceOnUse">
<stop stop-color="#4B83EF"/>
<stop offset="1" stop-color="#1EA4DD"/>
</linearGradient>
<linearGradient id="paint14_linear_716_548" x1="244.979" y1="252.164" x2="244.979" y2="256.833" gradientUnits="userSpaceOnUse">
<stop stop-color="#4B83EF"/>
<stop offset="1" stop-color="#1EA4DD"/>
</linearGradient>
<linearGradient id="paint15_linear_716_548" x1="251.794" y1="252.195" x2="251.794" y2="256.864" gradientUnits="userSpaceOnUse">
<stop stop-color="#4B83EF"/>
<stop offset="1" stop-color="#1EA4DD"/>
</linearGradient>
<linearGradient id="paint16_linear_716_548" x1="258.608" y1="252.228" x2="258.608" y2="256.897" gradientUnits="userSpaceOnUse">
<stop stop-color="#4B83EF"/>
<stop offset="1" stop-color="#1EA4DD"/>
</linearGradient>
<linearGradient id="paint17_linear_716_548" x1="249.671" y1="92.6958" x2="249.671" y2="108.12" gradientUnits="userSpaceOnUse">
<stop stop-color="#4B83EF"/>
<stop offset="1" stop-color="#1EA4DD"/>
</linearGradient>
<linearGradient id="paint18_linear_716_548" x1="248.895" y1="112.257" x2="248.867" y2="118.269" gradientUnits="userSpaceOnUse">
<stop stop-color="#4B83EF"/>
<stop offset="1" stop-color="#1EA4DD"/>
</linearGradient>
<linearGradient id="paint19_linear_716_548" x1="88.5306" y1="143.489" x2="88.5306" y2="205.965" gradientUnits="userSpaceOnUse">
<stop stop-color="#4B83EF"/>
<stop offset="1" stop-color="#1EA4DD"/>
</linearGradient>
<linearGradient id="paint20_linear_716_548" x1="86.3162" y1="158.464" x2="86.3162" y2="182.055" gradientUnits="userSpaceOnUse">
<stop stop-color="#4B83EF"/>
<stop offset="1" stop-color="#1EA4DD"/>
</linearGradient>
<linearGradient id="paint21_linear_716_548" x1="98.0194" y1="167.313" x2="98.0194" y2="180.787" gradientUnits="userSpaceOnUse">
<stop stop-color="#4B83EF"/>
<stop offset="1" stop-color="#1EA4DD"/>
</linearGradient>
<linearGradient id="paint22_linear_716_548" x1="137.898" y1="432.386" x2="137.898" y2="446.583" gradientUnits="userSpaceOnUse">
<stop stop-color="#4B83EF"/>
<stop offset="1" stop-color="#1EA4DD"/>
</linearGradient>
<linearGradient id="paint23_linear_716_548" x1="178.28" y1="432.386" x2="178.28" y2="446.529" gradientUnits="userSpaceOnUse">
<stop stop-color="#4B83EF"/>
<stop offset="1" stop-color="#1EA4DD"/>
</linearGradient>
<linearGradient id="paint24_linear_716_548" x1="151.666" y1="189.869" x2="151.666" y2="264.486" gradientUnits="userSpaceOnUse">
<stop stop-color="#4B83EF"/>
<stop offset="1" stop-color="#1EA4DD"/>
</linearGradient>
<linearGradient id="paint25_linear_716_548" x1="157.165" y1="174.732" x2="157.165" y2="178.954" gradientUnits="userSpaceOnUse">
<stop stop-color="#4B83EF"/>
<stop offset="1" stop-color="#1EA4DD"/>
</linearGradient>
<clipPath id="clip0_716_548">
<rect width="457" height="447" fill="white"/>
</clipPath>
</defs>
</svg>
