<svg width="608" height="452" viewBox="0 0 608 452" fill="none" xmlns="http://www.w3.org/2000/svg">
<g clip-path="url(#clip0_726_3827)">
<path d="M547.078 417.352H506.804V417.656H547.078V417.352Z" fill="#EBEBEB"/>
<path d="M402.764 420.657H392.197V420.96H402.764V420.657Z" fill="#EBEBEB"/>
<path d="M505.588 406.079H482.253V406.382H505.588V406.079Z" fill="#EBEBEB"/>
<path d="M116.31 408.119H63.7914V408.423H116.31V408.119Z" fill="#EBEBEB"/>
<path d="M134.842 408.119H127.145V408.423H134.842V408.119Z" fill="#EBEBEB"/>
<path d="M273.782 413.246H159.868V413.55H273.782V413.246Z" fill="#EBEBEB"/>
<path d="M289.894 343.623H55.0848C51.2544 343.623 48.1415 340.513 48.1415 336.686V6.93684C48.1415 3.11004 51.2544 0 55.0848 0H289.894C293.725 0 296.838 3.11004 296.838 6.93684V336.686C296.838 340.513 293.725 343.623 289.894 343.623ZM55.0848 0.303714C51.4247 0.303714 48.4455 3.28012 48.4455 6.93684V336.686C48.4455 340.342 51.4247 343.319 55.0848 343.319H289.894C293.555 343.319 296.534 340.342 296.534 336.686V6.93684C296.534 3.28012 293.555 0.303714 289.894 0.303714H55.0848Z" fill="#EBEBEB"/>
<path d="M552.915 343.623H318.106C314.275 343.623 311.162 340.513 311.162 336.686V6.93684C311.162 3.11004 314.275 0 318.106 0H552.915C556.746 0 559.859 3.11004 559.859 6.93684V336.686C559.859 340.513 556.746 343.623 552.915 343.623ZM318.106 0.303714C314.446 0.303714 311.466 3.28012 311.466 6.93684V336.686C311.466 340.342 314.446 343.319 318.106 343.319H552.915C556.575 343.319 559.555 340.342 559.555 336.686V6.93684C559.555 3.28012 556.575 0.303714 552.915 0.303714H318.106Z" fill="#EBEBEB"/>
<path d="M608 397.805H0V398.109H608V397.805Z" fill="#EBEBEB"/>
<path d="M425.689 390.753H541.428V236.903H425.689V390.753Z" fill="#F5F5F5"/>
<path d="M403.602 390.753H425.685V236.903H403.602V390.753Z" fill="#E6E6E6"/>
<path d="M433.204 285.673H533.318V248.304H433.204V285.673Z" fill="#FAFAFA"/>
<path d="M496.31 248.305L495.873 253.286C495.727 254.926 494.353 256.189 492.699 256.189H473.802C472.148 256.189 470.774 254.926 470.628 253.286L470.191 248.305H496.31Z" fill="#EBEBEB"/>
<path d="M433.204 327.111H533.318V289.742H433.204V327.111Z" fill="#FAFAFA"/>
<path d="M496.31 289.756L495.873 294.737C495.727 296.377 494.353 297.64 492.699 297.64H473.802C472.148 297.64 470.774 296.377 470.628 294.737L470.191 289.756H496.31Z" fill="#EBEBEB"/>
<path d="M433.204 368.561H533.318V331.192H433.204V368.561Z" fill="#FAFAFA"/>
<path d="M496.31 331.194L495.873 336.175C495.727 337.815 494.353 339.079 492.699 339.079H473.802C472.148 339.079 470.774 337.815 470.628 336.175L470.191 331.194H496.31Z" fill="#EBEBEB"/>
<path d="M433.2 398.425H532.097L533.313 390.735H433.2V398.425Z" fill="#E6E6E6"/>
<path d="M412.528 398.425H433.2V390.735H411.312L412.528 398.425Z" fill="#E0E0E0"/>
<path d="M479.688 237.055H519.208L514.83 186.991H475.31L479.688 237.055Z" fill="#FAFAFA"/>
<path d="M479.688 237.055H477.803L473.413 186.991H475.31L479.688 237.055Z" fill="#EBEBEB"/>
<path d="M483.275 231.953H514.733L511.243 192.093H479.785L483.275 231.953Z" fill="#F0F0F0"/>
<path d="M485.573 228.672H511.851L508.945 195.373H482.655L485.573 228.672Z" fill="#E6E6E6"/>
<path d="M468.586 237.055L471.297 206.064H431.96L429.248 237.055H468.586Z" fill="#F0F0F0"/>
<path d="M468.586 237.055L471.297 206.064H473.413L470.702 237.055H468.586Z" fill="#E0E0E0"/>
<path d="M464.852 233.896L467.017 209.223H435.693L433.528 233.896H464.852Z" fill="#EBEBEB"/>
<path d="M462.445 231.868L464.257 211.251H438.088L436.289 231.868H462.445Z" fill="#F5F5F5"/>
<path d="M377.738 377.602C377.738 385.814 376.449 391.123 374.273 394.537C372.643 397.1 369.7 398.546 366.66 398.546H354.756C351.716 398.546 348.785 397.1 347.144 394.537C344.967 391.123 343.678 385.814 343.678 377.602C343.678 365.696 348.87 356.16 350.573 348.543C351.181 345.797 349.15 337.402 349.15 337.402H372.254C372.254 337.402 370.223 345.809 370.831 348.543C372.546 356.148 377.738 365.684 377.738 377.602Z" fill="#EBEBEB"/>
<path d="M417.088 329.384C417.088 319.046 400.854 323.334 396.769 307.286C395.224 301.212 408.418 287.447 408.418 287.447H367.256C367.256 287.447 380.462 301.212 378.906 307.286C374.82 323.334 358.586 319.034 358.586 329.384C358.586 340.78 381.483 364.494 382.578 391.196C382.675 393.577 378.273 398.534 378.273 398.534H397.389C397.389 398.534 392.987 393.589 393.084 391.196C394.191 364.506 417.088 340.78 417.088 329.384Z" fill="#F5F5F5"/>
<path d="M404.648 356.269C407.044 351.24 402.095 334.146 402.095 334.146H419.933C419.933 334.146 414.984 351.24 417.38 356.269C419.07 359.816 422.912 362.088 422.912 366.279V391.512C422.912 398.048 417.562 398.534 411.02 398.534C404.478 398.534 399.127 398.048 399.127 391.512V366.279C399.115 362.076 402.958 359.816 404.648 356.269Z" fill="#F0F0F0"/>
<path d="M200.822 207.231C190.571 202.796 184.735 193.442 187.787 186.372C190.851 179.301 201.674 177.163 211.924 181.597C222.175 186.031 228.024 195.386 224.96 202.456C221.896 209.515 211.073 211.653 200.822 207.231ZM208.982 188.4C204.179 186.323 199.108 187.331 197.673 190.636C196.238 193.952 198.974 198.326 203.777 200.403C208.58 202.481 213.651 201.472 215.086 198.168C216.521 194.863 213.785 190.478 208.982 188.4Z" fill="#E6E6E6"/>
<path d="M212.885 188.801L208.021 186.699L237.448 118.74C238.032 117.392 239.588 116.784 240.938 117.355C242.288 117.938 242.896 119.493 242.324 120.842L212.885 188.801Z" fill="#E6E6E6"/>
<path d="M244.562 127.414L235.211 123.333L237.327 118.473L246.665 122.543L244.562 127.414Z" fill="#E6E6E6"/>
<path d="M239.953 132.857L233.265 129.954L235.369 125.082L242.057 127.986L239.953 132.857Z" fill="#E6E6E6"/>
<path d="M232.672 134.374L230.565 139.235L238.064 142.48L240.171 137.619L232.672 134.374Z" fill="#E6E6E6"/>
<path d="M214.77 181.549L212.095 180.395C210.757 179.824 210.149 178.269 210.721 176.944L210.733 176.908C211.304 175.572 212.861 174.964 214.186 175.535L216.861 176.689C218.199 177.26 218.807 178.815 218.235 180.139L218.223 180.176C217.652 181.512 216.107 182.12 214.77 181.549Z" fill="#E6E6E6"/>
<path d="M423.739 158.187C431.862 163.593 433.954 174.757 428.409 183.067C422.864 191.376 411.75 193.745 403.627 188.351C395.504 182.945 393.412 171.781 398.957 163.471C404.502 155.149 415.616 152.78 423.739 158.187ZM408.965 180.333C412.771 182.86 417.975 181.755 420.578 177.855C423.18 173.955 422.195 168.731 418.389 166.192C414.583 163.666 409.378 164.771 406.776 168.671C404.186 172.57 405.171 177.794 408.965 180.333Z" fill="#E6E6E6"/>
<path d="M407.007 178.171L412.042 181.524L376.036 236.581C375.112 237.966 373.227 238.343 371.841 237.42C370.454 236.496 370.077 234.625 371.002 233.228L407.007 178.171Z" fill="#E6E6E6"/>
<path d="M371.22 221.225L381.812 228.332L376.522 236.265L365.906 229.146C364.386 228.126 363.973 226.06 364.994 224.542L366.587 222.149C367.609 220.606 369.688 220.205 371.22 221.225Z" fill="#E6E6E6"/>
<path d="M276.689 52.9676L271.095 67.4366C270.596 68.7365 269.125 69.3925 267.824 68.8823C266.523 68.3842 265.866 66.9142 266.377 65.6143L271.97 51.1453C273.77 46.4681 271.435 41.2078 266.766 39.3977L261.586 37.4053C256.904 35.6073 251.639 37.9398 249.827 42.6049L247.541 48.5091L242.811 46.6868L245.097 40.7826C247.906 33.5056 256.126 29.8732 263.398 32.6795L268.578 34.6719C275.862 37.4903 279.498 45.6906 276.689 52.9676Z" fill="#F0F0F0"/>
<path d="M275.801 55.2516C275.424 54.7778 274.925 54.3769 274.317 54.1461L246.106 43.261C245.474 43.018 244.817 42.9694 244.197 43.0909C243.066 43.3095 242.069 44.0871 241.631 45.2412L230.736 73.4259C230.043 75.2117 230.93 77.2041 232.718 77.8965L260.929 88.7817C262.717 89.4741 264.711 88.5873 265.404 86.8014L276.299 58.6168C276.749 57.4505 276.53 56.1749 275.801 55.2516ZM254.375 77.034L245.425 73.5838L250.155 65.3349C249.56 64.1322 249.45 62.6987 249.973 61.3502C250.958 58.799 253.828 57.5234 256.394 58.5074C258.947 59.4914 260.224 62.3707 259.239 64.9219C258.716 66.2704 257.67 67.2544 256.418 67.7403L254.375 77.034Z" fill="#E6E6E6"/>
<path d="M84.0909 382.079H309.209V261.043H84.0909L84.0909 382.079Z" fill="#E6E6E6"/>
<path d="M291.165 397.783H305.319V387.104H291.165V397.783Z" fill="#E6E6E6"/>
<path d="M66.8987 397.782H81.053L81.053 252.036H66.8987L66.8987 397.782Z" fill="#E6E6E6"/>
<path d="M80.8883 252.034V397.781H88.4397V389.617H305.313V397.781H312.865V252.034H309.095H305.325H88.4397H84.6701H80.8883ZM88.4397 265.228H193.101V315.851H88.4397V265.228ZM305.313 376.423H200.652V265.228H305.313V376.423ZM88.4397 376.423V323.383H193.101V376.423H88.4397Z" fill="#F0F0F0"/>
<path d="M200.638 376.424H298.234V270.67H200.638V376.424Z" fill="#F5F5F5"/>
<path d="M205.066 320.382C205.066 322.885 207.097 324.913 209.602 324.913C212.107 324.913 214.138 322.885 214.138 320.382C214.138 317.879 212.107 315.851 209.602 315.851C207.097 315.851 205.066 317.879 205.066 320.382Z" fill="#FAFAFA"/>
<path d="M209.602 324.914C211.426 324.914 212.994 323.82 213.712 322.265C213.979 322.836 214.138 323.48 214.138 324.148C214.138 326.651 212.107 328.68 209.602 328.68C207.097 328.68 205.066 326.651 205.066 324.148C205.066 323.468 205.224 322.836 205.492 322.265C206.209 323.82 207.778 324.914 209.602 324.914Z" fill="#E0E0E0"/>
<path d="M260.394 376.423H237.108L225.981 270.67H249.268L260.394 376.423Z" fill="#FAFAFA"/>
<path d="M231.149 376.423H226.504L215.39 270.67H220.023L231.149 376.423Z" fill="#FAFAFA"/>
<path d="M169.522 315.805H178.739V270.576H169.522V315.805Z" fill="#FAFAFA"/>
<path d="M131.274 315.805H140.492V270.576H131.274V315.805Z" fill="#F5F5F5"/>
<path d="M160.294 315.8H169.511V273.742H160.294V315.8Z" fill="#F5F5F5"/>
<path d="M140.503 315.8H149.72V273.742H140.503V315.8Z" fill="#FAFAFA"/>
<path d="M149.727 315.805H155.685V270.576H149.727V315.805Z" fill="#EBEBEB"/>
<path d="M155.677 315.8H160.286V273.742H155.677V315.8Z" fill="#FAFAFA"/>
<path d="M122.059 315.805H131.276V270.576H122.059V315.805Z" fill="#EBEBEB"/>
<path d="M112.831 315.8H122.048V273.742H112.831V315.8Z" fill="#E6E6E6"/>
<path d="M93.0396 315.8H102.257V273.742H93.0396V315.8Z" fill="#E6E6E6"/>
<path d="M102.264 315.805H108.222V270.576H102.264V315.805Z" fill="#FAFAFA"/>
<path d="M108.226 315.8H112.835V273.742H108.226V315.8Z" fill="#EBEBEB"/>
<path d="M88.4229 315.795H93.0315V271.635H88.4229V315.795Z" fill="#EBEBEB"/>
<path d="M97.6448 331.194H88.4275V376.424H97.6448V331.194Z" fill="#EBEBEB"/>
<path d="M135.876 331.194H126.659V376.424H135.876V331.194Z" fill="#FAFAFA"/>
<path d="M106.862 334.365H97.6448V376.424H106.862V334.365Z" fill="#FAFAFA"/>
<path d="M126.659 334.365H117.441V376.424H126.659V334.365Z" fill="#EBEBEB"/>
<path d="M117.441 331.194H111.483V376.424H117.441V331.194Z" fill="#FAFAFA"/>
<path d="M111.483 334.365H106.874V376.424H111.483V334.365Z" fill="#F5F5F5"/>
<path d="M145.105 331.194H135.888V376.424H145.105V331.194Z" fill="#EBEBEB"/>
<path d="M154.323 334.365H145.105V376.424H154.323V334.365Z" fill="#F5F5F5"/>
<path d="M174.119 334.365H164.902V376.424H174.119V334.365Z" fill="#E6E6E6"/>
<path d="M164.902 331.194H158.943V376.424H164.902V331.194Z" fill="#FAFAFA"/>
<path d="M184.698 331.194H178.74V376.424H184.698V331.194Z" fill="#FAFAFA"/>
<path d="M158.943 334.365H154.335V376.424H158.943V334.365Z" fill="#EBEBEB"/>
<path d="M178.728 332.263H174.119V376.423H178.728V332.263Z" fill="#EBEBEB"/>
<path d="M98.7149 174.138C98.7149 174.138 97.1706 174.854 96.4653 176.288C95.76 177.722 97.9488 180.382 97.9488 180.382C97.9488 180.382 99.7972 181.67 101.621 180.832C103.457 180.005 103.457 180.005 103.457 180.005C103.457 180.005 100.332 174.575 98.8122 174.526L98.7149 174.138Z" fill="#E6E6E6"/>
<path d="M106.558 174.089C106.777 176.665 105.184 179.908 102.886 180.115C100.588 180.309 98.4474 177.393 98.2286 174.818C98.0097 172.242 99.858 171.987 102.168 171.793C104.454 171.586 106.327 171.514 106.558 174.089Z" fill="#E6E6E6"/>
<path d="M99.8094 173.336C99.8094 173.336 101.573 174.733 105.196 173.919C105.196 173.919 99.4811 177.722 99.8094 173.336Z" fill="#E6E6E6"/>
<path d="M101.366 172.826C101.366 172.826 103.397 172.473 103.421 173.324C103.421 173.324 105.135 173.227 104.904 172.51C104.673 171.781 101.366 172.826 101.366 172.826Z" fill="#E6E6E6"/>
<g opacity="0.2">
<path d="M99.8094 173.336C99.8094 173.336 101.573 174.733 105.196 173.919C105.196 173.919 99.4811 177.722 99.8094 173.336Z" fill="#FAFAFA"/>
</g>
<g opacity="0.2">
<path d="M101.366 172.826C101.366 172.826 103.397 172.473 103.421 173.324C103.421 173.324 105.135 173.227 104.904 172.51C104.673 171.781 101.366 172.826 101.366 172.826Z" fill="#FAFAFA"/>
</g>
<path d="M99.0189 180.929C99.7485 182.119 101.244 182.727 102.63 182.556C104.017 182.386 105.257 181.524 106.06 180.382C106.862 179.24 107.239 177.843 107.324 176.458C107.349 176.093 107.373 175.194 106.899 175.061C106.461 174.939 106.193 175.547 105.999 175.826C105.415 176.64 104.807 177.405 104.065 178.086C103.348 178.742 102.557 179.325 101.706 179.799C101.463 179.932 99.1527 181.135 99.0189 180.929Z" fill="#E6E6E6"/>
<path d="M108.893 175.79C109.331 176.835 109.173 178.098 108.492 179.009C108.042 179.605 107.409 180.03 106.777 180.406C106.339 180.674 105.768 180.929 105.33 180.649C104.856 180.346 104.904 179.665 105.014 179.107C105.184 178.268 105.366 177.43 105.573 176.592C105.743 175.912 105.853 174.77 106.254 174.186C106.631 173.64 107.166 173.968 107.738 174.357C108.236 174.721 108.65 175.207 108.893 175.79Z" fill="#E6E6E6"/>
<g opacity="0.2">
<path d="M99.6026 179.495C98.7149 179.459 97.8759 178.851 97.5475 178.025C97.3043 177.418 97.3165 175.863 98.1069 175.656C98.4595 177.053 98.7635 178.305 99.6026 179.495Z" fill="#FAFAFA"/>
</g>
<g opacity="0.2">
<path d="M105.598 179.434C106.437 179.191 107.13 178.511 107.385 177.673C107.531 177.211 107.349 174.854 106.643 175.851C106.412 176.179 106.461 177.211 106.339 177.624C106.169 178.256 105.926 178.863 105.598 179.434Z" fill="#FAFAFA"/>
</g>
<g opacity="0.2">
<path d="M102.387 180.892C103.032 181.439 104.078 181.475 104.746 180.953C104.661 181.402 103.226 181.791 102.776 181.925C101.621 182.265 101.013 181.755 99.8823 181.281C99.8945 181.281 101.67 181.548 102.387 180.892Z" fill="#FAFAFA"/>
</g>
<path d="M100.381 228.211L100.49 193.163L102.29 182.496L102.971 182.618L101.183 193.223L101.05 228.879L100.381 228.211Z" fill="#E0E0E0"/>
<path d="M101.11 192.98L100.563 193.405C100.016 192.688 99.5175 191.753 98.946 190.672C98.0583 188.995 97.049 187.1 95.5168 185.424L96.0276 184.962C97.6205 186.711 98.642 188.643 99.554 190.356C100.113 191.401 100.588 192.312 101.11 192.98Z" fill="#E0E0E0"/>
<path d="M101.536 188.279C102.472 188.036 103.311 187.44 103.846 186.639C104.454 185.727 104.673 184.622 104.868 183.541C103.652 183.905 102.351 183.31 101.098 183.456C100.101 183.565 99.1648 184.185 98.6541 185.047C97.9974 186.177 97.7299 187.452 98.3136 187.975C98.7878 188.4 100.284 188.607 101.536 188.279Z" fill="#E6E6E6"/>
<path d="M96.8666 185.861C95.7479 186.566 94.313 186.748 93.0483 186.335C91.7837 185.922 91.4189 184.039 90.9325 182.799C92.0755 182.569 94.9696 182.727 95.6263 182.799C96.2829 182.86 96.9517 183.164 97.3043 183.723C97.657 184.282 97.5962 185.12 97.0611 185.496C97.0368 185.472 96.8666 185.861 96.8666 185.861Z" fill="#E6E6E6"/>
<path d="M91.1149 187.902C91.881 186.967 93.7779 186.299 94.9696 186.517C96.1613 186.736 97.1706 187.55 97.5962 188.522C97.28 189.275 96.441 189.7 95.6262 189.761C94.8115 189.822 94.009 189.579 93.2307 189.336C92.4525 189.093 91.6499 188.862 90.8352 188.911L91.1149 187.902Z" fill="#E6E6E6"/>
<path d="M114.523 181.876C114.523 181.876 115.788 183.006 116.043 184.598C116.298 186.177 113.416 188.072 113.416 188.072C113.416 188.072 111.276 188.753 109.768 187.428C108.26 186.092 108.26 186.092 108.26 186.092C108.26 186.092 112.845 181.828 114.316 182.217L114.523 181.876Z" fill="#E6E6E6"/>
<path d="M107.032 179.532C106.06 181.925 106.631 185.497 108.771 186.371C110.911 187.234 113.805 185.071 114.778 182.678C115.751 180.285 114.049 179.495 111.908 178.633C109.78 177.758 108.005 177.138 107.032 179.532Z" fill="#E6E6E6"/>
<path d="M113.708 180.795C113.708 180.795 111.617 181.622 108.394 179.775C108.382 179.763 112.723 185.084 113.708 180.795Z" fill="#E6E6E6"/>
<path d="M112.371 179.848C112.371 179.848 110.534 178.912 110.255 179.714C110.255 179.714 108.637 179.119 109.075 178.499C109.525 177.88 112.371 179.848 112.371 179.848Z" fill="#E6E6E6"/>
<g opacity="0.2">
<path d="M113.708 180.795C113.708 180.795 111.617 181.622 108.394 179.775C108.382 179.763 112.723 185.084 113.708 180.795Z" fill="#FAFAFA"/>
</g>
<g opacity="0.2">
<path d="M112.371 179.848C112.371 179.848 110.534 178.912 110.255 179.714C110.255 179.714 108.637 179.119 109.075 178.499C109.525 177.88 112.371 179.848 112.371 179.848Z" fill="#FAFAFA"/>
</g>
<path d="M112.225 188.279C111.179 189.202 109.574 189.336 108.297 188.777C107.02 188.218 106.084 187.015 105.658 185.691C105.233 184.367 105.281 182.921 105.597 181.561C105.683 181.208 105.914 180.346 106.412 180.346C106.862 180.358 106.947 181.014 107.057 181.342C107.373 182.289 107.738 183.201 108.236 184.075C108.723 184.914 109.318 185.703 109.987 186.408C110.182 186.614 112.042 188.449 112.225 188.279Z" fill="#E6E6E6"/>
<path d="M104.308 180.467C103.591 181.342 103.36 182.593 103.749 183.662C104.004 184.367 104.479 184.95 104.977 185.509C105.318 185.898 105.792 186.299 106.291 186.165C106.826 186.019 106.984 185.339 107.044 184.792C107.13 183.942 107.203 183.079 107.239 182.229C107.276 181.524 107.507 180.406 107.3 179.726C107.105 179.094 106.497 179.24 105.841 179.459C105.245 179.641 104.71 179.993 104.308 180.467Z" fill="#E6E6E6"/>
<g opacity="0.2">
<path d="M112.091 186.748C112.954 186.967 113.927 186.651 114.486 185.946C114.9 185.436 115.35 183.942 114.644 183.529C113.903 184.744 113.246 185.849 112.091 186.748Z" fill="#FAFAFA"/>
</g>
<g opacity="0.2">
<path d="M106.376 184.926C105.646 184.452 105.172 183.589 105.184 182.715C105.184 182.229 106.047 180.042 106.424 181.184C106.546 181.561 106.205 182.532 106.193 182.97C106.181 183.626 106.242 184.294 106.376 184.926Z" fill="#FAFAFA"/>
</g>
<g opacity="0.2">
<path d="M109.014 187.258C108.236 187.598 107.227 187.319 106.741 186.626C106.692 187.088 107.956 187.878 108.333 188.133C109.343 188.801 110.072 188.485 111.288 188.376C111.288 188.364 109.513 188.096 109.014 187.258Z" fill="#FAFAFA"/>
</g>
<path d="M99.3837 222.975L99.8214 221.541L100.405 219.61L101.086 217.35L106.546 199.407L107.227 194.256L107.835 189.688L107.956 188.74L108.297 188.777V188.789L108.65 188.825L108.637 188.91L108.516 189.809L107.871 194.693L107.336 198.666L107.227 199.54L107.178 199.686L101.086 219.731L100.393 221.979L100.077 223.024L99.6512 224.445L99.3837 222.975Z" fill="#E0E0E0"/>
<path d="M106.68 199.188L107.081 199.747C107.823 199.224 108.564 198.471 109.44 197.609C110.778 196.272 112.298 194.754 114.255 193.6L113.903 193.004C111.872 194.207 110.316 195.762 108.954 197.123C108.102 197.973 107.373 198.702 106.68 199.188Z" fill="#E0E0E0"/>
<path d="M107.665 194.572C106.85 194.061 106.218 193.247 105.938 192.324C105.622 191.279 105.743 190.15 105.865 189.068C106.911 189.773 108.333 189.591 109.489 190.101C110.413 190.502 111.118 191.364 111.349 192.336C111.641 193.612 111.519 194.912 110.814 195.228C110.243 195.495 108.759 195.252 107.665 194.572Z" fill="#E6E6E6"/>
<path d="M112.833 193.636C113.696 194.645 115.021 195.24 116.335 195.216C117.66 195.191 118.572 193.491 119.399 192.458C118.378 191.899 115.556 191.207 114.912 191.073C114.267 190.939 113.538 191.024 113.039 191.462C112.541 191.887 112.358 192.713 112.747 193.235C112.784 193.211 112.833 193.636 112.833 193.636Z" fill="#E6E6E6"/>
<path d="M117.733 197.281C117.271 196.163 115.654 194.961 114.462 194.827C113.258 194.681 112.054 195.167 111.361 195.969C111.434 196.783 112.115 197.439 112.881 197.731C113.647 198.022 114.486 198.034 115.301 198.034C116.116 198.034 116.955 198.046 117.721 198.338L117.733 197.281Z" fill="#E6E6E6"/>
<path d="M89.8868 180.479C89.8868 180.479 88.4884 181.463 88.0506 182.994C87.6128 184.537 90.2516 186.76 90.2516 186.76C90.2516 186.76 92.2944 187.695 93.9482 186.541C95.602 185.399 95.602 185.399 95.602 185.399C95.602 185.399 91.5405 180.625 90.0448 180.843L89.8868 180.479Z" fill="#E6E6E6"/>
<path d="M97.5962 179.033C98.2772 181.524 97.2922 185.01 95.0669 185.618C92.8416 186.225 90.2151 183.735 89.5341 181.244C88.8532 178.754 90.6285 178.171 92.866 177.563C95.0791 176.944 96.9152 176.543 97.5962 179.033Z" fill="#E6E6E6"/>
<path d="M90.8231 179.495C90.8231 179.495 92.8052 180.552 96.2222 179.106C96.2222 179.106 91.2974 183.869 90.8231 179.495Z" fill="#E6E6E6"/>
<path d="M92.2579 178.717C92.2579 178.717 94.1914 178.001 94.3738 178.839C94.3738 178.839 96.0519 178.438 95.6871 177.77C95.3223 177.089 92.2579 178.717 92.2579 178.717Z" fill="#E6E6E6"/>
<g opacity="0.2">
<path d="M90.8231 179.495C90.8231 179.495 92.8052 180.552 96.2222 179.106C96.2222 179.106 91.2974 183.869 90.8231 179.495Z" fill="#FAFAFA"/>
</g>
<g opacity="0.2">
<path d="M92.2579 178.717C92.2579 178.717 94.1914 178.001 94.3738 178.839C94.3738 178.839 96.0519 178.438 95.6871 177.77C95.3223 177.089 92.2579 178.717 92.2579 178.717Z" fill="#FAFAFA"/>
</g>
<path d="M91.4067 187.112C92.3431 188.145 93.9239 188.485 95.2493 188.072C96.5869 187.659 97.657 186.59 98.2285 185.326C98.8122 184.063 98.9338 182.617 98.7635 181.232C98.7271 180.88 98.5811 179.981 98.0947 179.932C97.6448 179.884 97.4867 180.528 97.3408 180.843C96.9152 181.755 96.4531 182.617 95.8451 183.419C95.2615 184.196 94.5805 184.901 93.8387 185.533C93.6442 185.691 91.577 187.294 91.4067 187.112Z" fill="#E6E6E6"/>
<path d="M100.198 180.273C100.819 181.22 100.892 182.496 100.381 183.504C100.053 184.172 99.5053 184.695 98.946 185.193C98.5568 185.533 98.0461 185.885 97.5597 185.691C97.049 185.472 96.9639 184.792 96.9639 184.233C96.976 183.371 97.0125 182.52 97.0733 181.658C97.122 180.953 97.0247 179.811 97.3043 179.167C97.5719 178.56 98.1555 178.791 98.7879 179.07C99.3594 179.349 99.858 179.762 100.198 180.273Z" fill="#E6E6E6"/>
<g opacity="0.2">
<path d="M91.735 185.594C90.8595 185.715 89.9232 185.278 89.449 184.524C89.1085 183.966 88.8288 182.435 89.5706 182.095C90.1664 183.395 90.6893 184.573 91.735 185.594Z" fill="#FAFAFA"/>
</g>
<g opacity="0.2">
<path d="M97.6205 184.464C98.3987 184.075 98.9702 183.273 99.0675 182.411C99.1283 181.937 98.5203 179.653 98.0096 180.746C97.8394 181.111 98.0704 182.119 98.0339 182.544C97.9731 183.2 97.8272 183.844 97.6205 184.464Z" fill="#FAFAFA"/>
</g>
<g opacity="0.2">
<path d="M94.7264 186.468C95.4682 186.894 96.4896 186.736 97.0612 186.104C97.0612 186.566 95.7114 187.197 95.298 187.404C94.2157 187.951 93.5348 187.55 92.3431 187.295C92.3309 187.295 94.1306 187.246 94.7264 186.468Z" fill="#FAFAFA"/>
</g>
<path d="M101.244 233.374L95.0547 198.872L94.9088 188.072L95.6019 188.06L95.7478 198.823L102.035 233.908L101.244 233.374Z" fill="#E0E0E0"/>
<path d="M95.6383 198.593L95.1763 199.103C94.5075 198.496 93.8508 197.67 93.0847 196.698C91.9052 195.215 90.5798 193.527 88.7679 192.142L89.1935 191.595C91.0662 193.029 92.4281 194.754 93.6319 196.272C94.3615 197.22 95.006 198.022 95.6383 198.593Z" fill="#E0E0E0"/>
<path d="M95.2007 193.891C96.0762 193.478 96.7936 192.749 97.1828 191.862C97.6205 190.854 97.6327 189.724 97.6327 188.631C96.5018 189.202 95.1156 188.862 93.9117 189.226C92.9511 189.518 92.1364 190.283 91.7959 191.231C91.3581 192.458 91.3216 193.77 91.9783 194.171C92.5376 194.511 94.0333 194.438 95.2007 193.891Z" fill="#E6E6E6"/>
<path d="M90.1786 192.348C89.2058 193.247 87.8195 193.684 86.5062 193.502C85.193 193.32 84.4877 191.534 83.7946 190.404C84.8768 189.967 87.7587 189.615 88.4153 189.554C89.072 189.505 89.7773 189.675 90.2272 190.161C90.6771 190.647 90.7622 191.473 90.3002 191.959C90.2758 191.935 90.1786 192.348 90.1786 192.348Z" fill="#E6E6E6"/>
<path d="M84.8889 195.397C85.4726 194.34 87.2236 193.344 88.4275 193.344C89.6313 193.344 90.7743 193.964 91.3702 194.851C91.1999 195.652 90.446 196.223 89.6556 196.418C88.8652 196.624 88.0262 196.527 87.2236 196.43C86.4089 196.333 85.582 196.248 84.7916 196.442L84.8889 195.397Z" fill="#E6E6E6"/>
<path d="M103.786 212.211H96.5139C95.9667 212.199 95.4803 212.551 95.3222 213.074C94.7264 214.957 93.4496 219.913 93.4496 227.725C93.4496 236.302 95.687 247.685 96.3923 251.05C96.5139 251.621 97.0125 252.022 97.584 252.034H102.643C103.226 252.034 103.713 251.621 103.834 251.05C104.54 247.685 106.777 236.302 106.777 227.725C106.777 219.913 105.5 214.969 104.904 213.074C104.771 212.576 104.308 212.223 103.786 212.211Z" fill="#F0F0F0"/>
<path d="M304 452C434.212 452 539.77 445.843 539.77 438.248C539.77 430.653 434.212 424.496 304 424.496C173.788 424.496 68.2297 430.653 68.2297 438.248C68.2297 445.843 173.788 452 304 452Z" fill="#F5F5F5"/>
<path d="M146.869 390.965C146.455 390.941 146.127 390.589 146.139 390.176C147.039 354.471 148.887 295.903 148.984 295.575C149.106 295.162 149.544 294.943 149.945 295.052C150.359 295.174 150.59 295.611 150.468 296.012C150.444 296.085 148.583 354.86 147.695 390.2C147.683 390.625 147.331 390.965 146.905 390.953C146.893 390.965 146.881 390.965 146.869 390.965Z" fill="#263238"/>
<path d="M142.065 271.739C142.369 274.485 145.665 284.022 148.413 283.73C151.161 283.426 152.328 273.416 152.037 270.658C151.733 267.913 149.264 265.92 146.516 266.224C143.756 266.516 141.774 268.994 142.065 271.739Z" fill="#209CD7"/>
<path d="M155.429 301.807C155.125 299.062 151.83 289.525 149.082 289.829C146.333 290.133 145.166 300.143 145.458 302.901C145.762 305.646 148.23 307.639 150.979 307.335C153.739 307.031 155.733 304.565 155.429 301.807Z" fill="#209CD7"/>
<path d="M133.699 293.449C136.447 293.145 145.993 289.853 145.689 287.107C145.385 284.362 135.365 283.195 132.605 283.487C129.857 283.791 127.862 286.257 128.166 289.002C128.47 291.76 130.951 293.753 133.699 293.449Z" fill="#209CD7"/>
<path d="M163.795 280.098C161.047 280.402 151.502 283.694 151.793 286.439C152.097 289.185 162.117 290.351 164.878 290.06C167.626 289.756 169.62 287.29 169.316 284.544C169.024 281.786 166.556 279.806 163.795 280.098Z" fill="#209CD7"/>
<path d="M133.383 280.863C135.548 282.6 144.619 287.01 146.358 284.848C148.097 282.685 141.822 274.777 139.67 273.051C137.518 271.314 134.356 271.667 132.617 273.817C130.878 275.979 131.231 279.126 133.383 280.863Z" fill="#209CD7"/>
<path d="M164.111 292.684C161.959 290.946 152.876 286.537 151.137 288.699C149.398 290.849 155.672 298.758 157.825 300.495C159.977 302.232 163.139 301.88 164.878 299.73C166.616 297.58 166.276 294.421 164.111 292.684Z" fill="#209CD7"/>
<path d="M142.831 302.123C144.57 299.973 148.984 290.898 146.82 289.16C144.668 287.423 136.751 293.692 135.013 295.842C133.274 297.992 133.626 301.151 135.779 302.888C137.943 304.626 141.093 304.285 142.831 302.123Z" fill="#209CD7"/>
<path d="M154.663 271.424C152.924 273.574 148.51 282.649 150.675 284.386C152.827 286.123 160.743 279.855 162.482 277.704C164.221 275.554 163.868 272.396 161.716 270.658C159.564 268.921 156.402 269.261 154.663 271.424Z" fill="#209CD7"/>
<g opacity="0.6">
<path d="M142.065 271.739C142.369 274.485 145.665 284.022 148.413 283.73C151.161 283.426 152.328 273.416 152.037 270.658C151.733 267.913 149.264 265.92 146.516 266.224C143.756 266.516 141.774 268.994 142.065 271.739Z" fill="white"/>
<path d="M155.429 301.807C155.125 299.062 151.83 289.525 149.082 289.829C146.333 290.133 145.166 300.143 145.458 302.901C145.762 305.646 148.23 307.639 150.979 307.335C153.739 307.031 155.733 304.565 155.429 301.807Z" fill="white"/>
<path d="M133.699 293.449C136.447 293.145 145.993 289.853 145.689 287.107C145.385 284.362 135.365 283.195 132.605 283.487C129.857 283.791 127.862 286.257 128.166 289.002C128.47 291.76 130.951 293.753 133.699 293.449Z" fill="white"/>
<path d="M163.795 280.098C161.047 280.402 151.502 283.694 151.793 286.439C152.097 289.185 162.117 290.351 164.878 290.06C167.626 289.756 169.62 287.29 169.316 284.544C169.024 281.786 166.556 279.806 163.795 280.098Z" fill="white"/>
<path d="M133.383 280.863C135.548 282.6 144.619 287.01 146.358 284.848C148.097 282.685 141.822 274.777 139.67 273.051C137.518 271.314 134.356 271.667 132.617 273.817C130.878 275.979 131.231 279.126 133.383 280.863Z" fill="white"/>
<path d="M164.111 292.684C161.959 290.946 152.876 286.537 151.137 288.699C149.398 290.849 155.672 298.758 157.825 300.495C159.977 302.232 163.139 301.88 164.878 299.73C166.616 297.58 166.276 294.421 164.111 292.684Z" fill="white"/>
<path d="M142.831 302.123C144.57 299.973 148.984 290.898 146.82 289.16C144.668 287.423 136.751 293.692 135.013 295.842C133.274 297.992 133.626 301.151 135.779 302.888C137.943 304.626 141.093 304.285 142.831 302.123Z" fill="white"/>
<path d="M154.663 271.424C152.924 273.574 148.51 282.649 150.675 284.386C152.827 286.123 160.743 279.855 162.482 277.704C164.221 275.554 163.868 272.396 161.716 270.658C159.564 268.921 156.402 269.261 154.663 271.424Z" fill="white"/>
</g>
<path d="M142.844 287.411C143.196 290.667 146.127 293.024 149.386 292.671C152.645 292.319 155.004 289.391 154.651 286.136C154.298 282.88 151.368 280.523 148.109 280.875C144.85 281.228 142.491 284.155 142.844 287.411Z" fill="#209CD7"/>
<path d="M143.427 364.81C136.581 364.956 124.859 358.638 120.238 352.467C115.557 346.21 128.689 350.061 127.327 345.141C125.965 340.221 109.805 343.902 106.801 336.856C103.798 329.81 115.471 331.389 114.997 327.793C114.523 324.185 102.436 324.95 98.5325 317.467C94.6292 309.971 105.269 314.15 103.591 311.04C101.913 307.93 88.5492 294.883 94.1184 292.137C99.6877 289.391 112.213 302.986 116.408 304.492C120.603 305.999 121.551 296.583 127.011 301.066C132.471 305.549 128.446 325.254 134.867 327.83C139.645 329.749 137.59 320.747 143.099 323.007C152.742 326.955 146.212 364.749 143.427 364.81Z" fill="#209CD7"/>
<g opacity="0.2">
<path d="M143.427 364.81C136.581 364.956 124.859 358.638 120.238 352.467C115.557 346.21 128.689 350.061 127.327 345.141C125.965 340.221 109.805 343.902 106.801 336.856C103.798 329.81 115.471 331.389 114.997 327.793C114.523 324.185 102.436 324.95 98.5325 317.467C94.6292 309.971 105.269 314.15 103.591 311.04C101.913 307.93 88.5492 294.883 94.1184 292.137C99.6877 289.391 112.213 302.986 116.408 304.492C120.603 305.999 121.551 296.583 127.011 301.066C132.471 305.549 128.446 325.254 134.867 327.83C139.645 329.749 137.59 320.747 143.099 323.007C152.742 326.955 146.212 364.749 143.427 364.81Z" fill="white"/>
</g>
<path d="M153.277 356.124C153.386 356.318 152.365 357.29 155.745 357.424C164.075 357.764 178.801 357.205 184.334 349.636C192.225 338.836 174.022 339.82 175.785 333.867C177.56 327.915 197.126 332.774 200.944 324.27C204.762 315.766 190.535 317.43 191.192 313.045C191.848 308.671 206.781 314.345 211.706 305.318C216.631 296.292 203.583 301.127 205.699 297.385C207.815 293.644 224.376 278.081 217.664 274.619C210.952 271.157 195.399 287.399 190.268 289.136C185.136 290.874 183.944 274.947 177.208 280.268C170.459 285.601 174.885 309.655 167.018 312.632C161.157 314.855 164.355 306.242 157.119 306.57C147.306 307.031 144.072 340.744 153.277 356.124Z" fill="#209CD7"/>
<g opacity="0.3">
<path d="M153.277 356.124C153.386 356.318 152.365 357.29 155.745 357.424C164.075 357.764 178.801 357.205 184.334 349.636C192.225 338.836 174.022 339.82 175.785 333.867C177.56 327.915 197.126 332.774 200.944 324.27C204.762 315.766 190.535 317.43 191.192 313.045C191.848 308.671 206.781 314.345 211.706 305.318C216.631 296.292 203.583 301.127 205.699 297.385C207.815 293.644 224.376 278.081 217.664 274.619C210.952 271.157 195.399 287.399 190.268 289.136C185.136 290.874 183.944 274.947 177.208 280.268C170.459 285.601 174.885 309.655 167.018 312.632C161.157 314.855 164.355 306.242 157.119 306.57C147.306 307.031 144.072 340.744 153.277 356.124Z" fill="white"/>
</g>
<path d="M147.039 385.572C147.027 385.572 147.014 385.572 146.99 385.572C146.698 385.535 146.479 385.268 146.516 384.964C153.35 329.056 185.586 306.338 185.914 306.12C186.158 305.95 186.498 306.01 186.668 306.266C186.838 306.509 186.778 306.849 186.534 307.019C186.218 307.237 154.371 329.712 147.598 385.11C147.562 385.377 147.306 385.584 147.039 385.572Z" fill="#263238"/>
<path d="M178.57 313.883C178.351 313.871 178.144 313.725 178.071 313.506C177.974 313.227 178.132 312.911 178.424 312.826C178.618 312.765 183.422 311.247 191.289 312.911C191.581 312.972 191.763 313.263 191.703 313.555C191.642 313.847 191.35 314.041 191.058 313.968C183.495 312.364 178.801 313.834 178.752 313.847C178.703 313.883 178.643 313.883 178.57 313.883Z" fill="#263238"/>
<path d="M172.623 320.674C172.332 320.662 172.113 320.431 172.101 320.139C171.93 303.229 181.731 290.023 181.829 289.89C182.011 289.647 182.351 289.598 182.582 289.78C182.826 289.962 182.874 290.303 182.692 290.533C182.595 290.667 173.013 303.593 173.183 320.115C173.183 320.419 172.94 320.662 172.648 320.662C172.636 320.674 172.623 320.674 172.623 320.674Z" fill="#263238"/>
<path d="M163.017 334.985C162.883 334.985 162.75 334.924 162.64 334.815C162.433 334.596 162.446 334.256 162.664 334.05C162.737 333.977 169.985 327.283 179.482 330.685C179.761 330.782 179.907 331.098 179.81 331.377C179.713 331.656 179.397 331.802 179.117 331.705C170.24 328.522 163.467 334.779 163.406 334.839C163.297 334.937 163.163 334.985 163.017 334.985Z" fill="#263238"/>
<path d="M157.995 344.959C157.788 344.947 157.606 344.825 157.521 344.631C157.363 344.279 153.812 335.775 155.77 323.663C155.818 323.371 156.086 323.165 156.39 323.213C156.682 323.262 156.888 323.541 156.84 323.833C154.931 335.617 158.481 344.121 158.518 344.206C158.639 344.485 158.506 344.801 158.226 344.911C158.153 344.959 158.08 344.971 157.995 344.959Z" fill="#263238"/>
<path d="M147.246 405.544C146.966 405.532 146.735 405.301 146.723 405.022L146.017 390.213C143.938 340.986 110.145 307.493 109.805 307.165C109.586 306.958 109.586 306.618 109.793 306.399C109.999 306.181 110.34 306.181 110.559 306.387C110.899 306.727 145.008 340.488 147.1 390.176L147.805 404.985C147.817 405.289 147.574 405.532 147.282 405.544C147.282 405.544 147.258 405.544 147.246 405.544Z" fill="#263238"/>
<path d="M123.752 325.655C123.728 325.655 123.692 325.655 123.667 325.643C123.619 325.63 123.558 325.606 123.509 325.582L123.339 325.509C118.913 323.675 113.964 322.715 109.416 322.824C109.112 322.836 108.869 322.593 108.856 322.29C108.844 321.986 109.087 321.743 109.391 321.731C114.085 321.634 119.192 322.605 123.752 324.501L123.935 324.574C123.971 324.586 123.996 324.598 124.032 324.622C124.239 324.731 124.373 324.974 124.312 325.217C124.251 325.485 124.008 325.667 123.752 325.655Z" fill="#263238"/>
<path d="M128.531 331.997C128.519 331.997 128.519 331.997 128.507 331.997C128.203 331.972 127.984 331.705 128.021 331.413C129.334 316.884 121.795 304.929 121.722 304.808C121.564 304.553 121.637 304.225 121.892 304.055C122.147 303.897 122.476 303.97 122.646 304.225C122.719 304.346 130.453 316.604 129.115 331.511C129.066 331.79 128.823 332.009 128.531 331.997Z" fill="#263238"/>
<path d="M133.468 340.416C133.335 340.416 133.201 340.355 133.103 340.258C133.043 340.197 127.558 334.791 119.521 336.929C119.229 337.014 118.937 336.832 118.852 336.54C118.779 336.249 118.949 335.957 119.241 335.872C127.899 333.564 133.626 339.249 133.87 339.492C134.076 339.711 134.076 340.051 133.87 340.258C133.76 340.367 133.614 340.416 133.468 340.416Z" fill="#263238"/>
<path d="M139.731 354.289C139.658 354.289 139.573 354.265 139.5 354.229C139.232 354.095 139.135 353.767 139.269 353.5C139.305 353.427 143.026 346.162 142.175 335.678C142.15 335.374 142.369 335.119 142.673 335.095C142.977 335.058 143.233 335.289 143.257 335.593C144.133 346.405 140.387 353.694 140.229 353.998C140.132 354.192 139.925 354.289 139.731 354.289Z" fill="#263238"/>
<path d="M177.731 407.876C177.731 425.139 169.96 439.147 146.419 439.147C123.947 439.147 115.107 425.139 115.107 407.876C115.107 401.365 117.113 395.303 120.518 390.297H172.332C175.724 395.303 177.731 401.353 177.731 407.876Z" fill="#209CD7"/>
<path opacity="0.7" d="M177.731 407.876C177.731 425.139 169.96 439.147 146.419 439.147C123.947 439.147 115.107 425.139 115.107 407.876C115.107 401.365 117.113 395.303 120.518 390.297H172.332C175.724 395.303 177.731 401.353 177.731 407.876Z" fill="white"/>
<path d="M357.626 423.876L369.737 422.114L366.685 393.796L354.561 395.57L357.626 423.876Z" fill="#E8BFBF"/>
<path d="M379.052 422.54C380.109 422.467 381.094 422.029 381.873 421.313C382.201 420.899 382.31 420.341 382.152 419.83C382.079 419.515 381.848 419.247 381.544 419.15C379.927 418.567 375.501 421.835 375.002 422.199C374.905 422.272 374.868 422.406 374.893 422.527C374.929 422.637 375.039 422.722 375.16 422.722C376.461 422.77 377.763 422.71 379.052 422.54ZM380.754 419.697C380.936 419.648 381.131 419.66 381.301 419.709C381.423 419.745 381.52 419.855 381.556 419.988C381.654 420.328 381.593 420.693 381.374 420.96C380.754 421.738 378.772 422.175 376.012 422.175C377.446 421.082 379.064 420.231 380.778 419.672L380.754 419.697Z" fill="#209CD7"/>
<path d="M375.233 422.722L375.331 422.673C376.68 421.786 379.1 418.713 378.638 417.376C378.504 417.072 378.249 416.696 377.434 416.744C376.851 416.757 376.291 417.012 375.902 417.461C374.589 418.968 374.856 422.284 374.856 422.418C374.856 422.515 374.893 422.612 374.978 422.673C375.051 422.734 375.148 422.746 375.233 422.722ZM377.264 417.352L377.422 417.279C377.957 417.255 378.018 417.449 378.03 417.522C378.31 418.324 376.705 420.693 375.367 421.786C375.246 420.389 375.562 418.992 376.291 417.801C376.547 417.534 376.899 417.364 377.276 417.34L377.264 417.352Z" fill="#209CD7"/>
<path d="M368.497 417.097L357.759 419.66C357.273 419.757 356.945 420.207 356.993 420.705L357.346 436.231C357.492 437.324 358.501 438.078 359.583 437.932C359.656 437.92 359.729 437.907 359.802 437.883C364.46 436.729 366.648 435.939 372.57 434.579C376.194 433.74 387.685 432.878 392.391 430.788C397.097 428.699 395.261 423.924 393.121 424.386C386.214 425.868 377.349 422.916 372.315 418.421C371.634 418.069 369.238 416.903 368.497 417.097Z" fill="#263238"/>
<path opacity="0.2" d="M366.685 393.796L368.253 408.399L356.142 410.172L354.561 395.582L366.685 393.796Z" fill="black"/>
<path d="M373.154 402.385L350.743 406.564C350.743 406.564 339.86 391.038 337.805 380.02C335.665 368.539 337.951 329.469 337.805 328.947C331.47 307.565 314.239 252.168 305.934 231.783C301.325 220.484 298.09 212.879 298.09 212.879L300.413 212.357L318.702 204.874L332.029 207.388C332.029 207.388 372.534 289.221 376.79 320.006C379.964 342.991 373.154 402.385 373.154 402.385Z" fill="#209CD7"/>
<path opacity="0.3" d="M373.154 402.385L350.743 406.564C350.743 406.564 339.86 391.038 337.805 380.02C335.665 368.539 337.951 329.469 337.805 328.947C331.47 307.565 314.239 252.168 305.934 231.783C301.325 220.484 298.09 212.879 298.09 212.879L300.413 212.357L318.702 204.874L332.029 207.388C332.029 207.388 372.534 289.221 376.79 320.006C379.964 342.991 373.154 402.385 373.154 402.385Z" fill="white"/>
<path opacity="0.2" d="M332.527 310.445C326.192 289.063 313.4 256.639 305.082 236.253L299.574 216.828L298.516 213.086L300.449 216.621L322.155 264.669C331.737 283.05 332.673 310.955 332.527 310.445Z" fill="black"/>
<path d="M234.165 417.206L244.963 421.75L256.479 397.064L245.693 392.521L234.165 417.206Z" fill="#E8BFBF"/>
<path d="M251.992 426.925C252.843 427.46 253.864 427.69 254.861 427.569C255.348 427.435 255.749 427.071 255.907 426.585C256.029 426.306 256.004 425.965 255.822 425.71C254.898 424.35 249.632 424.362 249.049 424.374C248.927 424.374 248.83 424.459 248.781 424.556C248.745 424.665 248.793 424.787 248.879 424.86C249.864 425.649 250.897 426.33 251.992 426.925ZM254.91 425.698C255.08 425.771 255.226 425.88 255.323 426.026C255.396 426.123 255.409 426.269 255.36 426.378C255.25 426.694 254.995 426.937 254.667 427.034C253.743 427.277 251.979 426.5 249.839 424.945C251.566 424.908 253.293 425.164 254.934 425.71L254.91 425.698Z" fill="#209CD7"/>
<path d="M248.939 424.921L249.037 424.945C250.569 425.018 254.192 424.009 254.594 422.722C254.655 422.418 254.679 421.981 254.022 421.555C253.56 421.227 252.989 421.118 252.441 421.24C250.581 421.665 248.903 424.362 248.83 424.471C248.769 424.544 248.745 424.653 248.781 424.738C248.793 424.811 248.854 424.884 248.939 424.921ZM253.548 421.92L253.718 421.956C254.144 422.236 254.083 422.43 254.059 422.491C253.828 423.268 251.25 424.192 249.596 424.289C250.289 423.147 251.335 422.248 252.563 421.738C252.916 421.677 253.28 421.75 253.584 421.944L253.548 421.92Z" fill="#209CD7"/>
<path d="M246.921 416.769L237.181 412.675C236.755 412.481 236.244 412.638 236.001 413.051L227.489 425.237C226.991 426.16 227.331 427.314 228.255 427.812C228.316 427.848 228.389 427.873 228.45 427.909C232.694 429.646 234.834 430.278 240.184 432.562C243.455 433.971 252.819 439.778 257.634 440.823C262.449 441.868 263.726 437.154 261.817 436.28C255.652 433.522 250.472 426.245 249.122 419.928C248.794 419.284 247.602 417.036 246.921 416.769Z" fill="#263238"/>
<path opacity="0.2" d="M256.953 397.356L250.703 409.93L240.026 405.143L246.252 392.557L256.953 397.356Z" fill="black"/>
<path d="M259.203 411.059L237.704 399.615C237.704 399.615 233.581 384.32 237.704 374.565C245.632 355.795 266.28 328.194 266.413 327.671C271.922 306.059 281.577 246.895 284.884 225.125C286.721 213.062 287.791 210.462 287.791 210.462L290.065 211.203L322.957 211.264C322.957 211.264 329.159 261.036 305.374 338.095C299.452 357.265 289.542 373.204 273.223 394.78C267.034 402.968 259.203 411.059 259.203 411.059Z" fill="#209CD7"/>
<path opacity="0.3" d="M259.203 411.059L237.704 399.615C237.704 399.615 233.581 384.32 237.704 374.565C245.632 355.795 266.28 328.194 266.413 327.671C271.922 306.059 281.577 246.895 284.884 225.125C286.721 213.062 287.791 210.462 287.791 210.462L290.065 211.203L322.957 211.264C322.957 211.264 329.159 261.036 305.374 338.095C299.452 357.265 289.542 373.204 273.223 394.78C267.034 402.968 259.203 411.059 259.203 411.059Z" fill="white"/>
<path d="M352.105 170.602C352.348 166.909 354.792 162.159 356.908 159.96C357.589 159.256 360.155 158.187 361.602 157.239C368.74 152.562 383.04 146.718 383.04 146.718L387.454 150.557C387.454 150.557 378.748 158.964 373.567 162.997C372.546 163.787 371.366 164.747 370.126 165.767C367.877 167.65 357.261 174.636 355.242 176.385L352.105 170.602Z" fill="#E8BFBF"/>
<path d="M395.613 144.556L387.454 150.582L382.882 147.216C382.882 147.216 384.754 144.835 386.664 143.001C387.503 142.187 387.965 141.081 387.977 139.915C387.989 138.117 388.269 136.04 389.242 134.509C389.266 134.473 389.278 134.436 389.302 134.412C391.066 131.751 395.212 132.553 396.039 135.627L397.218 139.976C397.681 141.677 397.048 143.499 395.613 144.556Z" fill="#E8BFBF"/>
<path d="M354.707 172.23L352.555 174.198C351.886 173.663 350.816 172.801 349.478 171.695C338.996 162.997 312.719 141.919 323.201 135.894C332.175 130.73 341.72 146.524 346.475 151.261C347.448 152.246 350.099 155.295 352.239 159.134C354.476 163.155 356.13 168.027 354.707 172.23Z" fill="#263238"/>
<path d="M352.227 157.251C348.506 159.972 345.332 163.422 342.936 167.359C344.663 173.068 349.004 178.025 354.476 180.406C357.48 173.457 358.866 165.974 358.282 158.429C356.385 158.016 354.123 157.652 352.227 157.251Z" fill="#263238"/>
<path d="M294.527 134.667C290.782 135.869 286.49 134.91 284.082 138.02C281.674 141.13 280.957 145.248 280.957 149.184C280.957 154.651 282.209 160.045 283.462 165.366C284.97 171.829 286.477 178.292 287.997 184.755C289.031 189.177 287.949 209.709 289.043 210.061C289.043 210.061 323.419 209.393 332.041 208.178C332.041 208.178 332.795 187.064 333.476 179.872C333.634 178.28 336.054 171.501 336.333 169.8C337.671 161.782 335.044 156.121 332.26 148.48C332.26 148.48 326.168 136.234 323.201 135.906C317.911 135.311 304.973 131.314 294.527 134.667Z" fill="#263238"/>
<path d="M293.08 144.799C292.959 144.082 286.854 131.776 281.005 140.377C272.87 152.355 272.323 167.395 272.323 167.395C272.323 167.395 267.325 182.022 270.803 185.217C274.293 188.412 278.051 190.465 280.483 188.655C282.915 186.845 284.495 183.225 284.495 183.225C284.495 183.225 295.22 157.336 293.08 144.799Z" fill="#263238"/>
<path d="M292.679 130.099C290.113 132.103 290.454 136.732 293.275 138.348C292.57 140.826 293.396 143.693 295.33 145.406C297.263 147.119 300.206 147.605 302.589 146.609C301.556 148.455 302.723 150.885 304.499 152.027C306.274 153.169 308.475 153.375 310.566 153.655C312.658 153.934 314.871 154.384 316.403 155.854C318.568 152.744 320.732 149.621 322.909 146.511C323.748 145.297 324.623 143.997 324.696 142.527C324.757 141.057 323.638 139.429 322.167 139.538C323.663 137.983 323.699 135.238 322.228 133.646C320.769 132.055 318.033 131.848 316.342 133.209C316.646 131.957 315.917 130.633 314.859 129.904C313.801 129.175 312.488 128.92 311.211 128.799L292.679 130.099Z" fill="#263238"/>
<path d="M296.582 114.245C298.273 120.441 300.328 131.873 296.218 136.392C296.218 136.392 307.83 141.033 316.075 150.363C319.917 146.633 319.516 142.442 318.337 139.381C317.425 137.012 315.467 135.25 313.12 134.254C308.596 132.334 308.56 127.888 309.314 123.636L296.582 114.245Z" fill="#E8BFBF"/>
<path opacity="0.2" d="M299.112 124.802L303.38 125.956C305.204 126.454 307.125 126.564 308.998 126.284C308.985 127.208 308.815 129.151 309.399 130.184C306.943 131.362 302.796 130.561 300.972 128.398C300.206 127.56 299.525 125.859 299.112 124.802Z" fill="black"/>
<path d="M288.301 108.972C292.825 118.497 294.527 122.627 301.495 125.665C311.977 130.245 322.678 122.591 321.085 111.912C319.662 102.303 312.5 88.3319 301.373 88.2833C293.421 88.2104 286.915 94.5763 286.83 102.521C286.818 104.745 287.316 106.956 288.301 108.972Z" fill="#E8BFBF"/>
<path d="M293.263 90.774C289.967 89.2433 285.882 90.4946 283.133 92.9C280.349 95.354 278.646 98.7799 277.017 102.121C276.129 103.931 275.242 105.777 274.828 107.746C274.415 109.726 274.536 111.888 275.582 113.613C276.603 115.302 278.513 116.42 280.482 116.529C281.613 116.59 282.939 117.416 283.316 118.485C283.656 119.481 283.498 120.562 283.34 121.595C283.182 122.603 283.036 123.648 283.352 124.608C283.875 126.211 285.59 127.183 287.28 127.353C288.958 127.511 290.624 127.025 292.253 126.552C293.275 126.248 294.308 126.418 295.111 127.135C295.306 127.317 295.476 127.523 295.597 127.766C296.096 128.726 297.555 128.568 297.981 127.572C299.452 124.073 297.312 118.497 294.126 114.233C292.436 111.973 292.521 112.544 291.864 109.799C291.305 107.515 292.144 105.134 293.178 103.02C294.539 100.201 296.303 97.4436 295.755 94.0784C295.5 92.657 294.576 91.3814 293.263 90.774Z" fill="#263238"/>
<path d="M288.581 118.716C290.077 120.307 292.156 121.243 294.345 121.315C297.251 121.376 297.981 118.606 296.582 116.249C295.318 114.123 292.278 111.536 289.651 112.556C287.024 113.589 286.757 116.735 288.581 118.716Z" fill="#E8BFBF"/>
<path d="M306.469 107.272C306.809 108.11 307.466 108.547 307.989 108.329C308.511 108.11 308.645 107.32 308.353 106.506C308.062 105.692 307.356 105.243 306.833 105.449C306.31 105.668 306.152 106.482 306.469 107.272Z" fill="#263238"/>
<path d="M315.37 103.445C315.698 104.283 316.367 104.721 316.89 104.514C317.4 104.307 317.546 103.506 317.254 102.692C316.963 101.878 316.257 101.428 315.734 101.623C315.212 101.817 315.054 102.655 315.37 103.445Z" fill="#263238"/>
<path d="M315.503 101.78L317.194 100.456C317.194 100.456 316.829 102.339 315.503 101.78Z" fill="#263238"/>
<path d="M313.059 105.23C315.127 107.271 316.683 107.636 318.92 109.045C318.86 111.025 316.987 111.487 316.987 111.487L313.059 105.23Z" fill="#ED847E"/>
<path d="M316.038 115.375C316.427 115.229 316.792 115.059 317.157 114.852C317.279 114.791 317.315 114.646 317.254 114.524C317.254 114.524 317.254 114.512 317.242 114.512C317.169 114.391 317.023 114.354 316.902 114.403C315.017 115.496 312.719 115.618 310.724 114.731C310.603 114.67 310.445 114.706 310.384 114.84C310.323 114.961 310.36 115.119 310.493 115.18C312.244 115.982 314.239 116.055 316.038 115.375Z" fill="#263238"/>
<path d="M306.14 100.663C306.128 100.893 305.97 101.088 305.751 101.149C303.416 101.841 302.383 104.793 302.383 104.817C302.285 105.097 301.994 105.243 301.714 105.145C301.434 105.048 301.288 104.757 301.386 104.477C301.471 104.368 302.602 100.979 305.447 100.128C305.727 100.055 306.019 100.213 306.104 100.48C306.128 100.541 306.14 100.602 306.14 100.663Z" fill="#263238"/>
<path d="M316.902 99.2292C316.707 99.3507 316.464 99.3264 316.282 99.1806C314.385 97.6621 311.357 98.5003 311.345 98.5003C311.065 98.5854 310.773 98.4274 310.688 98.148C310.603 97.8686 310.761 97.577 311.041 97.492C311.187 97.5041 314.616 96.4958 316.938 98.3424C317.157 98.5246 317.194 98.8526 317.023 99.0834C316.987 99.1442 316.95 99.1928 316.902 99.2292Z" fill="#263238"/>
<path d="M306.626 105.595L308.317 104.283C308.317 104.283 307.928 106.166 306.626 105.595Z" fill="#263238"/>
<path d="M293.992 89.1825C291.341 89.389 288.812 90.9076 287.377 93.1429C286.416 94.6494 286.076 96.9333 287.499 98.0024C288.167 98.5004 289.055 98.5976 289.882 98.6705C293.579 98.9985 298.151 96.1436 298.151 96.1436C296.728 90.1058 309.399 85.4286 315.649 94.783C317.485 97.5286 316.987 99.5209 320.039 100.797C321.474 101.392 323.371 101.234 324.295 102.485C325.827 104.563 322.884 108.086 324.757 109.872C326.034 111.099 328.928 110.625 329.098 112.386C329.183 113.212 328.636 114.403 329.439 114.646C329.876 114.78 330.278 114.379 330.569 114.014C331.263 113.139 331.968 112.228 332.199 111.147C332.43 110.066 332.053 108.754 331.031 108.292C330.253 107.94 328.198 108.329 328.344 109.179C328.514 110.187 327.639 105.219 328.028 103.348C328.368 101.72 329.925 100.298 329.451 98.6948C328.94 96.9819 326.909 96.3016 325.146 96.0464C323.383 95.7913 321.376 95.5726 320.294 94.1634C319.09 92.5841 319.638 90.3245 319.248 88.3807C318.75 85.9024 316.683 83.9708 314.36 82.9624C307.319 79.901 296.412 80.3262 293.992 89.1825Z" fill="#263238"/>
<path d="M314.02 121.595L289.712 133.792C281.723 137.801 278.099 147.24 281.37 155.562L293.092 185.436C296.364 193.757 305.435 198.228 314.032 195.75L340.176 188.218C349.977 185.399 355.218 174.769 351.497 165.281L337.939 130.731C334.205 121.267 323.128 117.027 314.02 121.595ZM309.995 172.91C304.572 175.036 298.455 172.364 296.327 166.945C294.199 161.527 296.874 155.416 302.298 153.303C307.721 151.177 313.837 153.849 315.965 159.268C318.093 164.674 315.418 170.784 309.995 172.91Z" fill="#209CD7"/>
<path d="M314.02 121.595L289.712 133.792C281.723 137.801 278.099 147.24 281.37 155.562L293.092 185.436C296.364 193.757 305.435 198.228 314.032 195.75L340.176 188.218C349.977 185.399 355.218 174.769 351.497 165.281L337.939 130.731C334.205 121.267 323.128 117.027 314.02 121.595ZM309.995 172.91C304.572 175.036 298.455 172.364 296.327 166.945C294.199 161.527 296.874 155.416 302.298 153.303C307.721 151.177 313.837 153.849 315.965 159.268C318.093 164.674 315.418 170.784 309.995 172.91Z" fill="#209CD7"/>
<path opacity="0.1" d="M351.485 165.305L337.914 130.755C334.193 121.267 323.116 117.027 314.008 121.595L306.943 125.142L302.2 127.523L289.7 133.804C281.699 137.813 278.087 147.253 281.346 155.574L293.068 185.448C296.339 193.769 305.411 198.24 314.008 195.762L340.164 188.23C342.304 187.61 344.225 186.614 345.891 185.338C347.18 184.354 348.311 183.212 349.247 181.937C352.689 177.32 353.759 171.1 351.485 165.305ZM309.995 172.91C304.584 175.036 298.455 172.364 296.339 166.945C294.211 161.539 296.886 155.416 302.31 153.303C307.721 151.177 313.85 153.849 315.965 159.255C318.081 164.674 315.418 170.784 309.995 172.91Z" fill="white"/>
<path d="M314.263 123.867L291.463 135.311C283.96 139.077 280.58 147.921 283.632 155.72L294.625 183.735C297.689 191.534 306.201 195.738 314.263 193.405L338.79 186.335C347.983 183.686 352.895 173.724 349.406 164.832L336.686 132.431C333.208 123.563 322.812 119.578 314.263 123.867ZM296.327 166.946C294.199 161.527 296.874 155.417 302.298 153.303C307.721 151.177 313.838 153.849 315.966 159.268C318.094 164.686 315.418 170.797 309.995 172.911C304.572 175.024 298.455 172.352 296.327 166.946Z" fill="#209CD7"/>
<path opacity="0.1" d="M314.263 123.867L291.463 135.311C283.96 139.077 280.58 147.921 283.632 155.72L294.625 183.735C297.689 191.534 306.201 195.738 314.263 193.405L338.79 186.335C347.983 183.686 352.895 173.724 349.406 164.832L336.686 132.431C333.208 123.563 322.812 119.578 314.263 123.867ZM296.327 166.946C294.199 161.527 296.874 155.417 302.298 153.303C307.721 151.177 313.838 153.849 315.966 159.268C318.094 164.686 315.418 170.797 309.995 172.911C304.572 175.024 298.455 172.352 296.327 166.946Z" fill="#209CD7"/>
<path d="M427.57 113.067L426.877 114.342L426.488 115.047L425.393 117.051L425.855 122.19C425.88 122.409 425.855 122.627 425.782 122.834C425.636 123.283 425.296 123.648 424.846 123.83L415.24 127.584C414.79 127.766 414.291 127.718 413.878 127.487C413.744 127.414 413.622 127.317 413.513 127.207L408.077 121.692L408.065 121.68L400.344 124.705L401.462 127.56L393.741 130.585L395.589 135.286L389.898 137.509C389.436 137.692 388.913 137.655 388.488 137.437C388.342 137.364 388.22 137.266 388.099 137.157L384.815 134.071L377.094 137.096L378.942 141.798L370.819 144.981L372.667 149.694C372.971 150.46 372.595 151.335 371.816 151.638L349.563 160.337L339.908 135.736L420.395 104.259L421.66 104.903L425.746 106.992C427.923 108.122 428.774 110.88 427.57 113.067Z" fill="#209CD7"/>
<g opacity="0.1">
<path d="M427.57 113.067L426.877 114.342L426.488 115.047L425.393 117.051L425.855 122.19C425.88 122.409 425.855 122.627 425.782 122.834C425.636 123.283 425.296 123.648 424.846 123.83L415.24 127.584C414.79 127.766 414.291 127.718 413.878 127.487C413.744 127.414 413.622 127.317 413.513 127.207L408.077 121.692L408.065 121.68L400.344 124.705L401.462 127.56L393.741 130.585L395.589 135.286L389.898 137.509C389.436 137.692 388.913 137.655 388.488 137.437C388.342 137.364 388.22 137.266 388.099 137.157L384.815 134.071L377.094 137.096L378.942 141.798L370.819 144.981L372.667 149.694C372.971 150.46 372.595 151.335 371.816 151.638L349.563 160.337L339.908 135.736L420.395 104.259L421.66 104.903L425.746 106.992C427.923 108.122 428.774 110.88 427.57 113.067Z" fill="white"/>
</g>
<path d="M427.254 110.26L341.21 143.912L338.705 137.595L420.736 105.522L424.822 107.612C426.378 108.402 427.266 109.143 427.254 110.26Z" fill="#209CD7"/>
<path opacity="0.1" d="M427.254 110.26L341.21 143.912L338.705 137.595L420.736 105.522L424.822 107.612C426.378 108.402 427.266 109.143 427.254 110.26Z" fill="black"/>
<path d="M425.551 115.01L424.725 116.881C424.712 116.917 424.7 116.942 424.712 116.978L425.174 122.068C425.187 122.251 425.174 122.433 425.126 122.615C425.114 122.676 425.065 122.724 425.004 122.749L414.559 126.855C414.498 126.879 414.437 126.879 414.389 126.843C414.291 126.782 414.194 126.709 414.109 126.612L408.126 120.611C408.065 120.55 407.992 120.538 407.919 120.562L399.432 123.903C399.335 123.939 399.286 124.061 399.322 124.158L400.332 126.709C400.368 126.806 400.319 126.928 400.222 126.964L392.987 129.807C392.89 129.844 392.841 129.965 392.878 130.062L394.616 134.472C394.653 134.569 394.604 134.691 394.507 134.727L389.205 136.817C389.157 136.841 389.084 136.841 389.035 136.805C388.926 136.744 388.816 136.659 388.719 136.574L384.84 133.002C384.779 132.954 384.706 132.941 384.633 132.966L376.206 136.282C376.109 136.319 376.06 136.44 376.097 136.537L377.884 141.057C377.921 141.154 377.872 141.275 377.775 141.312L345.417 154.031C345.32 154.068 345.198 154.019 345.162 153.922L341.927 145.831C341.891 145.734 341.939 145.612 342.037 145.576L426.354 112.422C426.512 112.362 426.682 112.52 426.609 112.69L425.551 115.01Z" fill="#209CD7"/>
<path opacity="0.1" d="M425.551 115.01L424.725 116.881C424.712 116.917 424.7 116.942 424.712 116.978L425.174 122.068C425.187 122.251 425.174 122.433 425.126 122.615C425.114 122.676 425.065 122.724 425.004 122.749L414.559 126.855C414.498 126.879 414.437 126.879 414.389 126.843C414.291 126.782 414.194 126.709 414.109 126.612L408.126 120.611C408.065 120.55 407.992 120.538 407.919 120.562L399.432 123.903C399.335 123.939 399.286 124.061 399.322 124.158L400.332 126.709C400.368 126.806 400.319 126.928 400.222 126.964L392.987 129.807C392.89 129.844 392.841 129.965 392.878 130.062L394.616 134.472C394.653 134.569 394.604 134.691 394.507 134.727L389.205 136.817C389.157 136.841 389.084 136.841 389.035 136.805C388.926 136.744 388.816 136.659 388.719 136.574L384.84 133.002C384.779 132.954 384.706 132.941 384.633 132.966L376.206 136.282C376.109 136.319 376.06 136.44 376.097 136.537L377.884 141.057C377.921 141.154 377.872 141.275 377.775 141.312L345.417 154.031C345.32 154.068 345.198 154.019 345.162 153.922L341.927 145.831C341.891 145.734 341.939 145.612 342.037 145.576L426.354 112.422C426.512 112.362 426.682 112.52 426.609 112.69L425.551 115.01Z" fill="black"/>
<path opacity="0.3" d="M301.653 150.666C294.856 153.327 291.499 160.993 294.163 167.784C296.826 174.575 304.499 177.928 311.308 175.267C318.106 172.607 321.462 164.941 318.799 158.15C316.136 151.359 308.463 148.006 301.653 150.666ZM309.995 172.91C304.571 175.036 298.455 172.364 296.327 166.945C294.199 161.527 296.874 155.416 302.298 153.303C307.721 151.177 313.837 153.849 315.965 159.268C318.093 164.674 315.418 170.784 309.995 172.91Z" fill="white"/>
<path opacity="0.1" d="M349.247 181.925C348.299 183.2 347.18 184.354 345.891 185.326L302.2 127.511L302.164 127.463C302.164 127.463 306.006 125.531 306.882 124.96C306.882 125.009 306.906 125.069 306.943 125.142C308.864 129.224 343.204 173.761 349.247 181.925Z" fill="white"/>
<path opacity="0.1" d="M342.936 187.149C342.657 187.282 329.937 191.146 329.937 191.146L315.747 172.376C319.419 168.78 320.793 163.216 318.799 158.138C316.136 151.347 308.463 147.994 301.653 150.654C301.057 150.885 300.498 151.152 299.951 151.468L287.402 134.861C287.402 134.861 298.431 129.613 299.659 128.848C299.987 131.168 342.936 186.663 342.936 187.149Z" fill="white"/>
<path d="M290.855 95.9613C289.432 97.6499 288.849 100.019 289.335 102.169C289.809 104.319 291.342 106.215 293.348 107.15C294.382 107.636 295.525 107.867 296.558 108.365C297.58 108.875 298.54 109.762 298.65 110.904C298.771 112.167 297.847 113.334 297.932 114.597C298.017 115.751 298.917 116.662 299.829 117.379C300.741 118.096 301.763 118.764 302.261 119.809C302.76 120.854 302.444 122.397 301.325 122.7C301.094 123.065 300.997 123.927 301.301 124.231C301.605 124.535 302.127 124.608 302.492 124.377C304.207 123.32 305.386 121.34 305.398 119.323C305.411 117.306 304.146 115.35 302.31 114.524C301.982 113.856 302.237 113.006 302.517 112.313C303.076 110.928 303.635 109.531 304.182 108.146C304.401 107.6 304.207 106.603 303.83 106.154C303.453 105.704 302.894 105.449 302.346 105.218L298.759 103.688C297.409 103.105 293.384 97.735 298.151 96.1678C297.531 94.7829 296.449 94.3577 294.965 94.0782C293.482 93.7988 291.828 94.795 290.855 95.9613Z" fill="#263238"/>
<path d="M297.361 90.1788C297.239 91.5881 297.117 93.0094 297.008 94.4187C298.2 92.4749 300.401 88.6967 300.316 88.8425C299.379 89.3406 298.297 89.6686 297.361 90.1788Z" fill="#263238"/>
<path d="M298.966 92.4992C300.632 90.9684 302.286 89.4256 303.951 87.8948C302.675 87.421 301.118 87.7734 300.182 88.7695C300.206 88.6602 299.428 91.017 298.966 92.4992Z" fill="#263238"/>
<path d="M288.837 207.437C282.355 215.479 284.508 221.638 275.558 235.877C286.842 244.235 299.221 245.62 314.616 244.429C316.44 241.21 317.352 237.857 319.176 234.637C321.778 237.869 323.882 240.59 326.484 243.822C334.546 242.558 344.128 240.299 350.5 236.192C344.87 229.742 341.368 221.687 337.768 214.568C336.078 211.239 336.783 209.83 332.296 205.457C318.008 206.113 303.842 206.465 289.554 207.121C289.943 207.133 288.46 207.412 288.837 207.437Z" fill="#263238"/>
<path d="M290.612 206.088L289.712 209.842C289.578 210.134 289.931 210.413 290.417 210.389L329.791 208.652C330.168 208.664 330.472 208.433 330.484 208.202L330.691 204.472C330.691 204.217 330.363 204.011 329.949 204.035L291.256 205.736C291.013 205.736 290.758 205.87 290.612 206.088Z" fill="#209CD7"/>
<path d="M290.612 206.088L289.712 209.842C289.578 210.134 289.931 210.413 290.417 210.389L329.791 208.652C330.168 208.664 330.472 208.433 330.484 208.202L330.691 204.472C330.691 204.217 330.363 204.011 329.949 204.035L291.256 205.736C291.013 205.736 290.758 205.87 290.612 206.088Z" fill="#209CD7"/>
<path d="M299.294 210.401L298.151 210.45C297.932 210.45 297.75 210.352 297.762 210.219L298.066 205.371C298.066 205.238 298.26 205.116 298.491 205.104L299.634 205.043C299.853 205.043 300.036 205.141 300.024 205.286L299.72 210.122C299.707 210.255 299.513 210.389 299.294 210.401Z" fill="#263238"/>
<path d="M327.724 209.174L326.581 209.223C326.362 209.223 326.18 209.125 326.192 208.992L326.496 204.157C326.496 204.011 326.691 203.889 326.909 203.877L328.052 203.829C328.271 203.829 328.454 203.926 328.442 204.059L328.138 208.895C328.138 209.04 327.955 209.162 327.724 209.174Z" fill="#263238"/>
<path d="M304.377 186.809C304.45 187.161 307.514 192.032 309.91 191.692C309.934 191.692 309.946 191.692 309.971 191.68C310.664 191.583 311.369 191.862 311.795 192.421C312.755 193.672 313.339 194.389 313.983 195.215C315.041 196.552 316.877 196.977 318.41 196.26C318.872 196.054 319.322 195.811 319.772 195.58C321.255 194.79 322.009 193.089 321.608 191.461C321.17 189.676 320.477 187.95 319.565 186.347C319.249 185.8 318.896 185.253 318.349 184.938C317.802 184.622 312.524 183.03 310.481 183.091C308.353 183.152 306.335 185.946 304.377 186.809Z" fill="#E8BFBF"/>
<path d="M310.542 182.933C310.542 182.933 278.221 173.154 271.241 179.665C267.143 183.492 269.076 187.112 271.375 189.433C273.077 191.17 276.798 190.745 279.218 190.623L304.681 188.133L310.542 182.933Z" fill="#E8BFBF"/>
<path d="M291.962 178.463C291.791 176.713 290.429 175.267 288.861 174.478C287.292 173.7 285.505 173.457 283.766 173.239C279.704 172.728 275.643 172.206 271.581 171.696C269.514 174.296 268.031 177.879 268.104 181.208C268.164 184.525 269.417 187.817 271.581 190.344C273.527 186.59 276.093 182.727 279.887 180.856C283.668 178.985 287.803 177.709 291.962 178.463Z" fill="#263238"/>
<path opacity="0.1" d="M283.632 119.481C283.596 119.408 283.596 119.372 283.632 119.36C283.887 119.287 283.851 119.335 283.632 119.481Z" fill="white"/>
<path d="M363.937 67.1937L372.947 83.8737L409.695 52.7005C410.023 52.421 409.646 51.9229 409.293 52.1659L374.844 74.8838L369.53 64.5332L363.937 67.1937Z" fill="#209CD7"/>
<path d="M421.915 67.2787C421.915 82.1486 406.29 94.2 387.028 94.2C379.635 94.2 372.777 92.4384 367.135 89.3892L346.645 98.2819L359.571 83.898C354.914 79.3423 352.129 73.5717 352.129 67.2909C352.129 52.421 367.755 40.3696 387.016 40.3696C406.29 40.3575 421.915 52.4089 421.915 67.2787Z" stroke="#209CD7" stroke-width="1.3" stroke-miterlimit="10"/>
</g>
<defs>
<clipPath id="clip0_726_3827">
<rect width="608" height="452" fill="white"/>
</clipPath>
</defs>
</svg>
