<svg width="28" height="28" viewBox="0 0 28 28" fill="none" xmlns="http://www.w3.org/2000/svg">
<g id="circle">
<rect x="-0.5" y="0.5" width="27" height="27" rx="4.5" transform="matrix(-1 0 0 1 27 0)" fill="#FAFAFA"/>
<rect x="-0.5" y="0.5" width="27" height="27" rx="4.5" transform="matrix(-1 0 0 1 27 0)" stroke="#DCDCDC"/>
<path id="Icon" d="M17.3075 14.6282C17.4306 14.5052 17.4998 14.3384 17.5 14.1644V13.8319C17.498 13.6583 17.429 13.4922 17.3075 13.3682L12.81 8.87941C12.7279 8.79659 12.616 8.75 12.4994 8.75C12.3827 8.75 12.2709 8.79659 12.1887 8.87941L11.5675 9.50066C11.4852 9.5813 11.4388 9.69168 11.4388 9.80691C11.4388 9.92214 11.4852 10.0325 11.5675 10.1132L15.4613 13.9982L11.5675 17.8832C11.4847 17.9653 11.4381 18.0771 11.4381 18.1938C11.4381 18.3104 11.4847 18.4223 11.5675 18.5044L12.1887 19.1169C12.2709 19.1997 12.3827 19.2463 12.4994 19.2463C12.616 19.2463 12.7279 19.1997 12.81 19.1169L17.3075 14.6282Z" fill="#22A4E6"/>
</g>
</svg>
