<svg width="18" height="18" viewBox="0 0 18 18" fill="none" xmlns="http://www.w3.org/2000/svg">
<path id="Icon" d="M7.4 2.6C4.74903 2.6 2.6 4.74903 2.6 7.4C2.6 10.051 4.74903 12.2 7.4 12.2C10.051 12.2 12.2 10.051 12.2 7.4C12.2 4.74903 10.051 2.6 7.4 2.6ZM1 7.4C1 3.86538 3.86538 1 7.4 1C10.9346 1 13.8 3.86538 13.8 7.4C13.8 8.87897 13.2983 10.2408 12.4559 11.3245L16.7657 15.6343C17.0781 15.9467 17.0781 16.4533 16.7657 16.7657C16.4533 17.0781 15.9467 17.0781 15.6343 16.7657L11.3245 12.4559C10.2408 13.2983 8.87897 13.8 7.4 13.8C3.86538 13.8 1 10.9346 1 7.4Z" fill="#209CD7" stroke="#209CD7" stroke-miterlimit="10" stroke-linecap="round" stroke-linejoin="round"/>
</svg>
