<svg width="20" height="20" viewBox="0 0 20 20" fill="none" xmlns="http://www.w3.org/2000/svg">
<g id="Union">
<path d="M9.5 0C5.93825 0 3.04561 2.86476 3.00053 6.41581C1.23434 7.18724 0 8.94947 0 11C0 13.7614 2.23858 16 5 16H7V14C6.23145 14 5.46294 13.7065 4.87701 13.1197C3.70636 11.9472 3.70785 10.0477 4.88035 8.87706L7.70371 6.05813C8.9725 4.79133 11.0275 4.79134 12.2963 6.05813L15.1197 8.87706C16.2921 10.0477 16.2936 11.9472 15.123 13.1197C14.5371 13.7065 13.7686 14 13 14V16H14C17.3137 16 20 13.3137 20 10C20 7.23523 18.13 4.90722 15.5858 4.2118C14.6601 1.7509 12.2845 0 9.5 0Z" fill="#81878D"/>
<path d="M13.7077 11.7066C14.0979 11.3158 14.0974 10.6826 13.7066 10.2924L10.8832 7.47345C10.3952 6.98623 9.60481 6.98622 9.11681 7.47345L6.29345 10.2924C5.90262 10.6826 5.90212 11.3158 6.29234 11.7066C6.68256 12.0974 7.31572 12.0979 7.70655 11.7077L9 10.4163V19C9 19.5523 9.44772 20 10 20C10.5523 20 11 19.5523 11 19V10.4163L12.2934 11.7077C12.6843 12.0979 13.3174 12.0974 13.7077 11.7066Z" fill="#81878D"/>
</g>
</svg>
