<svg width="32" height="32" viewBox="0 0 32 32" fill="none" xmlns="http://www.w3.org/2000/svg">
<g id="user_add_fill">
<path d="M6.4 8C6.4 3.58172 9.98172 0 14.4 0C18.8183 0 22.4 3.58172 22.4 8C22.4 12.4183 18.8183 16 14.4 16C9.98172 16 6.4 12.4183 6.4 8Z" fill="white"/>
<path d="M0 27.2C0 22.7817 3.58172 19.2 8 19.2H20.8C25.2183 19.2 28.8 22.7817 28.8 27.2V28.8C28.8 30.5673 27.3673 32 25.6 32H3.2C1.43269 32 0 30.5673 0 28.8V27.2Z" fill="white"/>
<path d="M27.2 19.2C26.3163 19.2 25.6 18.4837 25.6 17.6V16H24C23.1163 16 22.4 15.2837 22.4 14.4C22.4 13.5163 23.1163 12.8 24 12.8H25.6V11.2C25.6 10.3163 26.3163 9.6 27.2 9.6C28.0837 9.6 28.8 10.3163 28.8 11.2V12.8H30.4C31.2837 12.8 32 13.5163 32 14.4C32 15.2837 31.2837 16 30.4 16H28.8V17.6C28.8 18.4837 28.0837 19.2 27.2 19.2Z" fill="white"/>
</g>
</svg>
