<svg width="38" height="32" viewBox="0 0 38 32" fill="none" xmlns="http://www.w3.org/2000/svg">
<g id="Union">
<path d="M14.25 0C9.52797 0 5.7 3.79241 5.7 8.47059C5.7 13.1488 9.52797 16.9412 14.25 16.9412C18.972 16.9412 22.8 13.1488 22.8 8.47059C22.8 3.79241 18.972 0 14.25 0Z" fill="white"/>
<path d="M24.7 11.2941C24.7 8.17533 27.252 5.64706 30.4 5.64706C33.548 5.64706 36.1 8.17533 36.1 11.2941C36.1 14.4129 33.548 16.9412 30.4 16.9412C27.252 16.9412 24.7 14.4129 24.7 11.2941Z" fill="white"/>
<path d="M28.5015 18.824H32.3C35.448 18.824 38 21.3523 38 24.471V27.2946C38 28.854 36.724 30.1181 35.15 30.1181H32.3V26.3529C32.3 23.2744 30.8081 20.5412 28.5015 18.824Z" fill="white"/>
<path d="M0 26.3529C0 22.1946 3.40264 18.8235 7.6 18.8235H20.9C25.0974 18.8235 28.5 22.1946 28.5 26.3529V29.1765C28.5 30.7359 27.224 32 25.65 32H2.85C1.27599 32 0 30.7359 0 29.1765V26.3529Z" fill="white"/>
</g>
</svg>
