<svg width="1205" height="1067" viewBox="0 0 1205 1067" fill="none" xmlns="http://www.w3.org/2000/svg">
<path d="M1512.58 629.762C1506.22 878.393 1256.5 1073.73 954.823 1066.01C653.154 1058.29 413.751 850.449 420.12 601.813C426.489 353.13 676.203 157.818 977.882 165.54C1279.55 173.262 1518.95 381.08 1512.58 629.762Z" fill="url(#paint0_radial_1507_1819)"/>
<path d="M1245.36 622.93C1242.11 749.915 1114.55 849.673 960.466 845.732C806.373 841.822 684.097 735.629 687.346 608.645C690.601 481.63 818.153 381.877 972.236 385.813C1126.32 389.754 1248.61 495.92 1245.36 622.93Z" fill="url(#paint1_radial_1507_1819)"/>
<path d="M1092.58 429.444C1086.22 678.074 836.5 873.407 534.826 865.69C233.158 857.974 -6.24465 650.13 0.124182 401.494C6.48784 152.806 256.207 -42.5006 557.886 -34.7787C859.559 -27.062 1098.95 180.756 1092.58 429.444Z" fill="url(#paint2_radial_1507_1819)"/>
<g opacity="0.8">
<path d="M1845.17 575.156H1689.67L1590.26 475.775H1340.37L1281.73 534.395H1067.15L961.878 429.154H783.173L675.167 537.126H523.319L381.492 395.344H42.5059V390.984H383.303L525.124 532.761H673.361L781.362 424.794H963.684L1068.96 530.035H1279.93L1338.57 471.415H1592.07L1691.48 570.796H1845.17V575.156Z" fill="url(#paint3_linear_1507_1819)"/>
<path d="M1999.35 600.141H1679.33L1579.91 500.761H1350.72L1292.08 559.381H1056.8L951.525 454.135H793.52L685.519 562.106H512.966L371.144 420.325H155.965V415.965H372.95L514.772 557.741H683.714L791.715 449.775H953.331L1058.61 555.015H1290.28L1348.92 496.395H1581.72L1681.13 595.776H1999.35V600.141Z" fill="url(#paint4_linear_1507_1819)"/>
<path d="M2072.08 625.122H1668.97L1569.56 525.742H1361.08L1302.44 584.361H1046.45L941.173 479.116H803.873L695.872 587.087H502.614L360.792 445.306H77.418V440.946H362.598L504.419 582.722H694.061L802.068 474.755H942.984L1048.26 579.996H1300.63L1359.27 521.376H1571.37L1670.78 620.757H2072.08V625.122Z" fill="url(#paint5_linear_1507_1819)"/>
<path d="M1914.98 650.104H1658.62L1559.2 550.723H1371.42L1312.78 609.343H1036.1L930.821 504.097H814.222L706.215 612.069H492.257L350.435 470.292H249.057V465.927H352.241L494.068 607.703H704.41L812.416 499.737H932.627L1037.9 604.978H1310.97L1369.61 546.358H1561.01L1660.42 645.739H1914.98V650.104Z" fill="url(#paint6_linear_1507_1819)"/>
<path d="M2027.91 675.079H1648.27L1548.86 575.699H1381.78L1323.14 634.319H1025.75L920.472 529.078H824.572L716.571 637.044H481.913L340.091 495.268H123.965V490.903H341.897L483.718 632.684H714.76L822.767 524.713H922.283L1027.56 629.953H1321.33L1379.97 571.339H1550.67L1650.08 670.719H2027.91V675.079Z" fill="url(#paint7_linear_1507_1819)"/>
<path d="M1830.62 700.061H1637.92L1538.51 600.68H1392.14L1391.8 601.026L1391.79 601.016L1333.49 659.3H1015.4L910.125 554.059H834.925L726.924 662.031H471.56L329.739 520.249H298.516V515.889H331.545L473.366 657.665H725.108L833.109 549.699H911.92L1017.19 654.94H1331.67L1385.94 600.685H1385.91L1389.69 596.94C1389.7 596.93 1389.7 596.925 1389.71 596.914L1390.17 596.454L1390.19 596.475C1390.2 596.464 1390.22 596.454 1390.23 596.444C1390.97 595.849 1392.09 595.275 1393.22 596.314H1540.31L1639.72 695.695H1830.61V700.061H1830.62Z" fill="url(#paint8_linear_1507_1819)"/>
<path d="M1944.08 550.179H1700.03L1600.61 450.798H1330.02L1271.38 509.418H1077.51L972.226 404.178H772.821L664.82 512.144H533.666L391.845 370.368H199.605V366.008H393.65L535.472 507.784H663.014L771.015 399.812H974.031L1079.31 505.058H1269.58L1328.22 446.438H1602.42L1701.83 545.819H1944.08V550.179Z" fill="url(#paint9_linear_1507_1819)"/>
<path d="M1763.71 525.198H1710.37L1610.96 425.817H1319.67L1261.71 483.76C1261.69 483.781 1261.67 483.796 1261.65 483.817L1261.35 484.117L1261.14 484.329L1261.11 484.308C1260.38 484.903 1259.25 485.493 1258.12 484.437H1087.85L982.576 379.197H762.471L654.47 487.168H544.017L402.19 345.387H272.33V341.027H403.996L545.822 482.803H652.659L760.66 374.837H984.382L1089.66 480.077H1259.22L1317.86 421.457H1612.76L1712.18 520.838H1763.7V525.198H1763.71Z" fill="url(#paint10_linear_1507_1819)"/>
</g>
<path d="M995.678 681.276H503.602C485.747 681.276 471.225 666.753 471.225 648.904V377.397C471.225 359.549 485.747 345.031 503.602 345.031H995.678C1013.53 345.031 1028.05 359.554 1028.05 377.397V648.909C1028.06 666.758 1013.53 681.276 995.678 681.276ZM503.607 348.139C487.47 348.139 474.339 361.266 474.339 377.397V648.909C474.339 665.041 487.47 678.167 503.607 678.167H995.683C1011.82 678.167 1024.95 665.041 1024.95 648.909V377.397C1024.95 361.266 1011.82 348.139 995.683 348.139H503.607Z" fill="url(#paint11_radial_1507_1819)"/>
<path d="M995.679 679.724H503.602C486.581 679.724 472.777 665.931 472.777 648.909V377.398C472.777 360.382 486.576 346.583 503.602 346.583H995.679C1012.7 346.583 1026.5 360.376 1026.5 377.398V648.909C1026.5 665.925 1012.71 679.724 995.679 679.724Z" fill="url(#paint12_radial_1507_1819)"/>
<path opacity="0.4" d="M824.6 346.583H503.602C486.581 346.583 472.777 360.376 472.777 377.398V648.909C472.777 665.925 486.576 679.724 503.602 679.724H633.809L824.6 346.583Z" fill="url(#paint13_linear_1507_1819)"/>
<path d="M536.254 554.974V579.609H532.731V558.491H528.504V554.969H536.254V554.974Z" fill="url(#paint14_linear_1507_1819)"/>
<path d="M547.176 558.497V561.678H543.652V558.497C543.652 558.016 543.745 557.561 543.932 557.131C544.113 556.702 544.366 556.33 544.687 556.014C545.008 555.699 545.385 555.445 545.815 555.259C546.244 555.073 546.7 554.975 547.186 554.975H558.34C558.822 554.975 559.277 555.068 559.706 555.259C560.136 555.445 560.508 555.699 560.824 556.014C561.139 556.33 561.393 556.702 561.579 557.131C561.771 557.561 561.864 558.016 561.864 558.497V563.002C561.864 563.483 561.822 563.912 561.724 564.289C561.636 564.667 561.486 565.008 561.289 565.314C561.088 565.619 560.834 565.888 560.524 566.131C560.213 566.369 559.836 566.601 559.391 566.819L547.191 572.539V576.092H558.791V572.932H562.314V579.614H543.663V573.139C543.663 572.658 543.714 572.229 543.807 571.851C543.906 571.473 544.051 571.132 544.247 570.837C544.439 570.537 544.697 570.268 545.013 570.02C545.329 569.772 545.701 569.549 546.125 569.343L558.346 563.607V558.502H547.176V558.497Z" fill="url(#paint15_linear_1507_1819)"/>
<path d="M567.928 572.156H571.384V573.459C571.384 574.39 571.591 575.068 572.005 575.502C572.418 575.937 573.091 576.154 574.033 576.154H581.131C582.067 576.154 582.745 575.937 583.159 575.502C583.573 575.068 583.78 574.385 583.78 573.459V571.551C583.78 570.615 583.573 569.932 583.159 569.508C582.745 569.084 582.073 568.872 581.131 568.872H573.841V565.438H581.028C581.886 565.401 582.502 565.169 582.875 564.739C583.247 564.31 583.433 563.648 583.433 562.753V561.14C583.433 560.198 583.226 559.516 582.807 559.076C582.388 558.641 581.716 558.424 580.79 558.424H574.379C573.448 558.424 572.781 558.641 572.367 559.076C571.953 559.51 571.746 560.198 571.746 561.14V562.443H568.29V560.964C568.29 556.966 570.287 554.969 574.271 554.969H580.883C582.911 554.969 584.416 555.461 585.394 556.448C586.372 557.436 586.864 558.941 586.864 560.969V561.414C586.864 562.8 586.62 563.943 586.134 564.843C585.648 565.743 584.939 566.41 584.013 566.844C585.053 567.155 585.849 567.77 586.398 568.701C586.951 569.627 587.226 570.858 587.226 572.394V573.63C587.226 577.618 585.229 579.609 581.245 579.609H573.924C569.93 579.609 567.928 577.618 567.928 573.63V572.156Z" fill="url(#paint16_linear_1507_1819)"/>
<path d="M591.1 571.127L603.247 554.975H607.392V571.127H610.708V574.509H607.392V579.614H603.868V574.509H591.1V571.127ZM603.868 571.127V559.236L594.933 571.127H603.868Z" fill="url(#paint17_linear_1507_1819)"/>
<path d="M656.376 573.635C656.34 575.637 655.838 577.137 654.866 578.125C653.893 579.118 652.403 579.609 650.401 579.609H643.783C639.784 579.609 637.787 577.618 637.787 573.63V572.151H641.243V573.454C641.243 574.385 641.45 575.063 641.859 575.497C642.273 575.932 642.95 576.149 643.887 576.149H650.282C651.218 576.149 651.896 575.932 652.31 575.497C652.724 575.063 652.925 574.38 652.925 573.454V570.139C652.925 569.213 652.718 568.53 652.31 568.101C651.896 567.672 651.218 567.46 650.282 567.46H638.491V554.969H655.745V558.491H642.014V564.025H650.401C652.418 564.025 653.919 564.517 654.902 565.494C655.885 566.472 656.381 567.977 656.381 570.004V573.635H656.376Z" fill="url(#paint18_linear_1507_1819)"/>
<path d="M662.709 558.497C662.709 558.016 662.797 557.561 662.983 557.131C663.169 556.702 663.418 556.33 663.739 556.014C664.054 555.699 664.432 555.445 664.861 555.259C665.291 555.073 665.746 554.975 666.227 554.975H677.485C677.966 554.975 678.422 555.068 678.856 555.259C679.286 555.445 679.658 555.699 679.979 556.014C680.3 556.33 680.553 556.702 680.734 557.131C680.915 557.561 681.008 558.016 681.008 558.497V561.678H677.485V558.497H666.227V565.541H677.485C677.966 565.541 678.422 565.634 678.856 565.815C679.286 566.001 679.658 566.25 679.979 566.57C680.3 566.891 680.553 567.269 680.734 567.698C680.915 568.127 681.008 568.582 681.008 569.063V576.092C681.008 576.573 680.915 577.028 680.734 577.458C680.548 577.887 680.3 578.264 679.979 578.58C679.658 578.901 679.286 579.154 678.856 579.335C678.427 579.516 677.971 579.609 677.485 579.609H666.227C665.746 579.609 665.291 579.516 664.861 579.335C664.432 579.149 664.054 578.901 663.739 578.58C663.418 578.259 663.164 577.887 662.983 577.458C662.797 577.028 662.709 576.573 662.709 576.092V558.497ZM666.232 569.063V576.092H677.49V569.063H666.232Z" fill="url(#paint19_linear_1507_1819)"/>
<path d="M689.375 579.609L700.426 558.491H686.664V554.969H705.672V556.035L693.452 579.604H689.375V579.609Z" fill="url(#paint20_linear_1507_1819)"/>
<path d="M715.518 579.609C711.524 579.609 709.521 577.618 709.521 573.63V572.394C709.521 570.858 709.796 569.627 710.349 568.701C710.898 567.77 711.694 567.155 712.734 566.844C711.808 566.41 711.1 565.743 710.613 564.843C710.127 563.943 709.884 562.8 709.884 561.414V560.969C709.884 556.971 711.881 554.975 715.864 554.975H722.476C726.465 554.975 728.457 556.971 728.457 560.969V561.414C728.457 562.8 728.214 563.943 727.728 564.843C727.242 565.743 726.533 566.41 725.607 566.844C726.646 567.155 727.443 567.77 727.992 568.701C728.545 569.627 728.819 570.858 728.819 572.394V573.63C728.819 577.618 726.822 579.609 722.839 579.609H715.518ZM722.725 576.159C723.661 576.159 724.339 575.942 724.753 575.508C725.167 575.073 725.374 574.39 725.374 573.465V571.556C725.374 570.62 725.167 569.937 724.753 569.513C724.339 569.089 723.666 568.877 722.725 568.877H715.626C714.685 568.877 714.007 569.089 713.598 569.513C713.19 569.937 712.978 570.62 712.978 571.556V573.465C712.978 574.396 713.185 575.073 713.598 575.508C714.012 575.942 714.685 576.159 715.626 576.159H722.725ZM722.621 565.438C723.48 565.402 724.091 565.169 724.458 564.739C724.82 564.31 725.006 563.648 725.006 562.753V561.14C725.006 560.198 724.799 559.516 724.386 559.076C723.972 558.642 723.304 558.424 722.373 558.424H715.963C715.031 558.424 714.364 558.642 713.95 559.076C713.536 559.511 713.329 560.198 713.329 561.14V562.753C713.329 563.648 713.516 564.31 713.888 564.739C714.261 565.169 714.871 565.402 715.72 565.438H722.621Z" fill="url(#paint21_linear_1507_1819)"/>
<path d="M777.018 576.087C777.018 576.568 776.93 577.023 776.744 577.452C776.558 577.881 776.309 578.259 775.989 578.574C775.673 578.895 775.295 579.149 774.866 579.33C774.436 579.511 773.981 579.604 773.5 579.604H762.242C761.761 579.604 761.306 579.511 760.871 579.33C760.442 579.143 760.069 578.895 759.748 578.574C759.428 578.254 759.174 577.881 758.993 577.452C758.812 577.023 758.719 576.568 758.719 576.087V572.927H762.242V576.087H773.5V569.058H762.242C761.761 569.058 761.306 568.965 760.871 568.773C760.442 568.587 760.069 568.334 759.748 568.018C759.428 567.703 759.174 567.33 758.993 566.901C758.812 566.472 758.719 566.017 758.719 565.536V558.491C758.719 558.01 758.812 557.555 758.993 557.126C759.179 556.697 759.428 556.324 759.748 556.009C760.069 555.693 760.442 555.44 760.871 555.254C761.3 555.068 761.756 554.969 762.242 554.969H773.5C773.981 554.969 774.436 555.062 774.866 555.254C775.295 555.44 775.673 555.693 775.989 556.009C776.309 556.324 776.563 556.697 776.744 557.126C776.93 557.555 777.018 558.01 777.018 558.491V576.087ZM773.495 565.541V558.497H762.237V565.541H773.495Z" fill="url(#paint22_linear_1507_1819)"/>
<path d="M803.781 576.087C803.781 576.568 803.688 577.023 803.507 577.452C803.321 577.881 803.072 578.259 802.752 578.574C802.431 578.895 802.058 579.149 801.629 579.33C801.2 579.511 800.744 579.604 800.263 579.604H787.939C787.458 579.604 787.003 579.511 786.568 579.33C786.139 579.143 785.766 578.895 785.446 578.574C785.125 578.254 784.871 577.881 784.69 577.452C784.509 577.023 784.416 576.568 784.416 576.087V558.491C784.416 558.01 784.509 557.555 784.69 557.126C784.876 556.697 785.125 556.324 785.446 556.009C785.766 555.693 786.139 555.44 786.568 555.254C786.998 555.068 787.453 554.969 787.939 554.969H800.263C800.744 554.969 801.2 555.062 801.629 555.254C802.058 555.44 802.431 555.693 802.752 556.009C803.072 556.324 803.326 556.697 803.507 557.126C803.693 557.555 803.781 558.01 803.781 558.491V576.087ZM787.939 558.497V576.092H800.263V558.497H787.939Z" fill="url(#paint23_linear_1507_1819)"/>
<path d="M816.803 554.974V579.609H813.28V558.491H809.053V554.969H816.803V554.974Z" fill="url(#paint24_linear_1507_1819)"/>
<path d="M827.72 558.497V561.678H824.197V558.497C824.197 558.016 824.285 557.561 824.471 557.131C824.657 556.702 824.905 556.33 825.226 556.014C825.547 555.699 825.919 555.445 826.349 555.259C826.778 555.073 827.233 554.975 827.715 554.975H838.869C839.35 554.975 839.806 555.068 840.235 555.259C840.664 555.445 841.037 555.699 841.353 556.014C841.668 556.33 841.922 556.702 842.108 557.131C842.299 557.561 842.392 558.016 842.392 558.497V563.002C842.392 563.483 842.346 563.912 842.258 564.289C842.165 564.667 842.02 565.008 841.818 565.314C841.616 565.619 841.363 565.888 841.052 566.131C840.742 566.369 840.364 566.601 839.919 566.819L827.715 572.539V576.092H839.314V572.932H842.837V579.614H824.191V573.139C824.191 572.658 824.243 572.229 824.336 571.851C824.435 571.473 824.579 571.132 824.771 570.837C824.967 570.537 825.221 570.268 825.536 570.02C825.852 569.772 826.219 569.549 826.644 569.343L838.864 563.607V558.502H827.72V558.497Z" fill="url(#paint25_linear_1507_1819)"/>
<path d="M871.693 572.156H875.143V573.459C875.143 574.39 875.35 575.068 875.759 575.502C876.173 575.937 876.851 576.154 877.787 576.154H884.885C885.822 576.154 886.5 575.937 886.914 575.502C887.328 575.068 887.529 574.385 887.529 573.459V571.551C887.529 570.615 887.322 569.932 886.914 569.508C886.5 569.084 885.822 568.872 884.885 568.872H877.596V565.438H884.782C885.641 565.401 886.257 565.169 886.629 564.739C887.002 564.31 887.188 563.648 887.188 562.753V561.14C887.188 560.198 886.981 559.516 886.562 559.076C886.143 558.641 885.47 558.424 884.544 558.424H878.134C877.208 558.424 876.535 558.641 876.121 559.076C875.713 559.51 875.506 560.198 875.506 561.14V562.443H872.05V560.964C872.05 556.966 874.047 554.969 878.03 554.969H884.648C886.676 554.969 888.181 555.461 889.159 556.448C890.142 557.436 890.628 558.941 890.628 560.969V561.414C890.628 562.8 890.385 563.943 889.894 564.843C889.407 565.743 888.699 566.41 887.772 566.844C888.818 567.155 889.609 567.77 890.163 568.701C890.711 569.627 890.985 570.858 890.985 572.394V573.63C890.985 577.618 888.994 579.609 885.005 579.609H877.684C873.684 579.609 871.688 577.618 871.688 573.63V572.156H871.693Z" fill="url(#paint26_linear_1507_1819)"/>
<path d="M894.865 571.127L907.018 554.975H911.162V571.127H914.479V574.509H911.162V579.614H907.639V574.509H894.87V571.127H894.865ZM907.634 571.127V559.236L898.699 571.127H907.634Z" fill="url(#paint27_linear_1507_1819)"/>
<path d="M936.926 573.635C936.89 575.637 936.388 577.137 935.416 578.125C934.438 579.118 932.948 579.609 930.945 579.609H924.328C920.334 579.609 918.332 577.618 918.332 573.63V572.151H921.788V573.454C921.788 574.385 921.995 575.063 922.409 575.497C922.818 575.932 923.495 576.149 924.437 576.149H930.832C931.768 576.149 932.446 575.932 932.86 575.497C933.274 575.063 933.481 574.38 933.481 573.454V570.139C933.481 569.213 933.274 568.53 932.86 568.101C932.446 567.672 931.773 567.46 930.832 567.46H919.041V554.969H936.295V558.491H922.564V564.025H930.951C932.968 564.025 934.469 564.517 935.457 565.494C936.44 566.472 936.937 567.977 936.937 570.004V573.635H936.926Z" fill="url(#paint28_linear_1507_1819)"/>
<path d="M943.26 558.497C943.26 558.016 943.353 557.561 943.534 557.131C943.72 556.702 943.969 556.33 944.289 556.014C944.61 555.699 944.983 555.445 945.417 555.259C945.847 555.073 946.302 554.975 946.788 554.975H958.046C958.527 554.975 958.983 555.068 959.412 555.259C959.841 555.445 960.219 555.699 960.54 556.014C960.861 556.33 961.114 556.702 961.295 557.131C961.482 557.561 961.57 558.016 961.57 558.497V561.678H958.046V558.497H946.788V565.541H958.046C958.527 565.541 958.983 565.634 959.412 565.815C959.841 566.001 960.219 566.25 960.54 566.57C960.861 566.891 961.114 567.269 961.295 567.698C961.482 568.127 961.57 568.582 961.57 569.063V576.092C961.57 576.573 961.482 577.028 961.295 577.458C961.109 577.887 960.861 578.264 960.54 578.58C960.224 578.901 959.847 579.154 959.412 579.335C958.983 579.516 958.527 579.609 958.046 579.609H946.788C946.307 579.609 945.852 579.516 945.417 579.335C944.988 579.149 944.615 578.901 944.289 578.58C943.969 578.259 943.715 577.887 943.534 577.458C943.353 577.028 943.26 576.573 943.26 576.092V558.497ZM946.783 569.063V576.092H958.041V569.063H946.783Z" fill="url(#paint29_linear_1507_1819)"/>
<path d="M531.58 597.546V609.1H529.93V599.196H527.943V597.546H531.58Z" fill="white"/>
<path d="M536.703 599.196V600.685H535.053V599.196C535.053 598.973 535.094 598.756 535.182 598.56C535.265 598.358 535.384 598.182 535.539 598.032C535.689 597.887 535.865 597.768 536.067 597.675C536.269 597.587 536.481 597.546 536.703 597.546H541.934C542.156 597.546 542.374 597.587 542.575 597.675C542.777 597.768 542.953 597.887 543.098 598.032C543.248 598.182 543.367 598.353 543.455 598.56C543.543 598.761 543.589 598.973 543.589 599.196V601.306C543.589 601.534 543.569 601.735 543.522 601.911C543.481 602.092 543.413 602.247 543.32 602.392C543.227 602.537 543.103 602.661 542.963 602.775C542.818 602.889 542.643 602.997 542.43 603.095L536.708 605.78V607.45H542.151V605.966H543.802V609.1H535.058V606.064C535.058 605.842 535.079 605.64 535.125 605.459C535.172 605.283 535.239 605.123 535.332 604.983C535.425 604.844 535.544 604.714 535.689 604.601C535.839 604.487 536.01 604.378 536.206 604.28L541.939 601.59V599.196H536.703Z" fill="white"/>
<path d="M546.436 605.599H548.055V606.214C548.055 606.649 548.153 606.969 548.345 607.171C548.541 607.378 548.857 607.476 549.297 607.476H552.623C553.063 607.476 553.384 607.378 553.575 607.171C553.772 606.969 553.865 606.649 553.865 606.214V605.32C553.865 604.88 553.767 604.559 553.575 604.363C553.384 604.161 553.063 604.063 552.623 604.063H549.209V602.449H552.577C552.98 602.433 553.27 602.325 553.446 602.123C553.617 601.921 553.71 601.611 553.71 601.192V600.437C553.71 599.997 553.611 599.677 553.415 599.47C553.218 599.263 552.903 599.165 552.468 599.165H549.462C549.028 599.165 548.712 599.263 548.521 599.47C548.324 599.672 548.231 599.997 548.231 600.437V601.053H546.611V600.354C546.611 598.482 547.548 597.546 549.416 597.546H552.52C553.472 597.546 554.175 597.779 554.636 598.239C555.096 598.699 555.324 599.408 555.324 600.354V600.566C555.324 601.218 555.21 601.756 554.983 602.175C554.75 602.594 554.419 602.909 553.984 603.111C554.476 603.256 554.848 603.545 555.107 603.98C555.36 604.414 555.495 604.994 555.495 605.713V606.292C555.495 608.164 554.558 609.095 552.691 609.095H549.255C547.382 609.095 546.441 608.164 546.441 606.292V605.599H546.436Z" fill="white"/>
<path d="M557.304 605.118L563 597.546H564.94V605.118H566.498V606.706H564.94V609.1H563.29V606.706H557.299V605.118H557.304ZM563.29 605.118V599.542L559.094 605.118H563.29Z" fill="white"/>
<path d="M917.867 639.413C917.867 639.635 917.826 639.852 917.738 640.054C917.65 640.256 917.531 640.432 917.381 640.582C917.231 640.732 917.055 640.851 916.853 640.933C916.652 641.021 916.44 641.063 916.212 641.063H910.433C910.205 641.063 909.993 641.021 909.791 640.933C909.59 640.851 909.414 640.732 909.264 640.582C909.114 640.432 908.995 640.256 908.907 640.054C908.824 639.852 908.777 639.64 908.777 639.413V631.163C908.777 630.941 908.819 630.724 908.907 630.522C908.989 630.32 909.108 630.144 909.264 630C909.414 629.85 909.59 629.731 909.791 629.643C909.993 629.555 910.205 629.508 910.433 629.508H916.212C916.44 629.508 916.652 629.555 916.853 629.643C917.055 629.731 917.231 629.85 917.381 630C917.531 630.144 917.65 630.32 917.738 630.522C917.821 630.724 917.867 630.936 917.867 631.163V639.413ZM910.438 631.163V639.413H916.217V631.163H910.438Z" fill="white"/>
<path d="M921.328 631.163C921.328 630.941 921.37 630.724 921.457 630.522C921.54 630.32 921.659 630.144 921.809 630C921.959 629.85 922.135 629.731 922.337 629.643C922.539 629.555 922.751 629.508 922.979 629.508H928.256C928.483 629.508 928.695 629.555 928.897 629.643C929.099 629.731 929.275 629.85 929.425 630C929.575 630.144 929.694 630.32 929.782 630.522C929.865 630.724 929.911 630.936 929.911 631.163V632.653H928.261V631.163H922.984V634.463H928.261C928.488 634.463 928.701 634.51 928.902 634.592C929.104 634.675 929.28 634.794 929.43 634.949C929.58 635.099 929.699 635.275 929.787 635.477C929.87 635.679 929.916 635.891 929.916 636.118V639.413C929.916 639.635 929.875 639.852 929.787 640.054C929.699 640.256 929.58 640.432 929.43 640.582C929.28 640.732 929.104 640.851 928.902 640.933C928.701 641.021 928.488 641.063 928.261 641.063H922.984C922.761 641.063 922.544 641.021 922.342 640.933C922.14 640.851 921.964 640.732 921.814 640.582C921.664 640.432 921.545 640.256 921.463 640.054C921.375 639.852 921.333 639.64 921.333 639.413V631.163H921.328ZM922.984 636.118V639.413H928.261V636.118H922.984Z" fill="white"/>
<path d="M932.561 641.891L936.937 628.697H938.536L934.076 641.891H932.561Z" fill="white"/>
<path d="M940.508 637.572H942.127V638.182C942.127 638.616 942.226 638.937 942.417 639.144C942.614 639.345 942.929 639.449 943.369 639.449H946.696C947.135 639.449 947.456 639.345 947.648 639.144C947.844 638.942 947.937 638.616 947.937 638.182V637.287C947.937 636.847 947.839 636.527 947.648 636.325C947.456 636.128 947.135 636.025 946.696 636.025H943.281V634.417H946.649C947.053 634.396 947.342 634.287 947.518 634.091C947.689 633.889 947.782 633.579 947.782 633.16V632.399C947.782 631.96 947.684 631.639 947.487 631.432C947.291 631.231 946.975 631.127 946.54 631.127H943.534C943.1 631.127 942.784 631.231 942.593 631.432C942.396 631.634 942.303 631.96 942.303 632.399V633.015H940.684V632.322C940.684 630.45 941.62 629.508 943.488 629.508H946.592C947.544 629.508 948.248 629.741 948.708 630.201C949.169 630.662 949.396 631.37 949.396 632.322V632.534C949.396 633.186 949.282 633.718 949.055 634.142C948.822 634.567 948.491 634.877 948.056 635.084C948.548 635.229 948.92 635.518 949.179 635.953C949.432 636.392 949.567 636.966 949.567 637.685V638.265C949.567 640.132 948.631 641.068 946.763 641.068H943.328C941.455 641.068 940.513 640.132 940.513 638.265V637.572H940.508Z" fill="white"/>
<path d="M961.616 639.413C961.616 639.635 961.57 639.852 961.487 640.054C961.404 640.256 961.285 640.432 961.13 640.582C960.98 640.732 960.804 640.851 960.602 640.933C960.401 641.021 960.188 641.063 959.961 641.063H954.182C953.959 641.063 953.742 641.021 953.54 640.933C953.338 640.851 953.163 640.732 953.012 640.582C952.862 640.432 952.743 640.256 952.661 640.054C952.573 639.852 952.531 639.64 952.531 639.413V631.163C952.531 630.941 952.573 630.724 952.661 630.522C952.743 630.32 952.862 630.144 953.012 630C953.163 629.85 953.338 629.731 953.54 629.643C953.742 629.555 953.954 629.508 954.182 629.508H959.961C960.183 629.508 960.401 629.555 960.602 629.643C960.804 629.731 960.98 629.85 961.13 630C961.28 630.144 961.399 630.32 961.487 630.522C961.57 630.724 961.616 630.936 961.616 631.163V639.413ZM954.182 631.163V639.413H959.961V631.163H954.182Z" fill="white"/>
<path d="M861.837 632.663L858.924 625.112H860.083L862.437 631.329L864.791 625.112H865.945L863.032 632.663H861.837Z" fill="white"/>
<path d="M870.146 625.112L873.059 632.663H871.978L871.311 630.926H867.901L867.234 632.663H866.152L869.065 625.112H870.146ZM868.31 629.845H870.892L869.608 626.514L868.31 629.845Z" fill="white"/>
<path d="M875.76 625.112V631.588H879.645V632.663H874.684V625.112H875.76Z" fill="white"/>
<path d="M882.341 625.112V632.663H881.26V625.112H882.341Z" fill="white"/>
<path d="M884.602 632.663V625.112H888.44C888.844 625.112 889.211 625.174 889.532 625.298C889.858 625.423 890.132 625.604 890.365 625.831C890.598 626.059 890.774 626.338 890.898 626.664C891.022 626.99 891.084 627.352 891.084 627.755V630.021C891.084 630.424 891.022 630.781 890.898 631.112C890.774 631.438 890.598 631.717 890.365 631.95C890.132 632.177 889.858 632.358 889.532 632.482C889.206 632.607 888.844 632.669 888.44 632.669H884.602V632.663ZM888.446 631.582C888.947 631.582 889.335 631.448 889.604 631.174C889.874 630.905 890.008 630.517 890.008 630.015V627.75C890.008 627.502 889.977 627.285 889.905 627.093C889.832 626.897 889.734 626.736 889.594 626.597C889.46 626.462 889.294 626.359 889.103 626.291C888.906 626.219 888.689 626.183 888.446 626.183H885.688V631.577H888.446V631.582Z" fill="white"/>
<path d="M859.896 638.053H865.939V639.134H863.461V645.609H862.38V639.134H859.902V638.053H859.896Z" fill="white"/>
<path d="M874.046 638.053V645.604H872.965V642.371H868.64V645.604H867.559V638.053H868.64V641.29H872.965V638.053H874.046Z" fill="white"/>
<path d="M882.279 640.753C882.279 641.803 881.829 642.408 880.929 642.552L882.351 645.604H881.156L879.754 642.589H877.39V645.604H876.309V638.053H880.442C881.669 638.053 882.279 638.668 882.279 639.889V640.753ZM877.39 641.508H880.385C880.675 641.508 880.882 641.446 881.006 641.322C881.136 641.192 881.193 640.985 881.193 640.701V639.946C881.193 639.661 881.13 639.449 881.006 639.325C880.877 639.196 880.67 639.134 880.385 639.134H877.39V641.508Z" fill="white"/>
<path d="M884.404 638.053H885.486V644.528H889.8V638.053H890.877V644.528C890.877 644.673 890.851 644.813 890.794 644.947C890.737 645.076 890.665 645.195 890.561 645.288C890.463 645.387 890.349 645.464 890.22 645.521C890.085 645.578 889.945 645.604 889.8 645.604H885.486C885.336 645.604 885.196 645.578 885.067 645.521C884.937 645.464 884.818 645.387 884.72 645.288C884.622 645.19 884.549 645.076 884.487 644.947C884.43 644.813 884.404 644.673 884.404 644.528V638.053Z" fill="white"/>
<path d="M896.189 630.305V639.817L902.098 635.063L896.189 630.305Z" fill="white"/>
<path d="M529.232 632.643C529.232 632.374 529.284 632.121 529.382 631.883C529.486 631.645 529.626 631.438 529.807 631.262C529.988 631.086 530.195 630.942 530.438 630.838C530.676 630.729 530.935 630.678 531.204 630.678H538.674C538.943 630.678 539.197 630.735 539.435 630.838C539.673 630.942 539.885 631.086 540.066 631.262C540.247 631.438 540.387 631.645 540.49 631.883C540.594 632.121 540.646 632.379 540.646 632.643V634.422H538.674V632.643H531.204V642.475H538.674V640.706H540.646V642.475C540.646 642.744 540.594 642.998 540.49 643.235C540.387 643.473 540.247 643.685 540.066 643.866C539.885 644.047 539.678 644.187 539.435 644.291C539.197 644.394 538.938 644.446 538.674 644.446H531.204C530.935 644.446 530.676 644.394 530.438 644.291C530.2 644.187 529.988 644.047 529.807 643.866C529.626 643.685 529.486 643.479 529.382 643.235C529.284 642.998 529.232 642.739 529.232 642.475V632.643Z" fill="white"/>
<path d="M550.477 630.678L555.79 644.446H553.819L552.598 641.275H546.384L545.163 644.446H543.197L548.505 630.678H550.477ZM547.135 639.31H551.843L549.499 633.243L547.135 639.31Z" fill="white"/>
<path d="M569.623 635.597C569.623 637.515 568.8 638.612 567.165 638.881L569.757 644.451H567.579L565.023 638.948H560.713V644.451H558.742V630.683H566.28C568.51 630.683 569.623 631.8 569.623 634.035V635.597ZM560.708 636.978H566.172C566.699 636.978 567.072 636.864 567.305 636.631C567.538 636.398 567.651 636.026 567.651 635.498V634.128C567.651 633.6 567.538 633.228 567.305 632.995C567.072 632.762 566.699 632.649 566.172 632.649H560.708V636.978Z" fill="white"/>
<path d="M573.494 644.446V630.678H580.494C581.234 630.678 581.896 630.792 582.486 631.019C583.081 631.242 583.588 631.567 584.007 631.986C584.426 632.405 584.747 632.912 584.975 633.507C585.202 634.102 585.316 634.764 585.316 635.493V639.62C585.316 640.349 585.202 641.011 584.975 641.606C584.747 642.201 584.426 642.708 584.007 643.127C583.588 643.546 583.081 643.872 582.486 644.099C581.891 644.322 581.229 644.441 580.494 644.441H573.494V644.446ZM580.499 642.475C581.415 642.475 582.119 642.227 582.615 641.736C583.107 641.244 583.355 640.541 583.355 639.625V635.498C583.355 635.053 583.293 634.65 583.164 634.298C583.034 633.946 582.848 633.646 582.6 633.398C582.352 633.15 582.052 632.969 581.7 632.84C581.348 632.71 580.949 632.643 580.499 632.643H575.465V642.475H580.499Z" fill="white"/>
<path d="M600.882 630.678V644.446H598.91V638.55H591.026V644.446H589.055V630.678H591.026V636.584H598.91V630.678H600.882Z" fill="white"/>
<path d="M616.808 642.475C616.808 642.744 616.757 642.998 616.658 643.235C616.555 643.473 616.415 643.685 616.234 643.866C616.053 644.047 615.846 644.187 615.603 644.291C615.365 644.394 615.106 644.446 614.837 644.446H606.973C606.704 644.446 606.445 644.394 606.207 644.291C605.969 644.187 605.757 644.047 605.576 643.866C605.395 643.685 605.255 643.479 605.152 643.235C605.054 642.998 605.002 642.739 605.002 642.475V632.643C605.002 632.374 605.054 632.121 605.152 631.883C605.255 631.645 605.395 631.438 605.576 631.262C605.757 631.086 605.964 630.942 606.207 630.838C606.445 630.729 606.704 630.678 606.973 630.678H614.837C615.106 630.678 615.365 630.735 615.603 630.838C615.841 630.942 616.053 631.086 616.234 631.262C616.415 631.438 616.555 631.645 616.658 631.883C616.757 632.121 616.808 632.379 616.808 632.643V642.475ZM606.973 632.643V642.475H614.837V632.643H606.973Z" fill="white"/>
<path d="M622.903 630.678V642.48H629.98V644.451H620.932V630.683H622.903V630.678Z" fill="white"/>
<path d="M632.928 644.446V630.678H639.928C640.668 630.678 641.33 630.792 641.92 631.019C642.515 631.242 643.022 631.567 643.441 631.986C643.86 632.405 644.181 632.912 644.408 633.507C644.636 634.102 644.75 634.764 644.75 635.493V639.62C644.75 640.349 644.636 641.011 644.408 641.606C644.181 642.201 643.86 642.708 643.441 643.127C643.022 643.546 642.515 643.872 641.92 644.099C641.325 644.322 640.662 644.441 639.928 644.441H632.928V644.446ZM639.928 642.475C640.844 642.475 641.547 642.227 642.044 641.736C642.535 641.244 642.784 640.541 642.784 639.625V635.498C642.784 635.053 642.722 634.65 642.592 634.298C642.463 633.946 642.277 633.646 642.028 633.398C641.78 633.15 641.48 632.969 641.128 632.84C640.776 632.71 640.378 632.643 639.928 632.643H634.894V642.475H639.928Z" fill="white"/>
<path d="M648.492 630.678H658.529V632.648H650.463V636.584H657.35V638.555H650.463V642.48H658.529V644.451H648.492V630.678Z" fill="white"/>
<path d="M672.947 635.597C672.947 637.515 672.129 638.612 670.489 638.881L673.086 644.451H670.903L668.347 638.948H664.038V644.451H662.066V630.683H669.605C671.834 630.683 672.947 631.8 672.947 634.035V635.597ZM664.038 636.978H669.506C670.029 636.978 670.406 636.864 670.639 636.631C670.867 636.398 670.981 636.026 670.981 635.498V634.128C670.981 633.6 670.867 633.228 670.639 632.995C670.406 632.762 670.029 632.649 669.506 632.649H664.038V636.978Z" fill="white"/>
<path d="M685.278 644.446H683.307V630.678H685.278L693.556 641.353V630.678H695.527V644.446H693.556L685.278 633.771V644.446Z" fill="white"/>
<path d="M705.749 630.678L711.063 644.446H709.092L707.871 641.275H701.657L700.436 644.446H698.465L703.778 630.678H705.749ZM702.407 639.31H707.115L704.772 633.243L702.407 639.31Z" fill="white"/>
<path d="M721.12 644.446L715.983 634.355V644.446H714.012V630.678H716.164L721.41 641.048L726.661 630.678H728.803V644.446H726.842V634.355L721.705 644.446H721.12Z" fill="white"/>
<path d="M732.938 630.678H742.975V632.648H734.909V636.584H741.795V638.555H734.909V642.48H742.975V644.451H732.938V630.678Z" fill="white"/>
<path d="M533.049 394.895C533.049 394.538 533.121 394.202 533.251 393.881C533.385 393.565 533.577 393.286 533.815 393.053C534.053 392.821 534.332 392.634 534.647 392.495C534.968 392.35 535.304 392.283 535.661 392.283H545.569C545.926 392.283 546.262 392.35 546.583 392.495C546.904 392.634 547.183 392.821 547.416 393.053C547.654 393.286 547.84 393.565 547.975 393.881C548.109 394.202 548.177 394.538 548.177 394.895V397.248H545.564V394.895H535.656V407.928H545.564V405.585H548.177V407.928C548.177 408.285 548.109 408.626 547.975 408.942C547.84 409.263 547.654 409.542 547.416 409.78C547.178 410.018 546.899 410.204 546.583 410.338C546.268 410.473 545.926 410.54 545.569 410.54H535.661C535.304 410.54 534.968 410.473 534.647 410.338C534.332 410.204 534.053 410.018 533.815 409.78C533.577 409.542 533.39 409.263 533.251 408.942C533.116 408.626 533.049 408.285 533.049 407.928V394.895Z" fill="white"/>
<path d="M561.225 392.283L568.266 410.54H565.653L564.039 406.34H555.797L554.178 410.54H551.57L558.612 392.283H561.225ZM556.791 403.728H563.03L559.921 395.681L556.791 403.728Z" fill="white"/>
<path d="M586.605 398.799C586.605 401.344 585.519 402.797 583.346 403.154L586.786 410.54H583.894L580.505 403.247H574.789V410.54H572.176V392.283H582.171C585.126 392.283 586.6 393.767 586.6 396.725V398.799H586.605ZM574.789 400.636H582.037C582.73 400.636 583.232 400.48 583.537 400.175C583.842 399.87 583.998 399.368 583.998 398.67V396.85C583.998 396.157 583.848 395.655 583.537 395.345C583.232 395.039 582.73 394.889 582.037 394.889H574.789V400.636Z" fill="white"/>
<path d="M591.744 410.54V392.283H601.026C602.004 392.283 602.883 392.433 603.67 392.738C604.456 393.038 605.123 393.472 605.682 394.021C606.236 394.579 606.665 395.251 606.965 396.043C607.265 396.834 607.42 397.708 607.42 398.675V404.147C607.42 405.115 607.27 405.994 606.965 406.785C606.665 407.576 606.236 408.244 605.682 408.802C605.128 409.361 604.456 409.785 603.67 410.085C602.883 410.39 602.004 410.54 601.026 410.54H591.744ZM601.031 407.928C602.247 407.928 603.178 407.602 603.835 406.945C604.487 406.294 604.818 405.358 604.818 404.142V398.675C604.818 398.081 604.735 397.553 604.565 397.082C604.394 396.617 604.145 396.219 603.819 395.893C603.494 395.567 603.095 395.314 602.63 395.148C602.164 394.983 601.631 394.895 601.036 394.895H594.362V407.928H601.031Z" fill="white"/>
<path d="M619.418 392.283H634.023V394.895H628.027V410.54H625.414V394.895H619.418V392.283Z" fill="white"/>
<path d="M639.151 392.283L644.464 400.811L649.783 392.283H652.815L645.773 403.299V410.54H643.16V403.299L636.119 392.283H639.151Z" fill="white"/>
<path d="M656.457 410.54V392.283H666.453C669.407 392.283 670.886 393.767 670.886 396.725V399.322C670.886 402.285 669.412 403.765 666.453 403.765H659.07V410.535H656.457V410.54ZM659.075 401.158H666.318C667.011 401.158 667.513 401.003 667.824 400.698C668.129 400.392 668.284 399.891 668.284 399.193V396.85C668.284 396.157 668.129 395.655 667.824 395.345C667.518 395.039 667.016 394.889 666.318 394.889H659.075V401.158Z" fill="white"/>
<path d="M675.316 392.283H688.623V394.895H677.929V400.113H687.061V402.725H677.929V407.933H688.623V410.545H675.316V392.283Z" fill="white"/>
<path d="M608.436 504.05H540.221C533.66 504.05 528.342 498.734 528.342 492.175V459.23C528.342 452.671 533.66 447.354 540.221 447.354H608.431C614.991 447.354 620.31 452.671 620.31 459.23V492.175C620.315 498.734 614.996 504.05 608.436 504.05Z" fill="url(#paint30_linear_1507_1819)"/>
<path d="M574.329 494.803C568.405 494.803 563.588 489.988 563.588 484.066C563.588 480.787 565.078 477.735 567.618 475.702C565.073 473.67 563.588 470.618 563.588 467.339C563.588 461.417 568.405 456.602 574.329 456.602C580.252 456.602 585.069 461.417 585.069 467.339C585.069 470.618 583.579 473.67 581.039 475.702C583.584 477.735 585.069 480.787 585.069 484.066C585.074 489.988 580.252 494.803 574.329 494.803ZM574.329 458.154C569.263 458.154 565.145 462.271 565.145 467.334C565.145 470.458 566.723 473.339 569.377 475.046L570.391 475.697L569.377 476.349C566.728 478.056 565.145 480.937 565.145 484.06C565.145 489.124 569.263 493.246 574.329 493.246C579.394 493.246 583.512 489.124 583.512 484.06C583.512 480.937 581.934 478.056 579.28 476.349L578.266 475.697L579.28 475.046C581.929 473.339 583.512 470.458 583.512 467.334C583.517 462.276 579.394 458.154 574.329 458.154Z" fill="#070A10"/>
<path d="M565.02 463.078H528.344V464.634H565.02V463.078Z" fill="#070A10"/>
<path d="M620.314 463.078H584.289V464.634H620.314V463.078Z" fill="#070A10"/>
<path d="M565.02 486.512H528.344V488.069H565.02V486.512Z" fill="#070A10"/>
<path d="M620.314 486.512H584.289V488.069H620.314V486.512Z" fill="#070A10"/>
<path d="M547.46 447.354H545.902V504.05H547.46V447.354Z" fill="#070A10"/>
<path d="M597.786 463.854H596.229V487.288H597.786V463.854Z" fill="#070A10"/>
<path d="M606.28 447.354H604.723V463.853H606.28V447.354Z" fill="#070A10"/>
<path d="M606.28 487.288H604.723V504.05H606.28V487.288Z" fill="#070A10"/>
<path d="M522.346 481.775V467.738L513.623 474.756L522.346 481.775Z" fill="white"/>
<defs>
<radialGradient id="paint0_radial_1507_1819" cx="0" cy="0" r="1" gradientUnits="userSpaceOnUse" gradientTransform="translate(966.349 615.774) rotate(1.46957) scale(546.442 450.354)">
<stop stop-color="#143036"/>
<stop offset="1" stop-opacity="0"/>
</radialGradient>
<radialGradient id="paint1_radial_1507_1819" cx="0" cy="0" r="1" gradientUnits="userSpaceOnUse" gradientTransform="translate(966.353 615.775) rotate(1.46957) scale(279.108 230.028)">
<stop stop-color="#081024"/>
<stop offset="1" stop-color="#070F26" stop-opacity="0"/>
</radialGradient>
<radialGradient id="paint2_radial_1507_1819" cx="0" cy="0" r="1" gradientUnits="userSpaceOnUse" gradientTransform="translate(546.353 415.454) rotate(1.46957) scale(546.442 450.354)">
<stop stop-color="#132146"/>
<stop offset="1" stop-opacity="0"/>
</radialGradient>
<linearGradient id="paint3_linear_1507_1819" x1="-140.607" y1="563.854" x2="484.771" y2="563.854" gradientUnits="userSpaceOnUse">
<stop offset="0.39283" stop-opacity="0"/>
<stop offset="0.8893" stop-color="#617AFF"/>
</linearGradient>
<linearGradient id="paint4_linear_1507_1819" x1="-31.285" y1="588.839" x2="608.221" y2="588.839" gradientUnits="userSpaceOnUse">
<stop offset="0.39283" stop-opacity="0"/>
<stop offset="0.8893" stop-color="#617AFF"/>
</linearGradient>
<linearGradient id="paint5_linear_1507_1819" x1="-125.199" y1="613.82" x2="566.789" y2="613.82" gradientUnits="userSpaceOnUse">
<stop offset="0.39283" stop-opacity="0"/>
<stop offset="0.8893" stop-color="#617AFF"/>
</linearGradient>
<linearGradient id="paint6_linear_1507_1819" x1="79.8329" y1="638.801" x2="657.775" y2="638.801" gradientUnits="userSpaceOnUse">
<stop offset="0.39283" stop-opacity="0"/>
<stop offset="0.8893" stop-color="#617AFF"/>
</linearGradient>
<linearGradient id="paint7_linear_1507_1819" x1="-69.437" y1="663.777" x2="591.079" y2="663.777" gradientUnits="userSpaceOnUse">
<stop offset="0.39283" stop-opacity="0"/>
<stop offset="0.8893" stop-color="#617AFF"/>
</linearGradient>
<linearGradient id="paint8_linear_1507_1819" x1="142.886" y1="688.758" x2="674.402" y2="688.758" gradientUnits="userSpaceOnUse">
<stop offset="0.39283" stop-opacity="0"/>
<stop offset="0.8893" stop-color="#617AFF"/>
</linearGradient>
<linearGradient id="paint9_linear_1507_1819" x1="22.4029" y1="538.877" x2="627.595" y2="538.877" gradientUnits="userSpaceOnUse">
<stop offset="0.39283" stop-opacity="0"/>
<stop offset="0.8893" stop-color="#617AFF"/>
</linearGradient>
<linearGradient id="paint10_linear_1507_1819" x1="120.837" y1="513.896" x2="638.224" y2="513.896" gradientUnits="userSpaceOnUse">
<stop offset="0.39283" stop-opacity="0"/>
<stop offset="0.8893" stop-color="#617AFF"/>
</linearGradient>
<radialGradient id="paint11_radial_1507_1819" cx="0" cy="0" r="1" gradientUnits="userSpaceOnUse" gradientTransform="translate(753.859 515.071) scale(361.776 361.66)">
<stop offset="0.5844" stop-color="#4354B1"/>
<stop offset="0.9503" stop-color="#000603"/>
</radialGradient>
<radialGradient id="paint12_radial_1507_1819" cx="0" cy="0" r="1" gradientUnits="userSpaceOnUse" gradientTransform="translate(700.142 347.108) scale(354.03 353.916)">
<stop offset="0.4079" stop-color="#336CE8"/>
<stop offset="1" stop-color="#2D1689"/>
</radialGradient>
<linearGradient id="paint13_linear_1507_1819" x1="657.707" y1="231.425" x2="627.935" y2="661.121" gradientUnits="userSpaceOnUse">
<stop stop-color="white" stop-opacity="0.24"/>
<stop offset="1" stop-color="#141414" stop-opacity="0.17"/>
</linearGradient>
<linearGradient id="paint14_linear_1507_1819" x1="532.379" y1="589.267" x2="532.379" y2="559.178" gradientUnits="userSpaceOnUse">
<stop stop-color="#FFF08A"/>
<stop offset="0.0477" stop-color="#E6CC64"/>
<stop offset="0.099" stop-color="#D1AC42"/>
<stop offset="0.1517" stop-color="#C09328"/>
<stop offset="0.2056" stop-color="#B48116"/>
<stop offset="0.2616" stop-color="#AC760B"/>
<stop offset="0.3227" stop-color="#AA7307"/>
<stop offset="0.3935" stop-color="#AE790D"/>
<stop offset="0.4881" stop-color="#BA891E"/>
<stop offset="0.5957" stop-color="#CEA33A"/>
<stop offset="0.661" stop-color="#DCB64E"/>
<stop offset="0.6843" stop-color="#DFBC55"/>
<stop offset="0.8156" stop-color="#F1D975"/>
<stop offset="0.9255" stop-color="#FBEB89"/>
<stop offset="1" stop-color="#FFF290"/>
</linearGradient>
<linearGradient id="paint15_linear_1507_1819" x1="552.975" y1="589.267" x2="552.975" y2="559.178" gradientUnits="userSpaceOnUse">
<stop stop-color="#FFF08A"/>
<stop offset="0.0477" stop-color="#E6CC64"/>
<stop offset="0.099" stop-color="#D1AC42"/>
<stop offset="0.1517" stop-color="#C09328"/>
<stop offset="0.2056" stop-color="#B48116"/>
<stop offset="0.2616" stop-color="#AC760B"/>
<stop offset="0.3227" stop-color="#AA7307"/>
<stop offset="0.3935" stop-color="#AE790D"/>
<stop offset="0.4881" stop-color="#BA891E"/>
<stop offset="0.5957" stop-color="#CEA33A"/>
<stop offset="0.661" stop-color="#DCB64E"/>
<stop offset="0.6843" stop-color="#DFBC55"/>
<stop offset="0.8156" stop-color="#F1D975"/>
<stop offset="0.9255" stop-color="#FBEB89"/>
<stop offset="1" stop-color="#FFF290"/>
</linearGradient>
<linearGradient id="paint16_linear_1507_1819" x1="577.576" y1="589.267" x2="577.576" y2="559.178" gradientUnits="userSpaceOnUse">
<stop stop-color="#FFF08A"/>
<stop offset="0.0477" stop-color="#E6CC64"/>
<stop offset="0.099" stop-color="#D1AC42"/>
<stop offset="0.1517" stop-color="#C09328"/>
<stop offset="0.2056" stop-color="#B48116"/>
<stop offset="0.2616" stop-color="#AC760B"/>
<stop offset="0.3227" stop-color="#AA7307"/>
<stop offset="0.3935" stop-color="#AE790D"/>
<stop offset="0.4881" stop-color="#BA891E"/>
<stop offset="0.5957" stop-color="#CEA33A"/>
<stop offset="0.661" stop-color="#DCB64E"/>
<stop offset="0.6843" stop-color="#DFBC55"/>
<stop offset="0.8156" stop-color="#F1D975"/>
<stop offset="0.9255" stop-color="#FBEB89"/>
<stop offset="1" stop-color="#FFF290"/>
</linearGradient>
<linearGradient id="paint17_linear_1507_1819" x1="600.904" y1="589.267" x2="600.904" y2="559.178" gradientUnits="userSpaceOnUse">
<stop stop-color="#FFF08A"/>
<stop offset="0.0477" stop-color="#E6CC64"/>
<stop offset="0.099" stop-color="#D1AC42"/>
<stop offset="0.1517" stop-color="#C09328"/>
<stop offset="0.2056" stop-color="#B48116"/>
<stop offset="0.2616" stop-color="#AC760B"/>
<stop offset="0.3227" stop-color="#AA7307"/>
<stop offset="0.3935" stop-color="#AE790D"/>
<stop offset="0.4881" stop-color="#BA891E"/>
<stop offset="0.5957" stop-color="#CEA33A"/>
<stop offset="0.661" stop-color="#DCB64E"/>
<stop offset="0.6843" stop-color="#DFBC55"/>
<stop offset="0.8156" stop-color="#F1D975"/>
<stop offset="0.9255" stop-color="#FBEB89"/>
<stop offset="1" stop-color="#FFF290"/>
</linearGradient>
<linearGradient id="paint18_linear_1507_1819" x1="647.079" y1="589.267" x2="647.079" y2="559.178" gradientUnits="userSpaceOnUse">
<stop stop-color="#FFF08A"/>
<stop offset="0.0477" stop-color="#E6CC64"/>
<stop offset="0.099" stop-color="#D1AC42"/>
<stop offset="0.1517" stop-color="#C09328"/>
<stop offset="0.2056" stop-color="#B48116"/>
<stop offset="0.2616" stop-color="#AC760B"/>
<stop offset="0.3227" stop-color="#AA7307"/>
<stop offset="0.3935" stop-color="#AE790D"/>
<stop offset="0.4881" stop-color="#BA891E"/>
<stop offset="0.5957" stop-color="#CEA33A"/>
<stop offset="0.661" stop-color="#DCB64E"/>
<stop offset="0.6843" stop-color="#DFBC55"/>
<stop offset="0.8156" stop-color="#F1D975"/>
<stop offset="0.9255" stop-color="#FBEB89"/>
<stop offset="1" stop-color="#FFF290"/>
</linearGradient>
<linearGradient id="paint19_linear_1507_1819" x1="671.862" y1="589.267" x2="671.862" y2="559.178" gradientUnits="userSpaceOnUse">
<stop stop-color="#FFF08A"/>
<stop offset="0.0477" stop-color="#E6CC64"/>
<stop offset="0.099" stop-color="#D1AC42"/>
<stop offset="0.1517" stop-color="#C09328"/>
<stop offset="0.2056" stop-color="#B48116"/>
<stop offset="0.2616" stop-color="#AC760B"/>
<stop offset="0.3227" stop-color="#AA7307"/>
<stop offset="0.3935" stop-color="#AE790D"/>
<stop offset="0.4881" stop-color="#BA891E"/>
<stop offset="0.5957" stop-color="#CEA33A"/>
<stop offset="0.661" stop-color="#DCB64E"/>
<stop offset="0.6843" stop-color="#DFBC55"/>
<stop offset="0.8156" stop-color="#F1D975"/>
<stop offset="0.9255" stop-color="#FBEB89"/>
<stop offset="1" stop-color="#FFF290"/>
</linearGradient>
<linearGradient id="paint20_linear_1507_1819" x1="696.163" y1="589.267" x2="696.163" y2="559.178" gradientUnits="userSpaceOnUse">
<stop stop-color="#FFF08A"/>
<stop offset="0.0477" stop-color="#E6CC64"/>
<stop offset="0.099" stop-color="#D1AC42"/>
<stop offset="0.1517" stop-color="#C09328"/>
<stop offset="0.2056" stop-color="#B48116"/>
<stop offset="0.2616" stop-color="#AC760B"/>
<stop offset="0.3227" stop-color="#AA7307"/>
<stop offset="0.3935" stop-color="#AE790D"/>
<stop offset="0.4881" stop-color="#BA891E"/>
<stop offset="0.5957" stop-color="#CEA33A"/>
<stop offset="0.661" stop-color="#DCB64E"/>
<stop offset="0.6843" stop-color="#DFBC55"/>
<stop offset="0.8156" stop-color="#F1D975"/>
<stop offset="0.9255" stop-color="#FBEB89"/>
<stop offset="1" stop-color="#FFF290"/>
</linearGradient>
<linearGradient id="paint21_linear_1507_1819" x1="719.172" y1="589.267" x2="719.172" y2="559.178" gradientUnits="userSpaceOnUse">
<stop stop-color="#FFF08A"/>
<stop offset="0.0477" stop-color="#E6CC64"/>
<stop offset="0.099" stop-color="#D1AC42"/>
<stop offset="0.1517" stop-color="#C09328"/>
<stop offset="0.2056" stop-color="#B48116"/>
<stop offset="0.2616" stop-color="#AC760B"/>
<stop offset="0.3227" stop-color="#AA7307"/>
<stop offset="0.3935" stop-color="#AE790D"/>
<stop offset="0.4881" stop-color="#BA891E"/>
<stop offset="0.5957" stop-color="#CEA33A"/>
<stop offset="0.661" stop-color="#DCB64E"/>
<stop offset="0.6843" stop-color="#DFBC55"/>
<stop offset="0.8156" stop-color="#F1D975"/>
<stop offset="0.9255" stop-color="#FBEB89"/>
<stop offset="1" stop-color="#FFF290"/>
</linearGradient>
<linearGradient id="paint22_linear_1507_1819" x1="767.867" y1="589.267" x2="767.867" y2="559.178" gradientUnits="userSpaceOnUse">
<stop stop-color="#FFF08A"/>
<stop offset="0.0477" stop-color="#E6CC64"/>
<stop offset="0.099" stop-color="#D1AC42"/>
<stop offset="0.1517" stop-color="#C09328"/>
<stop offset="0.2056" stop-color="#B48116"/>
<stop offset="0.2616" stop-color="#AC760B"/>
<stop offset="0.3227" stop-color="#AA7307"/>
<stop offset="0.3935" stop-color="#AE790D"/>
<stop offset="0.4881" stop-color="#BA891E"/>
<stop offset="0.5957" stop-color="#CEA33A"/>
<stop offset="0.661" stop-color="#DCB64E"/>
<stop offset="0.6843" stop-color="#DFBC55"/>
<stop offset="0.8156" stop-color="#F1D975"/>
<stop offset="0.9255" stop-color="#FBEB89"/>
<stop offset="1" stop-color="#FFF290"/>
</linearGradient>
<linearGradient id="paint23_linear_1507_1819" x1="794.099" y1="589.267" x2="794.099" y2="559.178" gradientUnits="userSpaceOnUse">
<stop stop-color="#FFF08A"/>
<stop offset="0.0477" stop-color="#E6CC64"/>
<stop offset="0.099" stop-color="#D1AC42"/>
<stop offset="0.1517" stop-color="#C09328"/>
<stop offset="0.2056" stop-color="#B48116"/>
<stop offset="0.2616" stop-color="#AC760B"/>
<stop offset="0.3227" stop-color="#AA7307"/>
<stop offset="0.3935" stop-color="#AE790D"/>
<stop offset="0.4881" stop-color="#BA891E"/>
<stop offset="0.5957" stop-color="#CEA33A"/>
<stop offset="0.661" stop-color="#DCB64E"/>
<stop offset="0.6843" stop-color="#DFBC55"/>
<stop offset="0.8156" stop-color="#F1D975"/>
<stop offset="0.9255" stop-color="#FBEB89"/>
<stop offset="1" stop-color="#FFF290"/>
</linearGradient>
<linearGradient id="paint24_linear_1507_1819" x1="812.927" y1="589.267" x2="812.927" y2="559.178" gradientUnits="userSpaceOnUse">
<stop stop-color="#FFF08A"/>
<stop offset="0.0477" stop-color="#E6CC64"/>
<stop offset="0.099" stop-color="#D1AC42"/>
<stop offset="0.1517" stop-color="#C09328"/>
<stop offset="0.2056" stop-color="#B48116"/>
<stop offset="0.2616" stop-color="#AC760B"/>
<stop offset="0.3227" stop-color="#AA7307"/>
<stop offset="0.3935" stop-color="#AE790D"/>
<stop offset="0.4881" stop-color="#BA891E"/>
<stop offset="0.5957" stop-color="#CEA33A"/>
<stop offset="0.661" stop-color="#DCB64E"/>
<stop offset="0.6843" stop-color="#DFBC55"/>
<stop offset="0.8156" stop-color="#F1D975"/>
<stop offset="0.9255" stop-color="#FBEB89"/>
<stop offset="1" stop-color="#FFF290"/>
</linearGradient>
<linearGradient id="paint25_linear_1507_1819" x1="833.523" y1="589.267" x2="833.523" y2="559.178" gradientUnits="userSpaceOnUse">
<stop stop-color="#FFF08A"/>
<stop offset="0.0477" stop-color="#E6CC64"/>
<stop offset="0.099" stop-color="#D1AC42"/>
<stop offset="0.1517" stop-color="#C09328"/>
<stop offset="0.2056" stop-color="#B48116"/>
<stop offset="0.2616" stop-color="#AC760B"/>
<stop offset="0.3227" stop-color="#AA7307"/>
<stop offset="0.3935" stop-color="#AE790D"/>
<stop offset="0.4881" stop-color="#BA891E"/>
<stop offset="0.5957" stop-color="#CEA33A"/>
<stop offset="0.661" stop-color="#DCB64E"/>
<stop offset="0.6843" stop-color="#DFBC55"/>
<stop offset="0.8156" stop-color="#F1D975"/>
<stop offset="0.9255" stop-color="#FBEB89"/>
<stop offset="1" stop-color="#FFF290"/>
</linearGradient>
<linearGradient id="paint26_linear_1507_1819" x1="881.341" y1="589.267" x2="881.341" y2="559.178" gradientUnits="userSpaceOnUse">
<stop stop-color="#FFF08A"/>
<stop offset="0.0477" stop-color="#E6CC64"/>
<stop offset="0.099" stop-color="#D1AC42"/>
<stop offset="0.1517" stop-color="#C09328"/>
<stop offset="0.2056" stop-color="#B48116"/>
<stop offset="0.2616" stop-color="#AC760B"/>
<stop offset="0.3227" stop-color="#AA7307"/>
<stop offset="0.3935" stop-color="#AE790D"/>
<stop offset="0.4881" stop-color="#BA891E"/>
<stop offset="0.5957" stop-color="#CEA33A"/>
<stop offset="0.661" stop-color="#DCB64E"/>
<stop offset="0.6843" stop-color="#DFBC55"/>
<stop offset="0.8156" stop-color="#F1D975"/>
<stop offset="0.9255" stop-color="#FBEB89"/>
<stop offset="1" stop-color="#FFF290"/>
</linearGradient>
<linearGradient id="paint27_linear_1507_1819" x1="904.668" y1="589.267" x2="904.668" y2="559.178" gradientUnits="userSpaceOnUse">
<stop stop-color="#FFF08A"/>
<stop offset="0.0477" stop-color="#E6CC64"/>
<stop offset="0.099" stop-color="#D1AC42"/>
<stop offset="0.1517" stop-color="#C09328"/>
<stop offset="0.2056" stop-color="#B48116"/>
<stop offset="0.2616" stop-color="#AC760B"/>
<stop offset="0.3227" stop-color="#AA7307"/>
<stop offset="0.3935" stop-color="#AE790D"/>
<stop offset="0.4881" stop-color="#BA891E"/>
<stop offset="0.5957" stop-color="#CEA33A"/>
<stop offset="0.661" stop-color="#DCB64E"/>
<stop offset="0.6843" stop-color="#DFBC55"/>
<stop offset="0.8156" stop-color="#F1D975"/>
<stop offset="0.9255" stop-color="#FBEB89"/>
<stop offset="1" stop-color="#FFF290"/>
</linearGradient>
<linearGradient id="paint28_linear_1507_1819" x1="927.629" y1="589.267" x2="927.629" y2="559.178" gradientUnits="userSpaceOnUse">
<stop stop-color="#FFF08A"/>
<stop offset="0.0477" stop-color="#E6CC64"/>
<stop offset="0.099" stop-color="#D1AC42"/>
<stop offset="0.1517" stop-color="#C09328"/>
<stop offset="0.2056" stop-color="#B48116"/>
<stop offset="0.2616" stop-color="#AC760B"/>
<stop offset="0.3227" stop-color="#AA7307"/>
<stop offset="0.3935" stop-color="#AE790D"/>
<stop offset="0.4881" stop-color="#BA891E"/>
<stop offset="0.5957" stop-color="#CEA33A"/>
<stop offset="0.661" stop-color="#DCB64E"/>
<stop offset="0.6843" stop-color="#DFBC55"/>
<stop offset="0.8156" stop-color="#F1D975"/>
<stop offset="0.9255" stop-color="#FBEB89"/>
<stop offset="1" stop-color="#FFF290"/>
</linearGradient>
<linearGradient id="paint29_linear_1507_1819" x1="952.41" y1="589.267" x2="952.41" y2="559.178" gradientUnits="userSpaceOnUse">
<stop stop-color="#FFF08A"/>
<stop offset="0.0477" stop-color="#E6CC64"/>
<stop offset="0.099" stop-color="#D1AC42"/>
<stop offset="0.1517" stop-color="#C09328"/>
<stop offset="0.2056" stop-color="#B48116"/>
<stop offset="0.2616" stop-color="#AC760B"/>
<stop offset="0.3227" stop-color="#AA7307"/>
<stop offset="0.3935" stop-color="#AE790D"/>
<stop offset="0.4881" stop-color="#BA891E"/>
<stop offset="0.5957" stop-color="#CEA33A"/>
<stop offset="0.661" stop-color="#DCB64E"/>
<stop offset="0.6843" stop-color="#DFBC55"/>
<stop offset="0.8156" stop-color="#F1D975"/>
<stop offset="0.9255" stop-color="#FBEB89"/>
<stop offset="1" stop-color="#FFF290"/>
</linearGradient>
<linearGradient id="paint30_linear_1507_1819" x1="574.329" y1="504.051" x2="574.329" y2="447.353" gradientUnits="userSpaceOnUse">
<stop stop-color="#FFF08A"/>
<stop offset="0.0477" stop-color="#E6CC64"/>
<stop offset="0.099" stop-color="#D1AC42"/>
<stop offset="0.1517" stop-color="#C09328"/>
<stop offset="0.2056" stop-color="#B48116"/>
<stop offset="0.2616" stop-color="#AC760B"/>
<stop offset="0.3227" stop-color="#AA7307"/>
<stop offset="0.3935" stop-color="#AE790D"/>
<stop offset="0.4881" stop-color="#BA891E"/>
<stop offset="0.5957" stop-color="#CEA33A"/>
<stop offset="0.661" stop-color="#DCB64E"/>
<stop offset="0.6843" stop-color="#DFBC55"/>
<stop offset="0.8156" stop-color="#F1D975"/>
<stop offset="0.9255" stop-color="#FBEB89"/>
<stop offset="1" stop-color="#FFF290"/>
</linearGradient>
</defs>
</svg>
