<svg width="558" height="337" viewBox="0 0 558 337" fill="none" xmlns="http://www.w3.org/2000/svg">
<path d="M524.678 336.276H32.6017C14.7472 336.276 0.224609 321.753 0.224609 303.904V32.3974C0.224609 14.5487 14.7472 0.0307617 32.6017 0.0307617H524.678C542.532 0.0307617 557.055 14.5538 557.055 32.3974V303.909C557.06 321.758 542.532 336.276 524.678 336.276ZM32.6069 3.13914C16.4701 3.13914 3.33919 16.2658 3.33919 32.3974V303.909C3.33919 320.041 16.4701 333.167 32.6069 333.167H524.683C540.82 333.167 553.951 320.041 553.951 303.909V32.3974C553.951 16.2658 540.82 3.13914 524.683 3.13914H32.6069Z" fill="url(#paint0_radial_1507_1884)"/>
<path d="M524.679 334.724H32.6023C15.5808 334.724 1.77734 320.931 1.77734 303.909V32.3976C1.77734 15.3815 15.5757 1.58252 32.6023 1.58252H524.679C541.7 1.58252 555.503 15.3763 555.503 32.3976V303.909C555.503 320.925 541.705 334.724 524.679 334.724Z" fill="url(#paint1_radial_1507_1884)"/>
<path opacity="0.4" d="M353.6 1.58252H32.6023C15.5808 1.58252 1.77734 15.3763 1.77734 32.3976V303.909C1.77734 320.925 15.5757 334.724 32.6023 334.724H162.809L353.6 1.58252Z" fill="url(#paint2_linear_1507_1884)"/>
<path d="M65.2541 209.974V234.609H61.7308V213.491H57.5039V209.969H65.2541V209.974Z" fill="url(#paint3_linear_1507_1884)"/>
<path d="M76.1755 213.497V216.678H72.6523V213.497C72.6523 213.016 72.7455 212.561 72.9317 212.131C73.1128 211.702 73.3663 211.33 73.6871 211.014C74.0079 210.699 74.3855 210.445 74.8149 210.259C75.2443 210.073 75.6996 209.975 76.1859 209.975H87.3404C87.8216 209.975 88.2769 210.068 88.7064 210.259C89.1358 210.445 89.5082 210.699 89.8238 211.014C90.1394 211.33 90.3929 211.702 90.5792 212.131C90.7706 212.561 90.8638 213.016 90.8638 213.497V218.002C90.8638 218.483 90.8224 218.912 90.7241 219.289C90.6361 219.667 90.486 220.008 90.2894 220.314C90.0876 220.619 89.8341 220.888 89.5237 221.131C89.2133 221.369 88.8356 221.601 88.3907 221.819L76.1911 227.539V231.092H87.7906V227.932H91.3138V234.614H72.6627V228.139C72.6627 227.658 72.7143 227.229 72.8075 226.851C72.9058 226.473 73.0507 226.132 73.2473 225.837C73.4387 225.537 73.6974 225.268 74.013 225.02C74.3286 224.772 74.7011 224.549 75.1254 224.343L87.3456 218.607V213.502H76.1755V213.497Z" fill="url(#paint4_linear_1507_1884)"/>
<path d="M96.9277 227.156H100.384V228.459C100.384 229.39 100.591 230.068 101.005 230.502C101.418 230.937 102.091 231.154 103.033 231.154H110.131C111.067 231.154 111.745 230.937 112.159 230.502C112.573 230.068 112.78 229.385 112.78 228.459V226.551C112.78 225.615 112.573 224.932 112.159 224.508C111.745 224.084 111.073 223.872 110.131 223.872H102.841V220.438H110.028C110.886 220.401 111.502 220.169 111.875 219.739C112.247 219.31 112.433 218.648 112.433 217.753V216.14C112.433 215.198 112.226 214.516 111.807 214.076C111.388 213.641 110.716 213.424 109.79 213.424H103.379C102.448 213.424 101.781 213.641 101.367 214.076C100.953 214.51 100.746 215.198 100.746 216.14V217.443H97.2899V215.964C97.2899 211.966 99.2869 209.969 103.271 209.969H109.883C111.911 209.969 113.416 210.461 114.394 211.448C115.372 212.436 115.864 213.941 115.864 215.969V216.414C115.864 217.8 115.62 218.943 115.134 219.843C114.648 220.743 113.939 221.41 113.013 221.844C114.053 222.155 114.849 222.77 115.398 223.701C115.951 224.627 116.226 225.858 116.226 227.394V228.63C116.226 232.618 114.229 234.609 110.245 234.609H102.924C98.93 234.609 96.9277 232.618 96.9277 228.63V227.156Z" fill="url(#paint5_linear_1507_1884)"/>
<path d="M120.1 226.127L132.247 209.975H136.392V226.127H139.708V229.509H136.392V234.614H132.868V229.509H120.1V226.127ZM132.868 226.127V214.236L123.933 226.127H132.868Z" fill="url(#paint6_linear_1507_1884)"/>
<path d="M185.376 228.635C185.34 230.637 184.838 232.137 183.866 233.125C182.893 234.118 181.403 234.609 179.401 234.609H172.783C168.784 234.609 166.787 232.618 166.787 228.63V227.151H170.243V228.454C170.243 229.385 170.45 230.063 170.859 230.497C171.273 230.932 171.95 231.149 172.887 231.149H179.282C180.218 231.149 180.896 230.932 181.31 230.497C181.724 230.063 181.925 229.38 181.925 228.454V225.139C181.925 224.213 181.718 223.53 181.31 223.101C180.896 222.672 180.218 222.46 179.282 222.46H167.491V209.969H184.745V213.491H171.014V219.025H179.401C181.418 219.025 182.919 219.517 183.902 220.494C184.885 221.472 185.381 222.977 185.381 225.004V228.635H185.376Z" fill="url(#paint7_linear_1507_1884)"/>
<path d="M191.709 213.497C191.709 213.016 191.797 212.561 191.983 212.131C192.169 211.702 192.418 211.33 192.739 211.014C193.054 210.699 193.432 210.445 193.861 210.259C194.291 210.073 194.746 209.975 195.227 209.975H206.485C206.966 209.975 207.422 210.068 207.856 210.259C208.286 210.445 208.658 210.699 208.979 211.014C209.3 211.33 209.553 211.702 209.734 212.131C209.915 212.561 210.008 213.016 210.008 213.497V216.678H206.485V213.497H195.227V220.541H206.485C206.966 220.541 207.422 220.634 207.856 220.815C208.286 221.001 208.658 221.25 208.979 221.57C209.3 221.891 209.553 222.269 209.734 222.698C209.915 223.127 210.008 223.582 210.008 224.063V231.092C210.008 231.573 209.915 232.028 209.734 232.458C209.548 232.887 209.3 233.264 208.979 233.58C208.658 233.901 208.286 234.154 207.856 234.335C207.427 234.516 206.971 234.609 206.485 234.609H195.227C194.746 234.609 194.291 234.516 193.861 234.335C193.432 234.149 193.054 233.901 192.739 233.58C192.418 233.259 192.164 232.887 191.983 232.458C191.797 232.028 191.709 231.573 191.709 231.092V213.497ZM195.232 224.063V231.092H206.49V224.063H195.232Z" fill="url(#paint8_linear_1507_1884)"/>
<path d="M218.375 234.609L229.426 213.491H215.664V209.969H234.672V211.035L222.452 234.604H218.375V234.609Z" fill="url(#paint9_linear_1507_1884)"/>
<path d="M244.518 234.609C240.524 234.609 238.521 232.618 238.521 228.63V227.394C238.521 225.858 238.796 224.627 239.349 223.701C239.898 222.77 240.694 222.155 241.734 221.844C240.808 221.41 240.1 220.743 239.613 219.843C239.127 218.943 238.884 217.8 238.884 216.414V215.969C238.884 211.971 240.881 209.975 244.864 209.975H251.476C255.465 209.975 257.457 211.971 257.457 215.969V216.414C257.457 217.8 257.214 218.943 256.728 219.843C256.242 220.743 255.533 221.41 254.607 221.844C255.646 222.155 256.443 222.77 256.992 223.701C257.545 224.627 257.819 225.858 257.819 227.394V228.63C257.819 232.618 255.822 234.609 251.839 234.609H244.518ZM251.725 231.159C252.661 231.159 253.339 230.942 253.753 230.508C254.167 230.073 254.374 229.39 254.374 228.465V226.556C254.374 225.62 254.167 224.937 253.753 224.513C253.339 224.089 252.666 223.877 251.725 223.877H244.626C243.685 223.877 243.007 224.089 242.598 224.513C242.19 224.937 241.978 225.62 241.978 226.556V228.465C241.978 229.396 242.185 230.073 242.598 230.508C243.012 230.942 243.685 231.159 244.626 231.159H251.725ZM251.621 220.438C252.48 220.402 253.091 220.169 253.458 219.739C253.82 219.31 254.006 218.648 254.006 217.753V216.14C254.006 215.198 253.799 214.516 253.386 214.076C252.972 213.642 252.304 213.424 251.373 213.424H244.963C244.031 213.424 243.364 213.642 242.95 214.076C242.536 214.511 242.329 215.198 242.329 216.14V217.753C242.329 218.648 242.516 219.31 242.888 219.739C243.261 220.169 243.871 220.402 244.72 220.438H251.621Z" fill="url(#paint10_linear_1507_1884)"/>
<path d="M306.018 231.087C306.018 231.568 305.93 232.023 305.744 232.452C305.558 232.881 305.309 233.259 304.989 233.574C304.673 233.895 304.295 234.149 303.866 234.33C303.436 234.511 302.981 234.604 302.5 234.604H291.242C290.761 234.604 290.306 234.511 289.871 234.33C289.442 234.143 289.069 233.895 288.748 233.574C288.428 233.254 288.174 232.881 287.993 232.452C287.812 232.023 287.719 231.568 287.719 231.087V227.927H291.242V231.087H302.5V224.058H291.242C290.761 224.058 290.306 223.965 289.871 223.773C289.442 223.587 289.069 223.334 288.748 223.018C288.428 222.703 288.174 222.33 287.993 221.901C287.812 221.472 287.719 221.017 287.719 220.536V213.491C287.719 213.01 287.812 212.555 287.993 212.126C288.179 211.697 288.428 211.324 288.748 211.009C289.069 210.693 289.442 210.44 289.871 210.254C290.3 210.068 290.756 209.969 291.242 209.969H302.5C302.981 209.969 303.436 210.062 303.866 210.254C304.295 210.44 304.673 210.693 304.989 211.009C305.309 211.324 305.563 211.697 305.744 212.126C305.93 212.555 306.018 213.01 306.018 213.491V231.087ZM302.495 220.541V213.497H291.237V220.541H302.495Z" fill="url(#paint11_linear_1507_1884)"/>
<path d="M332.781 231.087C332.781 231.568 332.688 232.023 332.507 232.452C332.321 232.881 332.072 233.259 331.752 233.574C331.431 233.895 331.058 234.149 330.629 234.33C330.2 234.511 329.744 234.604 329.263 234.604H316.939C316.458 234.604 316.003 234.511 315.568 234.33C315.139 234.143 314.766 233.895 314.446 233.574C314.125 233.254 313.871 232.881 313.69 232.452C313.509 232.023 313.416 231.568 313.416 231.087V213.491C313.416 213.01 313.509 212.555 313.69 212.126C313.876 211.697 314.125 211.324 314.446 211.009C314.766 210.693 315.139 210.44 315.568 210.254C315.998 210.068 316.453 209.969 316.939 209.969H329.263C329.744 209.969 330.2 210.062 330.629 210.254C331.058 210.44 331.431 210.693 331.752 211.009C332.072 211.324 332.326 211.697 332.507 212.126C332.693 212.555 332.781 213.01 332.781 213.491V231.087ZM316.939 213.497V231.092H329.263V213.497H316.939Z" fill="url(#paint12_linear_1507_1884)"/>
<path d="M345.803 209.974V234.609H342.28V213.491H338.053V209.969H345.803V209.974Z" fill="url(#paint13_linear_1507_1884)"/>
<path d="M356.72 213.497V216.678H353.197V213.497C353.197 213.016 353.285 212.561 353.471 212.131C353.657 211.702 353.905 211.33 354.226 211.014C354.547 210.699 354.919 210.445 355.349 210.259C355.778 210.073 356.233 209.975 356.715 209.975H367.869C368.35 209.975 368.806 210.068 369.235 210.259C369.664 210.445 370.037 210.699 370.353 211.014C370.668 211.33 370.922 211.702 371.108 212.131C371.299 212.561 371.392 213.016 371.392 213.497V218.002C371.392 218.483 371.346 218.912 371.258 219.289C371.165 219.667 371.02 220.008 370.818 220.314C370.616 220.619 370.363 220.888 370.052 221.131C369.742 221.369 369.364 221.601 368.919 221.819L356.715 227.539V231.092H368.314V227.932H371.837V234.614H353.191V228.139C353.191 227.658 353.243 227.229 353.336 226.851C353.435 226.473 353.579 226.132 353.771 225.837C353.967 225.537 354.221 225.268 354.536 225.02C354.852 224.772 355.219 224.549 355.644 224.343L367.864 218.607V213.502H356.72V213.497Z" fill="url(#paint14_linear_1507_1884)"/>
<path d="M400.693 227.156H404.143V228.459C404.143 229.39 404.35 230.068 404.759 230.502C405.173 230.937 405.851 231.154 406.787 231.154H413.885C414.822 231.154 415.5 230.937 415.914 230.502C416.328 230.068 416.529 229.385 416.529 228.459V226.551C416.529 225.615 416.322 224.932 415.914 224.508C415.5 224.084 414.822 223.872 413.885 223.872H406.596V220.438H413.782C414.641 220.401 415.257 220.169 415.629 219.739C416.002 219.31 416.188 218.648 416.188 217.753V216.14C416.188 215.198 415.981 214.516 415.562 214.076C415.143 213.641 414.47 213.424 413.544 213.424H407.134C406.208 213.424 405.535 213.641 405.121 214.076C404.713 214.51 404.506 215.198 404.506 216.14V217.443H401.05V215.964C401.05 211.966 403.047 209.969 407.03 209.969H413.648C415.676 209.969 417.181 210.461 418.159 211.448C419.142 212.436 419.628 213.941 419.628 215.969V216.414C419.628 217.8 419.385 218.943 418.894 219.843C418.407 220.743 417.699 221.41 416.772 221.844C417.818 222.155 418.609 222.77 419.163 223.701C419.711 224.627 419.985 225.858 419.985 227.394V228.63C419.985 232.618 417.994 234.609 414.005 234.609H406.684C402.684 234.609 400.688 232.618 400.688 228.63V227.156H400.693Z" fill="url(#paint15_linear_1507_1884)"/>
<path d="M423.865 226.127L436.018 209.975H440.162V226.127H443.479V229.509H440.162V234.614H436.639V229.509H423.87V226.127H423.865ZM436.634 226.127V214.236L427.699 226.127H436.634Z" fill="url(#paint16_linear_1507_1884)"/>
<path d="M465.926 228.635C465.89 230.637 465.388 232.137 464.416 233.125C463.438 234.118 461.948 234.609 459.945 234.609H453.328C449.334 234.609 447.332 232.618 447.332 228.63V227.151H450.788V228.454C450.788 229.385 450.995 230.063 451.409 230.497C451.818 230.932 452.495 231.149 453.437 231.149H459.832C460.768 231.149 461.446 230.932 461.86 230.497C462.274 230.063 462.481 229.38 462.481 228.454V225.139C462.481 224.213 462.274 223.53 461.86 223.101C461.446 222.672 460.773 222.46 459.832 222.46H448.041V209.969H465.295V213.491H451.564V219.025H459.951C461.968 219.025 463.469 219.517 464.457 220.494C465.44 221.472 465.937 222.977 465.937 225.004V228.635H465.926Z" fill="url(#paint17_linear_1507_1884)"/>
<path d="M472.26 213.497C472.26 213.016 472.353 212.561 472.534 212.131C472.72 211.702 472.969 211.33 473.289 211.014C473.61 210.699 473.983 210.445 474.417 210.259C474.847 210.073 475.302 209.975 475.788 209.975H487.046C487.527 209.975 487.983 210.068 488.412 210.259C488.841 210.445 489.219 210.699 489.54 211.014C489.861 211.33 490.114 211.702 490.295 212.131C490.482 212.561 490.57 213.016 490.57 213.497V216.678H487.046V213.497H475.788V220.541H487.046C487.527 220.541 487.983 220.634 488.412 220.815C488.841 221.001 489.219 221.25 489.54 221.57C489.861 221.891 490.114 222.269 490.295 222.698C490.482 223.127 490.57 223.582 490.57 224.063V231.092C490.57 231.573 490.482 232.028 490.295 232.458C490.109 232.887 489.861 233.264 489.54 233.58C489.224 233.901 488.847 234.154 488.412 234.335C487.983 234.516 487.527 234.609 487.046 234.609H475.788C475.307 234.609 474.852 234.516 474.417 234.335C473.988 234.149 473.615 233.901 473.289 233.58C472.969 233.259 472.715 232.887 472.534 232.458C472.353 232.028 472.26 231.573 472.26 231.092V213.497ZM475.783 224.063V231.092H487.041V224.063H475.783Z" fill="url(#paint18_linear_1507_1884)"/>
<path d="M60.5805 252.546V264.1H58.9301V254.196H56.9434V252.546H60.5805Z" fill="white"/>
<path d="M65.7031 254.196V255.685H64.0527V254.196C64.0527 253.973 64.0941 253.756 64.1821 253.56C64.2649 253.358 64.3838 253.182 64.539 253.032C64.6891 252.887 64.865 252.768 65.0668 252.675C65.2685 252.587 65.4806 252.546 65.7031 252.546H70.9338C71.1563 252.546 71.3735 252.587 71.5753 252.675C71.7771 252.768 71.953 252.887 72.0979 253.032C72.2479 253.182 72.3669 253.353 72.4548 253.56C72.5428 253.761 72.5893 253.973 72.5893 254.196V256.306C72.5893 256.534 72.5687 256.735 72.5221 256.911C72.4808 257.092 72.4134 257.247 72.3203 257.392C72.2272 257.537 72.103 257.661 71.9633 257.775C71.8185 257.889 71.6426 257.997 71.4304 258.095L65.7083 260.78V262.45H71.151V260.966H72.8015V264.1H64.0579V261.064C64.0579 260.842 64.0787 260.64 64.1252 260.459C64.1718 260.283 64.239 260.123 64.3321 259.983C64.4253 259.844 64.5442 259.714 64.6891 259.601C64.8391 259.487 65.0099 259.378 65.2065 259.28L70.939 256.59V254.196H65.7031Z" fill="white"/>
<path d="M75.4355 260.599H77.055V261.214C77.055 261.649 77.1532 261.969 77.3446 262.171C77.5412 262.378 77.8569 262.476 78.2966 262.476H81.6233C82.063 262.476 82.3839 262.378 82.5753 262.171C82.7719 261.969 82.865 261.649 82.865 261.214V260.32C82.865 259.88 82.7667 259.559 82.5753 259.363C82.3839 259.161 82.063 259.063 81.6233 259.063H78.2087V257.449H81.5768C81.9803 257.433 82.27 257.325 82.4459 257.123C82.6167 256.921 82.7098 256.611 82.7098 256.192V255.437C82.7098 254.997 82.6115 254.677 82.4149 254.47C82.2183 254.263 81.9028 254.165 81.4682 254.165H78.4622C78.0276 254.165 77.712 254.263 77.5206 254.47C77.324 254.672 77.2308 254.997 77.2308 255.437V256.053H75.6115V255.354C75.6115 253.482 76.5479 252.546 78.4156 252.546H81.5198C82.4718 252.546 83.1755 252.779 83.6359 253.239C84.0964 253.699 84.3239 254.408 84.3239 255.354V255.566C84.3239 256.218 84.2102 256.756 83.9825 257.175C83.7497 257.594 83.4186 257.909 82.984 258.111C83.4755 258.256 83.848 258.545 84.1067 258.98C84.3602 259.414 84.4947 259.994 84.4947 260.713V261.292C84.4947 263.164 83.5583 264.095 81.6906 264.095H78.2552C76.3823 264.095 75.4407 263.164 75.4407 261.292V260.599H75.4355Z" fill="white"/>
<path d="M86.304 260.118L92.0003 252.546H93.9404V260.118H95.4977V261.706H93.9404V264.1H92.29V261.706H86.2988V260.118H86.304ZM92.29 260.118V254.542L88.0941 260.118H92.29Z" fill="white"/>
<path d="M446.867 294.413C446.867 294.635 446.826 294.852 446.738 295.054C446.65 295.256 446.531 295.432 446.381 295.582C446.231 295.732 446.055 295.851 445.853 295.933C445.652 296.021 445.44 296.063 445.212 296.063H439.433C439.205 296.063 438.993 296.021 438.791 295.933C438.59 295.851 438.414 295.732 438.264 295.582C438.114 295.432 437.995 295.256 437.907 295.054C437.824 294.852 437.777 294.64 437.777 294.413V286.163C437.777 285.941 437.819 285.724 437.907 285.522C437.989 285.32 438.108 285.144 438.264 285C438.414 284.85 438.59 284.731 438.791 284.643C438.993 284.555 439.205 284.508 439.433 284.508H445.212C445.44 284.508 445.652 284.555 445.853 284.643C446.055 284.731 446.231 284.85 446.381 285C446.531 285.144 446.65 285.32 446.738 285.522C446.821 285.724 446.867 285.936 446.867 286.163V294.413ZM439.438 286.163V294.413H445.217V286.163H439.438Z" fill="white"/>
<path d="M450.328 286.163C450.328 285.941 450.37 285.724 450.457 285.522C450.54 285.32 450.659 285.144 450.809 285C450.959 284.85 451.135 284.731 451.337 284.643C451.539 284.555 451.751 284.508 451.979 284.508H457.256C457.483 284.508 457.695 284.555 457.897 284.643C458.099 284.731 458.275 284.85 458.425 285C458.575 285.144 458.694 285.32 458.782 285.522C458.865 285.724 458.911 285.936 458.911 286.163V287.653H457.261V286.163H451.984V289.463H457.261C457.488 289.463 457.701 289.51 457.902 289.592C458.104 289.675 458.28 289.794 458.43 289.949C458.58 290.099 458.699 290.275 458.787 290.477C458.87 290.679 458.916 290.891 458.916 291.118V294.413C458.916 294.635 458.875 294.852 458.787 295.054C458.699 295.256 458.58 295.432 458.43 295.582C458.28 295.732 458.104 295.851 457.902 295.933C457.701 296.021 457.488 296.063 457.261 296.063H451.984C451.761 296.063 451.544 296.021 451.342 295.933C451.14 295.851 450.964 295.732 450.814 295.582C450.664 295.432 450.545 295.256 450.463 295.054C450.375 294.852 450.333 294.64 450.333 294.413V286.163H450.328ZM451.984 291.118V294.413H457.261V291.118H451.984Z" fill="white"/>
<path d="M461.561 296.891L465.937 283.697H467.536L463.076 296.891H461.561Z" fill="white"/>
<path d="M469.508 292.572H471.127V293.182C471.127 293.616 471.226 293.937 471.417 294.144C471.614 294.345 471.929 294.449 472.369 294.449H475.696C476.135 294.449 476.456 294.345 476.648 294.144C476.844 293.942 476.937 293.616 476.937 293.182V292.287C476.937 291.847 476.839 291.527 476.648 291.325C476.456 291.128 476.135 291.025 475.696 291.025H472.281V289.417H475.649C476.053 289.396 476.342 289.287 476.518 289.091C476.689 288.889 476.782 288.579 476.782 288.16V287.399C476.782 286.96 476.684 286.639 476.487 286.432C476.291 286.231 475.975 286.127 475.54 286.127H472.534C472.1 286.127 471.784 286.231 471.593 286.432C471.396 286.634 471.303 286.96 471.303 287.399V288.015H469.684V287.322C469.684 285.45 470.62 284.508 472.488 284.508H475.592C476.544 284.508 477.248 284.741 477.708 285.201C478.169 285.662 478.396 286.37 478.396 287.322V287.534C478.396 288.186 478.282 288.718 478.055 289.142C477.822 289.567 477.491 289.877 477.056 290.084C477.548 290.229 477.92 290.518 478.179 290.953C478.432 291.392 478.567 291.966 478.567 292.685V293.265C478.567 295.132 477.631 296.068 475.763 296.068H472.328C470.455 296.068 469.513 295.132 469.513 293.265V292.572H469.508Z" fill="white"/>
<path d="M490.616 294.413C490.616 294.635 490.57 294.852 490.487 295.054C490.404 295.256 490.285 295.432 490.13 295.582C489.98 295.732 489.804 295.851 489.602 295.933C489.401 296.021 489.188 296.063 488.961 296.063H483.182C482.959 296.063 482.742 296.021 482.54 295.933C482.338 295.851 482.163 295.732 482.012 295.582C481.862 295.432 481.743 295.256 481.661 295.054C481.573 294.852 481.531 294.64 481.531 294.413V286.163C481.531 285.941 481.573 285.724 481.661 285.522C481.743 285.32 481.862 285.144 482.012 285C482.163 284.85 482.338 284.731 482.54 284.643C482.742 284.555 482.954 284.508 483.182 284.508H488.961C489.183 284.508 489.401 284.555 489.602 284.643C489.804 284.731 489.98 284.85 490.13 285C490.28 285.144 490.399 285.32 490.487 285.522C490.57 285.724 490.616 285.936 490.616 286.163V294.413ZM483.182 286.163V294.413H488.961V286.163H483.182Z" fill="white"/>
<path d="M390.837 287.663L387.924 280.112H389.083L391.437 286.329L393.791 280.112H394.945L392.032 287.663H390.837Z" fill="white"/>
<path d="M399.146 280.112L402.059 287.663H400.978L400.311 285.926H396.901L396.234 287.663H395.152L398.065 280.112H399.146ZM397.31 284.845H399.892L398.608 281.514L397.31 284.845Z" fill="white"/>
<path d="M404.76 280.112V286.588H408.645V287.663H403.684V280.112H404.76Z" fill="white"/>
<path d="M411.341 280.112V287.663H410.26V280.112H411.341Z" fill="white"/>
<path d="M413.602 287.663V280.112H417.44C417.844 280.112 418.211 280.174 418.532 280.298C418.858 280.423 419.132 280.604 419.365 280.831C419.598 281.059 419.774 281.338 419.898 281.664C420.022 281.99 420.084 282.352 420.084 282.755V285.021C420.084 285.424 420.022 285.781 419.898 286.112C419.774 286.438 419.598 286.717 419.365 286.95C419.132 287.177 418.858 287.358 418.532 287.482C418.206 287.607 417.844 287.669 417.44 287.669H413.602V287.663ZM417.446 286.582C417.947 286.582 418.335 286.448 418.604 286.174C418.874 285.905 419.008 285.517 419.008 285.015V282.75C419.008 282.502 418.977 282.285 418.905 282.093C418.832 281.897 418.734 281.736 418.594 281.597C418.46 281.462 418.294 281.359 418.103 281.291C417.906 281.219 417.689 281.183 417.446 281.183H414.688V286.577H417.446V286.582Z" fill="white"/>
<path d="M388.896 293.053H394.939V294.134H392.461V300.609H391.38V294.134H388.902V293.053H388.896Z" fill="white"/>
<path d="M403.046 293.053V300.604H401.965V297.371H397.64V300.604H396.559V293.053H397.64V296.29H401.965V293.053H403.046Z" fill="white"/>
<path d="M411.279 295.753C411.279 296.803 410.829 297.408 409.929 297.552L411.351 300.604H410.156L408.754 297.589H406.39V300.604H405.309V293.053H409.442C410.669 293.053 411.279 293.668 411.279 294.889V295.753ZM406.39 296.508H409.385C409.675 296.508 409.882 296.446 410.006 296.322C410.136 296.192 410.193 295.985 410.193 295.701V294.946C410.193 294.661 410.13 294.449 410.006 294.325C409.877 294.196 409.67 294.134 409.385 294.134H406.39V296.508Z" fill="white"/>
<path d="M413.404 293.053H414.486V299.528H418.8V293.053H419.877V299.528C419.877 299.673 419.851 299.813 419.794 299.947C419.737 300.076 419.665 300.195 419.561 300.288C419.463 300.387 419.349 300.464 419.22 300.521C419.085 300.578 418.945 300.604 418.8 300.604H414.486C414.336 300.604 414.196 300.578 414.067 300.521C413.937 300.464 413.818 300.387 413.72 300.288C413.622 300.19 413.549 300.076 413.487 299.947C413.43 299.813 413.404 299.673 413.404 299.528V293.053Z" fill="white"/>
<path d="M425.189 285.305V294.817L431.098 290.063L425.189 285.305Z" fill="white"/>
<path d="M58.2324 287.643C58.2324 287.374 58.2842 287.121 58.3825 286.883C58.486 286.645 58.6257 286.438 58.8068 286.262C58.9878 286.086 59.1948 285.942 59.4379 285.838C59.6759 285.729 59.9346 285.678 60.2036 285.678H67.6744C67.9435 285.678 68.197 285.735 68.435 285.838C68.6729 285.942 68.885 286.086 69.0661 286.262C69.2472 286.438 69.3869 286.645 69.4904 286.883C69.5939 287.121 69.6456 287.379 69.6456 287.643V289.422H67.6744V287.643H60.2036V297.475H67.6744V295.706H69.6456V297.475C69.6456 297.744 69.5939 297.998 69.4904 298.235C69.3869 298.473 69.2472 298.685 69.0661 298.866C68.885 299.047 68.6781 299.187 68.435 299.291C68.197 299.394 67.9383 299.446 67.6744 299.446H60.2036C59.9346 299.446 59.6759 299.394 59.4379 299.291C59.1999 299.187 58.9878 299.047 58.8068 298.866C58.6257 298.685 58.486 298.479 58.3825 298.235C58.2842 297.998 58.2324 297.739 58.2324 297.475V287.643Z" fill="white"/>
<path d="M79.4767 285.678L84.7901 299.446H82.8189L81.598 296.275H75.3843L74.1633 299.446H72.1973L77.5055 285.678H79.4767ZM76.1345 294.31H80.8425L78.4988 288.243L76.1345 294.31Z" fill="white"/>
<path d="M98.6225 290.597C98.6225 292.515 97.7999 293.612 96.165 293.881L98.757 299.451H96.5789L94.023 293.948H89.7134V299.451H87.7422V285.683H95.2803C97.5102 285.683 98.6225 286.8 98.6225 289.035V290.597ZM89.7082 291.978H95.1717C95.6994 291.978 96.0719 291.864 96.3047 291.631C96.5375 291.398 96.6513 291.026 96.6513 290.498V289.128C96.6513 288.6 96.5375 288.228 96.3047 287.995C96.0719 287.762 95.6994 287.649 95.1717 287.649H89.7082V291.978Z" fill="white"/>
<path d="M102.494 299.446V285.678H109.494C110.234 285.678 110.896 285.792 111.486 286.019C112.081 286.242 112.588 286.567 113.007 286.986C113.426 287.405 113.747 287.912 113.975 288.507C114.202 289.102 114.316 289.764 114.316 290.493V294.62C114.316 295.349 114.202 296.011 113.975 296.606C113.747 297.201 113.426 297.708 113.007 298.127C112.588 298.546 112.081 298.872 111.486 299.099C110.891 299.322 110.229 299.441 109.494 299.441H102.494V299.446ZM109.499 297.475C110.415 297.475 111.119 297.227 111.615 296.736C112.107 296.244 112.355 295.541 112.355 294.625V290.498C112.355 290.053 112.293 289.65 112.164 289.298C112.034 288.946 111.848 288.646 111.6 288.398C111.352 288.15 111.052 287.969 110.7 287.84C110.348 287.71 109.949 287.643 109.499 287.643H104.465V297.475H109.499Z" fill="white"/>
<path d="M129.882 285.678V299.446H127.91V293.55H120.026V299.446H118.055V285.678H120.026V291.584H127.91V285.678H129.882Z" fill="white"/>
<path d="M145.808 297.475C145.808 297.744 145.757 297.998 145.658 298.235C145.555 298.473 145.415 298.685 145.234 298.866C145.053 299.047 144.846 299.187 144.603 299.291C144.365 299.394 144.106 299.446 143.837 299.446H135.973C135.704 299.446 135.445 299.394 135.207 299.291C134.969 299.187 134.757 299.047 134.576 298.866C134.395 298.685 134.255 298.479 134.152 298.235C134.054 297.998 134.002 297.739 134.002 297.475V287.643C134.002 287.374 134.054 287.121 134.152 286.883C134.255 286.645 134.395 286.438 134.576 286.262C134.757 286.086 134.964 285.942 135.207 285.838C135.445 285.729 135.704 285.678 135.973 285.678H143.837C144.106 285.678 144.365 285.735 144.603 285.838C144.841 285.942 145.053 286.086 145.234 286.262C145.415 286.438 145.555 286.645 145.658 286.883C145.757 287.121 145.808 287.379 145.808 287.643V297.475ZM135.973 287.643V297.475H143.837V287.643H135.973Z" fill="white"/>
<path d="M151.903 285.678V297.48H158.98V299.451H149.932V285.683H151.903V285.678Z" fill="white"/>
<path d="M161.928 299.446V285.678H168.928C169.668 285.678 170.33 285.792 170.92 286.019C171.515 286.242 172.022 286.567 172.441 286.986C172.86 287.405 173.181 287.912 173.408 288.507C173.636 289.102 173.75 289.764 173.75 290.493V294.62C173.75 295.349 173.636 296.011 173.408 296.606C173.181 297.201 172.86 297.708 172.441 298.127C172.022 298.546 171.515 298.872 170.92 299.099C170.325 299.322 169.662 299.441 168.928 299.441H161.928V299.446ZM168.928 297.475C169.844 297.475 170.547 297.227 171.044 296.736C171.535 296.244 171.784 295.541 171.784 294.625V290.498C171.784 290.053 171.722 289.65 171.592 289.298C171.463 288.946 171.277 288.646 171.028 288.398C170.78 288.15 170.48 287.969 170.128 287.84C169.776 287.71 169.378 287.643 168.928 287.643H163.894V297.475H168.928Z" fill="white"/>
<path d="M177.492 285.678H187.529V287.648H179.463V291.584H186.35V293.555H179.463V297.48H187.529V299.451H177.492V285.678Z" fill="white"/>
<path d="M201.947 290.597C201.947 292.515 201.129 293.612 199.489 293.881L202.086 299.451H199.903L197.347 293.948H193.038V299.451H191.066V285.683H198.605C200.834 285.683 201.947 286.8 201.947 289.035V290.597ZM193.038 291.978H198.506C199.029 291.978 199.406 291.864 199.639 291.631C199.867 291.398 199.981 291.026 199.981 290.498V289.128C199.981 288.6 199.867 288.228 199.639 287.995C199.406 287.762 199.029 287.649 198.506 287.649H193.038V291.978Z" fill="white"/>
<path d="M214.278 299.446H212.307V285.678H214.278L222.556 296.353V285.678H224.527V299.446H222.556L214.278 288.771V299.446Z" fill="white"/>
<path d="M234.749 285.678L240.063 299.446H238.092L236.871 296.275H230.657L229.436 299.446H227.465L232.778 285.678H234.749ZM231.407 294.31H236.115L233.772 288.243L231.407 294.31Z" fill="white"/>
<path d="M250.12 299.446L244.983 289.355V299.446H243.012V285.678H245.164L250.41 296.048L255.661 285.678H257.803V299.446H255.842V289.355L250.705 299.446H250.12Z" fill="white"/>
<path d="M261.938 285.678H271.975V287.648H263.909V291.584H270.795V293.555H263.909V297.48H271.975V299.451H261.938V285.678Z" fill="white"/>
<path d="M62.0488 49.8946C62.0488 49.5377 62.1212 49.2015 62.2505 48.8809C62.3851 48.5654 62.5765 48.2861 62.8145 48.0533C63.0525 47.8206 63.3318 47.6344 63.6474 47.4948C63.9682 47.3499 64.3045 47.2827 64.6614 47.2827H74.5692C74.9262 47.2827 75.2624 47.3499 75.5832 47.4948C75.904 47.6344 76.1834 47.8206 76.4162 48.0533C76.6542 48.2861 76.8404 48.5654 76.9749 48.8809C77.1094 49.2015 77.1767 49.5377 77.1767 49.8946V52.2479H74.564V49.8946H64.6563V62.9282H74.564V60.5852H77.1767V62.9282C77.1767 63.285 77.1094 63.6264 76.9749 63.9419C76.8404 64.2625 76.6542 64.5418 76.4162 64.7797C76.1782 65.0176 75.8988 65.2038 75.5832 65.3383C75.2676 65.4728 74.9262 65.54 74.5692 65.54H64.6614C64.3045 65.54 63.9682 65.4728 63.6474 65.3383C63.3318 65.2038 63.0525 65.0176 62.8145 64.7797C62.5765 64.5418 62.3902 64.2625 62.2505 63.9419C62.116 63.6264 62.0488 63.285 62.0488 62.9282V49.8946Z" fill="white"/>
<path d="M90.2245 47.2827L97.2659 65.54H94.6532L93.039 61.3403H84.7973L83.1779 65.54H80.5703L87.6118 47.2827H90.2245ZM85.7906 58.7285H92.0301L88.9207 50.6808L85.7906 58.7285Z" fill="white"/>
<path d="M115.605 53.7995C115.605 56.3441 114.519 57.7975 112.346 58.1543L115.786 65.54H112.894L109.505 58.2475H103.789V65.54H101.176V47.2827H111.171C114.126 47.2827 115.6 48.7671 115.6 51.7255V53.7995H115.605ZM103.789 55.6356H111.037C111.73 55.6356 112.232 55.4804 112.537 55.1753C112.842 54.8701 112.998 54.3684 112.998 53.6702V51.8496C112.998 51.1566 112.848 50.6549 112.537 50.3446C112.232 50.0394 111.73 49.8894 111.037 49.8894H103.789V55.6356Z" fill="white"/>
<path d="M120.744 65.54V47.2827H130.026C131.004 47.2827 131.883 47.4327 132.67 47.7379C133.456 48.0378 134.123 48.4723 134.682 49.0205C135.236 49.5791 135.665 50.2514 135.965 51.0428C136.265 51.8341 136.42 52.7082 136.42 53.6754V59.1474C136.42 60.1146 136.27 60.9938 135.965 61.7851C135.665 62.5764 135.236 63.2437 134.682 63.8022C134.128 64.3608 133.456 64.7849 132.67 65.0849C131.883 65.39 131.004 65.54 130.026 65.54H120.744ZM130.031 62.9282C131.247 62.9282 132.178 62.6023 132.835 61.9455C133.487 61.2938 133.818 60.3576 133.818 59.1422V53.6754C133.818 53.0806 133.735 52.553 133.565 52.0824C133.394 51.6169 133.145 51.2186 132.819 50.8928C132.494 50.567 132.095 50.3135 131.63 50.148C131.164 49.9825 130.631 49.8946 130.036 49.8946H123.362V62.9282H130.031Z" fill="white"/>
<path d="M148.418 47.2827H163.023V49.8946H157.027V65.54H154.414V49.8946H148.418V47.2827Z" fill="white"/>
<path d="M168.151 47.2827L173.464 55.8114L178.783 47.2827H181.815L174.773 58.2992V65.54H172.16V58.2992L165.119 47.2827H168.151Z" fill="white"/>
<path d="M185.457 65.54V47.2827H195.453C198.407 47.2827 199.886 48.7671 199.886 51.7255V54.3219C199.886 57.2854 198.412 58.7647 195.453 58.7647H188.07V65.5349H185.457V65.54ZM188.075 56.1579H195.318C196.011 56.1579 196.513 56.0028 196.824 55.6976C197.129 55.3925 197.284 54.8908 197.284 54.1926V51.8496C197.284 51.1566 197.129 50.6549 196.824 50.3446C196.518 50.0394 196.016 49.8894 195.318 49.8894H188.075V56.1579Z" fill="white"/>
<path d="M204.316 47.2827H217.623V49.8946H206.929V55.1132H216.061V57.7251H206.929V62.9333H217.623V65.5452H204.316V47.2827Z" fill="white"/>
<path d="M137.436 159.05H69.2206C62.6603 159.05 57.3418 153.734 57.3418 147.175V114.23C57.3418 107.671 62.6603 102.354 69.2206 102.354H137.431C143.991 102.354 149.31 107.671 149.31 114.23V147.175C149.315 153.734 143.996 159.05 137.436 159.05Z" fill="url(#paint19_linear_1507_1884)"/>
<path d="M103.329 149.803C97.4046 149.803 92.5879 144.988 92.5879 139.066C92.5879 135.787 94.0778 132.735 96.6181 130.702C94.0726 128.67 92.5879 125.618 92.5879 122.339C92.5879 116.417 97.4046 111.602 103.329 111.602C109.252 111.602 114.069 116.417 114.069 122.339C114.069 125.618 112.579 128.67 110.039 130.702C112.584 132.735 114.069 135.787 114.069 139.066C114.074 144.988 109.252 149.803 103.329 149.803ZM103.329 113.154C98.2634 113.154 94.1452 117.271 94.1452 122.334C94.1452 125.458 95.7231 128.339 98.3772 130.046L99.3913 130.697L98.3772 131.349C95.7283 133.056 94.1452 135.937 94.1452 139.06C94.1452 144.124 98.2634 148.246 103.329 148.246C108.394 148.246 112.512 144.124 112.512 139.06C112.512 135.937 110.934 133.056 108.28 131.349L107.266 130.697L108.28 130.046C110.929 128.339 112.512 125.458 112.512 122.334C112.517 117.276 108.394 113.154 103.329 113.154Z" fill="#070A10"/>
<path d="M94.0201 118.078H57.3438V119.634H94.0201V118.078Z" fill="#070A10"/>
<path d="M149.314 118.078H113.289V119.634H149.314V118.078Z" fill="#070A10"/>
<path d="M94.0201 141.512H57.3438V143.069H94.0201V141.512Z" fill="#070A10"/>
<path d="M149.314 141.512H113.289V143.069H149.314V141.512Z" fill="#070A10"/>
<path d="M76.4596 102.354H74.9023V159.05H76.4596V102.354Z" fill="#070A10"/>
<path d="M126.786 118.854H125.229V142.288H126.786V118.854Z" fill="#070A10"/>
<path d="M135.28 102.354H133.723V118.853H135.28V102.354Z" fill="#070A10"/>
<path d="M135.28 142.288H133.723V159.05H135.28V142.288Z" fill="#070A10"/>
<path d="M51.3458 136.775V122.738L42.623 129.756L51.3458 136.775Z" fill="white"/>
<defs>
<radialGradient id="paint0_radial_1507_1884" cx="0" cy="0" r="1" gradientUnits="userSpaceOnUse" gradientTransform="translate(282.859 170.071) scale(361.776 361.66)">
<stop offset="0.5844" stop-color="#4354B1"/>
<stop offset="0.9503" stop-color="#000603"/>
</radialGradient>
<radialGradient id="paint1_radial_1507_1884" cx="0" cy="0" r="1" gradientUnits="userSpaceOnUse" gradientTransform="translate(229.142 2.10764) scale(354.03 353.916)">
<stop offset="0.4079" stop-color="#336CE8"/>
<stop offset="1" stop-color="#2D1689"/>
</radialGradient>
<linearGradient id="paint2_linear_1507_1884" x1="186.707" y1="-113.575" x2="156.935" y2="316.121" gradientUnits="userSpaceOnUse">
<stop stop-color="white" stop-opacity="0.24"/>
<stop offset="1" stop-color="#141414" stop-opacity="0.17"/>
</linearGradient>
<linearGradient id="paint3_linear_1507_1884" x1="61.379" y1="244.267" x2="61.379" y2="214.178" gradientUnits="userSpaceOnUse">
<stop stop-color="#FFF08A"/>
<stop offset="0.0477" stop-color="#E6CC64"/>
<stop offset="0.099" stop-color="#D1AC42"/>
<stop offset="0.1517" stop-color="#C09328"/>
<stop offset="0.2056" stop-color="#B48116"/>
<stop offset="0.2616" stop-color="#AC760B"/>
<stop offset="0.3227" stop-color="#AA7307"/>
<stop offset="0.3935" stop-color="#AE790D"/>
<stop offset="0.4881" stop-color="#BA891E"/>
<stop offset="0.5957" stop-color="#CEA33A"/>
<stop offset="0.661" stop-color="#DCB64E"/>
<stop offset="0.6843" stop-color="#DFBC55"/>
<stop offset="0.8156" stop-color="#F1D975"/>
<stop offset="0.9255" stop-color="#FBEB89"/>
<stop offset="1" stop-color="#FFF290"/>
</linearGradient>
<linearGradient id="paint4_linear_1507_1884" x1="81.9747" y1="244.267" x2="81.9747" y2="214.178" gradientUnits="userSpaceOnUse">
<stop stop-color="#FFF08A"/>
<stop offset="0.0477" stop-color="#E6CC64"/>
<stop offset="0.099" stop-color="#D1AC42"/>
<stop offset="0.1517" stop-color="#C09328"/>
<stop offset="0.2056" stop-color="#B48116"/>
<stop offset="0.2616" stop-color="#AC760B"/>
<stop offset="0.3227" stop-color="#AA7307"/>
<stop offset="0.3935" stop-color="#AE790D"/>
<stop offset="0.4881" stop-color="#BA891E"/>
<stop offset="0.5957" stop-color="#CEA33A"/>
<stop offset="0.661" stop-color="#DCB64E"/>
<stop offset="0.6843" stop-color="#DFBC55"/>
<stop offset="0.8156" stop-color="#F1D975"/>
<stop offset="0.9255" stop-color="#FBEB89"/>
<stop offset="1" stop-color="#FFF290"/>
</linearGradient>
<linearGradient id="paint5_linear_1507_1884" x1="106.576" y1="244.267" x2="106.576" y2="214.178" gradientUnits="userSpaceOnUse">
<stop stop-color="#FFF08A"/>
<stop offset="0.0477" stop-color="#E6CC64"/>
<stop offset="0.099" stop-color="#D1AC42"/>
<stop offset="0.1517" stop-color="#C09328"/>
<stop offset="0.2056" stop-color="#B48116"/>
<stop offset="0.2616" stop-color="#AC760B"/>
<stop offset="0.3227" stop-color="#AA7307"/>
<stop offset="0.3935" stop-color="#AE790D"/>
<stop offset="0.4881" stop-color="#BA891E"/>
<stop offset="0.5957" stop-color="#CEA33A"/>
<stop offset="0.661" stop-color="#DCB64E"/>
<stop offset="0.6843" stop-color="#DFBC55"/>
<stop offset="0.8156" stop-color="#F1D975"/>
<stop offset="0.9255" stop-color="#FBEB89"/>
<stop offset="1" stop-color="#FFF290"/>
</linearGradient>
<linearGradient id="paint6_linear_1507_1884" x1="129.904" y1="244.267" x2="129.904" y2="214.178" gradientUnits="userSpaceOnUse">
<stop stop-color="#FFF08A"/>
<stop offset="0.0477" stop-color="#E6CC64"/>
<stop offset="0.099" stop-color="#D1AC42"/>
<stop offset="0.1517" stop-color="#C09328"/>
<stop offset="0.2056" stop-color="#B48116"/>
<stop offset="0.2616" stop-color="#AC760B"/>
<stop offset="0.3227" stop-color="#AA7307"/>
<stop offset="0.3935" stop-color="#AE790D"/>
<stop offset="0.4881" stop-color="#BA891E"/>
<stop offset="0.5957" stop-color="#CEA33A"/>
<stop offset="0.661" stop-color="#DCB64E"/>
<stop offset="0.6843" stop-color="#DFBC55"/>
<stop offset="0.8156" stop-color="#F1D975"/>
<stop offset="0.9255" stop-color="#FBEB89"/>
<stop offset="1" stop-color="#FFF290"/>
</linearGradient>
<linearGradient id="paint7_linear_1507_1884" x1="176.079" y1="244.267" x2="176.079" y2="214.178" gradientUnits="userSpaceOnUse">
<stop stop-color="#FFF08A"/>
<stop offset="0.0477" stop-color="#E6CC64"/>
<stop offset="0.099" stop-color="#D1AC42"/>
<stop offset="0.1517" stop-color="#C09328"/>
<stop offset="0.2056" stop-color="#B48116"/>
<stop offset="0.2616" stop-color="#AC760B"/>
<stop offset="0.3227" stop-color="#AA7307"/>
<stop offset="0.3935" stop-color="#AE790D"/>
<stop offset="0.4881" stop-color="#BA891E"/>
<stop offset="0.5957" stop-color="#CEA33A"/>
<stop offset="0.661" stop-color="#DCB64E"/>
<stop offset="0.6843" stop-color="#DFBC55"/>
<stop offset="0.8156" stop-color="#F1D975"/>
<stop offset="0.9255" stop-color="#FBEB89"/>
<stop offset="1" stop-color="#FFF290"/>
</linearGradient>
<linearGradient id="paint8_linear_1507_1884" x1="200.862" y1="244.267" x2="200.862" y2="214.178" gradientUnits="userSpaceOnUse">
<stop stop-color="#FFF08A"/>
<stop offset="0.0477" stop-color="#E6CC64"/>
<stop offset="0.099" stop-color="#D1AC42"/>
<stop offset="0.1517" stop-color="#C09328"/>
<stop offset="0.2056" stop-color="#B48116"/>
<stop offset="0.2616" stop-color="#AC760B"/>
<stop offset="0.3227" stop-color="#AA7307"/>
<stop offset="0.3935" stop-color="#AE790D"/>
<stop offset="0.4881" stop-color="#BA891E"/>
<stop offset="0.5957" stop-color="#CEA33A"/>
<stop offset="0.661" stop-color="#DCB64E"/>
<stop offset="0.6843" stop-color="#DFBC55"/>
<stop offset="0.8156" stop-color="#F1D975"/>
<stop offset="0.9255" stop-color="#FBEB89"/>
<stop offset="1" stop-color="#FFF290"/>
</linearGradient>
<linearGradient id="paint9_linear_1507_1884" x1="225.163" y1="244.267" x2="225.163" y2="214.178" gradientUnits="userSpaceOnUse">
<stop stop-color="#FFF08A"/>
<stop offset="0.0477" stop-color="#E6CC64"/>
<stop offset="0.099" stop-color="#D1AC42"/>
<stop offset="0.1517" stop-color="#C09328"/>
<stop offset="0.2056" stop-color="#B48116"/>
<stop offset="0.2616" stop-color="#AC760B"/>
<stop offset="0.3227" stop-color="#AA7307"/>
<stop offset="0.3935" stop-color="#AE790D"/>
<stop offset="0.4881" stop-color="#BA891E"/>
<stop offset="0.5957" stop-color="#CEA33A"/>
<stop offset="0.661" stop-color="#DCB64E"/>
<stop offset="0.6843" stop-color="#DFBC55"/>
<stop offset="0.8156" stop-color="#F1D975"/>
<stop offset="0.9255" stop-color="#FBEB89"/>
<stop offset="1" stop-color="#FFF290"/>
</linearGradient>
<linearGradient id="paint10_linear_1507_1884" x1="248.172" y1="244.267" x2="248.172" y2="214.178" gradientUnits="userSpaceOnUse">
<stop stop-color="#FFF08A"/>
<stop offset="0.0477" stop-color="#E6CC64"/>
<stop offset="0.099" stop-color="#D1AC42"/>
<stop offset="0.1517" stop-color="#C09328"/>
<stop offset="0.2056" stop-color="#B48116"/>
<stop offset="0.2616" stop-color="#AC760B"/>
<stop offset="0.3227" stop-color="#AA7307"/>
<stop offset="0.3935" stop-color="#AE790D"/>
<stop offset="0.4881" stop-color="#BA891E"/>
<stop offset="0.5957" stop-color="#CEA33A"/>
<stop offset="0.661" stop-color="#DCB64E"/>
<stop offset="0.6843" stop-color="#DFBC55"/>
<stop offset="0.8156" stop-color="#F1D975"/>
<stop offset="0.9255" stop-color="#FBEB89"/>
<stop offset="1" stop-color="#FFF290"/>
</linearGradient>
<linearGradient id="paint11_linear_1507_1884" x1="296.867" y1="244.267" x2="296.867" y2="214.178" gradientUnits="userSpaceOnUse">
<stop stop-color="#FFF08A"/>
<stop offset="0.0477" stop-color="#E6CC64"/>
<stop offset="0.099" stop-color="#D1AC42"/>
<stop offset="0.1517" stop-color="#C09328"/>
<stop offset="0.2056" stop-color="#B48116"/>
<stop offset="0.2616" stop-color="#AC760B"/>
<stop offset="0.3227" stop-color="#AA7307"/>
<stop offset="0.3935" stop-color="#AE790D"/>
<stop offset="0.4881" stop-color="#BA891E"/>
<stop offset="0.5957" stop-color="#CEA33A"/>
<stop offset="0.661" stop-color="#DCB64E"/>
<stop offset="0.6843" stop-color="#DFBC55"/>
<stop offset="0.8156" stop-color="#F1D975"/>
<stop offset="0.9255" stop-color="#FBEB89"/>
<stop offset="1" stop-color="#FFF290"/>
</linearGradient>
<linearGradient id="paint12_linear_1507_1884" x1="323.099" y1="244.267" x2="323.099" y2="214.178" gradientUnits="userSpaceOnUse">
<stop stop-color="#FFF08A"/>
<stop offset="0.0477" stop-color="#E6CC64"/>
<stop offset="0.099" stop-color="#D1AC42"/>
<stop offset="0.1517" stop-color="#C09328"/>
<stop offset="0.2056" stop-color="#B48116"/>
<stop offset="0.2616" stop-color="#AC760B"/>
<stop offset="0.3227" stop-color="#AA7307"/>
<stop offset="0.3935" stop-color="#AE790D"/>
<stop offset="0.4881" stop-color="#BA891E"/>
<stop offset="0.5957" stop-color="#CEA33A"/>
<stop offset="0.661" stop-color="#DCB64E"/>
<stop offset="0.6843" stop-color="#DFBC55"/>
<stop offset="0.8156" stop-color="#F1D975"/>
<stop offset="0.9255" stop-color="#FBEB89"/>
<stop offset="1" stop-color="#FFF290"/>
</linearGradient>
<linearGradient id="paint13_linear_1507_1884" x1="341.927" y1="244.267" x2="341.927" y2="214.178" gradientUnits="userSpaceOnUse">
<stop stop-color="#FFF08A"/>
<stop offset="0.0477" stop-color="#E6CC64"/>
<stop offset="0.099" stop-color="#D1AC42"/>
<stop offset="0.1517" stop-color="#C09328"/>
<stop offset="0.2056" stop-color="#B48116"/>
<stop offset="0.2616" stop-color="#AC760B"/>
<stop offset="0.3227" stop-color="#AA7307"/>
<stop offset="0.3935" stop-color="#AE790D"/>
<stop offset="0.4881" stop-color="#BA891E"/>
<stop offset="0.5957" stop-color="#CEA33A"/>
<stop offset="0.661" stop-color="#DCB64E"/>
<stop offset="0.6843" stop-color="#DFBC55"/>
<stop offset="0.8156" stop-color="#F1D975"/>
<stop offset="0.9255" stop-color="#FBEB89"/>
<stop offset="1" stop-color="#FFF290"/>
</linearGradient>
<linearGradient id="paint14_linear_1507_1884" x1="362.523" y1="244.267" x2="362.523" y2="214.178" gradientUnits="userSpaceOnUse">
<stop stop-color="#FFF08A"/>
<stop offset="0.0477" stop-color="#E6CC64"/>
<stop offset="0.099" stop-color="#D1AC42"/>
<stop offset="0.1517" stop-color="#C09328"/>
<stop offset="0.2056" stop-color="#B48116"/>
<stop offset="0.2616" stop-color="#AC760B"/>
<stop offset="0.3227" stop-color="#AA7307"/>
<stop offset="0.3935" stop-color="#AE790D"/>
<stop offset="0.4881" stop-color="#BA891E"/>
<stop offset="0.5957" stop-color="#CEA33A"/>
<stop offset="0.661" stop-color="#DCB64E"/>
<stop offset="0.6843" stop-color="#DFBC55"/>
<stop offset="0.8156" stop-color="#F1D975"/>
<stop offset="0.9255" stop-color="#FBEB89"/>
<stop offset="1" stop-color="#FFF290"/>
</linearGradient>
<linearGradient id="paint15_linear_1507_1884" x1="410.341" y1="244.267" x2="410.341" y2="214.178" gradientUnits="userSpaceOnUse">
<stop stop-color="#FFF08A"/>
<stop offset="0.0477" stop-color="#E6CC64"/>
<stop offset="0.099" stop-color="#D1AC42"/>
<stop offset="0.1517" stop-color="#C09328"/>
<stop offset="0.2056" stop-color="#B48116"/>
<stop offset="0.2616" stop-color="#AC760B"/>
<stop offset="0.3227" stop-color="#AA7307"/>
<stop offset="0.3935" stop-color="#AE790D"/>
<stop offset="0.4881" stop-color="#BA891E"/>
<stop offset="0.5957" stop-color="#CEA33A"/>
<stop offset="0.661" stop-color="#DCB64E"/>
<stop offset="0.6843" stop-color="#DFBC55"/>
<stop offset="0.8156" stop-color="#F1D975"/>
<stop offset="0.9255" stop-color="#FBEB89"/>
<stop offset="1" stop-color="#FFF290"/>
</linearGradient>
<linearGradient id="paint16_linear_1507_1884" x1="433.668" y1="244.267" x2="433.668" y2="214.178" gradientUnits="userSpaceOnUse">
<stop stop-color="#FFF08A"/>
<stop offset="0.0477" stop-color="#E6CC64"/>
<stop offset="0.099" stop-color="#D1AC42"/>
<stop offset="0.1517" stop-color="#C09328"/>
<stop offset="0.2056" stop-color="#B48116"/>
<stop offset="0.2616" stop-color="#AC760B"/>
<stop offset="0.3227" stop-color="#AA7307"/>
<stop offset="0.3935" stop-color="#AE790D"/>
<stop offset="0.4881" stop-color="#BA891E"/>
<stop offset="0.5957" stop-color="#CEA33A"/>
<stop offset="0.661" stop-color="#DCB64E"/>
<stop offset="0.6843" stop-color="#DFBC55"/>
<stop offset="0.8156" stop-color="#F1D975"/>
<stop offset="0.9255" stop-color="#FBEB89"/>
<stop offset="1" stop-color="#FFF290"/>
</linearGradient>
<linearGradient id="paint17_linear_1507_1884" x1="456.629" y1="244.267" x2="456.629" y2="214.178" gradientUnits="userSpaceOnUse">
<stop stop-color="#FFF08A"/>
<stop offset="0.0477" stop-color="#E6CC64"/>
<stop offset="0.099" stop-color="#D1AC42"/>
<stop offset="0.1517" stop-color="#C09328"/>
<stop offset="0.2056" stop-color="#B48116"/>
<stop offset="0.2616" stop-color="#AC760B"/>
<stop offset="0.3227" stop-color="#AA7307"/>
<stop offset="0.3935" stop-color="#AE790D"/>
<stop offset="0.4881" stop-color="#BA891E"/>
<stop offset="0.5957" stop-color="#CEA33A"/>
<stop offset="0.661" stop-color="#DCB64E"/>
<stop offset="0.6843" stop-color="#DFBC55"/>
<stop offset="0.8156" stop-color="#F1D975"/>
<stop offset="0.9255" stop-color="#FBEB89"/>
<stop offset="1" stop-color="#FFF290"/>
</linearGradient>
<linearGradient id="paint18_linear_1507_1884" x1="481.41" y1="244.267" x2="481.41" y2="214.178" gradientUnits="userSpaceOnUse">
<stop stop-color="#FFF08A"/>
<stop offset="0.0477" stop-color="#E6CC64"/>
<stop offset="0.099" stop-color="#D1AC42"/>
<stop offset="0.1517" stop-color="#C09328"/>
<stop offset="0.2056" stop-color="#B48116"/>
<stop offset="0.2616" stop-color="#AC760B"/>
<stop offset="0.3227" stop-color="#AA7307"/>
<stop offset="0.3935" stop-color="#AE790D"/>
<stop offset="0.4881" stop-color="#BA891E"/>
<stop offset="0.5957" stop-color="#CEA33A"/>
<stop offset="0.661" stop-color="#DCB64E"/>
<stop offset="0.6843" stop-color="#DFBC55"/>
<stop offset="0.8156" stop-color="#F1D975"/>
<stop offset="0.9255" stop-color="#FBEB89"/>
<stop offset="1" stop-color="#FFF290"/>
</linearGradient>
<linearGradient id="paint19_linear_1507_1884" x1="103.329" y1="159.051" x2="103.329" y2="102.353" gradientUnits="userSpaceOnUse">
<stop stop-color="#FFF08A"/>
<stop offset="0.0477" stop-color="#E6CC64"/>
<stop offset="0.099" stop-color="#D1AC42"/>
<stop offset="0.1517" stop-color="#C09328"/>
<stop offset="0.2056" stop-color="#B48116"/>
<stop offset="0.2616" stop-color="#AC760B"/>
<stop offset="0.3227" stop-color="#AA7307"/>
<stop offset="0.3935" stop-color="#AE790D"/>
<stop offset="0.4881" stop-color="#BA891E"/>
<stop offset="0.5957" stop-color="#CEA33A"/>
<stop offset="0.661" stop-color="#DCB64E"/>
<stop offset="0.6843" stop-color="#DFBC55"/>
<stop offset="0.8156" stop-color="#F1D975"/>
<stop offset="0.9255" stop-color="#FBEB89"/>
<stop offset="1" stop-color="#FFF290"/>
</linearGradient>
</defs>
</svg>
