<svg width="46" height="46" viewBox="0 0 46 46" fill="none" xmlns="http://www.w3.org/2000/svg">
<path d="M30.875 24.75V40.5" stroke="#2BDFFF" stroke-width="4" stroke-linecap="round" stroke-linejoin="round"/>
<path d="M15.125 24.75V40.5" stroke="#2BDFFF" stroke-width="4" stroke-linecap="round" stroke-linejoin="round"/>
<path d="M23 29.125V44" stroke="#2BDFFF" stroke-width="4" stroke-linecap="round" stroke-linejoin="round"/>
<path d="M38.284 31.75C40.2909 30.8708 41.9343 29.3279 42.9385 27.3801C43.9426 25.4323 44.2463 23.1984 43.7985 21.0531C43.3508 18.9079 42.1789 16.9821 40.4795 15.5988C38.7801 14.2156 36.6567 13.4592 34.4658 13.4567H32.0603C31.4552 11.1127 30.3018 8.94624 28.6952 7.13572C27.0886 5.3252 25.0748 3.9225 22.8199 3.04325C20.5649 2.16399 18.1333 1.83335 15.7255 2.07859C13.3177 2.32383 11.0027 3.13791 8.97121 4.45374C6.93971 5.76958 5.24995 7.54948 4.04119 9.64675C2.83244 11.744 2.1393 14.0986 2.01891 16.5164C1.89852 18.9342 2.35433 21.346 3.34877 23.553C4.3432 25.7601 5.84779 27.6991 7.73852 29.2103" stroke="#2BDFFF" stroke-width="4" stroke-linecap="round" stroke-linejoin="round"/>
</svg>
