<svg width="160" height="40" viewBox="0 0 160 40" fill="none" xmlns="http://www.w3.org/2000/svg">
<path d="M31.5737 10.6122C31.4579 9.45204 31.1319 8.34951 30.626 7.32378C28.3039 2.61201 22.2001 -0.57214 15.4198 0.0860821C13.9693 0.225954 11.9886 0.481016 8.86505 2.11286C4.85782 4.20546 3.02942 6.70944 2.09389 9.05162C1.79221 9.80035 1.59108 10.5408 1.45091 11.2621C5.03761 8.13285 10.0108 6.24595 15.3711 6.31725C15.6789 6.32 15.9836 6.33097 16.2853 6.35016L20.1706 6.39953C22.1514 6.42696 23.8884 7.37041 24.8848 8.77462C25.4669 9.59191 25.8021 10.5628 25.7838 11.6022V11.7174C25.7381 14.5368 23.1357 16.8104 20.003 16.7693L16.1238 16.7199C16.0293 16.7172 15.9318 16.7144 15.8373 16.7089H15.8312C7.68574 16.7912 -0.100181 22.0981 1.45091 29.3413C2.31635 33.3757 4.45862 36.1237 5.30273 37.8516C3.42862 36.6558 1.69774 35.0706 0.24112 33.3044C0.152747 34.9499 0.0826587 36.0415 0.0399961 36.1813C-0.0666602 36.8807 0.0399961 37.4292 0.359965 37.8269C0.682982 38.2273 1.13399 38.5427 1.71602 38.7731C2.30111 39.0035 2.95933 39.1763 3.69679 39.2887C4.43119 39.4011 5.18693 39.5191 5.96704 39.6425C6.74106 39.7111 7.25301 39.6699 7.5029 39.5163C7.75582 39.3628 7.92952 39.0693 8.03618 38.636C8.13369 37.2729 8.26777 35.8824 8.43233 34.459C8.59079 33.1124 9.40747 24.5582 15.5631 23.6312C15.9074 23.5791 16.267 23.5517 16.6449 23.549H16.779C19.2717 23.5298 21.7369 23.0114 23.9554 21.9857C28.9012 19.7038 32.0521 15.3404 31.5737 10.6122Z" fill="#5654FF"/>
<path d="M19.2968 13.6977C20.6785 13.6977 21.7986 12.6896 21.7986 11.446C21.7986 10.2024 20.6785 9.19434 19.2968 9.19434C17.915 9.19434 16.7949 10.2024 16.7949 11.446C16.7949 12.6896 17.915 13.6977 19.2968 13.6977Z" fill="#5654FF"/>
<path d="M50.8497 22.5067H44.4961V30.5507H39.3613V10.3735C39.3613 9.07624 40.5071 7.94629 41.9485 7.94629H50.481C55.8016 7.94629 58.5717 10.5051 58.5717 15.2279C58.5686 19.6818 55.8717 22.5067 50.8497 22.5067ZM49.5577 18.4175C52.1449 18.4504 53.4369 17.3534 53.4369 15.1593C53.4369 12.9652 52.218 11.8682 49.8167 11.8682H44.5723V18.4175H49.5577Z" fill="#5654FF"/>
<path d="M64.8082 17.5536H59.8959C60.4871 14.2954 63.0346 12.6992 67.5416 12.6992C72.9354 12.6992 75.6688 14.2954 75.7785 17.5536V23.5379C75.7785 28.3923 72.527 30.5535 67.246 30.8853C62.5562 31.2172 59.3047 29.2562 59.3047 25.3673C59.4144 21.1464 62.8152 20.0137 67.7641 19.5831C69.8698 19.35 70.9394 18.785 70.9394 17.8224C70.8297 16.8241 69.7936 16.3249 67.7641 16.3249C66.0271 16.3222 65.0672 16.7226 64.8082 17.5536ZM71.0156 23.3377V21.7086C69.8698 22.142 68.5411 22.5067 67.0997 22.7728C65.1434 23.1046 64.1438 23.9356 64.1438 25.2329C64.2535 26.6288 65.0672 27.2953 66.6183 27.2953C69.3517 27.2926 71.0156 25.8308 71.0156 23.3377Z" fill="#5654FF"/>
<path d="M80.4364 33.6769C83.1333 33.6769 84.0932 32.4811 83.3192 30.1527L76.6699 12.9648H82.2465L86.1258 25.1666L89.5235 14.5281C89.8191 13.4969 90.5932 12.9648 91.8517 12.9648H95.286L87.5672 33.5425C86.3848 36.4359 85.2024 37.4315 81.1404 37.4315C79.8849 37.4315 79.2205 37.3986 79.0712 37.2971V33.6742H80.4364V33.6769Z" fill="#5654FF"/>
<path d="M110.611 30.5505C108.986 30.4517 108.173 29.7524 108.173 28.3564V19.3141C108.063 17.4847 106.954 16.5879 104.775 16.5879C102.596 16.5879 101.487 17.4847 101.45 19.3141V30.5505H96.4648V20.2136C96.4648 15.1947 99.2714 12.7017 104.851 12.7017C110.431 12.7017 113.161 15.1947 113.125 20.2136V30.5532H110.611V30.5505Z" fill="#5654FF"/>
<path d="M131.854 21.8403C131.854 27.8904 128.861 30.9484 122.953 30.9484C117.044 30.9484 114.088 27.8904 114.088 21.8403C114.088 15.7243 117.044 12.6992 122.953 12.6992C128.861 12.6992 131.854 15.7243 131.854 21.8403ZM119.073 21.8403C119.11 25.2658 120.402 26.9936 122.916 26.9936C125.427 26.9936 126.682 25.1972 126.722 21.7086C126.722 18.2831 125.467 16.5882 122.956 16.5882C120.365 16.5882 119.073 18.3517 119.073 21.8403Z" fill="#5654FF"/>
<path d="M159.073 12.9648L153.642 30.5503H148.544L145.588 17.9509L142.486 30.5503H137.351L131.994 12.9648H136.98L140.082 25.1666L142.888 12.9648H148.096L150.757 25.1666L153.417 14.5939C153.786 13.4969 154.599 12.9648 155.818 12.9648H159.073Z" fill="#5654FF"/>
</svg>
