<svg width="1920" height="42" viewBox="0 0 1920 42" fill="none" xmlns="http://www.w3.org/2000/svg">
<path d="M0 17.5189V86H175V17.5189C160.92 18.0377 150.862 18.7099 133.764 11.2686C98.0603 -4.2705 75.9339 -3.23296 41.2356 11.2686C25.5531 17.8228 7.04023 17.346 0 17.5189Z" fill="white" fill-opacity="0.08"/>
<path d="M175 17.5189V86H349V17.5189C335 18.0377 325 18.7099 308 11.2686C272.5 -4.2705 250.5 -3.23296 216 11.2686C200.407 17.8228 182 17.346 175 17.5189Z" fill="white" fill-opacity="0.08"/>
<path d="M349 17.5189V86H524V17.5189C509.92 18.0377 499.862 18.7099 482.764 11.2686C447.06 -4.2705 424.934 -3.23296 390.236 11.2686C374.553 17.8228 356.04 17.346 349 17.5189Z" fill="white" fill-opacity="0.08"/>
<path d="M524 17.5189V86H699V17.5189C684.92 18.0377 674.862 18.7099 657.764 11.2686C622.06 -4.2705 599.934 -3.23296 565.236 11.2686C549.553 17.8228 531.04 17.346 524 17.5189Z" fill="white" fill-opacity="0.08"/>
<path d="M699 17.5189V86H873V17.5189C859 18.0377 849 18.7099 832 11.2686C796.5 -4.2705 774.5 -3.23296 740 11.2686C724.407 17.8228 706 17.346 699 17.5189Z" fill="white" fill-opacity="0.08"/>
<path d="M873 17.5189V86H1048V17.5189C1033.92 18.0377 1023.86 18.7099 1006.76 11.2686C971.06 -4.2705 948.934 -3.23296 914.236 11.2686C898.553 17.8228 880.04 17.346 873 17.5189Z" fill="white" fill-opacity="0.08"/>
<path d="M1048 17.5189V86H1222V17.5189C1208 18.0377 1198 18.7099 1181 11.2686C1145.5 -4.2705 1123.5 -3.23296 1089 11.2686C1073.41 17.8228 1055 17.346 1048 17.5189Z" fill="white" fill-opacity="0.08"/>
<path d="M1222 17.5189V86H1397V17.5189C1382.92 18.0377 1372.86 18.7099 1355.76 11.2686C1320.06 -4.2705 1297.93 -3.23296 1263.24 11.2686C1247.55 17.8228 1229.04 17.346 1222 17.5189Z" fill="white" fill-opacity="0.08"/>
<path d="M1397 17.5189V86H1572V17.5189C1557.92 18.0377 1547.86 18.7099 1530.76 11.2686C1495.06 -4.2705 1472.93 -3.23296 1438.24 11.2686C1422.55 17.8228 1404.04 17.346 1397 17.5189Z" fill="white" fill-opacity="0.08"/>
<path d="M1572 17.5189V86H1746V17.5189C1732 18.0377 1722 18.7099 1705 11.2686C1669.5 -4.2705 1647.5 -3.23296 1613 11.2686C1597.41 17.8228 1579 17.346 1572 17.5189Z" fill="white" fill-opacity="0.08"/>
<path d="M1746 17.5189V86H1921V17.5189C1906.92 18.0377 1896.86 18.7099 1879.76 11.2686C1844.06 -4.2705 1821.93 -3.23296 1787.24 11.2686C1771.55 17.8228 1753.04 17.346 1746 17.5189Z" fill="white" fill-opacity="0.08"/>
</svg>
