<svg width="379" height="325" viewBox="0 0 379 325" fill="none" xmlns="http://www.w3.org/2000/svg">
<g clip-path="url(#clip0_30_588)">
<path d="M244.359 128.947H239.933V64.4335C239.933 59.3246 244.089 55.1685 249.198 55.1685H270.782V59.5944H249.198C246.53 59.5944 244.359 61.7652 244.359 64.4335V128.947Z" fill="#9DBFAD"/>
<path d="M222.059 128.947H217.633V95.0019C217.633 92.3337 215.461 90.1628 212.793 90.1628H198.587C193.477 90.1628 189.321 86.0067 189.321 80.8978V64.9771H193.747V80.8978C193.747 83.5661 195.918 85.7369 198.587 85.7369H212.793C217.902 85.7369 222.059 89.8931 222.059 95.0019V128.947Z" fill="#9DBFAD"/>
<path d="M308.44 148.923H259.219V153.349H308.44V148.923Z" fill="#9DBFAD"/>
<path d="M301.054 219.485H296.628V208.509C296.628 205.841 294.457 203.67 291.788 203.67H263.363C258.254 203.67 254.097 199.514 254.097 194.405V176.954H258.524V194.409C258.524 197.077 260.695 199.248 263.363 199.248H291.788C296.898 199.248 301.054 203.404 301.054 208.513V219.485Z" fill="#9DBFAD"/>
<path d="M202.511 247.213H198.085V222.023C198.085 216.914 202.241 212.758 207.351 212.758H219.175C221.844 212.758 224.015 210.587 224.015 207.919V159.022H228.441V207.923C228.441 213.032 224.285 217.188 219.175 217.188H207.351C204.682 217.188 202.511 219.359 202.511 222.027V247.213Z" fill="#9DBFAD"/>
<path d="M83.3545 316.881C117.09 316.881 144.438 312.884 144.438 307.954C144.438 303.023 117.09 299.026 83.3545 299.026C49.619 299.026 22.271 303.023 22.271 307.954C22.271 312.884 49.619 316.881 83.3545 316.881Z" fill="#9BB0C5"/>
<path d="M28.8938 172.524C28.8938 172.524 18.9661 89.8932 71.1042 83.1321C137.571 74.512 125.502 171.988 125.502 171.988L28.8938 172.524Z" fill="#FDDBBB"/>
<path d="M122.644 245.358L121.379 274.852L116.409 299.005C116.409 299.005 127.315 292.809 131.429 301.302C137.225 313.265 108.754 305.138 108.754 305.138L113.627 273.6L111.941 254.72C111.941 254.72 87.5746 261.882 50.3259 257.549L49.6725 275.876L43.6189 303.895C43.6189 303.895 50.5957 293.943 58.2807 302.605C68.5961 314.23 36.7771 307.001 36.7771 307.001L40.8873 275.303L36.541 249.548C36.5494 249.544 68.8111 240.207 122.644 245.358Z" fill="#1C1C1C"/>
<path d="M58.4618 169.931L89.56 208.762L118.255 168.84L126.914 168.768L122.639 245.358C122.639 245.358 114.647 248.191 97.3714 249.881C90.1501 250.716 79.0885 251.057 79.0885 251.057C67.8077 251.192 52.5178 250.817 36.5451 249.544L26.3813 171.006L58.4618 169.931Z" fill="#242424"/>
<path d="M118.255 168.84L89.5601 208.762L58.4619 169.932L118.255 168.84Z" fill="#F5F5F5"/>
<path d="M118.255 168.84L118.913 185.722L109.403 187.808L110.937 200.643L89.5601 208.762L118.255 168.84Z" fill="#484848"/>
<path d="M89.5601 208.762L68.6003 198.962L69.1947 189.6L59.1069 186.118L58.4619 169.932L89.5601 208.762Z" fill="#484848"/>
<path d="M97.5991 177.443L94.3784 172.785L86.2551 172.621L83.3547 178.337L86.6766 182.118L82.5327 200.024L89.5601 208.762L97.186 198.157L93.881 182.19L97.5991 177.443Z" fill="#1C1C1C"/>
<path d="M87.1613 215.582C87.4985 217.057 88.9655 217.976 90.441 217.639C91.9164 217.302 92.8354 215.835 92.4982 214.36C92.1609 212.884 90.6897 211.965 89.2185 212.303C87.7472 212.64 86.824 214.111 87.1613 215.582Z" fill="#484848"/>
<path d="M86.9084 228.101C87.2457 229.576 88.7169 230.495 90.1881 230.158C91.6636 229.821 92.5826 228.354 92.2453 226.879C91.9123 225.403 90.441 224.484 88.9656 224.822C87.4902 225.159 86.5669 226.63 86.9084 228.101Z" fill="#484848"/>
<path d="M133.461 59.2022C133.461 59.2022 149.568 121.022 51.1729 107.719L49.0862 127.758C49.0862 127.758 40.7014 118.169 38.5431 127.695C36.0559 138.667 46.6369 135.535 46.6369 135.535C46.6369 135.535 37.2447 159.427 27.4435 168.903C26.8955 169.43 0.54401 67.62 38.5431 79.726C38.5431 79.726 40.5075 59.2149 68.3935 55.594C107.354 50.5358 108.838 86.9846 133.461 59.2022Z" fill="#333333"/>
<path d="M107.109 129.023C107.206 133.326 108.736 135.649 110.557 135.607C112.379 135.565 113.799 133.175 113.702 128.871C113.605 124.567 112.075 122.245 110.254 122.287C108.433 122.329 107.008 124.719 107.109 129.023Z" fill="#333333"/>
<path d="M64.6292 130.654C64.7262 134.958 66.2564 137.28 68.0775 137.238C69.8986 137.196 71.3193 134.806 71.2223 130.502C71.1254 126.198 69.5951 123.876 67.774 123.918C65.9529 123.964 64.5322 126.354 64.6292 130.654Z" fill="#333333"/>
<path d="M105.474 147.173C105.668 155.722 98.8975 162.812 90.3483 163.01C81.7991 163.204 74.7086 156.434 74.5146 147.886L105.474 147.173Z" fill="#EB7D86"/>
<path d="M204.333 195.016C204.333 195.016 207.064 194.755 207.018 193.663C206.925 192.689 205.981 192.331 205.163 192.297C205.989 192.259 207.069 191.981 207.073 190.775C207.077 189.178 205.062 188.866 204.345 188.803V188.786C205.02 188.765 206.824 188.575 206.807 187.23C206.79 185.894 204.957 185.747 204.24 185.738C205.016 185.705 207.035 185.477 206.951 183.854C206.887 182.64 204.139 182.965 204.139 182.965C198.848 183.344 191.193 188.133 186.695 190.017L191.64 200.643C197.917 197.419 200.201 195.463 204.333 195.016Z" fill="#FDDCBE"/>
<path d="M187.955 188.862L191.146 187.382L196.542 199.514L193.452 200.825L187.955 188.862Z" fill="#F5F5F5"/>
<path d="M122.167 182.644C140.855 212.674 153.847 221.188 194.641 201.073L189.114 187.677C175.351 195.362 148.32 213.571 126.918 168.768L122.167 182.644Z" fill="#242424"/>
<path d="M184.393 204.302C184.949 203.944 185.105 203.211 184.751 202.658C184.393 202.102 183.655 201.942 183.103 202.296C182.546 202.65 182.386 203.388 182.74 203.944C183.103 204.496 183.84 204.661 184.393 204.302Z" fill="#484848"/>
<path d="M188.241 202.683C188.798 202.325 188.958 201.587 188.604 201.035C188.246 200.483 187.508 200.319 186.956 200.677C186.403 201.031 186.239 201.769 186.593 202.325C186.952 202.877 187.689 203.037 188.241 202.683Z" fill="#484848"/>
<path d="M191.994 201.128C192.55 200.77 192.71 200.036 192.352 199.48C191.998 198.928 191.26 198.763 190.704 199.122C190.152 199.48 189.987 200.213 190.341 200.77C190.7 201.322 191.437 201.482 191.994 201.128Z" fill="#484848"/>
<path d="M207.018 193.659C206.925 192.685 205.981 192.327 205.163 192.293C205.989 192.255 207.068 191.977 207.072 190.772C207.077 189.174 205.062 188.862 204.345 188.799V188.782C205.019 188.761 206.824 188.571 206.807 187.227C206.79 185.89 204.956 185.743 204.24 185.734C205.015 185.701 207.035 185.473 206.95 183.85C206.887 182.636 204.138 182.961 204.138 182.961C200.399 183.231 195.484 185.696 191.327 187.787L191.146 187.378L189.338 188.217L189.114 187.673C185.535 189.671 181.054 192.382 176.012 194.51L196.997 197.743C199.729 196.243 201.647 195.303 204.337 195.012C204.332 195.016 207.064 194.755 207.018 193.659Z" fill="#D1D3D4"/>
<path d="M16.7063 251.542C16.7063 251.542 18.2324 253.822 19.1725 253.261C19.9861 252.718 19.8512 251.714 19.4928 250.981C19.438 250.871 19.3832 250.77 19.3242 250.673C19.3832 250.766 19.4422 250.871 19.4928 250.981C19.9186 251.689 20.6774 252.507 21.7397 251.938C23.1477 251.183 22.4648 249.261 22.1781 248.604L22.1908 248.595C22.5323 249.181 23.5524 250.677 24.7286 250.02C25.8963 249.371 25.1543 247.685 24.8213 247.052C25.2176 247.718 26.3811 249.388 27.768 248.545C28.805 247.912 27.2157 245.649 27.2157 245.649C24.3702 241.176 21.8662 236.729 19.8132 232.308L9.37549 237.652C12.6215 245.236 15.9518 250.42 16.7063 251.542Z" fill="#FDDCBE"/>
<path d="M21.0316 234.111L22.3806 236.666L10.4084 242.896L9.22803 240.438L21.0316 234.111Z" fill="#F5F5F5"/>
<path d="M26.381 171.006C26.381 171.006 -18.7297 197.696 9.02979 241.636L22.2582 235.224C22.2582 235.224 -5.19773 196.912 39.7739 176.625L26.381 171.006Z" fill="#242424"/>
<path d="M5.94422 230.39C6.31941 230.929 7.06134 231.064 7.60094 230.689C8.14474 230.31 8.27543 229.568 7.90024 229.028C7.52506 228.484 6.78312 228.354 6.23931 228.729C5.70393 229.108 5.56904 229.85 5.94422 230.39Z" fill="#484848"/>
<path d="M7.70594 234.175C8.08112 234.714 8.82728 234.849 9.36687 234.474C9.90646 234.094 10.0414 233.353 9.66196 232.813C9.28677 232.274 8.54062 232.139 8.00103 232.514C7.46565 232.893 7.33075 233.635 7.70594 234.175Z" fill="#484848"/>
<path d="M9.40473 237.863C9.77992 238.403 10.5261 238.537 11.0657 238.162C11.6053 237.787 11.7402 237.045 11.3608 236.502C10.9856 235.962 10.2394 235.827 9.69982 236.202C9.16023 236.577 9.02533 237.324 9.40473 237.863Z" fill="#484848"/>
<path d="M269.809 173.164C241.56 172.013 213.312 170.863 185.059 169.712C185.059 152.699 185.059 135.687 185.059 118.674C185.059 116.841 186.648 115.184 188.604 114.978C214.488 112.288 240.376 109.603 266.259 106.914C268.219 106.707 269.805 108.368 269.805 110.623C269.809 131.467 269.809 152.316 269.809 173.164Z" fill="#404040"/>
<path d="M269.809 173.164C241.56 172.013 213.307 170.863 185.059 169.712C173.243 175.976 161.427 181.603 149.61 186.594C177.859 189.266 206.112 191.934 234.36 194.607C246.176 188.094 257.992 180.945 269.809 173.164Z" fill="#606061"/>
<path d="M186.008 173.409C184.6 173.337 183.187 173.265 181.779 173.194C183.006 172.562 184.237 171.921 185.464 171.276C186.872 171.339 188.284 171.402 189.692 171.466C188.465 172.119 187.234 172.768 186.008 173.409Z" fill="#404040"/>
<path d="M191.753 173.699C190.345 173.628 188.933 173.556 187.525 173.484C188.752 172.839 189.983 172.19 191.209 171.533C192.617 171.596 194.03 171.659 195.438 171.722C194.211 172.388 192.98 173.046 191.753 173.699Z" fill="#404040"/>
<path d="M197.499 173.986C196.091 173.915 194.679 173.843 193.271 173.771C194.498 173.118 195.729 172.456 196.955 171.79C198.363 171.853 199.776 171.917 201.184 171.98C199.953 172.658 198.726 173.324 197.499 173.986Z" fill="#404040"/>
<path d="M203.245 174.277C201.837 174.206 200.425 174.134 199.017 174.062C200.243 173.396 201.474 172.726 202.701 172.047C204.109 172.111 205.521 172.174 206.929 172.237C205.698 172.924 204.472 173.607 203.245 174.277Z" fill="#404040"/>
<path d="M208.991 174.568C207.583 174.496 206.171 174.424 204.763 174.353C205.989 173.678 207.22 172.995 208.447 172.304C209.855 172.367 211.267 172.431 212.675 172.494C211.444 173.194 210.218 173.885 208.991 174.568Z" fill="#404040"/>
<path d="M214.737 174.858C213.329 174.787 211.916 174.715 210.508 174.644C211.735 173.956 212.966 173.265 214.193 172.565C215.605 172.629 217.013 172.692 218.421 172.755C217.19 173.463 215.963 174.163 214.737 174.858Z" fill="#404040"/>
<path d="M220.483 175.145C219.075 175.073 217.662 175.002 216.254 174.93C217.481 174.235 218.712 173.531 219.939 172.818C221.347 172.882 222.759 172.945 224.167 173.008C222.936 173.729 221.709 174.441 220.483 175.145Z" fill="#404040"/>
<path d="M226.228 175.436C224.82 175.365 223.408 175.293 222 175.221C223.227 174.513 224.458 173.801 225.684 173.076C227.092 173.139 228.505 173.202 229.913 173.265C228.682 173.999 227.455 174.72 226.228 175.436Z" fill="#404040"/>
<path d="M231.974 175.727C230.566 175.655 229.154 175.584 227.746 175.512C228.972 174.795 230.203 174.066 231.43 173.337C232.838 173.4 234.25 173.463 235.658 173.527C234.427 174.268 233.201 175.002 231.974 175.727Z" fill="#404040"/>
<path d="M237.72 176.018C236.312 175.946 234.9 175.875 233.492 175.803C234.718 175.074 235.949 174.336 237.176 173.594C238.584 173.657 239.996 173.721 241.404 173.784C240.173 174.534 238.947 175.28 237.72 176.018Z" fill="#404040"/>
<path d="M243.465 176.309C242.058 176.237 240.645 176.165 239.237 176.094C240.464 175.352 241.695 174.606 242.922 173.855C244.33 173.919 245.742 173.982 247.15 174.045C245.919 174.804 244.692 175.558 243.465 176.309Z" fill="#404040"/>
<path d="M249.212 176.595C247.804 176.524 246.391 176.452 244.983 176.38C246.21 175.63 247.441 174.871 248.668 174.108C250.076 174.172 251.488 174.235 252.896 174.298C251.665 175.074 250.438 175.837 249.212 176.595Z" fill="#404040"/>
<path d="M254.957 176.886C253.549 176.815 252.137 176.743 250.729 176.671C251.956 175.908 253.187 175.141 254.413 174.366C255.821 174.429 257.234 174.492 258.642 174.555C257.411 175.339 256.184 176.119 254.957 176.886Z" fill="#404040"/>
<path d="M260.543 177.168C259.135 177.097 257.722 177.025 256.314 176.953C257.541 176.182 258.772 175.402 259.999 174.618C261.407 174.681 262.819 174.745 264.227 174.808C262.996 175.6 261.769 176.389 260.543 177.168Z" fill="#404040"/>
<path d="M181.004 175.98C179.596 175.9 178.183 175.815 176.775 175.735C178.002 175.12 179.233 174.5 180.46 173.872C181.868 173.948 183.28 174.02 184.688 174.095C183.457 174.732 182.23 175.36 181.004 175.98Z" fill="#404040"/>
<path d="M186.749 176.317C185.341 176.237 183.929 176.153 182.521 176.073C183.748 175.449 184.979 174.816 186.205 174.176C187.613 174.252 189.026 174.323 190.434 174.399C189.203 175.044 187.976 175.681 186.749 176.317Z" fill="#404040"/>
<path d="M192.495 176.65C191.087 176.57 189.675 176.486 188.267 176.406C189.494 175.769 190.725 175.129 191.951 174.479C193.359 174.555 194.772 174.627 196.18 174.703C194.949 175.356 193.722 176.005 192.495 176.65Z" fill="#404040"/>
<path d="M198.241 176.983C196.833 176.903 195.421 176.819 194.013 176.739C195.239 176.094 196.47 175.441 197.697 174.779C199.105 174.855 200.517 174.926 201.925 175.002C200.694 175.668 199.468 176.33 198.241 176.983Z" fill="#404040"/>
<path d="M203.987 177.316C202.579 177.236 201.167 177.152 199.759 177.071C200.986 176.414 202.216 175.752 203.443 175.078C204.851 175.154 206.263 175.225 207.671 175.301C206.44 175.98 205.214 176.65 203.987 177.316Z" fill="#404040"/>
<path d="M209.733 177.649C208.32 177.569 206.912 177.485 205.504 177.405C206.731 176.739 207.962 176.064 209.189 175.381C210.597 175.457 212.009 175.529 213.417 175.605C212.186 176.292 210.959 176.975 209.733 177.649Z" fill="#404040"/>
<path d="M215.479 177.982C214.066 177.902 212.658 177.818 211.246 177.738C212.473 177.059 213.704 176.372 214.931 175.681C216.343 175.757 217.751 175.828 219.163 175.904C217.932 176.604 216.705 177.295 215.479 177.982Z" fill="#404040"/>
<path d="M221.22 178.315C219.808 178.235 218.4 178.151 216.992 178.07C218.218 177.379 219.449 176.684 220.676 175.984C222.084 176.06 223.496 176.131 224.904 176.207C223.678 176.915 222.451 177.619 221.22 178.315Z" fill="#404040"/>
<path d="M226.966 178.648C225.558 178.568 224.146 178.484 222.738 178.403C223.965 177.704 225.195 176.996 226.422 176.283C227.83 176.359 229.242 176.431 230.65 176.507C229.424 177.227 228.197 177.944 226.966 178.648Z" fill="#404040"/>
<path d="M232.712 178.985C231.304 178.905 229.891 178.821 228.483 178.741C229.71 178.029 230.941 177.312 232.168 176.587C233.576 176.663 234.988 176.734 236.396 176.81C235.169 177.54 233.943 178.265 232.712 178.985Z" fill="#404040"/>
<path d="M238.458 179.319C237.05 179.238 235.637 179.154 234.229 179.074C235.456 178.353 236.687 177.624 237.914 176.891C239.322 176.966 240.734 177.038 242.142 177.114C240.915 177.852 239.689 178.589 238.458 179.319Z" fill="#404040"/>
<path d="M244.203 179.651C242.791 179.571 241.383 179.487 239.971 179.407C241.197 178.673 242.428 177.936 243.655 177.189C245.067 177.265 246.475 177.337 247.883 177.413C246.661 178.163 245.434 178.909 244.203 179.651Z" fill="#404040"/>
<path d="M249.949 179.984C248.541 179.904 247.129 179.82 245.721 179.74C246.947 178.998 248.178 178.248 249.405 177.489C250.813 177.565 252.225 177.636 253.633 177.712C252.407 178.475 251.176 179.234 249.949 179.984Z" fill="#404040"/>
<path d="M255.535 180.309C254.127 180.229 252.715 180.145 251.307 180.065C252.533 179.31 253.764 178.551 254.991 177.784C256.399 177.86 257.811 177.932 259.219 178.008C257.993 178.779 256.766 179.546 255.535 180.309Z" fill="#404040"/>
<path d="M175.996 178.48C174.588 178.387 173.176 178.294 171.768 178.201C172.994 177.607 174.225 177.004 175.452 176.393C176.86 176.477 178.272 176.562 179.68 176.646C178.453 177.266 177.227 177.877 175.996 178.48Z" fill="#404040"/>
<path d="M181.741 178.855C180.333 178.762 178.921 178.669 177.513 178.577C178.74 177.97 179.971 177.358 181.198 176.739C182.606 176.823 184.018 176.907 185.426 176.992C184.199 177.62 182.972 178.244 181.741 178.855Z" fill="#404040"/>
<path d="M187.487 179.234C186.079 179.141 184.667 179.049 183.259 178.956C184.486 178.341 185.716 177.717 186.943 177.084C188.351 177.169 189.763 177.253 191.171 177.337C189.945 177.978 188.718 178.61 187.487 179.234Z" fill="#404040"/>
<path d="M193.233 179.609C191.825 179.517 190.413 179.424 189.005 179.331C190.232 178.703 191.463 178.066 192.689 177.426C194.097 177.51 195.509 177.594 196.917 177.679C195.691 178.332 194.464 178.977 193.233 179.609Z" fill="#404040"/>
<path d="M198.979 179.988C197.571 179.896 196.158 179.803 194.75 179.71C195.977 179.074 197.208 178.425 198.435 177.775C199.843 177.86 201.255 177.944 202.663 178.028C201.436 178.69 200.21 179.339 198.979 179.988Z" fill="#404040"/>
<path d="M204.725 180.364C203.317 180.271 201.905 180.178 200.497 180.086C201.723 179.437 202.954 178.779 204.181 178.117C205.593 178.201 207.001 178.286 208.409 178.37C207.182 179.045 205.956 179.706 204.725 180.364Z" fill="#404040"/>
<path d="M210.47 180.743C209.062 180.651 207.65 180.558 206.242 180.465C207.469 179.803 208.7 179.137 209.927 178.463C211.335 178.547 212.747 178.632 214.155 178.716C212.928 179.399 211.701 180.073 210.47 180.743Z" fill="#404040"/>
<path d="M216.216 181.118C214.808 181.025 213.396 180.933 211.988 180.84C213.215 180.17 214.445 179.491 215.672 178.808C217.08 178.892 218.492 178.977 219.9 179.061C218.674 179.757 217.443 180.439 216.216 181.118Z" fill="#404040"/>
<path d="M221.962 181.497C220.554 181.405 219.142 181.312 217.734 181.219C218.961 180.536 220.192 179.849 221.418 179.154C222.826 179.238 224.239 179.322 225.647 179.407C224.42 180.111 223.193 180.806 221.962 181.497Z" fill="#404040"/>
<path d="M227.708 181.873C226.3 181.78 224.887 181.687 223.479 181.594C224.706 180.903 225.937 180.203 227.164 179.5C228.572 179.584 229.984 179.668 231.392 179.752C230.165 180.465 228.934 181.173 227.708 181.873Z" fill="#404040"/>
<path d="M233.454 182.252C232.046 182.159 230.633 182.067 229.221 181.974C230.448 181.27 231.679 180.562 232.906 179.845C234.314 179.93 235.726 180.014 237.134 180.098C235.911 180.823 234.68 181.54 233.454 182.252Z" fill="#404040"/>
<path d="M239.199 182.627C237.791 182.534 236.379 182.442 234.971 182.349C236.198 181.637 237.429 180.916 238.656 180.187C240.064 180.271 241.476 180.355 242.884 180.439C241.657 181.177 240.426 181.906 239.199 182.627Z" fill="#404040"/>
<path d="M244.945 183.007C243.537 182.914 242.125 182.821 240.717 182.729C241.944 182.004 243.175 181.274 244.402 180.537C245.81 180.621 247.222 180.705 248.63 180.79C247.403 181.536 246.172 182.273 244.945 183.007Z" fill="#404040"/>
<path d="M250.531 183.373C249.123 183.281 247.711 183.188 246.303 183.095C247.529 182.362 248.76 181.62 249.987 180.87C251.395 180.954 252.807 181.038 254.215 181.123C252.989 181.881 251.762 182.627 250.531 183.373Z" fill="#404040"/>
<path d="M171.409 180.701C170.001 180.6 168.589 180.494 167.181 180.393C168.407 179.816 169.638 179.23 170.865 178.635C172.273 178.728 173.685 178.825 175.093 178.918C173.867 179.52 172.64 180.115 171.409 180.701Z" fill="#404040"/>
<path d="M177.155 181.118C175.747 181.017 174.335 180.912 172.927 180.811C174.153 180.221 175.384 179.626 176.611 179.023C178.019 179.116 179.431 179.213 180.839 179.306C179.613 179.917 178.386 180.52 177.155 181.118Z" fill="#404040"/>
<path d="M234.613 185.291C215.967 183.938 197.318 182.585 178.672 181.228C179.899 180.629 181.13 180.022 182.357 179.407C201.002 180.654 219.652 181.906 238.297 183.154C237.066 183.875 235.84 184.587 234.613 185.291Z" fill="#404040"/>
<path d="M240.359 185.709C238.951 185.608 237.538 185.502 236.13 185.401C237.357 184.693 238.588 183.981 239.815 183.26C241.223 183.352 242.635 183.449 244.043 183.542C242.812 184.271 241.585 184.992 240.359 185.709Z" fill="#404040"/>
<path d="M245.945 186.113C244.537 186.012 243.124 185.907 241.716 185.806C242.943 185.089 244.174 184.364 245.401 183.635C246.809 183.727 248.221 183.824 249.629 183.917C248.402 184.655 247.171 185.388 245.945 186.113Z" fill="#404040"/>
<path d="M204.514 190.826C197.36 190.168 190.202 189.507 183.048 188.849C186.986 186.977 190.927 185.03 194.865 183.015C202.018 183.546 209.176 184.077 216.33 184.608C212.393 186.75 208.456 188.824 204.514 190.826Z" fill="#404040"/>
<path d="M234.36 194.607C206.112 191.934 177.863 189.266 149.61 186.594C149.61 186.948 149.61 187.298 149.61 187.652C149.61 188.815 150.719 189.873 152.089 190.016C179.279 192.841 206.474 195.665 233.664 198.489C234.12 198.535 234.567 198.451 234.954 198.24C246.176 192.141 257.398 185.468 268.62 178.218C269.358 177.742 269.809 176.84 269.809 175.845C269.809 174.951 269.809 174.058 269.809 173.164C257.992 180.945 246.176 188.094 234.36 194.607Z" fill="#404040"/>
<path d="M265.281 166.829C240.051 166.142 214.821 165.455 189.591 164.767C189.591 149.618 189.591 134.464 189.591 119.315C214.821 116.988 240.051 114.661 265.281 112.339C265.281 130.498 265.281 148.665 265.281 166.829Z" fill="#FAFAFA"/>
<path d="M189.591 158.137C189.591 160.346 189.591 162.554 189.591 164.763C214.821 165.45 240.051 166.137 265.281 166.824C265.281 151.093 265.281 135.366 265.281 119.635C240.051 134.641 214.821 147.477 189.591 158.137Z" fill="#FAFAFA"/>
<path d="M325.116 81.6282C338.507 68.2387 338.507 46.5299 325.116 33.1404C311.725 19.7508 290.015 19.7508 276.624 33.1404C263.233 46.5299 263.233 68.2386 276.624 81.6282C290.015 95.0177 311.725 95.0177 325.116 81.6282Z" fill="#9DBFAD"/>
<path d="M322.15 78.6625C333.903 66.9109 333.903 47.8577 322.15 36.106C310.397 24.3544 291.342 24.3544 279.59 36.106C267.837 47.8577 267.837 66.9109 279.59 78.6625C291.342 90.4142 310.397 90.4142 322.15 78.6625Z" fill="#D0E0D8"/>
<path d="M319.804 76.3168C330.261 65.8607 330.261 48.9079 319.804 38.4517C309.347 27.9956 292.393 27.9956 281.936 38.4517C271.479 48.9079 271.479 65.8607 281.936 76.3168C292.393 86.773 309.347 86.773 319.804 76.3168Z" fill="#81BA1D"/>
<path d="M315.645 50.9448C315.451 50.6961 315.155 50.5528 314.839 50.5528H289.951L289.398 48.0785C289.318 47.7159 289.049 47.4251 288.694 47.3197L282.565 45.4945C282.025 45.3344 281.456 45.6421 281.292 46.1816C281.132 46.7212 281.439 47.2902 281.979 47.4504L287.535 49.107L291.831 68.3999C291.936 68.8678 292.349 69.2008 292.83 69.2008H310.198C310.763 69.2008 311.218 68.7413 311.218 68.1807C311.218 67.6159 310.759 67.1606 310.198 67.1606H293.648L293.1 64.699H311.775C312.243 64.699 312.651 64.3828 312.765 63.9276L315.83 51.83C315.906 51.5181 315.838 51.1977 315.645 50.9448ZM312.879 55.1516H308.613L309.022 52.5971H313.528L312.879 55.1516ZM311.872 59.1223H307.976L308.449 56.1716H312.622L311.872 59.1223ZM291.203 56.1716H295.41L295.865 59.1223H291.86L291.203 56.1716ZM296.443 56.1716H301.619V59.1223H296.898L296.443 56.1716ZM301.619 55.1516H296.282L295.886 52.5971H301.619V55.1516ZM302.644 52.5971H307.985L307.576 55.1516H302.639V52.5971H302.644ZM301.619 60.1466V62.6504H297.446L297.058 60.1466H301.619ZM302.644 60.1466H306.779L306.379 62.6504H302.644V60.1466ZM302.644 59.1223V56.1716H307.416L306.944 59.1223H302.644ZM294.853 52.5971L295.25 55.1516H290.975L290.406 52.5971H294.853ZM292.088 60.1466H296.025L296.413 62.6504H292.644L292.088 60.1466ZM307.416 62.6504L307.816 60.1466H311.614L310.978 62.6504H307.416Z" fill="#FAFAFA"/>
<path d="M295.903 70.2207C295.056 70.2207 294.369 70.9078 294.369 71.755C294.369 72.6023 295.056 73.2894 295.903 73.2894C296.75 73.2894 297.438 72.6023 297.438 71.755C297.438 70.9078 296.75 70.2207 295.903 70.2207Z" fill="#FAFAFA"/>
<path d="M308.267 70.2207C307.42 70.2207 306.733 70.9078 306.733 71.755C306.733 72.6023 307.42 73.2894 308.267 73.2894C309.115 73.2894 309.802 72.6023 309.802 71.755C309.802 70.9078 309.115 70.2207 308.267 70.2207Z" fill="#FAFAFA"/>
<path d="M224.855 298.545C238.418 284.983 238.418 262.994 224.855 249.431C211.291 235.869 189.3 235.869 175.737 249.431C162.173 262.994 162.173 284.983 175.737 298.545C189.3 312.108 211.291 312.108 224.855 298.545Z" fill="#9DBFAD"/>
<path d="M221.576 295.267C233.328 283.515 233.328 264.462 221.576 252.71C209.823 240.958 190.768 240.958 179.015 252.71C167.263 264.462 167.263 283.515 179.015 295.267C190.768 307.018 209.823 307.018 221.576 295.267Z" fill="#D0E0D8"/>
<path d="M213.094 297.502C226.08 290.427 230.872 274.166 223.797 261.181C216.722 248.197 200.459 243.405 187.474 250.479C174.488 257.554 169.696 273.815 176.771 286.8C183.846 299.784 200.108 304.576 213.094 297.502Z" fill="#EA4C7F"/>
<path d="M219.357 273.988C219.357 270.523 218.421 267.146 216.646 264.191L216.697 264.196L215.972 263.146C212.405 257.999 206.546 254.931 200.298 254.931C194.051 254.931 188.191 258.004 184.625 263.146L183.912 264.191H183.95C182.175 267.146 181.235 270.518 181.235 273.988C181.235 277.444 182.167 280.808 183.933 283.758L183.879 283.754L184.625 284.829C188.191 289.976 194.051 293.044 200.298 293.044C206.546 293.044 212.405 289.972 215.972 284.829L216.701 283.754L216.659 283.758C218.429 280.808 219.357 277.444 219.357 273.988ZM200.926 284.264V274.611H209.939C209.872 278.043 209.277 281.326 208.202 284.146C205.774 284.222 203.329 284.26 200.926 284.264ZM200.926 273.36V263.707C203.329 263.711 205.774 263.753 208.202 263.821C209.273 266.64 209.872 269.924 209.939 273.355H200.926V273.36ZM207.675 262.552C205.441 262.493 203.173 262.459 200.926 262.455V256.229C203.54 256.545 205.968 258.821 207.675 262.552ZM200.926 285.52C203.152 285.516 205.416 285.482 207.675 285.423C205.968 289.158 203.54 291.43 200.926 291.746V285.52ZM215.107 264.116C216.945 266.864 217.974 270.051 218.088 273.36H211.195C211.132 269.979 210.563 266.716 209.543 263.867C211.571 263.939 213.396 264.019 215.107 264.116ZM209.045 262.594C207.992 260.12 206.634 258.164 205.07 256.836C208.641 257.827 211.807 259.9 214.15 262.8C212.578 262.725 210.9 262.653 209.045 262.594ZM209.045 285.377C210.883 285.318 212.561 285.251 214.15 285.17C211.807 288.071 208.645 290.144 205.07 291.135C206.634 289.811 207.992 287.851 209.045 285.377ZM209.547 284.104C210.567 281.259 211.136 277.992 211.2 274.611H218.092C217.978 277.92 216.95 281.107 215.112 283.855C213.396 283.956 211.571 284.037 209.547 284.104ZM199.674 274.616V284.268C197.271 284.264 194.826 284.222 192.398 284.155C191.327 281.335 190.729 278.051 190.661 274.62H199.674V274.616ZM190.657 273.36C190.725 269.928 191.319 266.645 192.394 263.825C194.826 263.753 197.271 263.715 199.67 263.711V273.364H190.657V273.36ZM192.925 285.423C195.185 285.487 197.448 285.516 199.674 285.52V291.746C197.061 291.43 194.632 289.154 192.925 285.423ZM199.674 262.455C197.427 262.459 195.164 262.493 192.925 262.552C194.632 258.821 197.061 256.545 199.674 256.229V262.455ZM191.555 262.594C189.7 262.653 188.018 262.72 186.45 262.805C188.794 259.905 191.956 257.831 195.53 256.84C193.966 258.164 192.609 260.12 191.555 262.594ZM191.053 263.867C190.033 266.712 189.464 269.979 189.401 273.36H182.508C182.622 270.051 183.651 266.864 185.489 264.116C187.205 264.019 189.03 263.939 191.053 263.867ZM189.405 274.616C189.468 277.996 190.037 281.259 191.058 284.108C189.034 284.041 187.209 283.961 185.493 283.864C183.655 281.115 182.626 277.929 182.513 274.62H189.405V274.616ZM191.555 285.377C192.609 287.851 193.966 289.811 195.53 291.135C191.96 290.144 188.794 288.066 186.45 285.17C188.039 285.251 189.717 285.322 191.555 285.377Z" fill="#FAFAFA"/>
<path d="M322.684 273.422C335.854 260.253 335.854 238.902 322.684 225.733C309.514 212.564 288.161 212.564 274.991 225.733C261.821 238.902 261.821 260.253 274.991 273.422C288.161 286.591 309.514 286.591 322.684 273.422Z" fill="#9DBFAD"/>
<path d="M325.653 263.213C333.193 248.402 327.297 230.284 312.484 222.745C297.671 215.207 279.552 221.102 272.012 235.914C264.473 250.725 270.369 268.843 285.182 276.382C299.994 283.92 318.114 278.025 325.653 263.213Z" fill="#D0E0D8"/>
<path d="M317.771 268.51C328.228 258.054 328.228 241.101 317.771 230.645C307.314 220.188 290.36 220.188 279.903 230.645C269.446 241.101 269.446 258.054 279.903 268.51C290.36 278.966 307.314 278.966 317.771 268.51Z" fill="#FCAE26"/>
<path d="M299.187 265.355L295.6 267.349C295.203 267.572 294.697 267.429 294.478 267.028L290.043 259.062L295.073 256.263L299.507 264.229C299.727 264.634 299.583 265.136 299.187 265.355Z" fill="#FAFAFA"/>
<path d="M283.26 248.848L289.128 245.586L294.562 255.344L288.694 258.607C286.135 260.031 282.906 259.113 281.481 256.55L281.207 256.056C279.778 253.502 280.702 250.273 283.26 248.848Z" fill="#FAFAFA"/>
<path d="M300.654 231.937L300.637 231.945C300.152 232.215 299.979 232.826 300.249 233.311L310.767 252.208C311.037 252.693 311.648 252.865 312.133 252.596L312.149 252.587C312.634 252.317 312.807 251.706 312.537 251.221L302.019 232.325C301.75 231.844 301.138 231.667 300.654 231.937Z" fill="#FAFAFA"/>
<path d="M299.655 234.428C298.301 236.582 294.516 242.184 290.035 245.042L295.414 254.703C300.207 252.406 306.96 252.136 309.506 252.124L299.655 234.428Z" fill="#FAFAFA"/>
<path d="M309.991 240.266C310.552 241.274 310.189 242.543 309.182 243.103L307.15 239.457C308.157 238.896 309.431 239.259 309.991 240.266Z" fill="#FAFAFA"/>
<path d="M310.177 235.098C310.092 235.145 309.995 235.157 309.899 235.132C309.705 235.077 309.591 234.875 309.646 234.677L310.417 231.966C310.472 231.772 310.674 231.659 310.872 231.713C311.066 231.768 311.18 231.971 311.125 232.169L310.354 234.879C310.324 234.976 310.257 235.052 310.177 235.098Z" fill="#FAFAFA"/>
<path d="M315.982 237.353L313.52 238.723C313.343 238.82 313.119 238.757 313.018 238.58C312.921 238.403 312.984 238.18 313.161 238.078L315.623 236.708C315.8 236.612 316.024 236.675 316.125 236.852C316.222 237.033 316.159 237.256 315.982 237.353Z" fill="#FAFAFA"/>
<path d="M316.96 244.081C316.875 244.127 316.778 244.14 316.681 244.114L313.971 243.343C313.777 243.288 313.663 243.086 313.718 242.888C313.773 242.694 313.975 242.58 314.173 242.635L316.884 243.406C317.078 243.461 317.191 243.663 317.137 243.861C317.103 243.958 317.04 244.034 316.96 244.081Z" fill="#FAFAFA"/>
<path d="M191.534 68.2821C209.978 68.2821 224.93 53.3317 224.93 34.8894C224.93 16.447 209.978 1.49658 191.534 1.49658C173.09 1.49658 158.138 16.447 158.138 34.8894C158.138 53.3317 173.09 68.2821 191.534 68.2821Z" fill="#9DBFAD"/>
<path d="M191.534 64.9814C208.155 64.9814 221.629 51.5087 221.629 34.8892C221.629 18.2696 208.155 4.79688 191.534 4.79688C174.913 4.79688 161.439 18.2696 161.439 34.8892C161.439 51.5087 174.913 64.9814 191.534 64.9814Z" fill="#D0E0D8"/>
<path d="M191.534 61.6641C206.323 61.6641 218.311 49.6766 218.311 34.8892C218.311 20.1018 206.323 8.11426 191.534 8.11426C176.745 8.11426 164.757 20.1018 164.757 34.8892C164.757 49.6766 176.745 61.6641 191.534 61.6641Z" fill="#F16100"/>
<path d="M175.578 48.1295H178.571C178.765 48.1295 178.925 47.9693 178.925 47.7754V45.8575C178.925 45.6636 178.765 45.5034 178.571 45.5034H175.578C175.384 45.5034 175.224 45.6636 175.224 45.8575V47.7754C175.224 47.9693 175.384 48.1295 175.578 48.1295Z" fill="#FAFAFA"/>
<path d="M181.109 48.1294H184.102C184.295 48.1294 184.456 47.9692 184.456 47.7753V42.814C184.456 42.6201 184.295 42.46 184.102 42.46H181.109C180.915 42.46 180.754 42.6201 180.754 42.814V47.7753C180.754 47.9692 180.915 48.1294 181.109 48.1294Z" fill="#FAFAFA"/>
<path d="M186.639 48.129H189.632C189.826 48.129 189.986 47.9688 189.986 47.7749V38.3287C189.986 38.1348 189.826 37.9746 189.632 37.9746H186.639C186.445 37.9746 186.285 38.1348 186.285 38.3287V47.7749C186.285 47.9688 186.445 48.129 186.639 48.129Z" fill="#FAFAFA"/>
<path d="M197.701 48.1292H200.694C200.888 48.1292 201.048 47.969 201.048 47.7751V34.982C201.048 34.7881 200.888 34.6279 200.694 34.6279H197.701C197.507 34.6279 197.347 34.7881 197.347 34.982V47.7709C197.347 47.969 197.507 48.1292 197.701 48.1292Z" fill="#FAFAFA"/>
<path d="M191.816 32.1705V47.7751C191.816 47.969 191.976 48.1292 192.17 48.1292H195.163C195.357 48.1292 195.517 47.969 195.517 47.7751V32.1705C195.517 31.9766 195.357 31.8164 195.163 31.8164H192.17C191.976 31.8164 191.816 31.9724 191.816 32.1705Z" fill="#FAFAFA"/>
<path d="M202.878 29.7174V47.7753C202.878 47.9692 203.038 48.1293 203.232 48.1293H206.225C206.419 48.1293 206.579 47.9692 206.579 47.7753V29.7174C206.579 29.5235 206.419 29.3633 206.225 29.3633H203.232C203.038 29.3633 202.878 29.5192 202.878 29.7174Z" fill="#FAFAFA"/>
<path d="M177.074 41.6927C176.813 41.6927 176.556 41.5873 176.366 41.3765C176.016 40.9845 176.05 40.3859 176.438 40.0361L193.157 25.0511C193.515 24.7307 194.055 24.7265 194.417 25.0469L197.292 27.576L204.02 20.6715C204.387 20.2963 204.986 20.2879 205.361 20.6546C205.736 21.0213 205.744 21.6199 205.378 21.9951L198.026 29.5487C197.672 29.9112 197.098 29.9323 196.719 29.5993L193.798 27.028L177.707 41.4524C177.53 41.6126 177.302 41.6927 177.074 41.6927Z" fill="#FAFAFA"/>
<path d="M204.703 25.0807C204.18 25.0807 203.754 24.6549 203.754 24.1323V22.286H201.908C201.385 22.286 200.959 21.8603 200.959 21.3376C200.959 20.8149 201.385 20.3892 201.908 20.3892H204.703C205.226 20.3892 205.651 20.8149 205.651 21.3376V24.1323C205.651 24.6549 205.226 25.0807 204.703 25.0807Z" fill="#FAFAFA"/>
<path d="M372.027 156.624C375.067 138.129 362.537 120.671 344.04 117.631C325.543 114.591 308.084 127.12 305.044 145.615C302.003 164.111 314.533 181.568 333.03 184.609C351.527 187.649 368.986 175.12 372.027 156.624Z" fill="#9DBFAD"/>
<path d="M368.534 153.659C369.921 137.098 357.62 122.547 341.057 121.159C324.494 119.772 309.942 132.072 308.554 148.634C307.167 165.195 319.468 179.746 336.031 181.133C352.594 182.521 367.146 170.22 368.534 153.659Z" fill="#D0E0D8"/>
<path d="M364.809 156.269C367.638 141.755 358.164 127.696 343.649 124.867C329.134 122.038 315.074 131.511 312.245 146.025C309.416 160.538 318.889 174.597 333.404 177.426C347.919 180.255 361.98 170.783 364.809 156.269Z" fill="#524096"/>
<path d="M343.104 162.032H333.961C333.434 162.032 333.008 161.606 333.008 161.079V158.222C327.996 156.038 324.674 151.014 324.674 145.508C324.674 137.866 330.892 131.649 338.535 131.649C346.177 131.649 352.395 137.866 352.395 145.508C352.395 151.009 349.073 156.038 344.061 158.222V161.079C344.057 161.606 343.631 162.032 343.104 162.032ZM334.918 160.123H342.152V157.577C342.152 157.18 342.396 156.826 342.767 156.683C347.383 154.934 350.486 150.44 350.486 145.504C350.486 138.916 345.124 133.554 338.535 133.554C331.946 133.554 326.583 138.916 326.583 145.504C326.583 150.44 329.686 154.934 334.302 156.683C334.673 156.822 334.918 157.18 334.918 157.577V160.123Z" fill="#FAFAFA"/>
<path d="M340.313 148.425C340.06 148.425 339.816 148.324 339.639 148.147L336.654 145.163L333.783 148.029C333.412 148.4 332.805 148.4 332.434 148.029C332.064 147.658 332.064 147.051 332.434 146.68L335.98 143.135C336.351 142.764 336.958 142.764 337.329 143.135L340.313 146.119L343.277 143.156C343.648 142.785 344.255 142.785 344.626 143.156C344.997 143.527 344.997 144.134 344.626 144.505L340.988 148.143C340.811 148.324 340.566 148.425 340.313 148.425Z" fill="#FAFAFA"/>
<path d="M343.104 164.894H333.961C333.434 164.894 333.008 164.468 333.008 163.941C333.008 163.414 333.434 162.989 333.961 162.989H343.104C343.631 162.989 344.057 163.414 344.057 163.941C344.057 164.468 343.631 164.894 343.104 164.894Z" fill="#FAFAFA"/>
<path d="M343.104 167.761H333.961C333.434 167.761 333.008 167.335 333.008 166.808C333.008 166.281 333.434 165.855 333.961 165.855H343.104C343.631 165.855 344.057 166.281 344.057 166.808C344.057 167.331 343.631 167.761 343.104 167.761Z" fill="#FAFAFA"/>
<path d="M340.364 170.623H336.701C336.174 170.623 335.748 170.197 335.748 169.67C335.748 169.143 336.174 168.717 336.701 168.717H340.364C340.891 168.717 341.317 169.143 341.317 169.67C341.317 170.193 340.891 170.623 340.364 170.623Z" fill="#FAFAFA"/>
<path d="M262.878 300.354C262.529 300.354 262.246 300.071 262.246 299.721V293.968C262.246 293.618 262.529 293.335 262.878 293.335C263.228 293.335 263.511 293.618 263.511 293.968V299.726C263.511 300.071 263.228 300.354 262.878 300.354Z" fill="#D0E0D8"/>
<path d="M257.82 302.074C257.66 302.074 257.495 302.01 257.373 301.888L253.301 297.82C253.052 297.572 253.052 297.171 253.301 296.927C253.55 296.678 253.95 296.678 254.194 296.927L258.267 300.994C258.515 301.243 258.515 301.644 258.267 301.888C258.144 302.01 257.98 302.074 257.82 302.074Z" fill="#D0E0D8"/>
<path d="M255.455 306.866H249.696C249.346 306.866 249.064 306.584 249.064 306.234C249.064 305.884 249.346 305.602 249.696 305.602H255.455C255.805 305.602 256.087 305.884 256.087 306.234C256.087 306.584 255.805 306.866 255.455 306.866Z" fill="#D0E0D8"/>
<path d="M253.107 315.996C252.946 315.996 252.782 315.933 252.66 315.811C252.411 315.562 252.411 315.162 252.66 314.917L256.732 310.845C256.981 310.597 257.381 310.597 257.626 310.845C257.87 311.094 257.874 311.494 257.626 311.739L253.553 315.811C253.427 315.937 253.267 315.996 253.107 315.996Z" fill="#D0E0D8"/>
<path d="M261.968 320.047C261.618 320.047 261.335 319.765 261.335 319.415V313.661C261.335 313.311 261.618 313.029 261.968 313.029C262.318 313.029 262.6 313.311 262.6 313.661V319.415C262.6 319.76 262.318 320.047 261.968 320.047Z" fill="#D0E0D8"/>
<path d="M271.099 316.641C270.939 316.641 270.774 316.578 270.652 316.456L266.584 312.384C266.335 312.135 266.335 311.735 266.584 311.49C266.833 311.242 267.233 311.242 267.478 311.49L271.546 315.562C271.794 315.811 271.794 316.211 271.546 316.456C271.423 316.578 271.263 316.641 271.099 316.641Z" fill="#D0E0D8"/>
<path d="M275.15 307.777H269.392C269.042 307.777 268.759 307.494 268.759 307.144C268.759 306.795 269.042 306.512 269.392 306.512H275.15C275.5 306.512 275.782 306.795 275.782 307.144C275.782 307.494 275.5 307.777 275.15 307.777Z" fill="#D0E0D8"/>
<path d="M267.671 302.719C267.511 302.719 267.347 302.655 267.225 302.533C266.976 302.284 266.976 301.884 267.225 301.639L271.293 297.572C271.541 297.323 271.942 297.323 272.186 297.572C272.435 297.82 272.435 298.221 272.186 298.465L268.118 302.533C267.996 302.655 267.836 302.719 267.671 302.719Z" fill="#D0E0D8"/>
<path d="M366.096 15.4319C365.746 15.4319 365.464 15.1495 365.464 14.7996V9.04585C365.464 8.69599 365.746 8.41357 366.096 8.41357C366.446 8.41357 366.729 8.69599 366.729 9.04585V14.8038C366.729 15.1495 366.446 15.4319 366.096 15.4319Z" fill="#D0E0D8"/>
<path d="M361.038 17.1516C360.877 17.1516 360.713 17.0884 360.591 16.9662L356.519 12.8985C356.27 12.6498 356.27 12.2494 356.519 12.0049C356.767 11.7562 357.168 11.7562 357.412 12.0049L361.485 16.0725C361.733 16.3212 361.733 16.7217 361.485 16.9662C361.362 17.0926 361.198 17.1516 361.038 17.1516Z" fill="#D0E0D8"/>
<path d="M358.677 21.9486H352.918C352.569 21.9486 352.286 21.6662 352.286 21.3164C352.286 20.9665 352.569 20.6841 352.918 20.6841H358.677C359.027 20.6841 359.309 20.9665 359.309 21.3164C359.309 21.662 359.027 21.9486 358.677 21.9486Z" fill="#D0E0D8"/>
<path d="M356.325 31.0743C356.165 31.0743 356 31.0111 355.878 30.8888C355.629 30.6401 355.629 30.2397 355.878 29.9952L359.95 25.9233C360.199 25.6746 360.599 25.6746 360.844 25.9233C361.093 26.172 361.093 26.5725 360.844 26.817L356.772 30.8888C356.649 31.0153 356.485 31.0743 356.325 31.0743Z" fill="#D0E0D8"/>
<path d="M365.19 35.1251C364.84 35.1251 364.558 34.8426 364.558 34.4928V28.7348C364.558 28.385 364.84 28.1025 365.19 28.1025C365.54 28.1025 365.822 28.385 365.822 28.7348V34.4886C365.822 34.8426 365.54 35.1251 365.19 35.1251Z" fill="#D0E0D8"/>
<path d="M374.321 31.7193C374.161 31.7193 373.996 31.6561 373.874 31.5339L369.806 27.462C369.557 27.2133 369.557 26.8128 369.806 26.5684C370.055 26.3197 370.455 26.3197 370.7 26.5684L374.768 30.6402C375.017 30.8889 375.017 31.2894 374.768 31.5339C374.641 31.6561 374.481 31.7193 374.321 31.7193Z" fill="#D0E0D8"/>
<path d="M378.368 22.8549H372.614C372.264 22.8549 371.981 22.5725 371.981 22.2226C371.981 21.8728 372.264 21.5903 372.614 21.5903H378.372C378.722 21.5903 379.005 21.8728 379.005 22.2226C379 22.5725 378.718 22.8549 378.368 22.8549Z" fill="#D0E0D8"/>
<path d="M370.894 17.7967C370.733 17.7967 370.569 17.7334 370.447 17.6112C370.198 17.3625 370.198 16.962 370.447 16.7176L374.515 12.6499C374.764 12.4012 375.164 12.4012 375.409 12.6499C375.657 12.8986 375.657 13.299 375.409 13.5435L371.34 17.6112C371.214 17.7334 371.054 17.7967 370.894 17.7967Z" fill="#D0E0D8"/>
<path d="M121.99 19.0611C121.64 19.0611 121.357 18.7787 121.357 18.4288V12.6709C121.357 12.321 121.64 12.0386 121.99 12.0386C122.34 12.0386 122.622 12.321 122.622 12.6709V18.4288C122.622 18.7787 122.34 19.0611 121.99 19.0611Z" fill="#D0E0D8"/>
<path d="M116.927 20.781C116.767 20.781 116.602 20.7178 116.48 20.5956L112.408 16.5279C112.159 16.2792 112.159 15.8788 112.408 15.6343C112.656 15.3856 113.057 15.3856 113.301 15.6343L117.374 19.7019C117.622 19.9506 117.622 20.3511 117.374 20.5956C117.251 20.7178 117.091 20.781 116.927 20.781Z" fill="#D0E0D8"/>
<path d="M114.566 25.5736H108.808C108.458 25.5736 108.175 25.2912 108.175 24.9414C108.175 24.5915 108.458 24.3091 108.808 24.3091H114.566C114.916 24.3091 115.198 24.5915 115.198 24.9414C115.198 25.2912 114.916 25.5736 114.566 25.5736Z" fill="#D0E0D8"/>
<path d="M112.214 34.7037C112.054 34.7037 111.889 34.6405 111.767 34.5182C111.518 34.2695 111.518 33.8691 111.767 33.6246L115.839 29.5527C116.088 29.304 116.489 29.304 116.733 29.5527C116.982 29.8014 116.982 30.2019 116.733 30.4464L112.661 34.5182C112.539 34.6405 112.378 34.7037 112.214 34.7037Z" fill="#D0E0D8"/>
<path d="M121.079 38.7502C120.729 38.7502 120.447 38.4678 120.447 38.118V32.3642C120.447 32.0144 120.729 31.7319 121.079 31.7319C121.429 31.7319 121.711 32.0144 121.711 32.3642V38.118C121.711 38.4678 121.429 38.7502 121.079 38.7502Z" fill="#D0E0D8"/>
<path d="M130.21 35.3442C130.05 35.3442 129.886 35.281 129.763 35.1587L125.695 31.0869C125.447 30.8382 125.447 30.4377 125.695 30.1932C125.944 29.9488 126.345 29.9445 126.589 30.1932L130.657 34.2651C130.906 34.5138 130.906 34.9143 130.657 35.1587C130.535 35.2852 130.37 35.3442 130.21 35.3442Z" fill="#D0E0D8"/>
<path d="M134.257 26.4843H128.499C128.149 26.4843 127.866 26.2019 127.866 25.852C127.866 25.5021 128.149 25.2197 128.499 25.2197H134.257C134.607 25.2197 134.889 25.5021 134.889 25.852C134.889 26.2019 134.607 26.4843 134.257 26.4843Z" fill="#D0E0D8"/>
<path d="M126.783 21.4217C126.623 21.4217 126.458 21.3584 126.336 21.2362C126.087 20.9875 126.087 20.587 126.336 20.3426L130.404 16.2749C130.653 16.0262 131.053 16.0262 131.298 16.2749C131.546 16.5236 131.546 16.924 131.298 17.1685L127.23 21.2362C127.107 21.3626 126.943 21.4217 126.783 21.4217Z" fill="#D0E0D8"/>
<path d="M361.038 96.6292C358.432 96.6292 356.312 94.5089 356.312 91.9039C356.312 89.299 358.432 87.1787 361.038 87.1787C363.643 87.1787 365.763 89.299 365.763 91.9039C365.763 94.5089 363.643 96.6292 361.038 96.6292ZM361.038 88.4475C359.132 88.4475 357.577 89.9987 357.577 91.9082C357.577 93.8134 359.128 95.3688 361.038 95.3688C362.947 95.3688 364.499 93.8176 364.499 91.9082C364.499 89.9987 362.947 88.4475 361.038 88.4475Z" fill="#D0E0D8"/>
<path d="M158.138 240.713C155.533 240.713 153.413 238.593 153.413 235.988C153.413 233.383 155.533 231.263 158.138 231.263C160.743 231.263 162.864 233.383 162.864 235.988C162.864 238.597 160.743 240.713 158.138 240.713ZM158.138 232.531C156.233 232.531 154.677 234.083 154.677 235.992C154.677 237.902 156.229 239.453 158.138 239.453C160.048 239.453 161.599 237.902 161.599 235.992C161.599 234.083 160.048 232.531 158.138 232.531Z" fill="#D0E0D8"/>
<path d="M344.698 293.382C342.093 293.382 339.972 291.261 339.972 288.656C339.972 286.051 342.093 283.931 344.698 283.931C347.303 283.931 349.423 286.051 349.423 288.656C349.423 291.261 347.303 293.382 344.698 293.382ZM344.698 285.196C342.792 285.196 341.237 286.747 341.237 288.656C341.237 290.562 342.788 292.117 344.698 292.117C346.607 292.117 348.159 290.566 348.159 288.656C348.159 286.751 346.607 285.196 344.698 285.196Z" fill="#D0E0D8"/>
<path d="M367.761 226.192C367.761 225.665 368.183 225.243 368.71 225.243C369.228 225.243 369.658 225.665 369.658 226.192C369.658 226.71 369.237 227.14 368.71 227.14C368.187 227.14 367.761 226.719 367.761 226.192ZM362.972 224.771C362.972 224.771 362.972 224.771 362.968 224.771C362.601 224.404 362.601 223.802 362.968 223.431C363.339 223.06 363.942 223.06 364.309 223.431C364.68 223.797 364.68 224.396 364.313 224.771C364.123 224.957 363.883 225.049 363.638 225.049C363.398 225.045 363.158 224.952 362.972 224.771ZM373.098 224.754C372.731 224.388 372.731 223.785 373.098 223.414C373.469 223.047 374.072 223.047 374.439 223.414C374.81 223.785 374.81 224.388 374.439 224.754C374.257 224.944 374.013 225.033 373.768 225.033C373.528 225.037 373.288 224.944 373.098 224.754ZM360.586 219.039C360.586 218.512 361.008 218.09 361.535 218.09C362.062 218.09 362.483 218.512 362.483 219.034C362.483 219.561 362.062 219.987 361.539 219.987C361.016 219.987 360.586 219.565 360.586 219.039ZM374.919 219.022C374.919 219.017 374.919 219.009 374.919 218.996C374.919 218.474 375.337 218.048 375.864 218.048C376.386 218.044 376.812 218.465 376.816 218.992C376.816 218.996 376.816 219.005 376.816 219.013C376.816 219.017 376.816 219.026 376.816 219.026C376.816 219.553 376.395 219.983 375.868 219.983C375.345 219.979 374.919 219.544 374.919 219.022ZM362.947 214.638C362.58 214.271 362.576 213.668 362.947 213.297C363.314 212.926 363.917 212.926 364.288 213.297C364.663 213.664 364.663 214.267 364.288 214.638C364.102 214.823 363.866 214.916 363.617 214.916C363.381 214.92 363.141 214.828 362.947 214.638ZM373.081 214.613C372.715 214.242 372.71 213.639 373.081 213.268C373.448 212.901 374.051 212.897 374.422 213.268C374.789 213.635 374.793 214.237 374.426 214.608C374.236 214.794 373.996 214.887 373.747 214.887C373.511 214.887 373.271 214.798 373.081 214.613ZM367.732 211.864C367.732 211.337 368.153 210.912 368.68 210.912C369.207 210.912 369.629 211.333 369.629 211.86C369.629 212.379 369.207 212.808 368.685 212.808C368.162 212.808 367.732 212.383 367.732 211.864Z" fill="#D0E0D8"/>
<path d="M162.556 324.052C162.556 323.525 162.978 323.103 163.505 323.103C164.023 323.103 164.453 323.525 164.453 324.052C164.453 324.57 164.031 325 163.505 325C162.978 325 162.556 324.574 162.556 324.052ZM157.767 322.627C157.767 322.627 157.767 322.627 157.763 322.627C157.396 322.26 157.396 321.657 157.763 321.286C158.134 320.915 158.737 320.915 159.104 321.286C159.474 321.653 159.474 322.252 159.108 322.627C158.918 322.812 158.678 322.905 158.433 322.905C158.193 322.905 157.953 322.812 157.767 322.627ZM167.893 322.614C167.526 322.247 167.526 321.645 167.893 321.274C168.264 320.907 168.867 320.907 169.234 321.274C169.604 321.645 169.604 322.247 169.234 322.614C169.052 322.804 168.808 322.892 168.563 322.892C168.323 322.892 168.083 322.804 167.893 322.614ZM155.377 316.898C155.377 316.371 155.799 315.95 156.325 315.95C156.852 315.95 157.274 316.371 157.274 316.894C157.274 317.421 156.852 317.847 156.33 317.847C155.807 317.847 155.377 317.425 155.377 316.898ZM169.714 316.882C169.714 316.877 169.714 316.869 169.714 316.856C169.714 316.334 170.131 315.908 170.658 315.908C171.181 315.904 171.607 316.325 171.611 316.852C171.611 316.856 171.611 316.865 171.611 316.873C171.611 316.877 171.611 316.886 171.611 316.886C171.611 317.413 171.19 317.843 170.663 317.843C170.136 317.834 169.714 317.404 169.714 316.882ZM157.742 312.498C157.375 312.131 157.371 311.528 157.742 311.157C158.109 310.786 158.711 310.786 159.082 311.157C159.458 311.524 159.458 312.127 159.082 312.498C158.897 312.683 158.657 312.776 158.412 312.776C158.172 312.776 157.932 312.687 157.742 312.498ZM167.872 312.472C167.505 312.101 167.501 311.499 167.872 311.128C168.239 310.761 168.841 310.757 169.212 311.128C169.579 311.494 169.583 312.097 169.217 312.468C169.027 312.654 168.787 312.746 168.538 312.746C168.302 312.746 168.062 312.658 167.872 312.472ZM162.522 309.724C162.522 309.197 162.944 308.771 163.471 308.771C163.998 308.771 164.419 309.193 164.419 309.72C164.419 310.238 163.998 310.668 163.475 310.668C162.952 310.664 162.522 310.243 162.522 309.724Z" fill="#D0E0D8"/>
<path d="M156.831 120.133C156.831 119.606 157.253 119.185 157.78 119.185C158.298 119.185 158.728 119.606 158.728 120.133C158.728 120.652 158.307 121.082 157.78 121.082C157.253 121.082 156.831 120.66 156.831 120.133ZM152.043 118.713C152.043 118.713 152.043 118.713 152.038 118.713C151.672 118.346 151.672 117.743 152.038 117.372C152.409 117.001 153.012 117.001 153.379 117.372C153.75 117.739 153.75 118.337 153.383 118.713C153.193 118.898 152.953 118.991 152.709 118.991C152.468 118.991 152.228 118.894 152.043 118.713ZM162.168 118.7C161.802 118.333 161.802 117.73 162.168 117.36C162.539 116.993 163.142 116.993 163.509 117.36C163.88 117.73 163.88 118.333 163.509 118.7C163.328 118.89 163.083 118.978 162.839 118.978C162.598 118.978 162.358 118.89 162.168 118.7ZM149.652 112.984C149.652 112.457 150.074 112.036 150.601 112.036C151.128 112.036 151.549 112.457 151.549 112.98C151.549 113.507 151.128 113.933 150.605 113.933C150.082 113.933 149.652 113.507 149.652 112.984ZM163.989 112.963C163.989 112.959 163.989 112.95 163.989 112.938C163.989 112.415 164.407 111.989 164.934 111.989C165.456 111.985 165.882 112.407 165.886 112.934C165.886 112.938 165.886 112.946 165.886 112.955C165.886 112.959 165.886 112.967 165.886 112.967C165.886 113.494 165.465 113.924 164.938 113.924C164.411 113.92 163.989 113.49 163.989 112.963ZM152.017 108.583C151.651 108.217 151.646 107.614 152.017 107.243C152.384 106.872 152.987 106.872 153.358 107.243C153.733 107.61 153.733 108.213 153.358 108.583C153.172 108.769 152.932 108.862 152.688 108.862C152.447 108.862 152.207 108.773 152.017 108.583ZM162.147 108.558C161.781 108.187 161.776 107.584 162.147 107.214C162.514 106.847 163.117 106.843 163.488 107.214C163.855 107.58 163.859 108.183 163.492 108.554C163.302 108.739 163.062 108.832 162.813 108.832C162.577 108.828 162.337 108.739 162.147 108.558ZM156.798 105.806C156.798 105.279 157.219 104.853 157.746 104.853C158.273 104.853 158.695 105.275 158.695 105.801C158.695 106.32 158.273 106.75 157.75 106.75C157.228 106.75 156.798 106.324 156.798 105.806Z" fill="#D0E0D8"/>
<path d="M253.537 15.2801C253.537 14.7532 253.958 14.3317 254.485 14.3317C255.004 14.3317 255.434 14.7532 255.434 15.2801C255.434 15.7986 255.012 16.2285 254.485 16.2285C253.958 16.2285 253.537 15.807 253.537 15.2801ZM248.748 13.8596C248.748 13.8596 248.748 13.8596 248.743 13.8596C248.377 13.4928 248.377 12.8901 248.743 12.5191C249.114 12.1482 249.717 12.1482 250.084 12.5191C250.455 12.8859 250.455 13.4844 250.088 13.8596C249.898 14.045 249.658 14.1378 249.414 14.1378C249.173 14.1378 248.933 14.0408 248.748 13.8596ZM258.873 13.8469C258.507 13.4802 258.507 12.8774 258.873 12.5065C259.244 12.1398 259.847 12.1398 260.214 12.5065C260.585 12.8774 260.585 13.4802 260.214 13.8469C260.033 14.0366 259.788 14.1251 259.544 14.1251C259.303 14.1251 259.063 14.0366 258.873 13.8469ZM246.357 8.13111C246.357 7.60421 246.779 7.18269 247.306 7.18269C247.833 7.18269 248.254 7.60421 248.254 8.1269C248.254 8.6538 247.833 9.07953 247.31 9.07953C246.787 9.07953 246.357 8.6538 246.357 8.13111ZM260.695 8.11004C260.695 8.10582 260.695 8.09739 260.695 8.08475C260.695 7.56206 261.112 7.13633 261.639 7.13633C262.162 7.13211 262.587 7.55363 262.592 8.08053C262.592 8.08475 262.592 8.09317 262.592 8.10161C262.592 8.10582 262.592 8.11425 262.592 8.11425C262.592 8.64115 262.17 9.0711 261.643 9.0711C261.116 9.06689 260.695 8.63694 260.695 8.11004ZM248.722 3.73045C248.356 3.36373 248.351 2.76095 248.722 2.39002C249.089 2.01908 249.692 2.01908 250.063 2.39002C250.438 2.75674 250.438 3.35951 250.063 3.73045C249.877 3.91592 249.637 4.00865 249.393 4.00865C249.152 4.00865 248.912 3.92013 248.722 3.73045ZM258.852 3.70516C258.486 3.33422 258.481 2.73145 258.852 2.36051C259.219 1.99379 259.822 1.98957 260.193 2.36051C260.56 2.72723 260.564 3.33 260.197 3.70094C260.007 3.88641 259.767 3.97914 259.518 3.97914C259.282 3.97493 259.042 3.88641 258.852 3.70516ZM253.503 0.952634C253.503 0.425735 253.924 0 254.451 0C254.978 0 255.4 0.42152 255.4 0.948419C255.4 1.46689 254.978 1.89684 254.455 1.89684C253.933 1.89684 253.503 1.4711 253.503 0.952634Z" fill="#D0E0D8"/>
<path d="M202.604 138.187V138.73C202.604 140.294 202.229 141.31 201.394 141.837C202.402 142.301 202.798 143.443 202.802 145.053V146.292C202.807 148.64 201.829 149.901 199.97 149.888L197.111 149.871L197.09 135.055L199.83 134.869C201.757 134.743 202.6 135.839 202.604 138.187ZM198.903 137.074L198.907 141.028L199.624 141.002C200.311 140.977 200.733 140.572 200.728 139.367V138.528C200.728 137.449 200.442 136.994 199.784 137.032L198.903 137.074ZM198.911 143.16L198.916 147.751L199.965 147.747C200.585 147.742 200.922 147.376 200.922 146.254V144.939C200.922 143.536 200.564 143.114 199.725 143.139L198.911 143.16Z" fill="#5991A1"/>
<path d="M205.774 134.469L205.787 146.393C205.787 147.498 206.179 147.894 206.803 147.89C207.431 147.885 207.827 147.485 207.827 146.368L207.815 134.329L209.712 134.199L209.724 146.191C209.729 148.712 208.704 150.141 206.752 150.128C204.839 150.115 203.856 148.707 203.856 146.258L203.844 134.595L205.774 134.469Z" fill="#5991A1"/>
<path d="M213.898 133.731C215.963 133.588 217.043 135.004 217.043 137.609V138.119L215.015 138.216V137.546C215.015 136.395 214.627 135.978 213.957 136.016C213.291 136.054 212.911 136.513 212.911 137.651C212.916 140.939 217.068 141.42 217.072 146.073C217.076 148.678 215.98 150.162 213.894 150.145C211.849 150.132 210.799 148.678 210.799 146.149V145.175L212.751 145.142V146.284C212.751 147.426 213.168 147.835 213.835 147.831C214.505 147.827 214.931 147.414 214.926 146.259C214.922 142.941 210.85 142.44 210.846 137.917C210.841 135.392 211.87 133.87 213.898 133.731Z" fill="#5991A1"/>
<path d="M218.307 133.613L220.52 133.461L220.533 150.006L218.32 149.993L218.307 133.613Z" fill="#5991A1"/>
<path d="M224.196 137.849L224.205 150.027L222.147 150.015L222.135 133.352L225.014 133.154L227.434 143.199L227.425 132.989L229.558 132.842L229.571 150.052L227.113 150.04L224.196 137.849Z" fill="#5991A1"/>
<path d="M233.795 139.944L237.286 139.813V142.355L233.795 142.448L233.8 147.578L238.209 147.557V150.107L231.321 150.069L231.312 132.728L238.201 132.26V134.81L233.791 135.063L233.795 139.944Z" fill="#5991A1"/>
<path d="M243.419 131.691C246.088 131.505 247.483 133.107 247.483 136.07V136.652L244.861 136.778V136.02C244.861 134.709 244.363 134.241 243.495 134.292C242.635 134.342 242.146 134.865 242.146 136.159C242.146 139.889 247.513 140.412 247.513 145.706C247.513 148.67 246.096 150.356 243.402 150.339C240.768 150.322 239.423 148.674 239.423 145.803V144.703L241.931 144.661V145.955C241.931 147.249 242.471 147.713 243.326 147.709C244.191 147.704 244.739 147.232 244.739 145.921C244.739 142.153 239.49 141.596 239.49 136.471C239.486 133.604 240.806 131.872 243.419 131.691Z" fill="#5991A1"/>
<path d="M253.006 131.029C255.885 130.831 257.39 132.488 257.39 135.573V136.18L254.557 136.315V135.527C254.557 134.165 254.021 133.68 253.086 133.735C252.158 133.79 251.627 134.334 251.627 135.678C251.627 139.556 257.415 140.088 257.415 145.593C257.415 148.674 255.881 150.423 252.976 150.406C250.135 150.39 248.685 148.678 248.685 145.698V144.556L251.391 144.509V145.854C251.391 147.199 251.968 147.679 252.896 147.675C253.832 147.671 254.422 147.178 254.422 145.82C254.422 141.904 248.765 141.335 248.76 136.011C248.76 133.027 250.185 131.227 253.006 131.029Z" fill="#5991A1"/>
</g>
<defs>
<clipPath id="clip0_30_588">
<rect width="379" height="325" fill="white"/>
</clipPath>
</defs>
</svg>
