<svg width="388" height="388" viewBox="0 0 388 388" fill="none" xmlns="http://www.w3.org/2000/svg">
<circle opacity="0.05" cx="194" cy="194" r="191.5" fill="#8C8C8C" stroke="#BABABA" stroke-width="5"/>
<path d="M120.47 72.7505H284.219V293.044C277.44 293.044 131.752 293.044 120.47 293.044C120.47 284.571 120.47 83.453 120.47 72.7505Z" fill="#EDF5FF"/>
<path d="M227.852 108.872V167.736H213.849V117.345V108.872H227.852Z" fill="#00B44B"/>
<path d="M199.445 131.168H185.443V167.289H199.445V131.168Z" fill="#00B44B"/>
<path d="M171.44 114.668V167.735H157.482V123.141V103.52H171.44V114.668Z" fill="#00B44B"/>
<path d="M213.849 117.344V167.735H199.445V131.168V117.344H213.849Z" fill="#B9DD39"/>
<path d="M185.443 131.168V167.735H171.44V114.668H185.443V131.168Z" fill="#B9DD39"/>
<path d="M157.037 123.141H143.034V167.734H157.037V123.141Z" fill="#B9DD39"/>
<path d="M266.202 239.086L254.92 240.869L227.406 245.329L231.91 218.126L233.693 206.978C241.81 207.87 249.48 211.437 255.812 217.681C261.698 223.032 265.31 231.059 266.202 239.086Z" fill="#FF9100"/>
<path d="M231.91 218.124L227.406 245.327L207.562 225.705C214.295 219.016 223.348 216.787 231.91 218.124Z" fill="#FDBF00"/>
<path d="M254.92 240.868C256.258 249.341 253.582 258.26 247.25 264.503C236.414 275.205 218.844 275.205 208.008 264.503C197.171 253.8 197.171 236.409 208.008 225.706L227.852 245.327L254.92 240.868Z" fill="#FFDA2D"/>
<path d="M309.503 98.1675C317.218 98.1675 323.506 104.366 323.506 111.992C323.506 119.617 317.263 125.816 309.503 125.816C301.744 125.816 295.501 119.617 295.501 111.992C295.501 104.366 301.789 98.1675 309.503 98.1675Z" fill="#76E2F8"/>
<path d="M75.3857 284.571C80.1127 284.571 83.9477 288.362 83.9477 293.044C83.9477 297.726 80.1127 301.517 75.3857 301.517C70.6588 301.517 66.8237 297.726 66.8237 293.044C66.8237 288.362 70.6588 284.571 75.3857 284.571Z" fill="#76E2F8"/>
<path d="M261.699 293.043V315.34H97.9502V95.0469H120.47V167.735V293.043H261.699Z" fill="#D5E8FE"/>
<path opacity="0.2" d="M314.007 153.91C316.237 153.91 318.065 155.693 318.065 157.923C318.065 160.153 316.237 161.937 314.007 161.937C311.778 161.937 309.949 160.153 309.949 157.923C309.949 155.693 311.778 153.91 314.007 153.91Z" fill="#54BD95"/>
<path d="M299.559 226.152C301.789 226.152 303.617 227.936 303.617 230.166C303.617 232.395 301.789 234.179 299.559 234.179C297.329 234.179 295.501 232.395 295.501 230.166C295.501 227.936 297.329 226.152 299.559 226.152Z" fill="#41C5E8"/>
<path opacity="0.2" d="M299.559 308.651C301.789 308.651 303.617 310.435 303.617 312.665C303.617 314.895 301.789 316.678 299.559 316.678C297.329 316.678 295.501 314.895 295.501 312.665C295.501 310.435 297.329 308.651 299.559 308.651Z" fill="#54BD95"/>
<path d="M85.2856 192.707C87.5153 192.707 89.3436 194.491 89.3436 196.72C89.3436 198.95 87.5153 200.734 85.2856 200.734C83.0559 200.734 81.2275 198.95 81.2275 196.72C81.2275 194.491 83.0559 192.707 85.2856 192.707Z" fill="#41C5E8"/>
<path opacity="0.2" d="M77.1699 84.3452C79.3995 84.3452 81.2279 86.129 81.2279 88.3587C81.2279 90.5883 79.4441 92.3721 77.1699 92.3721C74.9402 92.3721 73.1118 90.5883 73.1118 88.3587C73.1118 86.129 74.9402 84.3452 77.1699 84.3452Z" fill="#54BD95"/>
<path opacity="0.2" d="M68.6074 243.098C70.837 243.098 72.6654 244.881 72.6654 247.111C72.6654 249.341 70.837 251.125 68.6074 251.125C66.3777 251.125 64.5493 249.341 64.5493 247.111C64.5493 244.881 66.3777 243.098 68.6074 243.098Z" fill="#54BD95"/>
<path d="M284.218 70.0747H120.47C119.132 70.0747 117.75 71.4125 117.75 72.7503V92.3716H97.9502C96.6124 92.3716 95.23 93.7094 95.23 95.0472V315.341C95.23 316.678 96.5678 318.016 97.9502 318.016H261.699C263.036 318.016 264.419 316.678 264.419 315.341V295.719H284.263C285.601 295.719 286.983 294.381 286.983 293.044V72.7503C286.939 71.4125 285.601 70.0747 284.218 70.0747ZM258.978 312.665H101.072V97.7229H118.196V293.044C118.196 294.381 119.534 295.719 120.916 295.719H258.978V312.665ZM281.543 290.368H123.636V170.411H247.696C249.034 170.411 250.416 169.073 250.416 167.735C250.416 166.397 249.079 165.059 247.696 165.059H230.572V108.871C230.572 107.533 229.234 106.196 227.852 106.196H213.849C212.512 106.196 211.129 107.533 211.129 108.871V114.668H199.847C198.509 114.668 197.127 116.006 197.127 117.344V128.493H188.565V114.668C188.565 113.331 187.227 111.993 185.845 111.993H174.562V103.52C174.562 102.182 173.225 100.844 171.842 100.844H157.84C156.502 100.844 155.119 102.182 155.119 103.52V120.466H143.926C142.589 120.466 141.206 121.803 141.206 123.141V165.059H124.082V75.8719H281.989V290.368H281.543ZM225.132 164.614H216.57V111.993H225.132V164.614ZM210.728 164.614H202.166V120.02H210.728V164.614ZM196.725 164.614H188.163V133.844H196.725V164.614ZM182.723 164.614H174.161V117.344H182.723C182.723 122.695 182.723 158.816 182.723 164.614ZM168.765 164.614H160.203V106.196H168.765C168.765 119.128 168.765 152.573 168.765 164.614ZM154.317 164.614H145.755V125.371H154.317V164.614Z" fill="#393939"/>
<path d="M231.018 206.085L229.68 215.004C221.118 214.558 212.066 217.68 206.224 223.923C194.05 235.963 194.05 254.692 206.224 266.733C218.398 278.773 237.35 278.773 249.524 266.733C255.857 260.49 258.978 252.017 258.532 243.098L267.54 241.76C268.878 241.314 270.261 239.976 269.815 238.639C268.923 229.72 264.865 221.693 258.532 215.004C252.2 208.761 244.084 204.747 234.63 203.855C232.356 203.855 231.018 204.747 231.018 206.085ZM228.744 220.355L225.578 239.085L212.021 225.706C216.57 222.139 222.456 220.355 228.744 220.355ZM244.976 262.719C235.031 272.53 219.245 272.53 209.791 262.719C200.783 253.801 200.337 239.53 208.008 229.72C208.008 229.72 226.514 248.003 225.622 247.111C226.068 247.557 226.068 247.557 226.514 247.557C226.514 247.557 226.514 247.557 226.96 247.557C227.406 247.557 227.406 247.557 227.852 247.557L252.2 243.544C252.646 250.679 249.97 257.814 244.976 262.719ZM263.036 236.409C257.64 237.301 236.414 240.868 230.572 241.314L235.522 209.207C249.524 212.328 260.316 223.031 263.036 236.409Z" fill="#393939"/>
<path d="M176.881 237.301H137.193C135.855 237.301 134.473 238.639 134.473 239.976C134.473 241.314 135.81 242.652 137.193 242.652H176.881C178.219 242.652 179.602 241.314 179.602 239.976C179.602 238.639 178.665 237.301 176.881 237.301Z" fill="#393939"/>
<path d="M176.881 226.152H137.193C135.855 226.152 134.473 227.49 134.473 228.828C134.473 230.166 135.81 231.504 137.193 231.504H176.881C178.219 231.504 179.602 230.166 179.602 228.828C179.602 227.49 178.665 226.152 176.881 226.152Z" fill="#393939"/>
<path d="M176.881 215.004H137.193C135.855 215.004 134.473 216.342 134.473 217.68C134.473 219.018 135.81 220.356 137.193 220.356H176.881C178.219 220.356 179.602 219.018 179.602 217.68C179.602 216.342 178.665 215.004 176.881 215.004Z" fill="#393939"/>
<path d="M176.881 203.855H137.193C135.855 203.855 134.473 205.193 134.473 206.531C134.473 207.869 135.81 209.207 137.193 209.207H176.881C178.219 209.207 179.602 207.869 179.602 206.531C179.602 205.193 178.665 203.855 176.881 203.855Z" fill="#393939"/>
</svg>
