<svg width="426" height="429" viewBox="0 0 426 429" fill="none" xmlns="http://www.w3.org/2000/svg">
<path opacity="0.06" d="M402.53 292.924C363.037 387.274 257.836 440.13 166.606 425.873C151.761 423.553 111.064 416.643 75.0306 384.039C5.66492 321.276 -9.16901 196.994 46.7847 109.41C87.5099 45.6643 160.515 9.52896 229.882 11.3362C244.824 11.7261 302.087 14.125 352.412 56.2279C359.803 62.4125 376.107 77.1073 390.8 100.421C425.302 155.165 428.268 231.436 402.53 292.924Z" fill="url(#paint0_linear_39_1583)"/>
<path d="M2.34388 275.32C9.08658 246.539 31.1372 223.947 59.2073 217.037C78.5058 212.287 97.0214 214.836 112.672 222.534C117.863 225.087 124.03 222.198 125.469 216.481C139.303 161.5 187.993 120.881 245.937 120.881C314.647 120.881 370.345 177.991 370.345 248.441C370.345 250.311 370.309 252.865 370.277 255.316C370.52 260.585 372.763 262.822 376.113 263.383C403.033 266.256 424.189 289.01 425.363 317.076C426.712 349.301 401.131 376 369.673 376H78.6877C28.8759 375.998 -10.1263 328.543 2.34388 275.32Z" fill="url(#paint1_linear_39_1583)"/>
<path opacity="0.21" d="M24.8808 286.105C30.9018 260.408 50.5886 240.234 75.6528 234.067C92.8841 229.825 109.415 232.102 123.388 238.975C128.023 241.254 133.53 238.673 134.814 233.57C147.167 184.478 190.639 148.211 242.376 148.211C303.724 148.211 353.457 199.203 353.457 262.105C353.457 263.774 353.423 266.055 353.395 268.243C353.613 272.948 355.615 274.945 358.606 275.446C382.641 278.012 401.532 298.329 402.58 323.387C403.784 352.16 380.944 375.998 352.856 375.998H93.0447C48.5704 375.998 13.7469 333.626 24.8808 286.105Z" fill="#91B3FA"/>
<path d="M58.666 410.475C58.666 412.833 60.597 414.762 62.9577 414.762H295.052C297.413 414.762 299.344 412.833 299.344 410.475L301.275 277.097C301.275 274.739 298.497 270.134 293.404 270.481L66.5753 264.611C63.6137 264.535 60.7499 265.674 58.6522 267.766C56.5545 269.856 55.4078 272.715 55.4766 275.673L58.666 410.475Z" fill="url(#paint2_linear_39_1583)"/>
<path d="M62.903 406.361C62.903 408.595 64.7301 410.422 66.9639 410.422H289.455C291.688 410.422 293.515 408.595 293.515 406.361L295.338 285.28C295.124 277.993 288.736 275.375 284.863 275.529L67.47 269.697C65.3891 269.641 63.377 270.443 61.9031 271.912C60.4292 273.381 59.6188 275.393 59.6708 277.474L62.903 406.361Z" fill="#7D97F4"/>
<path d="M291.11 348.838C291.107 348.838 291.104 348.838 291.104 348.838C290.772 348.834 290.509 348.563 290.515 348.234L290.659 338.415C290.664 338.09 290.93 337.83 291.254 337.83C291.257 337.83 291.26 337.83 291.26 337.83C291.592 337.834 291.855 338.105 291.849 338.434L291.705 348.253C291.7 348.578 291.434 348.838 291.11 348.838Z" fill="white"/>
<path d="M291.463 324.775C291.463 324.775 291.457 324.775 291.454 324.775C291.125 324.771 290.862 324.5 290.868 324.171L291.42 286.562C291.41 284.328 290.732 282.544 289.405 281.273C286.928 278.9 282.994 279.021 282.829 279.029L213.346 277.165C213.017 277.157 212.759 276.882 212.766 276.555C212.775 276.226 213.028 275.947 213.378 275.977L282.82 277.841C283.253 277.815 287.441 277.743 290.229 280.416C291.798 281.919 292.599 283.99 292.611 286.57L292.059 324.191C292.053 324.514 291.789 324.775 291.463 324.775Z" fill="white"/>
<path d="M40.7008 425.835H312.601C313.077 425.835 313.465 425.447 313.465 424.971V414.981C313.465 414.505 313.077 414.117 312.601 414.117H40.7008C40.2253 414.117 39.8369 414.505 39.8369 414.981V424.971C39.8369 425.445 40.2253 425.835 40.7008 425.835Z" fill="url(#paint3_linear_39_1583)"/>
<path d="M159.429 404.515H73.7647C70.6059 404.515 68.0464 401.954 68.0464 398.797V286.978C68.0464 283.734 70.7419 281.139 73.9849 281.263L159.649 284.541C162.721 284.659 165.149 287.183 165.149 290.256V398.797C165.149 401.954 162.588 404.515 159.429 404.515Z" fill="#91B3FA"/>
<path opacity="0.51" d="M142.39 332.668H85.6474C85.1964 332.668 84.8325 332.303 84.8325 331.853V325.942C84.8325 325.491 85.1979 325.127 85.6474 325.127H142.39C142.841 325.127 143.205 325.493 143.205 325.942V331.853C143.207 332.303 142.841 332.668 142.39 332.668Z" fill="white"/>
<path opacity="0.51" d="M142.505 344.712H85.7622C85.3112 344.712 84.9473 344.346 84.9473 343.897V337.986C84.9473 337.535 85.3127 337.171 85.7622 337.171H142.505C142.956 337.171 143.32 337.536 143.32 337.986V343.897C143.321 344.346 142.956 344.712 142.505 344.712Z" fill="white"/>
<path opacity="0.51" d="M142.847 357.006H86.1045C85.6534 357.006 85.2896 356.641 85.2896 356.191V350.28C85.2896 349.829 85.655 349.465 86.1045 349.465H142.847C143.298 349.465 143.662 349.831 143.662 350.28V356.191C143.662 356.641 143.298 357.006 142.847 357.006Z" fill="white"/>
<path opacity="0.51" d="M142.962 369.048H86.2192C85.7682 369.048 85.4043 368.683 85.4043 368.233V362.322C85.4043 361.871 85.7697 361.507 86.2192 361.507H142.962C143.413 361.507 143.777 361.873 143.777 362.322V368.233C143.777 368.684 143.413 369.048 142.962 369.048Z" fill="white"/>
<path opacity="0.51" d="M266.834 332.659H184.541C184.089 332.659 183.726 332.293 183.726 331.844V325.933C183.726 325.482 184.091 325.118 184.541 325.118H266.834C267.285 325.118 267.648 325.483 267.648 325.933V331.844C267.65 332.295 267.285 332.659 266.834 332.659Z" fill="white"/>
<path opacity="0.51" d="M267.093 344.712H184.8C184.349 344.712 183.985 344.346 183.985 343.897V337.986C183.985 337.535 184.351 337.171 184.8 337.171H267.093C267.544 337.171 267.908 337.536 267.908 337.986V343.897C267.908 344.346 267.543 344.712 267.093 344.712Z" fill="white"/>
<path opacity="0.51" d="M232.898 357.006H184.799C184.348 357.006 183.984 356.641 183.984 356.191V350.28C183.984 349.829 184.349 349.465 184.799 349.465H232.898C233.349 349.465 233.713 349.831 233.713 350.28V356.191C233.713 356.641 233.349 357.006 232.898 357.006Z" fill="white"/>
<g opacity="0.51">
<path d="M228.276 297.013H226.998C226.363 297.013 225.848 296.497 225.848 295.863V291.493C225.848 289.929 224.581 288.662 223.016 288.662H215.095C213.531 288.662 212.263 289.929 212.263 291.493V295.863C212.263 296.497 211.748 297.013 211.114 297.013H209.835C209.201 297.013 208.686 296.497 208.686 295.863V291.493C208.686 287.954 211.555 285.084 215.095 285.084H223.016C226.556 285.084 229.426 287.954 229.426 291.493V295.863C229.426 296.497 228.911 297.013 228.276 297.013Z" fill="white"/>
<path d="M229.86 298.043H208.25C206.926 298.043 205.853 299.117 205.853 300.441V317.025C205.853 318.349 206.926 319.423 208.25 319.423H229.86C231.184 319.423 232.258 318.349 232.258 317.025V300.441C232.258 299.118 231.184 298.043 229.86 298.043ZM222.148 314.073C222.283 314.631 221.859 315.169 221.284 315.169H216.829C216.254 315.169 215.831 314.632 215.965 314.073L217.005 309.744C215.777 309.01 214.974 307.639 215.057 306.087C215.162 304.076 216.792 302.431 218.801 302.306C221.13 302.161 223.062 304.006 223.062 306.304C223.062 307.766 222.278 309.046 221.108 309.744L222.148 314.073Z" fill="white"/>
</g>
<path d="M291.179 103.398C291.095 103.398 291.009 103.378 290.93 103.334C290.68 103.196 290.592 102.883 290.729 102.633C291.061 102.037 291.382 101.438 291.694 100.832C291.824 100.58 292.134 100.482 292.388 100.611C292.64 100.741 292.74 101.051 292.61 101.305C292.293 101.918 291.968 102.528 291.631 103.132C291.537 103.303 291.361 103.398 291.179 103.398Z" fill="#91B3FA"/>
<path d="M230.966 138.839C230.661 138.839 230.359 138.838 230.054 138.833C229.77 138.829 229.544 138.596 229.547 138.312C229.551 138.03 229.781 137.804 230.062 137.804H230.07C231.401 137.822 232.745 137.8 234.075 137.74C234.34 137.722 234.6 137.946 234.612 138.231C234.626 138.515 234.406 138.755 234.121 138.767C233.072 138.816 232.011 138.839 230.966 138.839ZM223.515 138.439C223.497 138.439 223.478 138.437 223.46 138.436C222.116 138.29 220.76 138.104 219.433 137.881C219.153 137.833 218.963 137.569 219.011 137.287C219.058 137.008 219.324 136.816 219.604 136.864C220.913 137.084 222.247 137.267 223.573 137.411C223.856 137.442 224.061 137.696 224.03 137.978C223.998 138.243 223.775 138.439 223.515 138.439ZM240.624 138.162C240.372 138.162 240.152 137.975 240.115 137.718C240.075 137.437 240.271 137.177 240.552 137.137C241.87 136.952 243.199 136.725 244.501 136.462C244.777 136.407 245.052 136.587 245.107 136.865C245.162 137.144 244.982 137.416 244.703 137.472C243.381 137.738 242.032 137.969 240.694 138.157C240.673 138.16 240.648 138.162 240.624 138.162ZM213.109 136.498C213.065 136.498 213.02 136.492 212.976 136.48C211.672 136.131 210.361 135.74 209.08 135.317C208.809 135.228 208.664 134.936 208.753 134.667C208.842 134.398 209.132 134.251 209.403 134.339C210.664 134.757 211.955 135.142 213.24 135.486C213.516 135.56 213.678 135.841 213.604 136.116C213.545 136.347 213.337 136.498 213.109 136.498ZM250.964 135.882C250.743 135.882 250.539 135.738 250.472 135.517C250.389 135.245 250.544 134.957 250.816 134.875C252.091 134.488 253.369 134.06 254.615 133.601C254.882 133.503 255.178 133.639 255.276 133.907C255.374 134.174 255.238 134.469 254.97 134.567C253.706 135.034 252.409 135.468 251.114 135.861C251.064 135.876 251.013 135.882 250.964 135.882ZM203.122 132.988C203.053 132.988 202.983 132.974 202.915 132.944C201.678 132.398 200.443 131.809 199.246 131.194C198.994 131.064 198.894 130.754 199.023 130.502C199.153 130.25 199.461 130.15 199.715 130.279C200.896 130.884 202.111 131.464 203.33 132.002C203.59 132.116 203.707 132.421 203.593 132.681C203.509 132.873 203.321 132.988 203.122 132.988ZM260.828 132.038C260.637 132.038 260.451 131.931 260.363 131.746C260.239 131.491 260.348 131.182 260.603 131.06C261.8 130.483 262.997 129.863 264.161 129.214C264.41 129.077 264.722 129.166 264.861 129.415C264.999 129.662 264.91 129.977 264.661 130.115C263.48 130.772 262.265 131.402 261.049 131.988C260.979 132.023 260.903 132.038 260.828 132.038ZM193.798 127.984C193.703 127.984 193.607 127.958 193.521 127.903C192.385 127.173 191.256 126.401 190.165 125.608C189.936 125.441 189.886 125.118 190.052 124.889C190.22 124.66 190.541 124.609 190.771 124.776C191.844 125.557 192.956 126.317 194.076 127.036C194.315 127.189 194.385 127.508 194.232 127.747C194.135 127.9 193.968 127.984 193.798 127.984ZM269.981 126.718C269.818 126.718 269.657 126.64 269.558 126.496C269.396 126.262 269.456 125.941 269.689 125.779C270.784 125.024 271.873 124.225 272.922 123.407C273.146 123.233 273.469 123.273 273.645 123.498C273.819 123.722 273.779 124.045 273.555 124.221C272.489 125.051 271.387 125.86 270.275 126.627C270.185 126.689 270.082 126.718 269.981 126.718ZM185.36 121.6C185.238 121.6 185.117 121.557 185.019 121.472C184.011 120.58 183.014 119.645 182.054 118.689C181.852 118.489 181.852 118.163 182.053 117.961C182.253 117.759 182.579 117.759 182.781 117.96C183.725 118.9 184.709 119.822 185.702 120.701C185.915 120.889 185.935 121.215 185.747 121.427C185.643 121.542 185.502 121.6 185.36 121.6ZM278.216 120.056C278.08 120.056 277.943 120.001 277.842 119.894C277.646 119.688 277.657 119.362 277.863 119.166C278.833 118.252 279.785 117.299 280.696 116.335C280.892 116.128 281.218 116.119 281.424 116.313C281.631 116.509 281.64 116.834 281.446 117.041C280.521 118.021 279.553 118.987 278.57 119.915C278.47 120.009 278.343 120.056 278.216 120.056ZM177.989 114.001C177.84 114.001 177.695 113.939 177.593 113.816C176.73 112.781 175.885 111.705 175.082 110.618C174.914 110.388 174.961 110.067 175.191 109.898C175.422 109.729 175.743 109.778 175.911 110.006C176.701 111.078 177.535 112.138 178.385 113.159C178.567 113.378 178.538 113.702 178.319 113.884C178.221 113.962 178.105 114.001 177.989 114.001ZM285.341 112.228C285.231 112.228 285.12 112.193 285.026 112.119C284.802 111.945 284.762 111.621 284.936 111.398C285.756 110.344 286.552 109.257 287.303 108.165C287.465 107.931 287.786 107.872 288.019 108.032C288.253 108.194 288.312 108.514 288.152 108.748C287.389 109.856 286.581 110.96 285.748 112.029C285.646 112.159 285.494 112.228 285.341 112.228ZM171.856 105.372C171.682 105.372 171.511 105.283 171.414 105.123C170.717 103.961 170.047 102.768 169.424 101.575C169.292 101.323 169.39 101.013 169.642 100.881C169.893 100.75 170.205 100.848 170.336 101.1C170.949 102.274 171.608 103.448 172.296 104.594C172.443 104.837 172.364 105.153 172.121 105.3C172.037 105.347 171.945 105.372 171.856 105.372ZM167.122 95.9015C166.919 95.9015 166.726 95.7807 166.645 95.5804C166.136 94.3267 165.659 93.0439 165.228 91.7688C165.138 91.4997 165.282 91.2076 165.551 91.1159C165.818 91.0242 166.112 91.1694 166.204 91.4385C166.629 92.6938 167.098 93.9567 167.601 95.1921C167.708 95.4551 167.581 95.7563 167.318 95.8633C167.254 95.8893 167.188 95.9015 167.122 95.9015Z" fill="#91B3FA"/>
<path d="M163.902 85.7859C163.669 85.7859 163.458 85.6254 163.403 85.3884C163.245 84.7142 163.097 84.0399 162.959 83.3626C162.903 83.0843 163.083 82.8121 163.361 82.7556C163.639 82.699 163.912 82.8779 163.968 83.1577C164.104 83.8243 164.25 84.4894 164.406 85.153C164.47 85.4297 164.298 85.7064 164.022 85.7722C163.98 85.7814 163.942 85.7859 163.902 85.7859Z" fill="#91B3FA"/>
<path d="M172.63 33.2952C172.536 33.2952 172.442 33.2692 172.356 33.2157C172.116 33.0643 172.044 32.7463 172.195 32.5063C172.562 31.9237 172.94 31.3443 173.325 30.7694C173.484 30.5339 173.804 30.4697 174.039 30.6287C174.276 30.7877 174.338 31.1073 174.18 31.3427C173.799 31.91 173.428 32.4803 173.065 33.0552C172.968 33.2096 172.801 33.2952 172.63 33.2952Z" fill="#91B3FA"/>
<path d="M297.036 50.5389C296.813 50.5389 296.608 50.3937 296.542 50.1689C296.149 48.828 295.709 47.481 295.233 46.1661C295.137 45.8985 295.275 45.6034 295.542 45.5071C295.808 45.4092 296.105 45.5484 296.201 45.816C296.684 47.1507 297.131 48.5176 297.531 49.8799C297.611 50.1536 297.455 50.4395 297.183 50.519C297.132 50.5328 297.083 50.5389 297.036 50.5389ZM293.047 40.1481C292.854 40.1481 292.671 40.0411 292.582 39.8561C291.975 38.5932 291.322 37.3364 290.64 36.1178C290.501 35.8701 290.59 35.5567 290.839 35.4175C291.087 35.2799 291.402 35.3671 291.539 35.6163C292.231 36.8517 292.894 38.1284 293.51 39.4112C293.634 39.668 293.526 39.9753 293.27 40.0977C293.197 40.1328 293.122 40.1481 293.047 40.1481ZM287.425 30.5432C287.263 30.5432 287.102 30.4668 287.003 30.323C286.202 29.1794 285.355 28.0434 284.483 26.9486C284.306 26.7254 284.343 26.4028 284.566 26.2254C284.789 26.0481 285.112 26.0848 285.289 26.308C286.174 27.4211 287.035 28.5724 287.847 29.7344C288.011 29.9668 287.954 30.2879 287.72 30.4515C287.63 30.5126 287.528 30.5432 287.425 30.5432ZM177.883 26.0496C177.767 26.0496 177.651 26.0114 177.554 25.9303C177.336 25.7484 177.305 25.4243 177.487 25.2056C178.391 24.1185 179.342 23.0391 180.317 22.0009C180.511 21.793 180.837 21.7838 181.045 21.978C181.251 22.1737 181.262 22.4994 181.068 22.7058C180.108 23.7287 179.169 24.7913 178.279 25.8631C178.177 25.9869 178.031 26.0496 177.883 26.0496ZM280.332 21.9658C280.198 21.9658 280.063 21.9138 279.962 21.8098C278.993 20.8099 277.976 19.8237 276.939 18.8803C276.73 18.6892 276.715 18.3635 276.906 18.1525C277.097 17.9415 277.424 17.9263 277.634 18.1189C278.686 19.0776 279.718 20.079 280.701 21.0927C280.899 21.2961 280.893 21.6233 280.69 21.8205C280.591 21.9184 280.461 21.9658 280.332 21.9658ZM185.655 18.0837C185.511 18.0837 185.369 18.0241 185.268 17.9079C185.081 17.6939 185.103 17.3682 185.317 17.1817C186.389 16.2459 187.5 15.3332 188.622 14.4662C188.849 14.2935 189.171 14.3347 189.344 14.5595C189.517 14.7843 189.476 15.1084 189.251 15.2812C188.145 16.1343 187.049 17.0333 185.994 17.9553C185.896 18.0425 185.774 18.0837 185.655 18.0837ZM271.967 14.6314C271.86 14.6314 271.753 14.5977 271.66 14.5304C270.538 13.6972 269.376 12.8883 268.205 12.1254C267.966 11.971 267.899 11.6514 268.055 11.4129C268.209 11.1744 268.527 11.1071 268.767 11.2631C269.955 12.0367 271.136 12.8578 272.275 13.7033C272.502 13.873 272.55 14.1956 272.38 14.4234C272.279 14.5595 272.125 14.6314 271.967 14.6314ZM194.599 11.4557C194.428 11.4557 194.26 11.3701 194.162 11.2126C194.012 10.971 194.085 10.6545 194.327 10.5032C195.53 9.75399 196.775 9.03079 198.025 8.35499C198.276 8.21892 198.588 8.31371 198.723 8.56293C198.857 8.81368 198.764 9.12559 198.515 9.26014C197.282 9.92523 196.056 10.6362 194.87 11.3747C194.786 11.4297 194.692 11.4557 194.599 11.4557ZM262.528 8.74488C262.448 8.74488 262.367 8.72653 262.292 8.68831C261.051 8.04767 259.772 7.43915 258.493 6.87496C258.233 6.76029 258.113 6.45756 258.228 6.19611C258.341 5.93619 258.646 5.81693 258.907 5.9316C260.207 6.5019 261.505 7.12113 262.765 7.77093C263.017 7.90089 263.116 8.21127 262.986 8.46355C262.893 8.64244 262.714 8.74488 262.528 8.74488ZM204.496 6.35818C204.294 6.35818 204.103 6.23892 204.02 6.04168C203.912 5.7787 204.036 5.4775 204.299 5.36894C205.606 4.82616 206.951 4.31396 208.297 3.85069C208.568 3.75895 208.86 3.90114 208.951 4.16871C209.043 4.43781 208.901 4.73137 208.633 4.82311C207.308 5.28026 205.984 5.78329 204.695 6.31842C204.629 6.34595 204.562 6.35818 204.496 6.35818ZM252.258 4.4638C252.206 4.4638 252.152 4.45616 252.099 4.43934C250.77 4.00817 249.409 3.6137 248.054 3.2651C247.779 3.19477 247.613 2.91344 247.684 2.63823C247.755 2.36301 248.041 2.19789 248.311 2.26822C249.686 2.62294 251.068 3.02352 252.417 3.46081C252.687 3.54796 252.835 3.83846 252.747 4.10908C252.676 4.32619 252.475 4.4638 252.258 4.4638ZM215.086 2.93484C214.852 2.93484 214.641 2.7743 214.586 2.53884C214.521 2.2621 214.693 1.98536 214.969 1.91962C216.353 1.59395 217.764 1.30651 219.16 1.06799C219.446 1.02212 219.706 1.20865 219.755 1.48845C219.804 1.76825 219.614 2.03429 219.335 2.08322C217.958 2.31867 216.57 2.60153 215.206 2.92261C215.164 2.93026 215.124 2.93484 215.086 2.93484ZM241.431 1.89668C241.405 1.89668 241.379 1.89515 241.353 1.89057C239.971 1.67804 238.564 1.5068 237.171 1.3799C236.888 1.3539 236.679 1.10315 236.705 0.820298C236.731 0.537441 236.976 0.327974 237.265 0.353966C238.677 0.482398 240.105 0.656699 241.507 0.872282C241.789 0.915093 241.981 1.17807 241.939 1.4594C241.9 1.71474 241.68 1.89668 241.431 1.89668ZM226.089 1.26522C225.822 1.26522 225.596 1.05729 225.577 0.786661C225.557 0.502275 225.771 0.256113 226.054 0.237765C227.467 0.138383 228.904 0.0818117 230.326 0.0695801H230.331C230.614 0.0695801 230.843 0.297395 230.846 0.580251C230.849 0.864637 230.62 1.09704 230.335 1.1001C228.935 1.11233 227.519 1.16737 226.128 1.26522C226.114 1.26522 226.102 1.26522 226.089 1.26522Z" fill="#91B3FA"/>
<path d="M298.993 59.3028C298.744 59.3028 298.525 59.1209 298.486 58.8671C298.382 58.1943 298.267 57.5247 298.14 56.8535C298.088 56.5737 298.272 56.3046 298.551 56.2526C298.83 56.2036 299.1 56.3856 299.152 56.6639C299.279 57.3442 299.395 58.0246 299.502 58.7066C299.547 58.9879 299.354 59.2509 299.073 59.2952C299.045 59.2998 299.019 59.3028 298.993 59.3028Z" fill="#91B3FA"/>
<path d="M283.83 67.9155C283.858 67.5638 283.659 67.2336 283.335 67.0929L274.108 63.084C273.395 58.4405 271.937 53.8766 269.714 49.5818L274.805 40.9126C274.984 40.6083 274.95 40.2246 274.721 39.957L266.877 30.7863C266.648 30.5187 266.273 30.4255 265.946 30.5539L256.594 34.2418C252.695 31.3811 248.412 29.2329 243.935 27.8094L241.405 18.073C241.316 17.7321 241.021 17.4844 240.67 17.4569L228.638 16.5196C228.287 16.4921 227.956 16.6909 227.816 17.015L223.807 26.2423C219.163 26.9548 214.599 28.4134 210.304 30.6365L201.635 25.5435C201.331 25.3646 200.947 25.3983 200.68 25.6276L191.509 33.4727C191.241 33.702 191.148 34.0766 191.277 34.4038L194.964 43.7565C192.104 47.6553 189.956 51.9364 188.532 56.4147L178.794 58.9451C178.453 59.0338 178.206 59.3289 178.178 59.6805L177.241 71.7119C177.213 72.0635 177.412 72.3938 177.736 72.5345L186.963 76.5434C187.676 81.1868 189.135 85.7508 191.358 90.0456L186.265 98.7148C186.086 99.019 186.119 99.4028 186.349 99.6704L194.194 108.841C194.423 109.109 194.798 109.202 195.125 109.072L204.478 105.384C208.375 108.245 212.659 110.393 217.136 111.816L219.666 121.553C219.755 121.894 220.05 122.141 220.402 122.169L232.433 123.106C232.785 123.134 233.115 122.935 233.256 122.611L237.265 113.384C241.908 112.671 246.472 111.212 250.767 108.989L259.436 114.082C259.74 114.261 260.124 114.228 260.392 113.998L269.562 106.153C269.83 105.924 269.923 105.551 269.795 105.222L266.107 95.8694C268.967 91.9706 271.114 87.688 272.539 83.2112L282.276 80.6807C282.616 80.5921 282.864 80.297 282.892 79.9453L283.83 67.9155Z" fill="#91B3FA"/>
<path opacity="0.7" d="M230.513 81.3046C228.157 81.3046 225.863 80.5798 223.902 79.1915C218.731 75.5328 217.501 68.3497 221.16 63.1788C222.932 60.6744 225.574 59.0093 228.599 58.4925C231.623 57.9757 234.669 58.6668 237.171 60.4389C239.676 62.2125 241.341 64.853 241.858 67.8773C242.376 70.9015 241.685 73.9472 239.911 76.4517C238.139 78.9561 235.497 80.6211 232.473 81.1379C231.82 81.2495 231.164 81.3046 230.513 81.3046ZM230.559 59.8686C229.995 59.8686 229.427 59.9175 228.86 60.0138C226.242 60.4618 223.955 61.9021 222.422 64.0702C219.254 68.5454 220.318 74.7637 224.793 77.9302C226.961 79.4652 229.595 80.0615 232.215 79.6151C234.832 79.1671 237.118 77.7268 238.653 75.5587C240.188 73.3907 240.786 70.7548 240.338 68.1372C239.89 65.5196 238.448 63.2323 236.28 61.6988C234.583 60.497 232.597 59.8686 230.559 59.8686Z" fill="white"/>
<path opacity="0.7" d="M230.328 99.7087C229.54 99.7087 228.751 99.6781 227.958 99.617C219.998 98.9977 212.755 95.3145 207.566 89.2461C202.892 83.7831 200.388 76.9762 200.388 69.865C200.388 69.0776 200.418 68.2871 200.479 67.4951C201.1 59.5354 204.782 52.2927 210.85 47.1034C216.917 41.9142 224.642 39.3975 232.603 40.0167C240.563 40.6359 247.805 44.3192 252.994 50.3876C254.38 52.0068 255.592 53.7727 256.598 55.6319L255.241 56.3659C254.288 54.6014 253.137 52.9272 251.822 51.3906C246.9 45.6372 240.032 42.1435 232.484 41.5564C224.935 40.9738 217.608 43.356 211.855 48.2761C206.101 53.1979 202.609 60.0659 202.021 67.6144C201.963 68.3666 201.933 69.1158 201.933 69.8619C201.933 76.6062 204.309 83.0614 208.742 88.2431C213.664 93.9965 220.532 97.4887 228.08 98.0773C235.635 98.666 242.955 96.2793 248.709 91.3575C252.614 88.0168 255.536 83.6898 257.158 78.843L258.623 79.3338C256.912 84.4451 253.831 89.0091 249.712 92.5318C244.247 97.2027 237.44 99.7087 230.328 99.7087Z" fill="white"/>
<path d="M349.24 120.294C349.151 120.294 349.061 120.272 348.978 120.223C348.734 120.077 348.652 119.762 348.798 119.518C349.143 118.934 349.475 118.337 349.781 117.744C349.911 117.492 350.221 117.394 350.475 117.522C350.727 117.652 350.827 117.963 350.697 118.217C350.382 118.827 350.041 119.441 349.685 120.042C349.587 120.206 349.415 120.294 349.24 120.294Z" fill="#91B3FA"/>
<path d="M316.018 137.523C316.004 137.523 315.99 137.523 315.977 137.521C314.581 137.411 313.177 137.219 311.809 136.948C311.53 136.893 311.348 136.622 311.404 136.342C311.459 136.064 311.731 135.882 312.007 135.937C313.339 136.2 314.701 136.388 316.058 136.495C316.34 136.518 316.553 136.766 316.53 137.049C316.509 137.318 316.284 137.523 316.018 137.523ZM322.75 137.414C322.491 137.414 322.268 137.22 322.239 136.957C322.207 136.674 322.41 136.42 322.693 136.388C324.048 136.237 325.404 136.005 326.722 135.697C326.997 135.63 327.276 135.804 327.34 136.083C327.404 136.359 327.233 136.636 326.955 136.7C325.597 137.017 324.201 137.255 322.806 137.413C322.788 137.413 322.768 137.414 322.75 137.414ZM305.454 135.029C305.39 135.029 305.324 135.017 305.26 134.991C303.967 134.465 302.688 133.856 301.462 133.181C301.213 133.043 301.123 132.73 301.26 132.482C301.398 132.233 301.71 132.142 301.959 132.28C303.15 132.936 304.392 133.528 305.649 134.038C305.911 134.145 306.038 134.447 305.931 134.71C305.85 134.908 305.658 135.029 305.454 135.029ZM333.223 134.567C333.026 134.567 332.838 134.454 332.752 134.263C332.636 134.003 332.752 133.699 333.012 133.583C334.254 133.028 335.474 132.393 336.64 131.698C336.884 131.551 337.2 131.632 337.347 131.875C337.492 132.119 337.413 132.434 337.169 132.581C335.969 133.298 334.711 133.951 333.434 134.523C333.364 134.554 333.294 134.567 333.223 134.567ZM296.155 129.444C296.039 129.444 295.921 129.404 295.827 129.325C294.756 128.432 293.724 127.462 292.759 126.444C292.564 126.238 292.573 125.912 292.778 125.716C292.984 125.521 293.31 125.53 293.506 125.735C294.443 126.724 295.446 127.664 296.485 128.533C296.704 128.715 296.733 129.039 296.551 129.257C296.449 129.381 296.302 129.444 296.155 129.444ZM342.333 128.667C342.192 128.667 342.05 128.609 341.949 128.496C341.759 128.283 341.778 127.958 341.99 127.77L342.293 127.496C343.198 126.67 344.07 125.788 344.882 124.877C345.07 124.663 345.395 124.644 345.608 124.834C345.82 125.024 345.84 125.348 345.651 125.56C344.816 126.499 343.92 127.407 342.987 128.257L342.677 128.537C342.576 128.624 342.455 128.667 342.333 128.667ZM288.978 121.304C288.809 121.304 288.642 121.22 288.544 121.067C287.79 119.889 287.098 118.654 286.486 117.394C286.362 117.139 286.469 116.83 286.725 116.706C286.982 116.582 287.289 116.689 287.413 116.945C288.006 118.168 288.679 119.368 289.411 120.512C289.564 120.75 289.495 121.07 289.255 121.223C289.169 121.278 289.073 121.304 288.978 121.304Z" fill="#91B3FA"/>
<path d="M284.601 111.352C284.373 111.352 284.165 111.199 284.104 110.968C283.927 110.298 283.766 109.615 283.629 108.936C283.572 108.658 283.751 108.386 284.031 108.329C284.309 108.272 284.581 108.451 284.638 108.731C284.772 109.39 284.928 110.055 285.099 110.705C285.173 110.98 285.009 111.262 284.734 111.335C284.688 111.346 284.644 111.352 284.601 111.352Z" fill="#91B3FA"/>
<path d="M288.841 83.4161C288.747 83.4161 288.653 83.3901 288.567 83.3366C288.327 83.1853 288.255 82.8672 288.406 82.6272C288.776 82.0401 289.168 81.4575 289.57 80.8934C289.735 80.6625 290.058 80.609 290.287 80.7741C290.519 80.9392 290.571 81.2603 290.406 81.4912C290.015 82.0386 289.634 82.6058 289.275 83.1761C289.179 83.332 289.01 83.4161 288.841 83.4161Z" fill="#91B3FA"/>
<path d="M351.367 88.4217C351.167 88.4217 350.977 88.304 350.893 88.1083C350.372 86.879 349.771 85.6665 349.109 84.5045C348.968 84.2584 349.055 83.9434 349.302 83.8027C349.548 83.6621 349.863 83.7477 350.003 83.9954C350.685 85.191 351.303 86.4402 351.841 87.7062C351.953 87.9676 351.83 88.2703 351.567 88.382C351.503 88.4095 351.434 88.4217 351.367 88.4217ZM345.751 79.3412C345.606 79.3412 345.461 79.2801 345.36 79.1608C345.097 78.852 344.828 78.5477 344.553 78.245C343.924 77.557 343.262 76.8857 342.582 76.2497C342.374 76.0555 342.363 75.7299 342.557 75.5219C342.752 75.314 343.077 75.3033 343.285 75.4974C343.984 76.1518 344.666 76.8414 345.313 77.5508C345.595 77.8612 345.874 78.1747 346.143 78.4927C346.326 78.7098 346.3 79.0339 346.085 79.2189C345.988 79.3015 345.869 79.3412 345.751 79.3412ZM294.329 76.7007C294.193 76.7007 294.057 76.6472 293.956 76.5417C293.761 76.3353 293.768 76.0097 293.973 75.8139C294.181 75.6152 294.392 75.4179 294.606 75.2238C295.41 74.4899 296.257 73.785 297.123 73.1276C297.349 72.9548 297.672 72.9991 297.843 73.2254C298.016 73.4517 297.971 73.7743 297.745 73.9456C296.904 74.5847 296.082 75.2696 295.3 75.9821C295.092 76.1717 294.888 76.3644 294.684 76.557C294.585 76.6533 294.456 76.7007 294.329 76.7007ZM337.692 72.3356C337.599 72.3356 337.503 72.3096 337.419 72.2561C336.289 71.542 335.105 70.8861 333.902 70.3082C333.645 70.1843 333.538 69.8785 333.66 69.6217C333.783 69.3648 334.088 69.2563 334.347 69.3801C335.585 69.9749 336.804 70.6491 337.967 71.3846C338.207 71.5375 338.279 71.8539 338.128 72.0955C338.03 72.2515 337.863 72.3356 337.692 72.3356ZM303.063 70.5574C302.873 70.5574 302.691 70.4534 302.601 70.2715C302.474 70.0161 302.578 69.7073 302.834 69.5819C304.063 68.9703 305.346 68.4245 306.642 67.9566C306.911 67.8618 307.205 67.9995 307.301 68.267C307.397 68.5346 307.258 68.8297 306.991 68.926C305.729 69.3801 304.485 69.9106 303.291 70.5039C303.217 70.5406 303.141 70.5574 303.063 70.5574ZM327.911 68.0667C327.867 68.0667 327.823 68.0606 327.778 68.0499C326.488 67.7074 325.162 67.4353 323.838 67.2426C323.557 67.2013 323.361 66.9399 323.403 66.6601C323.444 66.3788 323.702 66.1769 323.985 66.2243C325.347 66.4231 326.711 66.7014 328.041 67.0546C328.317 67.1279 328.48 67.4093 328.407 67.6845C328.347 67.9138 328.139 68.0667 327.911 68.0667ZM313.235 67.3129C312.986 67.3129 312.767 67.1325 312.727 66.8787C312.683 66.5974 312.874 66.3344 313.155 66.2901C314.512 66.076 315.897 65.9369 317.276 65.8788C317.56 65.8727 317.8 66.0867 317.811 66.3711C317.823 66.6555 317.603 66.8955 317.319 66.9062C315.979 66.9628 314.634 67.0974 313.316 67.3053C313.289 67.3114 313.261 67.3129 313.235 67.3129Z" fill="#91B3FA"/>
<path d="M353.751 96.7763C353.502 96.7763 353.283 96.5943 353.243 96.3405C353.139 95.6754 353.016 95.0042 352.873 94.3468C352.814 94.0685 352.99 93.7948 353.268 93.7352C353.551 93.6755 353.82 93.8529 353.879 94.1296C354.025 94.807 354.153 95.4981 354.26 96.1815C354.305 96.4628 354.112 96.7258 353.831 96.7702C353.803 96.7732 353.777 96.7763 353.751 96.7763Z" fill="#91B3FA"/>
<path d="M345.962 100.95C345.976 100.77 345.875 100.6 345.709 100.528L340.969 98.4688C340.604 96.0836 339.854 93.7382 338.712 91.5335L341.328 87.0796C341.42 86.9237 341.403 86.7264 341.285 86.5888L337.257 81.8781C337.139 81.7405 336.946 81.6931 336.778 81.7589L331.974 83.6532C329.971 82.1839 327.772 81.08 325.471 80.3491L324.172 75.3479C324.126 75.1721 323.975 75.0452 323.794 75.0314L317.614 74.5498C317.434 74.5361 317.264 74.6385 317.192 74.8036L315.133 79.5434C312.747 79.9088 310.404 80.6595 308.197 81.8001L303.743 79.1841C303.587 79.0923 303.39 79.1092 303.253 79.2269L298.542 83.2572C298.404 83.375 298.357 83.5676 298.423 83.7358L300.317 88.5398C298.848 90.5427 297.744 92.7413 297.013 95.0424L292.012 96.342C291.836 96.3879 291.709 96.5393 291.695 96.7197L291.214 102.9C291.2 103.08 291.302 103.25 291.467 103.322L296.207 105.381C296.573 107.766 297.323 110.112 298.464 112.317L295.848 116.77C295.756 116.926 295.773 117.124 295.891 117.261L299.921 121.972C300.039 122.11 300.231 122.157 300.4 122.091L305.204 120.197C307.207 121.666 309.407 122.77 311.706 123.501L313.006 128.502C313.052 128.678 313.203 128.805 313.383 128.819L319.564 129.3C319.744 129.314 319.914 129.212 319.986 129.046L322.045 124.307C324.43 123.94 326.776 123.19 328.98 122.05L333.434 124.666C333.59 124.758 333.787 124.741 333.925 124.623L338.636 120.594C338.773 120.477 338.821 120.284 338.755 120.116L336.861 115.312C338.33 113.309 339.434 111.11 340.165 108.809L345.166 107.51C345.342 107.464 345.469 107.312 345.482 107.132L345.962 100.95Z" fill="#91B3FA"/>
<path opacity="0.7" d="M318.573 108.204C317.285 108.204 316.032 107.808 314.96 107.049C312.134 105.049 311.463 101.124 313.462 98.3005C314.431 96.9321 315.874 96.0224 317.526 95.7395C319.178 95.4566 320.842 95.8343 322.21 96.8021C323.579 97.7715 324.488 99.2133 324.771 100.866C325.054 102.519 324.676 104.182 323.709 105.551C322.739 106.919 321.297 107.829 319.645 108.112C319.288 108.173 318.929 108.204 318.573 108.204ZM318.593 97.1951C317.108 97.1951 315.645 97.8907 314.723 99.1919C313.215 101.322 313.721 104.282 315.851 105.788C316.883 106.519 318.14 106.803 319.383 106.589C320.629 106.376 321.718 105.69 322.447 104.659C323.178 103.627 323.462 102.372 323.248 101.128C323.036 99.8815 322.349 98.7928 321.319 98.0635C320.492 97.4764 319.538 97.1951 318.593 97.1951Z" fill="white"/>
<path opacity="0.7" d="M318.481 117.657C318.067 117.657 317.651 117.64 317.234 117.608C313.044 117.282 309.234 115.344 306.502 112.151C303.97 109.193 302.731 105.557 302.733 101.936C302.733 97.4947 304.598 93.0791 308.231 89.9723C314.821 84.3335 324.771 85.1087 330.409 91.7C330.453 91.752 330.497 91.804 330.54 91.856C331.152 92.5899 331.696 93.3773 332.161 94.2014C332.162 94.2044 332.165 94.2075 332.167 94.2105C332.174 94.2228 332.181 94.235 332.187 94.2472C332.199 94.2687 332.211 94.2901 332.223 94.3115C332.23 94.3237 332.237 94.3359 332.243 94.3466C332.263 94.3833 332.285 94.4215 332.304 94.4582L330.947 95.1921C330.47 94.3099 329.895 93.4721 329.236 92.7015C325.635 88.4938 320.087 86.9159 315.044 88.1559C312.965 88.6681 310.971 89.6588 309.234 91.1435C305.959 93.946 304.277 97.9274 304.276 101.933C304.276 105.198 305.393 108.477 307.674 111.145C312.758 117.088 321.732 117.789 327.676 112.703C329.63 111.032 331.092 108.867 331.904 106.441L333.369 106.931C332.468 109.622 330.847 112.023 328.679 113.876C325.805 116.338 322.223 117.657 318.481 117.657Z" fill="white"/>
<path d="M218.247 172.881C219.516 171.693 221.231 171.102 222.963 171.258C241.49 172.924 276.056 164 298.648 140.885C300.217 139.28 303.076 140.188 304.874 141.53C330 160.309 371.647 164.197 386.103 164.992C389.094 165.157 391.52 167.477 391.829 170.456C404.976 297.442 322.297 343.458 305.149 351.581C303.275 352.47 301.069 352.34 299.307 351.243C213.843 298.008 217.499 228.778 216.317 177.482C216.277 175.744 216.978 174.071 218.247 172.881Z" fill="url(#paint4_linear_39_1583)"/>
<path opacity="0.61" d="M302.838 342.357C302.455 342.357 302.075 342.25 301.741 342.037C268.976 321.092 247.621 296.053 236.457 265.486C226.485 238.186 225.997 210.388 225.566 185.864L225.508 182.593C225.497 182.047 225.703 181.534 226.084 181.144C226.469 180.752 226.986 180.535 227.538 180.535H227.54C247.83 180.535 278.287 171.576 300.625 151.56C301.31 150.945 302.326 150.872 303.096 151.381C327.64 167.666 362.65 172.409 381.336 173.787C382.33 173.86 383.114 174.635 383.203 175.63C387.546 225.179 377.24 267.077 352.572 300.162C334.148 324.872 312.3 337.746 303.763 342.135C303.471 342.284 303.154 342.357 302.838 342.357ZM303.381 341.395C311.866 337.033 333.584 324.236 351.903 299.665C376.446 266.749 386.698 225.042 382.373 175.704C382.321 175.118 381.859 174.661 381.275 174.617C362.508 173.233 327.338 168.466 302.636 152.075C302.183 151.774 301.584 151.819 301.18 152.181C278.679 172.343 247.989 181.369 227.557 181.369C227.211 181.369 226.905 181.496 226.679 181.728C226.454 181.956 226.335 182.258 226.341 182.578L226.399 185.848C226.829 210.309 227.315 238.033 237.239 265.201C248.34 295.589 269.586 320.493 302.191 341.336C302.547 341.565 303.004 341.588 303.381 341.395Z" fill="white"/>
<path opacity="0.61" d="M332.712 220.817H328.846C326.928 220.817 325.371 219.262 325.371 217.342V204.132C325.371 199.403 321.538 195.569 316.809 195.569H292.861C288.132 195.569 284.299 199.403 284.299 204.132V217.342C284.299 219.261 282.744 220.817 280.823 220.817H276.958C275.039 220.817 273.483 219.262 273.483 217.342V204.132C273.483 193.43 282.158 184.755 292.859 184.755H316.807C327.509 184.755 336.184 193.43 336.184 204.132V217.342C336.187 219.262 334.63 220.817 332.712 220.817Z" fill="white"/>
<path opacity="0.61" d="M337.502 223.935H272.171C268.168 223.935 264.922 227.181 264.922 231.184V281.323C264.922 285.325 268.168 288.571 272.171 288.571H337.502C341.505 288.571 344.751 285.325 344.751 281.323V231.184C344.751 227.181 341.506 223.935 337.502 223.935ZM314.184 272.395C314.589 274.085 313.309 275.708 311.572 275.708H298.101C296.364 275.708 295.084 274.085 295.489 272.395L298.633 259.31C294.922 257.092 292.496 252.945 292.745 248.253C293.066 242.175 297.991 237.202 304.064 236.824C311.101 236.387 316.947 241.966 316.947 248.91C316.947 253.331 314.577 257.196 311.04 259.31L314.184 272.395Z" fill="white"/>
<path d="M54.4126 207.544C54.4126 207.544 59.7043 207.824 60.3526 218.71C60.3526 218.71 48.0827 229.709 31.5088 232.327C30.2643 232.524 33.2488 223.834 33.6968 222.656C35.8312 217.056 42.554 213.449 54.4126 207.544Z" fill="url(#paint5_linear_39_1583)"/>
<path d="M114.003 194.746H102.837C102.837 194.746 68.5659 156.896 46.0887 153.079C46.0887 153.079 30.4429 173.051 46.922 210.369C48.2476 213.37 51.9553 214.705 54.7212 212.937C55.5484 212.408 56.1416 211.7 56.5024 210.814L55.1768 178.95C55.1768 178.95 84.4105 204.517 89.4912 209.451C94.5734 214.385 120.402 211.378 114.003 194.746Z" fill="#7D97F4"/>
<path d="M6.05299 274.211C10.7316 270.111 18.1868 265.51 28.9506 264.192L32.5911 266.418C32.5911 266.418 30.2701 269.842 26.0303 273.458C22.133 275.72 16.1166 278.786 11.1276 279.451C6.27469 280.096 5.56066 277.165 6.05299 274.211Z" fill="url(#paint6_linear_39_1583)"/>
<path d="M33.698 222.657C36.5801 223.589 37.8491 227.673 45.1637 224.973C52.2397 222.36 57.5008 218.99 60.2071 217.047C60.2667 217.573 60.3187 218.123 60.3539 218.71C60.3539 218.71 47.4174 231.015 30.8435 233.633C29.5989 233.83 28.6127 232.587 29.0622 231.41C29.8649 229.298 31.3159 226.095 33.698 222.657Z" fill="#91B3FA"/>
<path d="M2.52717 277.713C3.44914 276.664 4.62643 275.461 6.05142 274.212C5.5591 277.167 6.27312 280.098 11.1245 279.451C16.1135 278.786 22.1315 275.721 26.0272 273.458C21.1422 277.623 13.7115 282.044 4.33134 281.784C2.25043 281.726 1.15111 279.277 2.52717 277.713Z" fill="#91B3FA"/>
<path d="M113.595 202.825L61.3064 203.391C61.3064 203.391 31.4459 228.096 26.0288 265.768C26.0288 265.768 25.1298 268.538 30.527 269.012C30.527 269.012 48.5809 257.221 60.3523 236.373C74.7857 210.812 103.382 222.318 103.382 222.318C117.119 225.35 128.055 224.221 136.056 211.907L113.595 202.825Z" fill="#7D97F4"/>
<path d="M112.36 160.702C112.36 160.702 106.73 188.912 79.1511 200.072L69.3397 198.916L67.0249 202.607L90.0372 203.341C90.0372 203.341 109.709 195.55 120.13 174.32C120.476 173.618 126.215 161.767 112.36 160.702Z" fill="url(#paint7_linear_39_1583)"/>
<path d="M109.343 202.363C109.343 202.363 115.745 184.964 117.12 168.056C117.12 168.056 112.436 164.032 109.51 162.295C108.562 161.733 108.204 160.543 108.683 159.551C110.836 155.092 123.848 137.589 124.824 137.344C130.123 136.022 151.854 125.689 167.159 146.625C173.728 155.609 165.857 183.266 136.057 211.91C126.468 213.471 117.503 210.708 109.343 202.363Z" fill="url(#paint8_linear_39_1583)"/>
<path d="M134.008 171.868C134.008 171.868 116.223 192.926 93.4862 196.004C93.4862 196.004 87.6104 190.647 83.2406 192.559C78.8709 194.472 72.8789 202.915 72.8789 202.915H102.074C102.074 202.915 129.68 201.942 143.474 185.203C142.364 179.346 139.04 175.846 134.008 171.868Z" fill="url(#paint9_linear_39_1583)"/>
<path d="M144.384 122.576L148.275 135.554C148.454 136.149 148.234 136.792 147.721 137.144C145.848 138.427 140.951 140.979 134.234 138.499C133.467 138.216 132.939 137.497 132.874 136.681L131.952 125.374L144.384 122.576Z" fill="url(#paint10_linear_39_1583)"/>
<path d="M121.598 112.064C121.598 112.064 123.51 125.517 128.678 129.655C133.846 133.792 143.916 130.676 147.316 120.535L140.541 103.193L121.598 112.064Z" fill="url(#paint11_linear_39_1583)"/>
<path d="M141.304 114.415C140.911 114.542 140.5 114.29 140.439 113.882C140.252 112.64 139.786 110.182 138.844 108.508C138.844 108.508 139.338 106.743 134.383 109.41C129.429 112.076 121.987 115.993 117.607 113.66C113.337 111.387 109.01 99.9424 120.298 102.062C120.728 102.143 121.122 101.8 121.09 101.364C120.951 99.4837 121.137 95.1568 125.519 93.7669C129.62 92.4673 131.864 94.3189 132.789 95.435C133.062 95.7637 133.566 95.7576 133.826 95.4182C135.054 93.8143 138.39 90.4017 143.301 92.5652C147.347 94.3479 147.975 96.8401 147.908 98.392C147.886 98.8951 148.397 99.236 148.854 99.025C150.093 98.4547 152.086 98.1581 153.995 100.549C156.634 103.857 152.863 106.723 151.732 107.474C151.547 107.598 151.43 107.801 151.429 108.024C151.418 109.745 151.151 117.244 147.391 121.476C147.065 121.843 146.464 121.735 146.275 121.284L143.381 114.386C143.246 114.067 142.89 113.902 142.558 114.009L141.304 114.415Z" fill="url(#paint12_linear_39_1583)"/>
<path d="M141.243 115.816C141.243 115.816 143.011 108.617 145.695 110.954C148.38 113.292 144.995 118.435 141.92 119.417L141.243 115.816Z" fill="url(#paint13_linear_39_1583)"/>
<path d="M74.3501 204.549L61.2423 160.833C60.7072 159.051 59.1232 157.785 57.2655 157.658L39.5678 156.447C37.7683 156.324 36.4304 158.081 37.0282 159.783L51.6818 201.531C52.1542 202.877 53.3605 203.826 54.7794 203.97L72.208 205.905L74.3501 204.549Z" fill="url(#paint14_linear_39_1583)"/>
<path d="M50.174 175.651C51.1526 177.626 52.8436 178.784 53.949 178.236C55.0544 177.689 55.1584 175.643 54.1799 173.668C53.2014 171.692 51.5119 170.535 50.4049 171.082C49.2995 171.63 49.1955 173.675 50.174 175.651Z" fill="#91B3FA"/>
<path d="M72.2065 205.904C72.2356 205.904 72.2631 205.904 72.2921 205.901L109.427 204.023C110.345 203.977 111.053 203.196 111.005 202.277C110.959 201.358 110.174 200.637 109.259 200.699L72.1239 202.577C71.2066 202.623 70.5002 203.406 70.5461 204.323C70.5919 205.213 71.3258 205.904 72.2065 205.904Z" fill="url(#paint15_linear_39_1583)"/>
<path d="M117.119 168.313C116.977 168.313 116.862 168.198 116.862 168.056C116.836 160.217 119.853 149.842 119.884 149.738C119.923 149.602 120.066 149.524 120.203 149.563C120.339 149.603 120.417 149.747 120.378 149.883C120.347 149.985 117.352 160.291 117.378 168.055C117.378 168.197 117.263 168.313 117.119 168.313Z" fill="url(#paint16_linear_39_1583)"/>
<path d="M134.008 172.126C133.953 172.126 133.897 172.108 133.849 172.071C133.738 171.982 133.719 171.822 133.806 171.71C133.887 171.608 141.959 161.346 144.722 154.346C144.774 154.214 144.922 154.146 145.055 154.201C145.186 154.253 145.252 154.403 145.2 154.534C142.41 161.605 134.291 171.926 134.21 172.028C134.16 172.093 134.085 172.126 134.008 172.126Z" fill="url(#paint17_linear_39_1583)"/>
<path d="M145.451 187.904L143.983 185.827C143.901 185.711 143.928 185.551 144.044 185.468C144.161 185.385 144.321 185.413 144.404 185.529L145.631 187.266C157.085 182.245 164.176 168.542 164.246 168.405C164.311 168.278 164.465 168.228 164.592 168.293C164.719 168.357 164.769 168.513 164.704 168.64C164.632 168.781 157.381 182.797 145.642 187.824L145.451 187.904Z" fill="url(#paint18_linear_39_1583)"/>
<defs>
<linearGradient id="paint0_linear_39_1583" x1="455.941" y1="432.063" x2="148.44" y2="163" gradientUnits="userSpaceOnUse">
<stop stop-color="#4B4B4B"/>
<stop offset="1" stop-color="#E9EFFD"/>
</linearGradient>
<linearGradient id="paint1_linear_39_1583" x1="34.2286" y1="30.6065" x2="363.453" y2="541.472" gradientUnits="userSpaceOnUse">
<stop stop-color="#2E2E2E" stop-opacity="0.56"/>
<stop offset="1" stop-color="#4042E2"/>
</linearGradient>
<linearGradient id="paint2_linear_39_1583" x1="200.204" y1="404.509" x2="145.388" y2="240.062" gradientUnits="userSpaceOnUse">
<stop stop-color="#09005D"/>
<stop offset="1" stop-color="#1A0F91"/>
</linearGradient>
<linearGradient id="paint3_linear_39_1583" x1="72.6646" y1="394.681" x2="316.738" y2="454.05" gradientUnits="userSpaceOnUse">
<stop stop-color="#09005D"/>
<stop offset="1" stop-color="#1A0F91"/>
</linearGradient>
<linearGradient id="paint4_linear_39_1583" x1="490.021" y1="43.9706" x2="418.99" y2="113.457" gradientUnits="userSpaceOnUse">
<stop stop-color="#FF928E"/>
<stop offset="1" stop-color="#FE7062"/>
</linearGradient>
<linearGradient id="paint5_linear_39_1583" x1="49.0662" y1="217.892" x2="29.884" y2="237.926" gradientUnits="userSpaceOnUse">
<stop stop-color="#09005D"/>
<stop offset="1" stop-color="#1A0F91"/>
</linearGradient>
<linearGradient id="paint6_linear_39_1583" x1="23.6197" y1="268.179" x2="-12.6638" y2="294.809" gradientUnits="userSpaceOnUse">
<stop stop-color="#09005D"/>
<stop offset="1" stop-color="#1A0F91"/>
</linearGradient>
<linearGradient id="paint7_linear_39_1583" x1="82.24" y1="169.759" x2="106.873" y2="199.052" gradientUnits="userSpaceOnUse">
<stop stop-color="#FEBBBA"/>
<stop offset="1" stop-color="#FF928E"/>
</linearGradient>
<linearGradient id="paint8_linear_39_1583" x1="204.379" y1="97.66" x2="130.256" y2="174.871" gradientUnits="userSpaceOnUse">
<stop stop-color="#FF928E"/>
<stop offset="1" stop-color="#FE7062"/>
</linearGradient>
<linearGradient id="paint9_linear_39_1583" x1="110.963" y1="196.413" x2="61.7253" y2="129.054" gradientUnits="userSpaceOnUse">
<stop stop-color="#FEBBBA"/>
<stop offset="1" stop-color="#FF928E"/>
</linearGradient>
<linearGradient id="paint10_linear_39_1583" x1="141.082" y1="140.593" x2="139.269" y2="124.27" gradientUnits="userSpaceOnUse">
<stop stop-color="#FEBBBA"/>
<stop offset="1" stop-color="#FF928E"/>
</linearGradient>
<linearGradient id="paint11_linear_39_1583" x1="131.409" y1="126.354" x2="139.403" y2="99.9885" gradientUnits="userSpaceOnUse">
<stop stop-color="#FEBBBA"/>
<stop offset="1" stop-color="#FF928E"/>
</linearGradient>
<linearGradient id="paint12_linear_39_1583" x1="138.622" y1="77.9423" x2="131.19" y2="120.333" gradientUnits="userSpaceOnUse">
<stop stop-color="#09005D"/>
<stop offset="1" stop-color="#1A0F91"/>
</linearGradient>
<linearGradient id="paint13_linear_39_1583" x1="139.689" y1="128.865" x2="147.683" y2="102.499" gradientUnits="userSpaceOnUse">
<stop stop-color="#FEBBBA"/>
<stop offset="1" stop-color="#FF928E"/>
</linearGradient>
<linearGradient id="paint14_linear_39_1583" x1="74.35" y1="181.173" x2="36.8829" y2="181.173" gradientUnits="userSpaceOnUse">
<stop stop-color="#09005D"/>
<stop offset="1" stop-color="#1A0F91"/>
</linearGradient>
<linearGradient id="paint15_linear_39_1583" x1="69.8025" y1="197.551" x2="99.7614" y2="205.762" gradientUnits="userSpaceOnUse">
<stop stop-color="#09005D"/>
<stop offset="1" stop-color="#1A0F91"/>
</linearGradient>
<linearGradient id="paint16_linear_39_1583" x1="125.26" y1="56.1567" x2="113.679" y2="234.505" gradientUnits="userSpaceOnUse">
<stop stop-color="#E1473D"/>
<stop offset="1" stop-color="#E9605A"/>
</linearGradient>
<linearGradient id="paint17_linear_39_1583" x1="146.344" y1="57.5259" x2="134.763" y2="235.874" gradientUnits="userSpaceOnUse">
<stop stop-color="#E1473D"/>
<stop offset="1" stop-color="#E9605A"/>
</linearGradient>
<linearGradient id="paint18_linear_39_1583" x1="162.032" y1="58.5446" x2="150.451" y2="236.892" gradientUnits="userSpaceOnUse">
<stop stop-color="#E1473D"/>
<stop offset="1" stop-color="#E9605A"/>
</linearGradient>
</defs>
</svg>
