<svg width="453" height="293" viewBox="0 0 453 293" fill="none" xmlns="http://www.w3.org/2000/svg">
<g opacity="0.2">
<path d="M337.794 118.556C363.619 118.556 384.555 97.625 384.555 71.8058C384.555 45.9867 363.619 25.0562 337.794 25.0562C311.968 25.0562 291.032 45.9867 291.032 71.8058C291.032 97.625 311.968 118.556 337.794 118.556Z" fill="#6B6B77"/>
<path d="M415.086 279.289C424.992 271.715 433.729 262.867 440.242 252.24C453.472 230.648 455.025 200.237 438.041 181.456C419.172 160.595 386.771 161.16 358.773 163.933C330.783 166.714 298.91 168.885 278.307 149.734C261.511 134.118 257.93 109.217 256.211 86.3514C254.493 63.4853 253.03 38.9008 238.767 20.941C219.567 -3.22893 180.924 -6.14561 154.909 10.4802C128.901 27.106 115.324 58.9934 115.015 89.8559C114.887 103.06 115.678 118.947 104.77 126.393C96.0704 132.332 84.1294 129.416 74.7816 124.555C65.4414 119.701 56.6288 113.008 46.188 111.599C32.2945 109.73 18.4537 118.148 10.7418 129.853C3.02988 141.557 0.549706 155.982 0.127548 169.985C-1.07862 209.741 14.0663 249.429 40.2325 279.289H415.086Z" fill="#6B6B77"/>
</g>
<path d="M25.7573 280.537H418.229" stroke="#D3C6FC" stroke-width="1.0481" stroke-miterlimit="10"/>
<path d="M325.004 276.415H210.025C205.781 276.415 202.338 279.857 202.338 284.1H325.01V276.415H325.004Z" fill="#8F9AF8"/>
<path d="M362.292 224.891H282.703C280.493 224.891 278.499 226.211 277.63 228.238L255.681 279.648C254.778 281.756 256.328 284.1 258.618 284.1H340.829C343.038 284.1 345.032 282.78 345.902 280.752L366.82 231.754C368.214 228.501 365.823 224.891 362.292 224.891Z" fill="#B8C3FF"/>
<path d="M321.083 255.617C319.87 260.554 314.885 264.554 309.947 264.554C305.008 264.554 301.99 260.554 303.203 255.617C304.416 250.68 309.401 246.679 314.339 246.679C319.277 246.679 322.295 250.68 321.083 255.617Z" fill="white"/>
<path d="M202.123 288.013H341.799" stroke="#D3C6FC" stroke-width="1.0481" stroke-miterlimit="10"/>
<path d="M261.771 291.993H335.836" stroke="#D3C6FC" stroke-width="1.0481" stroke-miterlimit="10"/>
<path d="M393.12 100H210.86C202.628 100 195.952 106.675 195.952 114.905V192.427C195.952 200.657 202.628 207.332 210.86 207.332H280.971L293.529 219.886L306.086 207.332H393.114C401.346 207.332 408.022 200.657 408.022 192.427V114.912C408.029 106.675 401.353 100 393.12 100Z" fill="white" stroke="#BBABF8" stroke-width="1.0481" stroke-miterlimit="10"/>
<path d="M236.081 145.562C244.009 142.225 247.729 133.094 244.391 125.168C241.052 117.242 231.919 113.523 223.991 116.86C216.063 120.198 212.343 129.329 215.682 137.255C219.02 145.181 228.153 148.9 236.081 145.562Z" fill="#DAE0FF"/>
<path d="M262.499 117.06L265.362 125.627L274.396 125.56L267.127 130.928L269.983 139.495L262.633 134.242L255.364 139.609L258.093 130.995L250.743 125.742L259.777 125.674L262.499 117.06Z" fill="#FAAF3B"/>
<path d="M291.279 117.06L294.142 125.627L303.176 125.56L295.907 130.928L298.764 139.495L291.414 134.242L284.144 139.609L286.873 130.995L279.523 125.742L288.557 125.674L291.279 117.06Z" fill="#FAAF3B"/>
<path d="M320.059 117.06L322.922 125.627L331.956 125.56L324.687 130.928L327.543 139.495L320.193 134.242L312.924 139.609L315.653 130.995L308.303 125.742L317.337 125.674L320.059 117.06Z" fill="#FAAF3B"/>
<path d="M348.839 117.06L351.702 125.627L360.736 125.56L353.467 130.928L356.324 139.495L348.974 134.242L341.705 139.609L344.433 130.995L337.083 125.742L346.117 125.674L348.839 117.06Z" fill="#E8ECFF"/>
<path d="M377.619 117.06L380.482 125.627L389.516 125.56L382.247 130.928L385.103 139.495L377.753 134.242L370.484 139.609L373.213 130.995L365.863 125.742L374.897 125.674L377.619 117.06Z" fill="#E8ECFF"/>
<path d="M227.399 153.72H213.643V157.397H227.399V153.72Z" fill="#BBABF8"/>
<path d="M251.417 153.72H230.795V157.397H251.417V153.72Z" fill="#BBABF8"/>
<path d="M243.312 164.638H213.643V168.315H243.312V164.638Z" fill="#E6DFFC"/>
<path d="M324.822 164.638H255.405V168.315H324.822V164.638Z" fill="#E6DFFC"/>
<path d="M390.338 164.638H336.908V168.315H390.338V164.638Z" fill="#E6DFFC"/>
<path d="M279.974 176.336H213.643V180.014H279.974V176.336Z" fill="#E6DFFC"/>
<path d="M390.345 176.336H357.192V180.014H390.345V176.336Z" fill="#E6DFFC"/>
<path d="M349.391 176.336H291.279V180.014H349.391V176.336Z" fill="#E6DFFC"/>
<path d="M298.298 188.036H213.643V191.713H298.298V188.036Z" fill="#E6DFFC"/>
<path d="M429.749 41.0469H310.789C305.412 41.0469 301.054 45.4045 301.054 50.7792V74.5746C301.054 79.9493 305.412 84.307 310.789 84.307H429.749C435.125 84.307 439.483 79.9493 439.483 74.5746V50.7792C439.483 45.4045 435.125 41.0469 429.749 41.0469Z" fill="white" stroke="#BBABF8" stroke-width="1.0481" stroke-miterlimit="10"/>
<path d="M346.81 55.3184L348.677 60.9086L354.571 60.8682L349.829 64.3705L351.695 69.9607L346.898 66.5324L342.155 70.0347L343.934 64.4109L339.13 60.9827L345.032 60.9422L346.81 55.3184Z" fill="#FAAF3B"/>
<path d="M365.593 55.3184L367.459 60.9086L373.361 60.8682L368.611 64.3705L370.478 69.9607L365.681 66.5324L360.938 70.0347L362.717 64.4109L357.92 60.9827L363.815 60.9422L365.593 55.3184Z" fill="#FAAF3B"/>
<path d="M384.382 55.3184L386.248 60.9086L392.143 60.8682L387.4 64.3705L389.266 69.9607L384.47 66.5324L379.72 70.0347L381.499 64.4109L376.702 60.9827L382.604 60.9422L384.382 55.3184Z" fill="#FAAF3B"/>
<path d="M403.165 55.3184L405.031 60.9086L410.932 60.8682L406.183 64.3705L408.049 69.9607L403.252 66.5324L398.509 70.0347L400.288 64.4109L395.491 60.9827L401.386 60.9422L403.165 55.3184Z" fill="#FAAF3B"/>
<path d="M421.954 55.3184L423.82 60.9086L429.715 60.8682L424.972 64.3705L426.838 69.9607L422.035 66.5324L417.292 70.0347L419.071 64.4109L414.274 60.9827L420.169 60.9422L421.954 55.3184Z" fill="#E8ECFF"/>
<path d="M331.104 62.1365C331.868 57.4068 328.653 52.9532 323.922 52.189C319.191 51.4248 314.736 54.6395 313.972 59.3692C313.208 64.0989 316.423 68.5526 321.154 69.3168C325.885 70.0809 330.34 66.8662 331.104 62.1365Z" fill="#DAE0FF"/>
<path d="M319.755 71.2271H312.089V73.2745H319.755V71.2271Z" fill="#BBABF8"/>
<path d="M333.142 71.2271H321.648V73.2745H333.142V71.2271Z" fill="#BBABF8"/>
<path d="M123.968 80.623H42.2831C38.5913 80.623 35.6001 83.6135 35.6001 87.3044V103.644C35.6001 107.335 38.5913 110.325 42.2831 110.325H123.968C127.66 110.325 130.651 107.335 130.651 103.644V87.3044C130.651 83.6135 127.653 80.623 123.968 80.623Z" fill="white" stroke="#BBABF8" stroke-width="1.0481" stroke-miterlimit="10"/>
<path d="M67.0143 90.4224L68.2944 94.2614L72.3432 94.2277L69.0893 96.6322L70.3693 100.478L67.075 98.1207L63.8143 100.525L65.0404 96.6659L61.7461 94.3086L65.795 94.2816L67.0143 90.4224Z" fill="#FAAF3B"/>
<path d="M79.9156 90.4224L81.1956 94.2614L85.2445 94.2277L81.9838 96.6322L83.2639 100.478L79.9695 98.1207L76.7156 100.525L77.935 96.6659L74.6406 94.3086L78.6895 94.2816L79.9156 90.4224Z" fill="#FAAF3B"/>
<path d="M92.8098 90.4224L94.0898 94.2614L98.1454 94.2277L94.8847 96.6322L96.1647 100.478L92.8704 98.1207L89.6165 100.525L90.8358 96.6659L87.5415 94.3086L91.5904 94.2816L92.8098 90.4224Z" fill="#FAAF3B"/>
<path d="M105.711 90.4224L106.991 94.2614L111.04 94.2277L107.786 96.6322L109.066 100.478L105.772 98.1207L102.511 100.525L103.73 96.6659L100.436 94.3086L104.492 94.2816L105.711 90.4224Z" fill="#FAAF3B"/>
<path d="M118.612 90.4224L119.892 94.2614L123.941 94.2277L120.68 96.6322L121.96 100.478L118.666 98.1207L115.412 100.525L116.631 96.6659L113.337 94.3086L117.386 94.2816L118.612 90.4224Z" fill="#E8ECFF"/>
<path d="M56.2378 95.1242C56.7715 91.8757 54.5701 88.8097 51.3208 88.276C48.0714 87.7424 45.0046 89.9433 44.4709 93.1918C43.9371 96.4403 46.1385 99.5063 49.3878 100.04C52.6372 100.574 55.704 98.3727 56.2378 95.1242Z" fill="#DAE0FF"/>
<path d="M48.4339 101.34H43.1724V102.748H48.4339V101.34Z" fill="#BBABF8"/>
<path d="M57.6364 101.34H49.7407V102.748H57.6364V101.34Z" fill="#BBABF8"/>
<path d="M400.06 257.024C410.076 257.024 418.195 248.906 418.195 238.893C418.195 228.879 410.076 220.762 400.06 220.762C390.043 220.762 381.924 228.879 381.924 238.893C381.924 248.906 390.043 257.024 400.06 257.024Z" fill="#FF7AA9"/>
<path d="M405.496 232.057C402.485 232.057 400.053 234.501 400.053 237.512C400.053 234.501 397.627 232.057 394.609 232.057C391.598 232.057 389.152 234.501 389.152 237.512C389.152 244.308 400.053 250.006 400.053 250.006C400.053 250.006 410.953 244.308 410.953 237.512C410.953 234.501 408.514 232.057 405.496 232.057Z" fill="white"/>
<path d="M78.1905 168.796C79.8081 158.914 73.1062 149.592 63.2213 147.974C53.3364 146.357 44.0118 153.058 42.3943 162.94C40.7767 172.822 47.4786 182.144 57.3635 183.762C67.2483 185.379 76.5729 178.679 78.1905 168.796Z" fill="#FF7AA9"/>
<path d="M65.7275 159.04C62.7161 159.04 60.2841 161.485 60.2841 164.496C60.2841 161.485 57.8588 159.04 54.8407 159.04C51.8293 159.04 49.3838 161.485 49.3838 164.496C49.3838 171.291 60.2841 176.989 60.2841 176.989C60.2841 176.989 71.1844 171.291 71.1844 164.496C71.1844 161.478 68.7456 159.04 65.7275 159.04Z" fill="white"/>
<path d="M159.249 38.4331L163.648 51.9776H177.89L166.37 60.3494L170.769 73.8939L159.249 65.522L147.722 73.8939L152.122 60.3494L140.602 51.9776H154.843L159.249 38.4331Z" fill="#BBABF8"/>
<path d="M180.983 70.8901L184.344 81.2354H195.224L186.426 87.6271L189.788 97.9723L180.983 91.5806L172.184 97.9723L175.546 87.6271L166.748 81.2354H177.621L180.983 70.8901Z" fill="#BBABF8"/>
<path d="M166.774 102.27L168.728 108.284H175.054L169.934 111.995L171.888 118.01L166.774 114.292L161.654 118.01L163.608 111.995L158.495 108.284H164.821L166.774 102.27Z" fill="#BBABF8"/>
<path d="M435.858 173.443C445.011 164.293 445.011 149.457 435.858 140.306C426.705 131.155 411.865 131.155 402.712 140.306C393.56 149.457 393.56 164.293 402.712 173.443C411.865 182.594 426.705 182.594 435.858 173.443Z" fill="#BBABF8"/>
<path d="M407.396 145.327V153.443L423.834 157.221L407.396 161V169.109L437.826 157.221L407.396 145.327Z" fill="white"/>
<path d="M280.567 49.1088C280.574 68.0414 265.18 83.4448 246.377 83.4044C227.285 83.3639 214.027 68.7688 212.241 53.3654C211.056 43.1683 213.791 34.096 220.501 26.4045C227.271 18.6523 236.016 14.6718 246.323 14.692C265.018 14.7256 280.682 29.8731 280.567 49.1088Z" fill="#BBABF8"/>
<path d="M251.086 61.9394C248.061 61.9394 245.036 61.9461 242.011 61.9394C240.927 61.9394 240.523 61.5892 240.536 60.4981C240.576 55.7834 240.321 51.0553 240.671 46.3474C240.893 43.3166 242.092 40.6091 243.965 38.2046C245.232 36.5814 246.559 35.0054 248.034 33.5641C248.513 33.0993 248.755 32.574 248.742 31.9005C248.728 31.0922 248.809 30.284 248.789 29.4758C248.762 28.4655 249.099 27.6304 250.042 27.2465C251.025 26.8491 251.996 27.0511 252.797 27.7987C253.579 28.5261 253.882 29.5027 254.118 30.4928C254.737 33.0387 254.259 35.4499 253.208 37.7938C252.858 38.575 252.541 39.3765 252.144 40.1376C251.888 40.636 252.083 40.8111 252.528 40.8852C252.757 40.9189 252.993 40.9054 253.228 40.9054C255.943 40.8987 258.652 40.8919 261.367 40.8852C262.842 40.8852 263.852 41.5924 264.203 42.8586C264.594 44.273 264.028 45.9029 262.835 46.536C262.296 46.8256 262.316 46.9469 262.781 47.2702C263.772 47.9639 264.432 48.8462 264.23 50.1663C264.075 51.1631 263.583 51.8434 262.606 52.1599C262.424 52.2205 262.135 52.2003 262.101 52.4428C262.06 52.6987 262.357 52.7391 262.512 52.8536C263.812 53.8235 263.987 56.4166 262.074 57.2046C261.703 57.3595 261.542 57.447 261.932 57.8175C262.775 58.6257 262.781 59.6562 262.391 60.6395C262.007 61.5959 261.151 61.8923 260.154 61.8923C257.129 61.8788 254.104 61.8855 251.079 61.8855C251.086 61.9125 251.086 61.9259 251.086 61.9394Z" fill="#FDFDFE"/>
<path d="M236.871 64.64C234.372 64.6467 231.866 64.6534 229.366 64.6669C228.619 64.6736 228.275 64.256 228.194 63.5758C228.154 63.2121 228.174 62.8484 228.174 62.4847C228.174 57.2447 228.174 52.0115 228.181 46.7715C228.181 45.4783 228.504 45.1685 229.811 45.1618C232.054 45.1551 234.291 45.1551 236.534 45.1618C237.43 45.1685 237.895 45.5592 237.895 46.4145C237.902 51.9104 237.882 57.4064 237.868 62.9023C237.868 62.9292 237.855 62.9494 237.848 62.9764C237.707 63.0235 237.727 63.0707 237.841 63.1245C237.882 63.7172 237.868 64.283 237.188 64.5322C237.168 64.3705 237.114 64.1887 236.918 64.2426C236.703 64.3099 236.905 64.5053 236.871 64.64Z" fill="#FDFDFE"/>
<mask id="mask0_30_436" style="mask-type:luminance" maskUnits="userSpaceOnUse" x="25" y="124" width="243" height="158">
<path d="M267.693 124.314H25.4883V281.015H267.693V124.314Z" fill="white"/>
</mask>
<g mask="url(#mask0_30_436)">
<path d="M157.147 148.709C158.104 153.525 157.841 158.495 158.212 163.392C158.582 168.288 159.701 173.38 162.921 177.091C165.649 180.236 169.745 182.217 171.692 185.901C173.174 188.703 173.147 192.144 172.043 195.114C170.938 198.085 168.842 200.604 166.417 202.638C158.05 209.629 145.519 210.754 135.616 206.194C125.713 201.634 118.592 191.929 116.248 181.28C113.91 170.632 116.106 159.243 121.354 149.686C124.318 144.291 128.401 139.28 133.905 136.512C138.452 134.222 145.29 133.359 149.885 136.128C153.819 138.498 156.305 144.473 157.147 148.709Z" fill="#452828"/>
<path d="M235.996 258.189C235.996 258.189 234.218 262.015 229.69 259.731L226.726 265.322L234.11 269.228L239.472 259.098L237.35 249.124C237.35 249.124 235.349 249.912 235.403 252.053C235.457 254.209 235.996 258.189 235.996 258.189Z" fill="#915046"/>
<path d="M242.739 271.268C242.773 268.938 241.52 266.763 239.432 265.658L231.698 261.563L230.101 264.58L242.739 271.268Z" fill="#994F39"/>
<path d="M244.909 274.737C244.942 272.407 243.689 270.232 241.601 269.127L232.722 264.433L231.125 267.45L244.909 274.737Z" fill="#AB6955"/>
<path d="M234.514 239.627L237.094 247.359L245.239 247.292L238.684 252.134L241.264 259.866L234.635 255.125L228.073 259.967L230.532 252.195L223.903 247.46L232.055 247.399L234.514 239.627Z" fill="#FAAF3B"/>
<path d="M229.535 259.664L229.913 256.956L233.039 254.491C233.988 253.744 234.541 252.605 234.548 251.393V251.09L225.001 254.491L220.838 259.415L218.157 264.486L232.587 272.124L233.564 270.272C235.498 266.614 234.103 262.088 230.452 260.149L229.535 259.664Z" fill="#B57A68"/>
<path d="M242.719 277.479C242.753 275.148 241.5 272.973 239.411 271.868L230.532 267.174L228.936 270.191L242.719 277.479Z" fill="#B57A68"/>
<path d="M229.407 259.388C228.505 260.782 227.346 262.008 226.005 262.998" stroke="#A15545" stroke-width="1.8647" stroke-miterlimit="10" stroke-linecap="round" stroke-linejoin="round"/>
<path d="M177.803 259.341L221.741 260.048L221.566 266.076L169.281 274.064L177.803 259.341Z" fill="#B57A68"/>
<path d="M137.125 202.92H150.013C156.096 202.92 161.499 206.786 163.467 212.538L182.195 267.295C182.195 267.295 180.895 277.425 172.966 278.354C169.988 278.704 167.125 277.074 165.73 274.421L137.119 220.149V202.92H137.125Z" fill="#383757"/>
<path d="M169.779 258.445L212.174 259.873L198.215 277.492L171.43 279.095C167.886 279.304 165.171 275.997 166.074 272.569L167.825 265.888L169.779 258.445Z" fill="#383757"/>
<path d="M177.803 259.341C174.34 261.435 170.433 264.655 168.634 268.285" stroke="#474463" stroke-width="1.8647" stroke-miterlimit="10" stroke-linecap="round"/>
<path d="M177.803 259.341C173.309 259.516 167.772 260.122 164.491 263.193" stroke="#474463" stroke-width="1.8647" stroke-miterlimit="10" stroke-linecap="round"/>
<path d="M104.29 284.766L93.6591 211.467L99.0015 202.826H147.716L161.102 238.886C161.102 238.886 149.905 273.579 149.905 286.45L162.227 322.228L147.676 327.825L136.472 293.448L124.157 327.582L85.8174 311.633L104.29 284.766Z" fill="#474463"/>
<path d="M93.6523 211.467L99.0621 202.711H106.035L108.09 220.156L101.366 264.608L93.6523 211.467Z" fill="#383757"/>
<path d="M145.439 203.062V244.315L110.878 203.062H145.439Z" fill="white"/>
<path d="M124.258 212.983C121.833 212.404 119.468 211.589 117.184 210.585L110.582 202.705H145.439V208.76C140.554 214.525 131.318 214.667 124.258 212.983Z" fill="#B57A68"/>
<path d="M110.582 202.711V228.48H125.363L117.157 245.803L146.503 245.594L110.582 202.711Z" fill="#615F7F"/>
<path d="M145.439 202.711H147.669L164.942 228.48H151.3L166.027 245.803H146.503H145.641L145.439 202.711Z" fill="#615F7F"/>
<path d="M145.601 245.763C142.273 261.483 139.834 277.392 136.506 293.112" stroke="#383757" stroke-width="1.8647" stroke-miterlimit="10"/>
<path d="M108.089 202.705H95.2017C89.1183 202.705 83.7153 206.571 81.7481 212.323L63.0195 267.08C63.0195 267.08 63.2351 271.135 65.1147 274.596C68.1059 280.099 75.5097 281.5 78.4605 275.977L108.096 219.94V202.705H108.089Z" fill="#474463"/>
<path d="M126.017 261.55L129.553 264.614L138.022 266.554L137.981 266.251C137.813 265.052 137.112 264.002 136.068 263.389L133.946 261.685L134.559 259.341L138.123 256.384L133.804 252.646L124.582 258.714L126.017 261.55Z" fill="#915046"/>
<path d="M134.255 255.529L140.157 261.153L147.325 257.287L143.795 264.628L149.696 270.259L141.619 269.168L138.089 276.516L136.627 268.501L128.549 267.41L135.717 263.544L134.255 255.529Z" fill="#FAAF3B"/>
<path d="M139.578 258.513C139.578 258.513 137.759 255.677 134.424 257.967L131.48 253.859L137.503 249.656L142.832 257.091L141.639 263.921C141.639 263.921 139.968 263.51 139.78 261.813C139.591 260.109 139.578 258.513 139.578 258.513Z" fill="#915046"/>
<path d="M126.394 262.19L122.877 257.482L135.947 247.386L137.166 249.09C139.578 252.451 139.456 255.475 137.381 257.112L134.552 259.341L126.394 262.19Z" fill="#B57A68"/>
<path d="M145.594 251.73C145.971 251.636 146.288 252.02 146.133 252.384C145.513 253.832 144.253 254.936 142.677 255.327L134.707 257.287L134.04 254.579L145.594 251.73Z" fill="#B57A68"/>
<path d="M144.509 240.462C144.887 240.159 145.439 240.422 145.452 240.907C145.513 242.847 144.684 244.739 143.121 245.992L135.239 252.336L133.083 249.656L144.509 240.462Z" fill="#B57A68"/>
<path d="M146.186 246.019C146.618 245.803 147.103 246.18 147.015 246.652C146.658 248.558 145.445 250.228 143.653 251.124L135.758 255.051L134.222 251.973L146.186 246.019Z" fill="#B57A68"/>
<path d="M76.83 256L120.074 255.751L106.614 274.508L73.1045 279.546C68.7727 280.2 65.0943 276.401 65.8623 272.084C67.0952 265.174 69.9988 256.559 76.83 256Z" fill="#474463"/>
<path d="M88.5722 255.967L74.418 256.256" stroke="#383757" stroke-width="1.8647" stroke-miterlimit="10" stroke-linecap="round"/>
<path d="M88.5723 255.933L73.7983 259.873" stroke="#383757" stroke-width="1.8647" stroke-miterlimit="10" stroke-linecap="round"/>
<path d="M119.084 168.234L120.607 206.261C120.667 207.79 121.927 209.002 123.456 209.002H142.178C144.509 209.002 145.634 206.18 143.97 204.55C140.379 201.041 136.741 195.02 136.741 185.025V168.995L119.084 168.234Z" fill="#B57A68"/>
<path d="M127.727 168.604L136.748 168.995V185.018C136.748 189.416 137.456 193.039 138.547 196.016C128.179 192.494 124.682 178.606 127.727 168.604Z" fill="#915046"/>
<path d="M123.705 182.473C122.439 181.617 121.199 180.58 120.02 179.428C114.011 173.589 110.42 165.688 109.578 157.35C108.797 149.598 110.353 141.886 116.786 136.768C123.678 131.285 134.424 130.807 142.185 134.612C149.609 138.249 153.691 145.166 155.207 153.08C155.962 157.007 156.17 161.021 156.224 165.015C156.325 172.491 155.167 186.85 146.57 188.642C137.287 190.555 130.516 187.073 123.705 182.473Z" fill="#B57A68"/>
<path d="M152.499 149.766C154.964 153.289 155.672 157.721 156.312 161.971C157.848 156.515 157.854 150.635 156.318 145.173C155.598 142.62 154.526 140.115 152.755 138.135C150.983 136.161 148.443 134.767 145.789 134.807C141.639 134.875 136.653 140.586 140.938 144.041C142.245 145.099 144.468 144.877 146.024 145.294C148.638 146.008 150.936 147.537 152.499 149.766Z" fill="#452828"/>
<path d="M142.569 152.912C139.766 155.451 136.303 157.135 132.605 157.916C128.819 158.717 124.224 158.495 121.374 161.526C112.717 170.74 120.014 181.812 124.426 191.107C126.649 195.788 128.947 201.223 127.741 206.497C126.198 213.245 119.616 216.451 113.149 216.478C102.619 216.519 94.4605 208.699 92.3586 198.65C91.2672 193.444 92.015 188.251 94.036 183.382C95.8954 178.896 98.8933 174.936 100.382 170.295C102.767 162.86 99.3919 155.027 101.804 147.47C106.6 132.457 129.688 117.714 143.768 129.951C151.886 137.003 149.245 146.857 142.569 152.912Z" fill="#452828"/>
<path d="M121.927 156.219C120.034 158.017 118.794 160.543 118.525 163.142C118.215 166.113 119.023 169.076 120.499 171.689L122.425 171.353C122.627 167.972 123.483 164.604 124.547 161.438C125.032 159.984 125.619 158.542 126.319 157.148C125.74 154.481 123.638 154.589 121.927 156.219Z" fill="#452828"/>
<path d="M147.399 163.769C147.958 166.267 148.975 168.658 150.383 170.793C150.875 171.541 151.448 172.383 151.232 173.252C151.037 174.073 150.228 174.565 149.487 174.976" stroke="#915046" stroke-width="1.2164" stroke-miterlimit="10" stroke-linecap="round"/>
<path d="M147.339 181.631C148.442 181.224 149.005 179.999 148.598 178.897C148.19 177.795 146.965 177.231 145.862 177.639C144.76 178.047 144.196 179.271 144.604 180.374C145.012 181.476 146.237 182.039 147.339 181.631Z" fill="#FF7A7A"/>
<path d="M149.845 178.424C147.628 179.744 144.779 179.933 142.407 178.916" stroke="#915046" stroke-width="1.2164" stroke-miterlimit="10" stroke-linecap="round"/>
<path d="M154.89 156.926C152.977 155.855 150.983 156.117 149.487 157.633" stroke="#452828" stroke-width="1.8231" stroke-miterlimit="10" stroke-linecap="round"/>
<path d="M139.975 158.865C137.301 158.01 134.451 158.482 132.201 160.145" stroke="#452828" stroke-width="1.8231" stroke-miterlimit="10" stroke-linecap="round"/>
<path d="M139.497 164.786C139.679 165.823 138.985 166.806 137.954 166.988C136.917 167.17 135.933 166.476 135.751 165.446C135.569 164.409 136.263 163.425 137.294 163.243C138.331 163.055 139.315 163.748 139.497 164.786Z" fill="#452828"/>
<path d="M153.979 163.758C154.149 162.723 153.449 161.746 152.413 161.575C151.378 161.405 150.4 162.106 150.23 163.141C150.059 164.176 150.76 165.153 151.795 165.323C152.831 165.494 153.808 164.793 153.979 163.758Z" fill="#452828"/>
<path d="M120.06 167.129C118.76 166.025 116.894 165.425 115.311 166.065C114.038 166.577 113.148 167.823 112.838 169.157C112.529 170.49 112.744 171.905 113.209 173.198C114.678 177.313 118.78 180.351 123.146 180.553C124.049 180.593 123.55 173.366 123.422 172.673C123.018 170.605 121.657 168.49 120.06 167.129Z" fill="#B57A68"/>
<path d="M121.88 178.62C122.061 179.643 121.374 180.613 120.35 180.795C119.326 180.977 118.356 180.29 118.174 179.266C117.992 178.242 118.679 177.273 119.703 177.091C120.728 176.909 121.698 177.596 121.88 178.62Z" fill="white"/>
<path d="M115.641 168.988C116.389 168.355 117.507 168.281 118.403 168.665C119.299 169.049 119.986 169.837 120.404 170.719C120.822 171.602 121.004 172.578 121.105 173.548C120.626 173.097 119.818 173.043 119.286 173.427C118.754 173.817 118.551 174.599 118.834 175.198C119.117 175.798 119.852 176.134 120.492 175.966" stroke="#915046" stroke-width="1.2164" stroke-miterlimit="10" stroke-linecap="round"/>
</g>
</svg>
