<svg width="132" height="54" viewBox="0 0 132 54" fill="none" xmlns="http://www.w3.org/2000/svg">
<g id="Logo" clip-path="url(#clip0_46_34647)">
<g id="Group">
<g id="Group_2">
<path id="Vector" d="M21.2184 37.8497C22.9269 37.8497 24.3484 38.3752 25.4896 39.4326C26.6307 40.4837 27.2045 41.8872 27.2045 43.6432C27.2045 45.3992 26.6307 46.8027 25.4896 47.8537C24.3484 48.9048 22.9204 49.4367 21.2184 49.4367H19.3405V54.0061H14.6455V37.8561H21.2184V37.8497ZM21.2184 44.957C21.5771 44.957 21.8836 44.8352 22.1314 44.5981C22.3791 44.361 22.5096 44.0405 22.5096 43.6432C22.5096 43.2458 22.3857 42.9254 22.1314 42.6883C21.8836 42.4512 21.5771 42.3294 21.2184 42.3294H19.3405V44.957H21.2184Z" fill="#41C5E8"/>
<path id="Vector_2" d="M45.541 53.9741L42.9327 48.8983H41.7589V53.9741H37.064V37.8241H43.6369C45.4366 37.8241 46.9234 38.3432 48.0971 39.3814C49.2709 40.4196 49.8577 41.7911 49.8577 43.5022C49.8577 44.4571 49.636 45.3159 49.1861 46.0849C48.7427 46.854 48.1167 47.4756 47.3211 47.9563L50.562 53.9805H45.541V53.9741ZM41.7589 42.073V45.0723H43.5456C44.0477 45.0851 44.439 44.9634 44.7324 44.7006C45.0258 44.4379 45.1693 44.0726 45.1693 43.5919C45.1693 43.1177 45.0258 42.7395 44.7324 42.4704C44.4455 42.2012 44.0477 42.0666 43.5456 42.0666H41.7589V42.073Z" fill="#41C5E8"/>
<path id="Vector_3" d="M60.1865 37.8497H64.8815V53.9997H60.1865V37.8497Z" fill="#41C5E8"/>
<path id="Vector_4" d="M92.8164 37.8497V53.9997H88.1215V46.1298L84.4568 52.1732H84.033L80.3683 46.1298V53.9997H75.6733V37.8497H80.3683L84.2416 44.425L88.115 37.8497H92.8164Z" fill="#41C5E8"/>
<path id="Vector_5" d="M108.31 49.7509H114.413V53.9935H103.615V37.8435H114.296V42.0412H108.31V43.7972H113.709V47.95H108.31V49.7509Z" fill="#41C5E8"/>
</g>
</g>
<g id="Group_3">
<path id="Vector_6" d="M43.226 14.1187V19.4957H38.5767V33.5116H32.9428V19.4893H28.2935V14.1123H43.226V14.1187Z" fill="white"/>
<path id="Vector_7" d="M56.7893 33.4795L53.6593 27.3848H52.2508V33.4795H46.6104V14.0867H54.5005C56.6589 14.0867 58.4456 14.7083 59.854 15.9581C61.2625 17.2078 61.9668 18.8548 61.9668 20.9056C61.9668 22.0528 61.6994 23.0846 61.1647 24.0074C60.63 24.9303 59.8801 25.6801 58.9216 26.2505L62.8145 33.4795H56.7893ZM52.2508 19.1881V22.7898H54.3962C54.9961 22.809 55.4721 22.6616 55.8177 22.3476C56.1633 22.0335 56.3393 21.5913 56.3393 21.021C56.3393 20.4506 56.1633 20.002 55.8177 19.6751C55.4656 19.3547 54.9961 19.1881 54.3962 19.1881H52.2508Z" fill="white"/>
<path id="Vector_8" d="M77.9036 33.5116L77.2255 31.0186H71.5328L70.8547 33.5116H64.7969L71.0764 14.1187H77.6754L83.9614 33.5116H77.9036ZM72.7457 26.5837H76.0126L74.3759 20.63L72.7457 26.5837Z" fill="white"/>
<path id="Vector_9" d="M94.9554 14.1187C97.681 14.1187 99.9568 15.048 101.789 16.9001C103.621 18.7587 104.534 21.0594 104.534 23.8152C104.534 26.5709 103.615 28.8717 101.789 30.7302C99.9568 32.5887 97.681 33.5116 94.9554 33.5116H86.7783V14.1187H94.9554ZM94.9554 28.1346C96.103 28.1346 97.0485 27.7309 97.7919 26.9298C98.5353 26.1287 98.9069 25.0841 98.9069 23.8152C98.9069 22.5398 98.5353 21.5016 97.7919 20.7005C97.0485 19.8994 96.103 19.4957 94.9554 19.4957H92.6992V28.1346H94.9554Z" fill="white"/>
<path id="Vector_10" d="M113.983 28.4102H121.312V33.5052H108.342V14.1187H121.169V19.1624H113.983V21.2709H120.464V26.2569H113.983V28.4102Z" fill="white"/>
</g>
<path id="Vector_11" d="M8.77696 21.841L12.5068 26.8398L7.50541 33.5049H0L8.77696 21.841ZM0.93247 5.63328H8.477L29.2913 33.5113H21.7468L0.93247 5.63328Z" fill="white"/>
<g id="Group_4">
<path id="Vector_12" d="M20.8988 5.63328L16.7451 11.132L17.4754 12.0933L20.5206 16.1372L26.9958 7.5559L28.4499 5.63328H20.8988Z" fill="#41C5E8"/>
</g>
<g id="Group_5">
<path id="Vector_13" d="M126.268 11.2666C129.434 11.2666 132 8.74445 132 5.63328C132 2.5221 129.434 0 126.268 0C123.103 0 120.537 2.5221 120.537 5.63328C120.537 8.74445 123.103 11.2666 126.268 11.2666Z" fill="white"/>
<g id="Group_6">
<path id="Vector_14" d="M125.427 3.81319V4.49252H124.436V7.42772H123.712V4.49252H122.721V3.81319H125.427Z" fill="#30373E"/>
<path id="Vector_15" d="M129.698 3.81319V7.43413H128.974V5.08212L127.938 6.76121H127.853L126.816 5.08853V7.42772H126.092V3.81319H126.842L127.899 5.52433L128.948 3.81319H129.698Z" fill="#30373E"/>
</g>
</g>
</g>
<defs>
<clipPath id="clip0_46_34647">
<rect width="132" height="54" fill="white"/>
</clipPath>
</defs>
</svg>
