<svg width="369" height="358" viewBox="0 0 369 358" fill="none" xmlns="http://www.w3.org/2000/svg">
<path d="M175.962 127.824C218.55 127.824 253.599 161.82 253.599 204.654C253.599 247.489 219.229 281.485 175.962 281.485C132.695 281.485 98.3262 247.489 98.3262 204.654C98.3262 161.82 133.375 127.824 175.962 127.824Z" fill="#3B6BAB"/>
<path d="M141.593 244.089C139.555 239.33 138.876 234.57 138.876 229.811C138.876 208.734 156.061 191.736 177.388 191.736C198.716 191.736 215.901 208.734 215.901 229.811C215.901 234.57 215.222 240.01 213.184 244.089C186.966 244.089 165.638 244.089 141.593 244.089Z" fill="#76E2F8"/>
<path d="M338.774 59.8324C355.467 59.8324 369 46.4385 369 29.9162C369 13.3939 355.467 0 338.774 0C322.08 0 308.548 13.3939 308.548 29.9162C308.548 46.4385 322.08 59.8324 338.774 59.8324Z" fill="#B9DD39"/>
<path d="M21.3689 46.9146C33.1196 46.9146 42.6968 56.3654 42.6968 67.9919C42.6968 79.6184 33.1875 89.0692 21.3689 89.0692C9.61819 89.0692 0.0410156 79.6184 0.0410156 67.9919C0.0410156 56.3654 9.61819 46.9146 21.3689 46.9146Z" fill="#B9DD39"/>
<path d="M178 152.98C188.596 152.98 197.222 161.479 197.222 172.018C197.222 182.557 188.596 191.056 178 191.056C167.404 191.056 158.777 182.557 158.777 172.018C158.777 161.479 167.404 152.98 178 152.98Z" fill="#FFCEBF"/>
<path d="M287.288 254.968C261.206 254.968 240.557 276.046 240.557 301.202C240.557 327.039 261.885 348.116 287.288 348.116C313.371 348.116 334.699 327.039 334.699 301.202C334.699 276.046 313.371 254.968 287.288 254.968Z" fill="#FFDA2D"/>
<path d="M63.9567 254.968C37.8742 254.968 17.2256 276.046 17.2256 301.202C17.2256 327.039 38.5535 348.116 63.9567 348.116C90.0393 348.116 111.367 327.039 111.367 301.202C111.367 276.046 90.0393 254.968 63.9567 254.968Z" fill="#FFDA2D"/>
<path d="M175.962 8.83887C147.774 8.83887 125.088 33.9957 129.231 62.5521C132.695 84.9892 152.596 101.987 175.962 101.987C202.045 101.987 223.372 80.9097 223.372 55.073C222.693 29.9162 201.365 8.83887 175.962 8.83887Z" fill="#FFDA2D"/>
<path d="M178 191.056L187.645 214.853L178 225.051L168.423 214.853L178 191.056Z" fill="#EDF5FF"/>
<path d="M296.186 299.162C292.722 297.803 289.326 297.123 289.326 297.123V289.644C290.684 289.644 291.363 290.324 292.043 290.324C293.401 291.004 295.507 291.683 296.865 292.363C297.544 292.363 297.544 293.043 297.544 293.043L301.688 285.564C300.329 284.884 298.224 283.524 296.186 282.845C294.148 282.165 292.043 281.485 289.326 281.485V276.045H285.182V281.485C279.681 282.165 275.537 284.204 273.5 288.964C272.82 290.324 272.82 292.363 272.82 293.723C272.82 297.803 274.179 300.522 279.001 302.562C281.718 303.922 285.182 304.602 286.541 305.282V312.761C285.182 312.761 283.824 312.081 282.398 312.081C280.36 311.401 278.254 310.721 276.217 309.361C276.217 308.681 276.217 308.681 275.537 308.681L271.394 316.84C275.537 319.56 281.039 320.92 285.794 321.6V327.719H289.937V321.6C291.975 321.6 293.401 320.92 294.76 320.92C298.224 320.24 300.261 318.2 302.299 315.48C302.978 314.121 303.658 312.081 303.658 310.041C303.658 308.001 303.658 306.642 302.978 305.282C301.688 302.562 299.65 300.522 296.186 299.162ZM286.609 296.443C285.25 295.763 284.571 295.763 283.892 295.083C283.213 294.403 283.213 293.723 283.213 293.043C283.213 291.004 284.571 290.324 287.356 289.644L286.609 296.443ZM289.326 312.761V305.962C290.684 306.642 291.363 306.642 292.79 307.321C293.469 308.681 293.469 309.361 293.469 310.041C293.469 312.081 292.043 312.761 289.326 312.761Z" fill="#383535"/>
<path d="M171.14 65.9514C169.102 65.2715 166.997 64.5916 164.959 63.2318C164.28 62.5519 163.6 62.5519 163.6 62.5519L159.457 70.7108C163.6 73.4305 169.102 74.7903 173.857 75.4702V81.5895H178V75.4702C181.464 75.4702 184.86 74.7903 187.645 72.7506C189.004 72.0707 189.683 70.7108 190.362 69.351C191.721 66.6314 191.721 61.872 190.362 59.1523C189.683 57.1126 187.645 55.0728 184.181 53.713C180.717 52.3532 177.321 51.6733 177.321 51.6733V43.5143C178 43.5143 179.359 44.1942 180.038 44.1942C181.396 44.8741 183.502 45.554 184.86 46.2339C185.54 46.2339 185.54 46.9139 185.54 46.9139L189.683 39.4348C188.324 38.7549 186.219 37.3951 184.181 36.7152C182.143 36.0352 180.038 35.3553 177.321 35.3553V29.916H173.178V35.3553C167.676 36.0352 163.6 38.075 161.495 42.8344C160.816 44.1942 160.816 46.2339 160.816 47.5938C160.816 51.6733 162.174 54.3929 166.997 56.4327C169.713 57.7925 173.178 58.4724 174.536 59.1523V66.6314C173.925 66.6314 172.498 66.6314 171.14 65.9514ZM177.321 60.5121C178.679 61.192 179.359 61.1921 180.785 61.872C181.464 62.5519 182.143 63.2318 182.143 63.9117C182.143 65.9514 180.785 66.6314 178 66.6314V60.5121H177.321ZM171.819 48.9536C171.14 48.2737 171.14 47.5938 171.14 46.9139C171.14 44.8741 172.498 44.1942 175.283 43.5143V50.3134C173.925 49.6335 172.498 48.9536 171.819 48.9536Z" fill="#383535"/>
<path d="M72.9228 299.162C69.4587 297.803 66.0626 297.123 66.0626 297.123V289.644C67.4211 289.644 68.1003 290.324 68.7795 290.324C70.138 291.004 72.2436 291.683 73.6021 292.363C74.2813 292.363 74.2813 293.043 74.2813 293.043L78.4246 285.564C77.0661 284.884 74.9605 283.524 72.9228 282.845C70.8851 282.165 68.7795 281.485 66.0626 281.485V276.045H61.9193V281.485C56.4175 282.165 52.2742 284.204 50.2365 288.964C49.5572 290.324 49.5572 292.363 49.5572 293.723C49.5572 297.803 50.9157 300.522 55.7383 302.562C58.4552 303.922 61.9193 304.602 63.2777 305.282V312.761C61.9193 312.761 60.5608 312.081 59.1344 312.081C57.0967 311.401 54.9911 310.721 52.9534 309.361C52.9534 308.681 52.9534 308.681 52.2742 308.681L48.1309 316.84C52.2742 319.56 57.776 320.92 62.5306 321.6V327.719H66.6739V321.6C68.7116 321.6 70.138 320.92 71.4964 320.92C74.9605 320.24 76.9982 318.2 79.0359 315.48C79.7152 314.121 80.3944 312.081 80.3944 310.041C80.3944 308.001 80.3944 306.642 79.7151 305.282C78.3567 302.562 76.319 300.522 72.9228 299.162ZM63.2777 296.443C61.9193 295.763 61.24 295.763 60.5608 295.083C59.8816 294.403 59.8816 293.723 59.8816 292.363C59.8816 290.324 61.24 289.644 64.0249 288.964V296.443H63.2777ZM65.9947 312.761V305.962C67.3531 306.642 68.0324 306.642 69.4587 307.321C70.138 308.001 70.8172 308.681 70.8172 309.361C70.138 312.081 68.7795 312.761 65.9947 312.761Z" fill="#383535"/>
<path opacity="0.1" d="M318.872 261.768C338.774 214.174 332.593 157.741 300.329 113.546C281.786 88.3896 256.315 70.032 226.768 59.8333C229.485 29.9171 205.441 4.76025 175.215 4.76025C145.668 4.76025 121.623 29.9171 124.34 59.8333C63.9565 80.9106 20.6894 138.023 20.6894 203.975C20.6894 223.692 24.8327 243.41 32.3722 261.768C20.0102 271.286 12.4707 286.245 12.4707 301.883C12.4707 329.759 35.8363 352.876 64.0244 352.876C77.7449 352.876 90.7862 347.437 100.431 337.918C147.162 363.755 204.15 363.755 251.56 337.918C261.205 347.437 274.247 352.876 287.967 352.876C316.155 352.876 339.521 329.759 339.521 301.883C338.774 286.245 331.914 271.286 318.872 261.768ZM175.962 12.9192C202.044 12.9192 222.014 36.0363 218.55 61.873C215.086 82.2704 197.222 97.9084 175.962 97.9084C153.275 97.9084 133.374 79.5508 133.374 55.7538C132.695 31.9568 151.917 12.9192 175.962 12.9192ZM63.9565 344.037C40.5909 344.037 21.3686 325 21.3686 301.883C21.3686 287.604 28.2289 274.686 39.9117 267.207C46.7719 262.448 55.0586 259.728 63.9565 259.728C87.3221 259.728 106.544 278.766 106.544 301.883C107.224 325 88.0013 344.037 63.9565 344.037ZM105.865 331.119C112.046 322.28 115.51 312.081 115.51 301.883C115.51 274.006 92.1446 250.889 63.9565 250.889C54.9906 250.889 46.7719 252.929 39.2324 257.008C32.3722 240.01 28.9081 222.333 28.9081 203.975C28.9081 142.783 67.3526 89.0696 125.087 67.9922C130.589 89.7495 151.17 106.067 174.535 106.067C197.901 106.067 218.482 89.7495 223.984 67.9922C281.718 88.3896 320.163 142.783 320.163 203.975C320.163 222.333 316.699 240.01 309.838 257.008C302.299 252.929 294.012 250.889 285.794 250.889C257.606 250.889 234.24 274.006 234.24 301.883C234.24 312.081 237.704 322.96 243.885 331.119C202.724 354.236 149.811 354.916 105.865 331.119ZM287.288 344.037C263.922 344.037 244.7 325 244.7 301.883C244.7 278.766 263.922 259.728 287.288 259.728C310.654 259.728 329.876 278.766 329.876 301.883C330.555 325 311.333 344.037 287.288 344.037Z" fill="white"/>
</svg>
