<svg width="525" height="483" viewBox="0 0 525 483" fill="none" xmlns="http://www.w3.org/2000/svg">
<g opacity="0.05">
<path d="M363.306 14.1028C336.282 29.5297 317.233 55.4762 294.123 76.3051C265.588 102.017 230.241 120.114 192.665 128.235C161.752 134.923 129.365 135.009 99.5172 145.467C41.3571 165.851 1.44021 226.347 0.375095 287.87C-0.677631 349.392 34.4339 408.974 85.968 442.732C103.468 454.191 122.739 462.968 142.89 468.617C180.8 479.26 220.977 478.79 260.151 474.724C327.798 467.69 398.715 429.357 441.356 375.289C460.38 351.172 476.43 324.756 489.212 296.856C510.217 251.045 522.441 201.167 524.534 150.807C526.33 107.53 524.497 59.5802 490.141 28.0587C455.859 -3.38854 403.619 -8.92642 363.306 14.1028Z" fill="#41C5E8"/>
<path opacity="0.7" d="M363.306 14.1028C336.282 29.5297 317.233 55.4762 294.123 76.3051C265.588 102.017 230.241 120.114 192.665 128.235C161.752 134.923 129.365 135.009 99.5172 145.467C41.3571 165.851 1.44021 226.347 0.375095 287.87C-0.677631 349.392 34.4339 408.974 85.968 442.732C103.468 454.191 122.739 462.968 142.89 468.617C180.8 479.26 220.977 478.79 260.151 474.724C327.798 467.69 398.715 429.357 441.356 375.289C460.38 351.172 476.43 324.756 489.212 296.856C510.217 251.045 522.441 201.167 524.534 150.807C526.33 107.53 524.497 59.5802 490.141 28.0587C455.859 -3.38854 403.619 -8.92642 363.306 14.1028Z" fill="white"/>
</g>
<path d="M290.052 482.555C399.625 482.555 488.452 458.676 488.452 429.221C488.452 399.765 399.625 375.887 290.052 375.887C180.479 375.887 91.6523 399.765 91.6523 429.221C91.6523 458.676 180.479 482.555 290.052 482.555Z" fill="#41C5E8"/>
<path opacity="0.5" d="M290.052 482.555C399.625 482.555 488.452 458.676 488.452 429.221C488.452 399.765 399.625 375.887 290.052 375.887C180.479 375.887 91.6523 399.765 91.6523 429.221C91.6523 458.676 180.479 482.555 290.052 482.555Z" fill="white"/>
<path d="M324.138 54.8884V185.386C324.138 190.841 319.702 195.268 314.237 195.268H80.9872C75.5219 195.268 71.0854 190.841 71.0854 185.386V54.8884C71.0854 49.4336 75.5219 45.0056 80.9872 45.0056H314.237C319.713 45.0056 324.138 49.4225 324.138 54.8884Z" fill="white"/>
<path d="M324.138 54.8884V58.7974H71.0854V54.8884C71.0854 49.4336 75.5219 45.0056 80.9872 45.0056H314.237C319.713 45.0056 324.138 49.4225 324.138 54.8884Z" fill="#41C5E8"/>
<path d="M324.138 54.8884V185.386C324.138 190.841 319.702 195.268 314.237 195.268H80.9872C75.5219 195.268 71.0854 190.841 71.0854 185.386V54.8884C71.0854 49.4336 75.5219 45.0056 80.9872 45.0056H314.237C319.713 45.0056 324.138 49.4225 324.138 54.8884Z" stroke="#263238" stroke-miterlimit="10" stroke-linecap="round" stroke-linejoin="round"/>
<path d="M324.138 54.8884V58.7974H71.0854V54.8884C71.0854 49.4336 75.5219 45.0056 80.9872 45.0056H314.237C319.713 45.0056 324.138 49.4225 324.138 54.8884Z" stroke="#263238" stroke-miterlimit="10" stroke-linecap="round" stroke-linejoin="round"/>
<path d="M99.5075 51.9071C99.5075 53.2984 98.379 54.4358 96.9739 54.4358C95.58 54.4358 94.4404 53.3095 94.4404 51.9071C94.4404 50.5158 95.5689 49.3784 96.9739 49.3784C98.3679 49.3784 99.5075 50.5047 99.5075 51.9071Z" fill="#263238"/>
<path d="M112.728 51.9071C112.728 53.2984 111.6 54.4358 110.195 54.4358C108.801 54.4358 107.661 53.3095 107.661 51.9071C107.661 50.5158 108.79 49.3784 110.195 49.3784C111.6 49.3784 112.728 50.5047 112.728 51.9071Z" fill="#263238"/>
<path d="M123.415 54.4358C124.815 54.4358 125.949 53.3036 125.949 51.9071C125.949 50.5105 124.815 49.3784 123.415 49.3784C122.016 49.3784 120.882 50.5105 120.882 51.9071C120.882 53.3036 122.016 54.4358 123.415 54.4358Z" fill="#263238"/>
<path d="M161.717 112.242H90.181C87.9241 112.242 86.0986 110.42 86.0986 108.167V73.8148C86.0986 71.5622 87.9241 69.7402 90.181 69.7402H161.728C163.985 69.7402 165.81 71.5622 165.81 73.8148V108.167C165.799 110.42 163.974 112.242 161.717 112.242Z" stroke="#263238" stroke-miterlimit="10" stroke-linecap="round" stroke-linejoin="round"/>
<path d="M90.7783 106.897H159.891" stroke="#263238" stroke-miterlimit="10" stroke-linecap="round" stroke-linejoin="round"/>
<path d="M103.933 98.7814H95.9116V106.787H103.933V98.7814Z" fill="#41C5E8" stroke="#263238" stroke-miterlimit="10"/>
<path d="M115.671 88.2582H107.65V106.897H115.671V88.2582Z" fill="#41C5E8" stroke="#263238" stroke-miterlimit="10"/>
<path d="M128.892 91.4603H120.871V107.085H128.892V91.4603Z" fill="#41C5E8" stroke="#263238" stroke-miterlimit="10"/>
<path d="M142.788 75.9019H134.767V106.544H142.788V75.9019Z" fill="#41C5E8" stroke="#263238" stroke-miterlimit="10"/>
<path d="M156.672 76.1448H148.651V106.787H156.672V76.1448Z" fill="#41C5E8" stroke="#263238" stroke-miterlimit="10"/>
<path d="M264.629 114.439C277.014 114.439 287.054 104.418 287.054 92.0567C287.054 79.6951 277.014 69.6741 264.629 69.6741C252.243 69.6741 242.203 79.6951 242.203 92.0567C242.203 104.418 252.243 114.439 264.629 114.439Z" fill="#41C5E8" stroke="#263238" stroke-miterlimit="10"/>
<path d="M266.465 106.025V108.322H262.703V106.025C259.528 105.23 257.481 102.569 257.481 99.0686V98.0306L261.741 97.5668V98.649C261.741 100.769 262.825 102.072 264.584 102.072C266.343 102.072 267.427 100.99 267.427 99.2784C267.427 97.2356 265.502 95.4798 263.257 93.6137C260.579 91.4052 257.913 88.7772 257.913 85.067C257.913 81.4451 259.672 78.8613 262.714 78.1104V75.8136H266.476V78.1104C269.563 78.8171 271.366 81.401 271.366 85.1112V85.862L267.107 86.3258V85.4866C267.107 83.234 266.233 82.0635 264.684 82.0635C263.135 82.0635 262.261 83.0242 262.261 84.8572C262.261 86.9 264.219 88.6116 266.432 90.5219C269.065 92.7745 271.775 95.3584 271.775 99.0686C271.764 102.602 269.673 105.274 266.465 106.025Z" fill="#263238"/>
<path d="M84.229 133.962H90.7785" stroke="#263238" stroke-miterlimit="10" stroke-linecap="round" stroke-linejoin="round"/>
<path d="M84.229 146.594H90.7785" stroke="#263238" stroke-miterlimit="10" stroke-linecap="round" stroke-linejoin="round"/>
<path d="M84.229 159.227H90.7785" stroke="#263238" stroke-miterlimit="10" stroke-linecap="round" stroke-linejoin="round"/>
<path d="M84.229 171.859H90.7785" stroke="#263238" stroke-miterlimit="10" stroke-linecap="round" stroke-linejoin="round"/>
<path d="M105.216 181.399V176.331" stroke="#263238" stroke-miterlimit="10" stroke-linecap="round" stroke-linejoin="round"/>
<path d="M115.594 181.399V176.331" stroke="#263238" stroke-miterlimit="10" stroke-linecap="round" stroke-linejoin="round"/>
<path d="M125.971 181.399V176.331" stroke="#263238" stroke-miterlimit="10" stroke-linecap="round" stroke-linejoin="round"/>
<path d="M136.36 181.399V176.331" stroke="#263238" stroke-miterlimit="10" stroke-linecap="round" stroke-linejoin="round"/>
<path d="M146.737 181.399V176.331" stroke="#263238" stroke-miterlimit="10" stroke-linecap="round" stroke-linejoin="round"/>
<path d="M157.115 181.399V176.331" stroke="#263238" stroke-miterlimit="10" stroke-linecap="round" stroke-linejoin="round"/>
<path d="M167.492 181.399V176.331" stroke="#263238" stroke-miterlimit="10" stroke-linecap="round" stroke-linejoin="round"/>
<path d="M177.881 181.399V176.331" stroke="#263238" stroke-miterlimit="10" stroke-linecap="round" stroke-linejoin="round"/>
<path d="M188.258 181.399V176.331" stroke="#263238" stroke-miterlimit="10" stroke-linecap="round" stroke-linejoin="round"/>
<path d="M198.636 181.399V176.331" stroke="#263238" stroke-miterlimit="10" stroke-linecap="round" stroke-linejoin="round"/>
<path d="M209.013 181.399V176.331" stroke="#263238" stroke-miterlimit="10" stroke-linecap="round" stroke-linejoin="round"/>
<path d="M219.401 181.399V176.331" stroke="#263238" stroke-miterlimit="10" stroke-linecap="round" stroke-linejoin="round"/>
<path d="M229.779 181.399V176.331" stroke="#263238" stroke-miterlimit="10" stroke-linecap="round" stroke-linejoin="round"/>
<path d="M240.157 181.399V176.331" stroke="#263238" stroke-miterlimit="10" stroke-linecap="round" stroke-linejoin="round"/>
<path d="M250.534 181.399V176.331" stroke="#263238" stroke-miterlimit="10" stroke-linecap="round" stroke-linejoin="round"/>
<path d="M260.524 181.399V176.331" stroke="#263238" stroke-miterlimit="10" stroke-linecap="round" stroke-linejoin="round"/>
<path d="M270.515 181.399V176.331" stroke="#263238" stroke-miterlimit="10" stroke-linecap="round" stroke-linejoin="round"/>
<path d="M280.494 181.399V176.331" stroke="#263238" stroke-miterlimit="10" stroke-linecap="round" stroke-linejoin="round"/>
<path d="M306.913 126.221V175.315C306.913 178.672 303.483 181.399 299.246 181.399H91.8847C89.0746 181.399 86.6075 180.196 85.2799 178.396C84.605 177.491 84.2178 176.441 84.2178 175.315V126.221C84.2178 122.865 87.6474 120.137 91.8847 120.137H299.257C303.483 120.137 306.913 122.853 306.913 126.221Z" stroke="#41C5E8" stroke-miterlimit="10" stroke-linecap="round" stroke-linejoin="round"/>
<path d="M243.807 31.1366L177.615 120.126L152.302 154.158L124.654 136.579L90.8225 181.388H90.3357C88.1009 181.388 86.1316 180.185 85.0806 178.385L123.105 128.021L150.731 145.578L169.66 120.115L238.685 27.327L243.807 31.1366Z" fill="#263238"/>
<path d="M227.013 32.2739L251.341 17.5436L244.615 43.007L240.322 31.2249L227.013 32.2739Z" fill="#263238"/>
<path d="M457.254 312.471H68.1651L24.5532 351.174" stroke="#263238" stroke-miterlimit="10" stroke-linecap="round" stroke-linejoin="round"/>
<path d="M68.4087 285.373V210.12" stroke="#263238" stroke-miterlimit="10" stroke-linecap="round" stroke-linejoin="round"/>
<path d="M68.4087 308.109V293.545" stroke="#263238" stroke-miterlimit="10" stroke-linecap="round" stroke-linejoin="round"/>
<path d="M433.832 129.391C433.832 129.391 433.832 124.841 427.449 118.47C421.065 112.098 416.972 108.465 416.972 108.465C416.972 108.465 413.785 118.922 419.704 125.294C424.063 129.788 428.787 133.907 433.832 137.606V129.391Z" fill="#41C5E8"/>
<path d="M424.572 157.802C424.572 157.802 424.572 153.253 418.188 146.881C411.805 140.51 407.711 136.877 407.711 136.877C407.711 136.877 404.525 147.334 410.444 153.706C414.803 158.189 419.527 162.307 424.572 166.018V157.802Z" fill="#41C5E8"/>
<path d="M433.423 137.142C433.423 137.142 433.899 132.615 440.924 126.961C447.949 121.296 452.397 118.116 452.397 118.116C452.397 118.116 454.465 128.883 447.894 134.558C443.092 138.556 437.959 142.144 432.549 145.28L433.423 137.142Z" fill="#41C5E8"/>
<path d="M422.238 170.689C422.238 170.689 423.189 166.239 430.768 161.347C438.335 156.455 443.103 153.75 443.103 153.75C443.103 153.75 444.033 164.648 436.941 169.64C431.741 173.107 426.254 176.132 420.556 178.683L422.238 170.689Z" fill="#41C5E8"/>
<path d="M424.351 207.249C424.351 207.249 424.351 202.7 430.723 196.34C437.096 189.979 441.211 186.335 441.211 186.335C441.211 186.335 444.397 196.803 438.479 203.164C434.131 207.658 429.407 211.777 424.362 215.476V207.249H424.351Z" fill="#41C5E8"/>
<path d="M424.24 216.183C424.24 216.183 424.893 211.677 419.472 204.478C414.062 197.267 410.522 193.082 410.522 193.082C410.522 193.082 405.897 202.987 410.842 210.131C414.515 215.178 418.609 219.915 423.079 224.288L424.24 216.183Z" fill="#41C5E8"/>
<path d="M417.945 242.64C417.945 242.64 417.945 238.09 424.318 231.73C430.69 225.37 434.806 221.726 434.806 221.726C434.806 221.726 437.992 232.194 432.073 238.554C427.725 243.048 423.001 247.167 417.956 250.866V242.64H417.945Z" fill="#41C5E8"/>
<path d="M422.205 266.624C422.205 266.624 421.054 262.218 425.623 254.433C430.181 246.648 433.224 242.121 433.224 242.121C433.224 242.121 438.955 251.441 434.85 259.093C431.775 264.526 428.245 269.693 424.296 274.541L422.205 266.624Z" fill="#41C5E8"/>
<path d="M434.407 128.264C434.086 133.001 433.5 137.716 432.659 142.376C430.137 155.373 423.831 163.776 421.308 175.514C418.786 187.252 426.021 202.391 424.096 217.486C422.16 232.569 416.274 240.961 417.934 251.032C419.593 261.102 428.444 288.366 428.444 288.366" stroke="#263238" stroke-width="1.1775" stroke-linecap="round" stroke-linejoin="round"/>
<path d="M433.368 140.168L440.238 134.901" stroke="#263238" stroke-width="1.1775" stroke-linecap="round" stroke-linejoin="round"/>
<path d="M433.677 134.106L430.812 128.993" stroke="#263238" stroke-width="1.1775" stroke-linecap="round" stroke-linejoin="round"/>
<path d="M421.696 174.951C421.696 174.951 427.449 170.644 433.368 166.338" stroke="#263238" stroke-width="1.1775" stroke-linecap="round" stroke-linejoin="round"/>
<path d="M424.572 165.962C424.572 165.962 419.782 156.576 414.338 150.349" stroke="#263238" stroke-width="1.1775" stroke-linecap="round" stroke-linejoin="round"/>
<path d="M424.572 213.72C427.869 207.68 432.018 202.137 436.908 197.289" stroke="#263238" stroke-width="1.1775" stroke-linecap="round" stroke-linejoin="round"/>
<path d="M423.455 220.114C421.707 216.006 419.616 212.042 417.215 208.276C413.852 203.329 413.365 202.689 413.365 202.689" stroke="#263238" stroke-width="1.1775" stroke-linecap="round" stroke-linejoin="round"/>
<path d="M417.945 250.999C419.406 247.388 421.132 243.888 423.123 240.531C425.114 237.428 427.36 234.491 429.838 231.752" stroke="#263238" stroke-width="1.1775" stroke-linecap="round" stroke-linejoin="round"/>
<path d="M424.285 274.541C424.285 274.541 423.61 269.097 426.011 264.47C428.411 259.844 431.122 253.781 432.25 251.396" stroke="#263238" stroke-width="1.1775" stroke-linecap="round" stroke-linejoin="round"/>
<path d="M392.057 190.145C392.057 190.145 391.559 187.296 394.867 182.614C398.186 177.932 400.343 175.194 400.343 175.194C400.343 175.194 403.485 181.399 400.454 186.037C398.208 189.317 395.697 192.409 392.931 195.269L392.057 190.145Z" fill="#41C5E8"/>
<path d="M400.952 206.962C400.952 206.962 400.454 204.113 403.762 199.42C407.07 194.739 409.249 192.011 409.249 192.011C409.249 192.011 412.391 198.228 409.36 202.855C407.114 206.134 404.603 209.226 401.837 212.086L400.952 206.962Z" fill="#41C5E8"/>
<path d="M393.152 194.97C393.152 194.97 392.378 192.188 387.344 189.405C382.299 186.622 379.179 185.099 379.179 185.099C379.179 185.099 379.057 192.022 383.803 194.926C387.255 196.903 390.862 198.592 394.59 199.984L393.152 194.97Z" fill="#41C5E8"/>
<path d="M403.817 214.78C403.817 214.78 402.733 212.097 397.445 209.844C392.167 207.603 388.871 206.432 388.871 206.432C388.871 206.432 389.479 213.356 394.491 215.719C398.131 217.331 401.892 218.634 405.753 219.617L403.817 214.78Z" fill="#41C5E8"/>
<path d="M406.472 237.947C406.472 237.947 405.974 235.098 401.283 231.796C396.593 228.495 393.617 226.662 393.617 226.662C393.617 226.662 392.754 233.585 397.168 236.92C400.387 239.25 403.795 241.315 407.357 243.07L406.472 237.947Z" fill="#41C5E8"/>
<path d="M407.502 243.534C407.502 243.534 406.605 240.785 409.216 235.683C411.816 230.582 413.597 227.567 413.597 227.567C413.597 227.567 417.58 233.276 415.257 238.289C413.487 241.856 411.429 245.268 409.095 248.492L407.502 243.534Z" fill="#41C5E8"/>
<path d="M415.511 266.535C415.511 266.535 415.843 263.653 420.335 260.098C424.826 256.531 427.692 254.532 427.692 254.532C427.692 254.532 428.953 261.367 424.738 264.967C421.662 267.485 418.376 269.737 414.914 271.703L415.511 266.535Z" fill="#41C5E8"/>
<path d="M414.328 259.446C414.328 259.446 413.83 256.597 409.139 253.296C404.448 249.994 401.483 248.161 401.483 248.161C401.483 248.161 400.62 255.084 405.023 258.419C408.243 260.749 411.65 262.814 415.224 264.57L414.328 259.446Z" fill="#41C5E8"/>
<path d="M414.261 274.949C414.261 274.949 414.505 272.067 410.809 267.684C407.114 263.311 404.702 260.76 404.702 260.76C404.702 260.76 402.114 267.22 405.532 271.582C408.055 274.662 410.831 277.522 413.83 280.139L414.261 274.949Z" fill="#41C5E8"/>
<path d="M391.559 189.482C392.278 192.42 393.152 195.313 394.192 198.151C397.179 206.024 402.047 210.606 404.902 217.695C407.756 224.784 404.902 235.065 407.723 244.307C410.544 253.55 415.179 258.154 415.224 264.68C415.257 271.206 412.69 289.227 412.69 289.227" stroke="#263238" stroke-width="1.1775" stroke-linecap="round" stroke-linejoin="round"/>
<path d="M393.517 196.848L388.638 194.297" stroke="#263238" stroke-width="1.1775" stroke-linecap="round" stroke-linejoin="round"/>
<path d="M392.654 193.093L393.904 189.571" stroke="#263238" stroke-width="1.1775" stroke-linecap="round" stroke-linejoin="round"/>
<path d="M404.625 217.397C404.625 217.397 400.542 215.321 396.372 213.256" stroke="#263238" stroke-width="1.1775" stroke-linecap="round" stroke-linejoin="round"/>
<path d="M401.837 212.119C403.032 208.343 404.614 204.688 406.55 201.22" stroke="#263238" stroke-width="1.1775" stroke-linecap="round" stroke-linejoin="round"/>
<path d="M407.036 242.021C404.315 238.587 401.118 235.562 397.522 233.055" stroke="#263238" stroke-width="1.1775" stroke-linecap="round" stroke-linejoin="round"/>
<path d="M408.431 245.908C409.083 243.148 409.957 240.442 411.053 237.825C412.59 234.358 412.856 233.905 412.856 233.905" stroke="#263238" stroke-width="1.1775" stroke-linecap="round" stroke-linejoin="round"/>
<path d="M415.024 269.605C415.024 269.605 418.255 265.652 420.268 264.161C421.485 263.267 422.625 262.273 423.676 261.202" stroke="#263238" stroke-width="1.1775" stroke-linecap="round" stroke-linejoin="round"/>
<path d="M415.235 264.68C413.929 262.571 412.458 260.561 410.854 258.684C409.261 256.95 407.535 255.36 405.687 253.903" stroke="#263238" stroke-width="1.1775" stroke-linecap="round" stroke-linejoin="round"/>
<path d="M413.83 280.139C413.664 277.931 412.922 275.811 411.661 273.989C409.648 271.339 407.28 267.838 406.329 266.458" stroke="#263238" stroke-width="1.1775" stroke-linecap="round" stroke-linejoin="round"/>
<path d="M435.071 320.333H406.019C404.824 320.333 403.851 319.361 403.851 318.169L399.68 286.08H441.4L437.229 318.169C437.24 319.372 436.266 320.333 435.071 320.333Z" fill="#263238"/>
<path d="M441.034 291.524H399.679C397.887 291.524 396.427 290.077 396.416 288.288C396.416 286.489 397.876 285.031 399.679 285.031C399.679 285.031 399.679 285.031 399.69 285.031H441.045C442.849 285.031 444.309 286.478 444.309 288.277C444.309 288.277 444.309 288.277 444.309 288.288C444.287 290.077 442.826 291.524 441.034 291.524Z" fill="#263238"/>
<path d="M347.803 163.18C347.803 182.206 334.516 198.14 316.682 202.236C316.638 202.247 316.604 202.247 316.56 202.269C315.509 202.501 314.447 202.711 313.374 202.866C311.504 203.131 309.579 203.274 307.632 203.274C285.439 203.274 267.45 185.319 267.45 163.18C267.45 141.526 284.653 123.88 306.161 123.119C306.526 123.085 306.902 123.085 307.289 123.085C307.411 123.074 307.521 123.074 307.643 123.074C307.776 123.074 307.92 123.074 308.052 123.085C313.639 123.13 318.961 124.322 323.784 126.464C337.924 132.648 347.803 146.771 347.803 163.18Z" fill="#41C5E8"/>
<path opacity="0.4" d="M323.773 126.453C277.384 124.046 277.163 175.448 277.163 175.448C277.163 175.448 270.083 158.675 281.644 140.091C288.105 129.7 299.356 125.117 308.041 123.085C313.628 123.13 318.95 124.322 323.773 126.453Z" fill="white"/>
<path d="M347.803 163.18C347.803 182.25 334.45 198.217 316.56 202.269C313.695 202.932 310.708 203.274 307.632 203.274C285.439 203.274 267.45 185.319 267.45 163.18C267.45 141.526 284.653 123.88 306.161 123.119C306.647 123.085 307.145 123.074 307.643 123.074C329.814 123.063 347.803 141.029 347.803 163.18Z" stroke="#263238" stroke-miterlimit="10" stroke-linecap="round" stroke-linejoin="round"/>
<path d="M347.803 163.18C347.803 182.25 334.449 198.217 316.56 202.269C316.073 202.302 315.575 202.314 315.077 202.314C292.884 202.314 274.906 184.359 274.906 162.208C274.906 143.138 288.26 127.171 306.149 123.119C306.636 123.085 307.134 123.074 307.632 123.074C329.814 123.063 347.803 141.029 347.803 163.18Z" stroke="#263238" stroke-miterlimit="10" stroke-linecap="round" stroke-linejoin="round"/>
<path d="M321.472 188.268L322.512 192.508L315.564 194.208L314.525 189.968C308.307 189.946 303.306 185.938 301.724 179.467L301.248 177.546L308.904 174.774L309.391 176.773C310.354 180.704 312.942 182.592 316.184 181.797C319.426 181.002 320.941 178.506 320.167 175.348C319.238 171.572 314.901 169.209 309.878 166.769C303.937 163.898 297.808 160.254 296.126 153.396C294.478 146.694 296.546 141.128 301.835 138.368L300.795 134.128L307.732 132.427L308.772 136.667C314.801 136.579 319.293 140.543 320.974 147.389L321.317 148.77L313.662 151.541L313.285 150.006C312.268 145.843 310.11 144.088 307.256 144.783C304.401 145.479 303.218 147.654 304.047 151.033C304.977 154.81 309.38 157.073 314.336 159.613C320.222 162.583 326.407 166.128 328.088 172.985C329.715 179.555 327.07 185.43 321.472 188.268Z" stroke="#263238" stroke-miterlimit="10"/>
<path opacity="0.3" d="M321.472 188.268L322.512 192.508L315.564 194.208L314.525 189.968C308.307 189.946 303.306 185.938 301.724 179.467L301.248 177.546L308.904 174.774L309.391 176.773C310.354 180.704 312.942 182.592 316.184 181.797C319.426 181.002 320.941 178.506 320.167 175.348C319.238 171.572 314.901 169.209 309.878 166.769C303.937 163.898 297.808 160.254 296.126 153.396C294.478 146.694 296.546 141.128 301.835 138.368L300.795 134.128L307.732 132.427L308.772 136.667C314.801 136.579 319.293 140.543 320.974 147.389L321.317 148.77L313.662 151.541L313.285 150.006C312.268 145.843 310.11 144.088 307.256 144.783C304.401 145.479 303.218 147.654 304.047 151.033C304.977 154.81 309.38 157.073 314.336 159.613C320.222 162.583 326.407 166.128 328.088 172.985C329.715 179.555 327.07 185.43 321.472 188.268Z" fill="black"/>
<path d="M287.098 197.643L295.584 197.256" stroke="#263238" stroke-miterlimit="10" stroke-linecap="round" stroke-linejoin="round"/>
<path d="M283.016 194.827L290.429 194.208" stroke="#263238" stroke-miterlimit="10" stroke-linecap="round" stroke-linejoin="round"/>
<path d="M279.697 191.856L287.098 191.227" stroke="#263238" stroke-miterlimit="10" stroke-linecap="round" stroke-linejoin="round"/>
<path d="M278.679 135.364H285.019" stroke="#263238" stroke-miterlimit="10" stroke-linecap="round" stroke-linejoin="round"/>
<path d="M281.81 132.449L288.127 132.162" stroke="#263238" stroke-miterlimit="10" stroke-linecap="round" stroke-linejoin="round"/>
<path d="M285.771 129.523L292.431 128.905" stroke="#263238" stroke-miterlimit="10" stroke-linecap="round" stroke-linejoin="round"/>
<path opacity="0.3" d="M316.682 202.236C316.638 202.247 316.604 202.247 316.56 202.269C313.695 202.932 310.708 203.274 307.632 203.274C285.439 203.274 267.45 185.32 267.45 163.18C267.45 141.526 284.653 123.88 306.161 123.119C306.526 123.085 306.902 123.085 307.289 123.085C297.498 126.166 281.069 134.039 276.677 150.47C270.437 173.78 284.454 200.271 316.682 202.236Z" fill="black"/>
<path opacity="0.1" d="M347.803 163.18C347.803 182.206 334.516 198.14 316.682 202.236C316.638 202.247 316.605 202.247 316.56 202.269C315.509 202.501 314.447 202.711 313.374 202.866L323.785 126.464C337.924 132.648 347.803 146.771 347.803 163.18Z" fill="black"/>
<path d="M370.594 100.051C363.923 109.47 351.742 112.717 341.486 108.476C341.442 108.465 341.387 108.432 341.342 108.421C340.579 108.101 339.816 107.737 339.074 107.328C338.267 106.886 337.492 106.412 336.729 105.87C325.765 98.1409 323.154 83.002 330.898 72.0591C338.355 61.5359 352.649 58.7312 363.48 65.4228C363.668 65.5221 363.845 65.6436 364.022 65.754C364.277 65.8976 364.52 66.0742 364.764 66.2509C365.14 66.5159 365.505 66.792 365.859 67.0791C375.893 75.0074 378.073 89.5059 370.594 100.051Z" fill="#41C5E8"/>
<path opacity="0.4" d="M333.93 100.383C333.93 100.383 329.947 88.7109 335.235 80.12C341.862 69.3428 352.041 64.44 365.881 67.0901C365.881 67.0901 358.38 62.0328 345.823 65.6215C333.266 69.2103 326.529 86.4582 333.93 100.383Z" fill="white"/>
<path d="M370.594 100.062C363.923 109.481 351.742 112.717 341.497 108.488C339.849 107.814 338.256 106.942 336.729 105.87C325.765 98.1409 323.165 83.002 330.899 72.0702C338.477 61.3702 353.147 58.6538 364.033 65.7651C364.277 65.9196 364.531 66.0853 364.775 66.262C375.738 73.9805 378.338 89.1194 370.594 100.062Z" stroke="#263238" stroke-miterlimit="10" stroke-linecap="round" stroke-linejoin="round"/>
<path d="M370.594 100.062C363.923 109.481 351.742 112.717 341.497 108.487C341.254 108.333 341 108.167 340.756 107.991C329.792 100.261 327.192 85.1221 334.948 74.1792C341.619 64.7602 353.8 61.5248 364.045 65.754C364.288 65.9086 364.542 66.0742 364.786 66.2509C375.739 73.9804 378.338 89.1194 370.594 100.062Z" stroke="#263238" stroke-miterlimit="10" stroke-linecap="round" stroke-linejoin="round"/>
<path d="M348.81 103.287L347.848 105.738L343.82 104.159L344.783 101.708C341.718 99.5212 340.656 95.811 342.128 92.0567L342.57 90.9414L347.328 92.2444L346.874 93.4038C345.978 95.6785 346.597 97.5226 348.467 98.2514C350.348 98.9912 351.963 98.2845 352.682 96.4515C353.545 94.2651 352.229 91.5819 350.602 88.6225C348.677 85.1332 346.918 81.2021 348.489 77.2269C350.016 73.3401 352.992 71.3193 356.565 71.7942L357.528 69.3428L361.555 70.9218L360.593 73.3732C363.602 75.4271 364.432 78.9495 362.872 82.9247L362.551 83.7308L357.793 82.4278L358.148 81.5334C359.099 79.1262 358.645 77.503 356.997 76.8515C355.348 76.2 353.999 76.8625 353.224 78.8281C352.361 81.0144 353.744 83.6646 355.304 86.646C357.174 90.1574 358.988 94.0664 357.417 98.0416C355.935 101.851 352.572 103.828 348.81 103.287Z" stroke="#263238" stroke-miterlimit="10"/>
<path opacity="0.3" d="M348.81 103.287L347.848 105.738L343.82 104.159L344.783 101.708C341.718 99.5212 340.656 95.811 342.128 92.0567L342.57 90.9414L347.328 92.2444L346.874 93.4038C345.978 95.6785 346.597 97.5226 348.467 98.2514C350.348 98.9912 351.963 98.2845 352.682 96.4515C353.545 94.2651 352.229 91.5819 350.602 88.6225C348.677 85.1332 346.918 81.2021 348.489 77.2269C350.016 73.3401 352.992 71.3193 356.565 71.7942L357.528 69.3428L361.555 70.9218L360.593 73.3732C363.602 75.4271 364.432 78.9495 362.872 82.9247L362.551 83.7308L357.793 82.4278L358.148 81.5334C359.099 79.1262 358.645 77.503 356.997 76.8515C355.348 76.2 353.999 76.8625 353.224 78.8281C352.361 81.0144 353.744 83.6646 355.304 86.646C357.174 90.1574 358.988 94.0664 357.417 98.0416C355.935 101.851 352.572 103.828 348.81 103.287Z" fill="black"/>
<path opacity="0.3" d="M363.491 65.4228C356.82 64.2412 348.445 63.5787 343.909 66.4939C335.578 71.8273 330.401 78.552 330.467 89.4507C330.544 100.349 340.745 107.991 340.745 107.991L341.342 108.432C339.749 107.759 338.2 106.908 336.729 105.87C325.765 98.1409 323.154 83.002 330.898 72.0591C338.355 61.5359 352.66 58.7312 363.491 65.4228Z" fill="black"/>
<path opacity="0.1" d="M370.594 100.051C363.923 109.47 351.742 112.717 341.486 108.476C341.442 108.465 341.386 108.432 341.342 108.421C340.579 108.101 339.815 107.737 339.074 107.328L365.881 67.0901C375.893 75.0074 378.073 89.5058 370.594 100.051Z" fill="black"/>
<path d="M358.07 411.012C347.715 423.291 335.545 434.046 321.738 442.317C317.412 444.9 312.998 447.197 308.473 449.229C277.042 463.33 241.219 464.247 207.708 456.142C137.278 439.103 99.8949 377.046 95.1598 308.164C93.8764 289.536 91.0221 269.439 98.5784 251.727C106.068 234.17 121.413 223.029 138.694 215.365C151.24 209.8 164.793 206.046 177.106 202.998C199.521 197.444 222.765 199.983 243.575 209.844C258.057 216.701 268.379 228.572 280.56 238.642C281.855 239.702 283.149 240.763 284.454 241.812C296.757 251.694 309.712 260.782 323.198 268.986C343.677 281.453 364.642 293.213 377.719 314.149C398.584 347.519 380.971 383.848 358.07 411.012Z" fill="#41C5E8"/>
<path opacity="0.4" d="M358.07 411.012C347.715 423.291 335.545 434.046 321.738 442.317C317.412 444.9 312.998 447.197 308.473 449.229C277.042 463.33 241.219 464.247 207.708 456.142C137.278 439.103 99.8949 377.046 95.1598 308.164C93.8764 289.536 91.0221 269.439 98.5784 251.727C106.068 234.17 121.413 223.029 138.694 215.365C151.24 209.8 164.793 206.046 177.106 202.998C199.521 197.444 222.765 199.983 243.575 209.844C258.057 216.701 268.379 228.572 280.56 238.642C281.855 239.702 283.149 240.763 284.454 241.812C296.757 251.694 309.712 260.782 323.198 268.986C343.677 281.453 364.642 293.213 377.719 314.149C398.584 347.519 380.971 383.848 358.07 411.012Z" fill="white"/>
<path d="M284.454 241.812C283.149 240.763 281.854 239.702 280.56 238.642C268.379 228.572 258.057 216.701 243.575 209.844C222.754 199.983 199.51 197.444 177.095 202.998C147.81 210.253 111.489 221.416 98.5671 251.727C91.0108 269.439 93.8652 289.536 95.1486 308.153C99.8947 377.046 137.256 439.103 207.696 456.142C246.031 465.417 287.375 462.877 321.738 442.317C335.545 434.057 347.715 423.291 358.059 411.012C380.96 383.848 398.584 347.519 377.73 314.149C364.642 293.213 343.688 281.453 323.198 268.986C309.712 260.782 296.768 251.694 284.454 241.812Z" stroke="#263238" stroke-miterlimit="10"/>
<path d="M177.704 364.656C171.895 366.445 166.043 368.687 160.699 371.481" stroke="#263238" stroke-miterlimit="10" stroke-linecap="round" stroke-linejoin="round"/>
<path d="M213.649 357.832C213.649 357.832 202.132 358.616 188.147 361.852" stroke="#263238" stroke-miterlimit="10" stroke-linecap="round" stroke-linejoin="round"/>
<path d="M206.136 356.066C206.136 356.066 173.079 336.874 133.173 352.256" stroke="#263238" stroke-miterlimit="10" stroke-linecap="round" stroke-linejoin="round"/>
<path opacity="0.1" d="M358.07 411.012C347.715 423.291 335.545 434.046 321.738 442.317C317.412 444.9 312.998 447.197 308.473 449.229C304.877 448.125 301.348 446.844 297.885 445.353C277.241 436.508 259.916 421.579 242.989 406.838C232.777 397.96 222.4 388.949 210.186 383.13C193.856 375.345 174.628 373.766 157.247 378.791C166.22 368.61 178.832 361.686 192.252 359.566C183.523 351.638 171.353 348.303 159.537 348.082C147.722 347.85 141.216 349.319 129.677 351.903C133.527 344.814 143.783 338.398 151.87 338.586C143.783 338.398 134.556 337.857 128.881 336.963C118.437 335.284 113.779 323.027 112.219 312.614C107.905 283.916 112.275 253.329 127.974 228.925C131.259 223.813 134.844 219.329 138.716 215.365C151.262 209.8 164.815 206.046 177.128 202.998C199.543 197.444 222.787 199.983 243.597 209.844C258.079 216.701 268.401 228.572 280.582 238.642C281.876 239.702 283.171 240.763 284.476 241.812C296.779 251.694 309.734 260.782 323.22 268.986C343.699 281.453 364.664 293.213 377.741 314.149C398.584 347.519 380.971 383.848 358.07 411.012Z" fill="black"/>
<path d="M369.554 410.195C369.554 410.195 378.847 418.002 388.981 424.495C402.135 425.378 396.239 441.257 396.239 441.257L384.976 448.478C384.976 448.478 365.737 433.218 355.238 428.26C344.75 423.302 369.554 410.195 369.554 410.195Z" fill="white"/>
<path opacity="0.3" d="M276.123 243.104C276.123 243.104 274.32 225.292 271.444 220.279L227.765 211.368V207.989C227.765 207.989 228.772 202.115 219.036 198.438C209.301 194.761 189.01 199.542 183.788 203.495C178.555 207.448 180.469 214.25 180.469 214.25C180.469 214.25 162.867 223.15 154.957 226.54C147.047 229.93 136.061 236.478 136.061 236.478C136.061 236.478 132.487 277.412 133.184 286.919C133.881 296.427 132.62 305.371 133.428 310.638C134.246 315.905 134.888 318.898 140.431 323.381C145.974 327.864 150.985 334.478 165.501 327.919L163.476 326.318L258.997 294.262L276.123 243.104Z" fill="black"/>
<path d="M276.123 243.104C276.123 243.104 274.32 225.292 271.444 220.279L227.765 211.368V207.989C227.765 207.989 228.772 202.115 219.036 198.438C209.301 194.761 189.01 199.542 183.788 203.495C178.555 207.448 180.469 214.25 180.469 214.25C180.469 214.25 162.867 223.15 154.957 226.54C147.047 229.93 136.061 236.478 136.061 236.478C136.061 236.478 132.487 277.412 133.184 286.919C133.881 296.427 132.62 305.371 133.428 310.638C134.246 315.905 134.888 318.898 140.431 323.381C145.974 327.864 150.985 334.478 165.501 327.919L163.476 326.318L258.997 294.262L276.123 243.104Z" fill="#41C5E8"/>
<path opacity="0.05" d="M276.123 243.104C276.123 243.104 274.32 225.292 271.444 220.279L227.765 211.368V207.989C227.765 207.989 228.772 202.115 219.036 198.438C209.301 194.761 189.01 199.542 183.788 203.495C178.555 207.448 180.469 214.25 180.469 214.25C180.469 214.25 162.867 223.15 154.957 226.54C147.047 229.93 136.061 236.478 136.061 236.478C136.061 236.478 132.487 277.412 133.184 286.919C133.881 296.427 132.62 305.371 133.428 310.638C134.246 315.905 134.888 318.898 140.431 323.381C145.974 327.864 150.985 334.478 165.501 327.919L163.476 326.318L258.997 294.262L276.123 243.104Z" fill="black"/>
<path opacity="0.1" d="M272.019 222.443H253.742C250.191 222.443 247.16 225.005 246.584 228.506L237.579 282.657C237.579 282.657 225.177 283.684 216.392 290.088C207.608 296.493 186.001 250.866 151.859 250.844C151.859 250.844 161.684 273.26 163.863 291.148C163.863 291.148 142.522 288.829 138.982 297.166C135.441 305.503 140.597 321.128 149.614 315.088C158.63 309.048 167.094 298.922 173.179 305.271C179.263 311.621 206.148 315.088 206.148 315.088L247.602 294.306L263.677 286.765L272.019 222.443Z" fill="black"/>
<path opacity="0.4" d="M213.992 195.633C213.992 195.633 224.369 198.504 226.051 201.982C227.732 205.449 227.555 214.261 227.555 214.261C227.555 214.261 224.723 222.079 216.392 229.588L208.648 214.261L209.345 231.653C209.345 231.653 194.653 229.212 188.424 224.519C182.195 219.827 182.195 219.827 182.195 219.827C182.195 219.827 179.518 211.026 179.894 208C180.27 204.986 191.522 198.924 191.522 198.924L213.992 195.633Z" fill="white"/>
<path d="M386.846 463.639C386.558 462.999 391.105 454.993 387.554 446.833C383.991 438.673 378.316 441.82 378.316 441.82C378.316 441.82 362.152 431.55 355.359 428.315C348.566 425.069 341.253 419.945 341.253 419.945L334.073 429.596L340.711 450.09L386.846 463.639Z" fill="#41C5E8"/>
<path d="M377.719 441.323L398.474 453.988C398.474 453.988 413.066 444.647 420.025 438.187C426.995 431.738 442.561 418.013 442.561 418.013L452.496 404.641C452.496 404.641 445.593 396.116 434.087 402.962C419.218 411.818 401.085 424.616 388.981 424.495C388.992 424.495 391.371 439.324 377.719 441.323Z" fill="#41C5E8"/>
<path d="M210.473 142.1C210.473 142.1 219.899 156.323 221.603 160.927C223.318 165.532 224.701 172.345 224.347 175.624C223.993 178.904 220.563 196.472 218.782 196.98L217.111 198.868L218.184 206.311C218.184 206.311 210.816 219.031 189.154 209.712C189.154 209.712 188.313 194.86 185.68 190.211C183.047 185.551 179.108 191.095 175.159 177.634C171.22 164.174 183.788 150.084 183.788 150.084L210.473 142.1Z" fill="white"/>
<path opacity="0.5" d="M443.535 400.478C443.535 400.478 432.87 402.322 429.407 408.627C425.944 414.932 419.295 426.659 417.027 432.323C414.759 437.988 395.984 451.669 395.984 451.669L398.474 453.977C398.474 453.977 413.741 444.558 422.957 435.603C432.162 426.648 452.496 404.122 452.496 404.122C452.496 404.122 451.047 402.675 443.535 400.478Z" fill="white"/>
<path opacity="0.5" d="M336.706 426.041L334.073 429.585L342.194 446.391L386.857 462.414L388.926 455.888C388.926 455.888 389.611 449.24 373.935 444.238C358.258 439.225 348.699 435.879 344.241 432.423C339.771 428.945 336.706 426.041 336.706 426.041Z" fill="white"/>
<path d="M189.265 301.219C189.265 301.219 175.59 299.165 169.207 310.34C162.823 321.504 163.476 326.34 163.476 326.34C163.476 326.34 172.504 334.533 184.928 334.114C197.352 333.694 215.463 319.405 221.36 314.779C227.256 310.152 242.126 296.912 252.271 299.651L253.388 290.077C253.388 290.077 252.403 285.782 243.719 286.941C235.034 288.101 231.637 293.037 228.849 293.037C226.061 293.037 223.406 290.353 217.753 299.938C217.742 299.927 198.016 303.427 189.265 301.219Z" fill="white"/>
<path d="M207.033 162.55C207.32 164.339 207.73 166.106 208.272 167.84C208.537 168.679 208.836 169.529 209.433 170.169C210.473 171.318 212.155 171.561 213.693 171.793C213.947 171.826 214.224 171.881 214.379 172.08C214.523 172.256 214.545 172.51 214.545 172.742C214.545 174.465 214.014 176.187 213.04 177.623" stroke="#263238" stroke-miterlimit="10" stroke-linecap="round" stroke-linejoin="round"/>
<path opacity="0.1" d="M345.878 414.634L336.695 426.04C336.695 426.04 346.763 435.327 357.196 438.761C367.617 442.206 385.861 448.721 388.915 453.712L387.742 447.716C387.742 447.716 359.22 430.248 352.66 426.074C346.099 421.911 345.878 414.634 345.878 414.634Z" fill="black"/>
<path opacity="0.1" d="M377.719 441.323L395.984 451.681C395.984 451.681 404.979 445.541 409.426 440.97C413.874 436.398 419.295 431.407 422.647 421.226C427.283 407.169 440.559 400.478 440.559 400.478C440.559 400.478 422.094 409.146 412.48 415.97C402.866 422.783 393.495 425.621 388.052 425.157C388.052 425.157 392.422 438.96 377.719 441.323Z" fill="black"/>
<path d="M200.594 180.13C200.594 180.13 207.774 185.75 215.231 183.641C215.231 183.641 208.194 197.554 200.594 180.13Z" fill="white" stroke="#263238" stroke-miterlimit="10" stroke-linecap="round" stroke-linejoin="round"/>
<path d="M200.373 167.983C200.583 169.529 200.118 170.865 199.333 170.976C198.547 171.075 197.75 169.916 197.54 168.359C197.33 166.813 197.795 165.477 198.58 165.366C199.366 165.267 200.162 166.437 200.373 167.983Z" fill="#263238"/>
<path d="M215.961 165.178C216.171 166.724 215.706 168.06 214.921 168.171C214.135 168.27 213.339 167.111 213.129 165.554C212.918 164.008 213.383 162.672 214.169 162.561C214.954 162.462 215.751 163.621 215.961 165.178Z" fill="#263238"/>
<path d="M199.233 161.424C199.233 161.424 195.051 159.271 192.064 163.886" stroke="#263238" stroke-miterlimit="10" stroke-linecap="round" stroke-linejoin="round"/>
<path d="M209.942 158.553C209.942 158.553 214.357 154.766 216.923 158.553" stroke="#263238" stroke-miterlimit="10" stroke-linecap="round" stroke-linejoin="round"/>
<path d="M185.017 175.635C185.017 175.635 182.328 171.671 179.507 171.793C176.686 171.925 175.535 175.889 176.564 179.721C177.593 183.564 181.819 188.93 185.028 188.422C188.236 187.914 189.641 185.86 189.641 185.86" stroke="#263238" stroke-miterlimit="10" stroke-linecap="round" stroke-linejoin="round"/>
<path d="M210.794 145.313C213.825 147.809 217.012 150.547 218.594 154.235C219.943 157.371 220.253 160.839 221.481 164.03C222.798 167.42 224.247 170.976 224.358 174.675C224.457 178.043 223.694 181.543 223.019 184.823C222.444 187.66 221.99 190.587 220.972 193.314C219.49 197.278 216.724 199.718 213.029 201.596C210.34 202.965 205.86 204.93 202.95 203.075C201.257 201.993 198.713 198.813 196.6 195.909" stroke="#263238" stroke-miterlimit="10" stroke-linecap="round" stroke-linejoin="round"/>
<path d="M185.017 188.433C185.017 188.433 189.774 200.072 188.623 208.265" stroke="#263238" stroke-miterlimit="10" stroke-linecap="round" stroke-linejoin="round"/>
<path d="M183.8 173.681C185.072 172.764 185.802 171.141 185.647 169.584C185.47 167.795 184.22 166.139 184.474 164.361C184.596 163.489 185.072 162.705 185.426 161.899C186.731 158.951 186.521 155.373 184.851 152.612C184.851 152.612 199.963 153.319 207.044 148.825C214.124 144.331 219.512 132.836 215.242 127.348C210.96 121.849 202.618 129.346 196.445 130.174C190.272 131.003 168.255 134.503 164.748 142.995C161.241 151.486 166.585 154.49 166.751 162.561C166.917 170.633 166.906 185.927 179.009 184.524C179.009 184.524 174.484 178.683 177.626 172.665C179.75 170.092 183.8 173.681 183.8 173.681Z" fill="#263238"/>
<path d="M213.438 136.877C213.438 136.877 219.656 141.018 220.674 150.139C221.349 156.19 232.102 167.95 224.358 174.653C224.358 174.653 222.554 167.53 221.481 164.008C220.419 160.496 219.069 154.092 217.277 151.85C215.496 149.609 206.048 141.957 206.048 141.957L213.438 136.877Z" fill="#263238"/>
<path d="M186.41 208.011C186.41 208.011 193.867 212.903 207.718 213.113L209.334 231.653C209.334 231.653 193.768 230.471 182.173 219.838C182.173 219.838 179.042 211.567 179.872 208.011C180.702 204.456 188.114 200.933 188.114 200.933" stroke="#263238" stroke-miterlimit="10" stroke-linecap="round" stroke-linejoin="round"/>
<path d="M217.742 199.708L218.184 206.311C213.15 211.456 207.718 213.113 207.718 213.113L216.392 229.599C216.392 229.599 226.725 221.56 227.765 213.113C227.765 213.113 227.854 204.456 226.05 201.993C224.258 199.52 217.675 198.36 217.675 198.36" stroke="#263238" stroke-miterlimit="10" stroke-linecap="round" stroke-linejoin="round"/>
<path opacity="0.8" d="M175.768 148.471C176.885 145.7 179.905 144.099 182.859 143.602C185.813 143.105 188.845 143.469 191.832 143.392C195.936 143.282 200.085 142.299 203.559 140.101C207.033 137.904 209.776 134.437 210.639 130.428" stroke="white" stroke-miterlimit="10" stroke-linecap="round" stroke-linejoin="round"/>
<path opacity="0.8" d="M168.631 147.93C170.512 142.255 176.564 138.765 182.527 138.257C185.481 138.003 188.468 138.357 191.411 138.014C194.354 137.672 197.418 136.458 198.956 133.929" stroke="white" stroke-miterlimit="10" stroke-linecap="round" stroke-linejoin="round"/>
<path d="M165.489 327.93C151.129 335.373 145.996 327.72 137.986 321.382C129.976 315.044 135.22 303.748 133.572 285.55C131.912 267.363 136.061 236.489 136.061 236.489C136.061 236.489 139.645 235.661 149.591 229.588C159.537 223.515 180.469 214.261 180.469 214.261" stroke="#263238" stroke-miterlimit="10" stroke-linecap="round" stroke-linejoin="round"/>
<path d="M179.739 300.446C179.739 300.446 177.46 293.235 171.01 293.037C164.571 292.838 154.415 295.742 147.19 309.412" stroke="#263238" stroke-miterlimit="10" stroke-linecap="round" stroke-linejoin="round"/>
<path d="M169.55 292.606C169.151 292.617 168.764 292.462 168.388 292.33C163.122 290.431 157.269 290.166 151.859 291.579" stroke="#263238" stroke-miterlimit="10" stroke-linecap="round" stroke-linejoin="round"/>
<path d="M148.153 246.339C159.858 259.258 165.578 276.352 170.988 292.915" stroke="#263238" stroke-miterlimit="10" stroke-linecap="round" stroke-linejoin="round"/>
<path d="M227.765 211.379C227.765 211.379 249.007 216.437 259.384 217.64C269.762 218.844 271.443 220.29 271.443 220.29L273.368 227.512" stroke="#263238" stroke-miterlimit="10" stroke-linecap="round" stroke-linejoin="round"/>
<path d="M326.76 223.978L254.406 226.75L248.498 301.009H260.889L323.707 286.974L331.606 225.767L326.76 223.978Z" fill="white"/>
<path d="M252.26 303.217L331.385 227.512L323.707 286.974L252.26 303.217Z" fill="#41C5E8"/>
<path opacity="0.7" d="M252.26 303.217L331.385 227.512L323.707 286.974L252.26 303.217Z" fill="white"/>
<path d="M252.26 301.219L258.588 229.588L331.606 225.767L323.707 286.974L252.26 301.219Z" stroke="#263238" stroke-miterlimit="10" stroke-linecap="round" stroke-linejoin="round"/>
<path d="M300.828 260.462C300.33 264.824 297.996 268.136 295.617 267.871C293.228 267.606 291.701 263.852 292.188 259.49C292.685 255.129 295.02 251.816 297.398 252.081C299.788 252.346 301.326 256.1 300.828 260.462Z" fill="#263238"/>
<path d="M323.707 286.974C323.707 286.974 357.141 286.025 367.596 292.915C378.05 299.805 384.18 334.357 382.741 352.709C381.303 371.061 368.68 413.176 368.68 413.176L344.517 385.825C344.517 385.825 332.613 342.638 339.107 325.722C339.107 325.722 307.012 327.522 294.389 323.557C294.389 323.557 283.071 305.062 263.666 298.944L323.707 286.974Z" fill="#263238"/>
<path d="M373.78 413.894C363.568 404.663 353.722 391.964 350.79 387.448C339.096 369.416 322.932 352.068 306.304 338.608C292.895 327.753 289.864 310.086 273.335 301.23C245.964 286.577 222.289 315.695 213.438 321.592C204.587 327.477 189.253 334.125 189.253 334.125C189.253 334.125 194.84 355.061 211.281 357.59C227.721 360.118 244.36 348.756 252.259 354.233C260.17 359.688 265.945 384.102 291.922 398.402C313.152 410.084 342.083 421.491 357.008 429.165C360.349 430.888 362.805 432.699 364.686 433.726C369.841 436.531 375.351 439.843 380.551 443.101L398.462 453.988C398.462 453.988 416.44 443.377 423.344 433.593C424.273 432.279 426.176 428.779 427.968 425.4C431.885 418.024 436.797 411.398 443.667 407.71C448.402 405.171 452.629 404.387 452.485 404.133C452.031 403.293 443.446 398.91 437.616 401.306C425.269 406.385 400.597 425.952 388.981 424.506C388.992 424.494 380.528 419.989 373.78 413.894Z" stroke="#263238" stroke-miterlimit="10"/>
<path d="M373.78 413.894C363.015 418.233 358.679 424.925 357.019 429.154C342.095 421.48 313.164 410.073 291.933 398.391C265.956 384.08 260.181 359.676 252.271 354.222C244.361 348.745 227.721 360.107 211.292 357.578C194.852 355.05 189.276 334.103 189.276 334.103C189.276 334.103 204.61 327.466 213.46 321.581C222.311 315.695 242.723 286.555 273.358 301.219C290.285 309.313 292.918 327.753 306.327 338.597C322.955 352.057 339.118 369.405 350.812 387.437C353.722 391.964 363.535 404.696 373.78 413.894Z" fill="#263238"/>
<path d="M292.885 320.278C292.885 320.278 284.598 303.471 271.311 300.214" stroke="white" stroke-miterlimit="10" stroke-linecap="round" stroke-linejoin="round"/>
<path d="M249.45 286.82C240.311 284.832 230.277 294.914 226.05 293.025C222.908 291.623 217.742 299.927 217.742 299.927C217.742 299.927 204.366 301.992 192.053 301.219C179.739 300.446 173.909 302.831 169.55 309.412L163.465 325.49C163.465 325.49 179.507 339.867 196.655 331.486C213.803 323.116 236.572 297.917 252.26 298.006" stroke="#263238" stroke-miterlimit="10" stroke-linecap="round" stroke-linejoin="round"/>
<path d="M377.021 440.892C377.021 440.892 392.035 442.129 388.505 424.229" stroke="#263238" stroke-miterlimit="10"/>
<path d="M447.717 413.176C446.577 415.429 432.847 427.067 420.999 437.281C421.032 437.127 424.273 430.888 425.7 428.227C428.842 422.352 436.985 406.242 452.496 404.122C454.698 405.447 447.717 413.176 447.717 413.176Z" fill="#263238"/>
<path d="M441.82 400.599C426.143 403.724 422.592 423.766 417.016 432.335C411.451 440.903 395.973 452.476 395.973 452.476" stroke="#263238" stroke-miterlimit="10"/>
<path d="M387.543 447.341C390.087 452.012 388.881 457.411 387.543 460.801C386.414 463.65 385.087 465.627 385.087 465.627C362.893 461.983 340.7 450.09 340.7 450.09L334.98 432.423L334.073 429.596L342.692 418.013" stroke="#263238" stroke-miterlimit="10"/>
<path d="M387.543 460.801C386.414 463.65 385.087 465.627 385.087 465.627C362.893 461.983 340.7 450.09 340.7 450.09L334.98 432.423C337.846 436.155 343.156 441.621 351.122 443.874C361.931 446.91 381.878 450.488 387.543 460.801Z" fill="#263238"/>
<path d="M248.498 298.425L254.406 226.75L326.76 223.978L331.606 225.767" stroke="#263238" stroke-miterlimit="10" stroke-linecap="round" stroke-linejoin="round"/>
<path d="M388.351 432.324C388.351 432.324 398.241 434.079 405.842 427.896C413.442 421.712 425.69 407.721 425.69 407.721" stroke="#263238" stroke-miterlimit="10"/>
<path d="M398.474 423.401C398.474 423.401 396.084 426.99 398.474 434.201" stroke="#263238" stroke-miterlimit="10" stroke-linecap="round" stroke-linejoin="round"/>
<path d="M405.488 419.989C405.488 419.989 403.574 425.356 406.384 430.789" stroke="#263238" stroke-miterlimit="10" stroke-linecap="round" stroke-linejoin="round"/>
<path d="M413.841 415.153C413.841 415.153 411.838 421.149 413.841 426.438" stroke="#263238" stroke-miterlimit="10" stroke-linecap="round" stroke-linejoin="round"/>
<path d="M344.639 416.511L336.695 426.04C336.695 426.04 344.694 434.753 355.957 438.364C367.219 441.985 387.377 448.136 389.036 454.684" stroke="#263238" stroke-miterlimit="10"/>
</svg>
