<svg width="23" height="20" viewBox="0 0 23 20" fill="none" xmlns="http://www.w3.org/2000/svg">
<path fill-rule="evenodd" clip-rule="evenodd" d="M16.7491 19.9667C15.19 19.9137 10.7745 19.3503 6.15044 15.0769C1.52641 10.8035 0.916789 6.72285 0.85941 5.2819C0.771987 3.08644 2.59178 0.953249 4.69486 0.120276C5.18835 -0.0751809 5.78606 -0.0394107 6.25856 0.27912C7.98854 1.44534 9.18382 3.20858 10.21 4.59589C10.6735 5.22258 10.5627 6.07823 9.93303 6.58194L7.8218 8.03097C7.61254 8.17459 7.54296 8.43564 7.66847 8.64677C8.14615 9.45031 8.99713 10.6461 9.97095 11.5461C10.9458 12.447 12.3009 13.2843 13.2301 13.7754C13.4711 13.9028 13.7742 13.829 13.9265 13.6146L15.3 11.6811C15.8267 11.0333 16.8102 10.8918 17.5252 11.3491C19.0481 12.3232 20.8246 13.4079 22.1255 14.9475C22.495 15.3849 22.55 15.957 22.3295 16.4324C21.4241 18.3849 19.1327 20.0478 16.7491 19.9667Z" fill="white"/>
</svg>
