<svg width="20" height="24" viewBox="0 0 20 24" fill="none" xmlns="http://www.w3.org/2000/svg">
<path fill-rule="evenodd" clip-rule="evenodd" d="M6.25 9.00019C6.25 7.01192 7.92893 5.40011 10 5.40011C12.0711 5.40011 13.75 7.01192 13.75 9.00019C13.75 10.9885 12.0711 12.6003 10 12.6003C7.92893 12.6003 6.25 10.9885 6.25 9.00019ZM10 7.80016C9.30964 7.80016 8.75 8.33743 8.75 9.00019C8.75 9.66294 9.30964 10.2002 10 10.2002C10.6904 10.2002 11.25 9.66294 11.25 9.00019C11.25 8.33743 10.6904 7.80016 10 7.80016Z" fill="#CF222D"/>
<path fill-rule="evenodd" clip-rule="evenodd" d="M0.625 9.00019C0.625 4.02952 4.82233 0 10 0C15.1777 0 19.375 4.02952 19.375 9.00019C19.375 12.0817 17.6256 14.588 15.8128 16.3673C13.9872 18.1591 11.9529 19.3585 11.0569 19.8443C10.397 20.202 9.60298 20.202 8.94315 19.8443C8.04714 19.3585 6.01284 18.1591 4.18722 16.3673C2.37441 14.588 0.625 12.0817 0.625 9.00019ZM10 2.40005C6.20304 2.40005 3.125 5.35503 3.125 9.00019C3.125 11.18 4.36956 13.1138 5.97445 14.6891C7.46057 16.1477 9.13407 17.1768 10 17.6596C10.8659 17.1768 12.5394 16.1477 14.0256 14.6891C15.6304 13.1138 16.875 11.18 16.875 9.00019C16.875 5.35503 13.797 2.40005 10 2.40005Z" fill="#CF222D"/>
<path fill-rule="evenodd" clip-rule="evenodd" d="M4.09989 19.8723C4.76265 19.6868 5.14327 19.0206 4.95003 18.3843C4.75679 17.7481 4.06287 17.3827 3.40011 17.5682C2.56503 17.8019 1.79897 18.102 1.21335 18.4874C0.668178 18.8461 0 19.4715 0 20.3999C0 21.3403 0.68476 21.9698 1.23792 22.3285C1.8347 22.7156 2.61611 23.0168 3.46941 23.2509C5.19303 23.7236 7.50153 24 10 24C12.4985 24 14.807 23.7236 16.5306 23.2509C17.3839 23.0168 18.1653 22.7156 18.7621 22.3285C19.3152 21.9698 20 21.3403 20 20.3999C20 19.4715 19.3318 18.8461 18.7867 18.4874C18.201 18.102 17.435 17.8019 16.5999 17.5682C15.9371 17.3827 15.2432 17.7481 15.05 18.3843C14.8567 19.0206 15.2373 19.6868 15.9001 19.8723C16.5261 20.0475 16.9759 20.2333 17.2642 20.3999C16.9658 20.5724 16.4969 20.764 15.8438 20.9432C14.4005 21.339 12.334 21.6 10 21.6C7.66598 21.6 5.59948 21.339 4.15622 20.9432C3.50314 20.764 3.03418 20.5724 2.73583 20.3999C3.02407 20.2333 3.47393 20.0475 4.09989 19.8723Z" fill="#CF222D"/>
</svg>
