<svg width="82" height="14" viewBox="0 0 82 14" fill="none" xmlns="http://www.w3.org/2000/svg">
<path d="M0.0201063 5.31616C0.0683403 5.16049 0.196664 5.04703 0.351155 5.02353L4.69122 4.36238L6.63221 0.239663C6.70128 0.0929015 6.84387 0 6.99998 0C7.15611 0 7.29868 0.0929015 7.36778 0.239663L9.30885 4.36238L13.6488 5.02353C13.8033 5.04703 13.9317 5.16049 13.9799 5.31614C14.0282 5.47181 13.9879 5.64268 13.8761 5.75691L10.7357 8.96601L11.477 13.4974C11.5034 13.6587 11.4401 13.8217 11.3138 13.9179C11.2424 13.9723 11.1577 14 11.0727 14C11.0074 14 10.9419 13.9837 10.8819 13.9506L7.00001 11.8112L3.11828 13.9506C2.98005 14.0267 2.81263 14.0141 2.68633 13.9179C2.56003 13.8217 2.49673 13.6586 2.52312 13.4973L3.26459 8.96601L0.123876 5.75688C0.0120955 5.64268 -0.028183 5.47181 0.0201063 5.31616Z" fill="#F38C08"/>
<path d="M17.0201 5.31616C17.0683 5.16049 17.1967 5.04703 17.3512 5.02353L21.6912 4.36238L23.6322 0.239663C23.7013 0.0929015 23.8439 0 24 0C24.1561 0 24.2987 0.0929015 24.3678 0.239663L26.3088 4.36238L30.6488 5.02353C30.8033 5.04703 30.9317 5.16049 30.9799 5.31614C31.0282 5.47181 30.9879 5.64268 30.8761 5.75691L27.7357 8.96601L28.477 13.4974C28.5034 13.6587 28.4401 13.8217 28.3138 13.9179C28.2424 13.9723 28.1577 14 28.0727 14C28.0074 14 27.9419 13.9837 27.8819 13.9506L24 11.8112L20.1183 13.9506C19.9801 14.0267 19.8126 14.0141 19.6863 13.9179C19.56 13.8217 19.4967 13.6586 19.5231 13.4973L20.2646 8.96601L17.1239 5.75688C17.0121 5.64268 16.9718 5.47181 17.0201 5.31616Z" fill="#F38C08"/>
<path d="M34.0201 5.31616C34.0683 5.16049 34.1967 5.04703 34.3512 5.02353L38.6912 4.36238L40.6322 0.239663C40.7013 0.0929015 40.8439 0 41 0C41.1561 0 41.2987 0.0929015 41.3678 0.239663L43.3088 4.36238L47.6488 5.02353C47.8033 5.04703 47.9317 5.16049 47.9799 5.31614C48.0282 5.47181 47.9879 5.64268 47.8761 5.75691L44.7357 8.96601L45.477 13.4974C45.5034 13.6587 45.4401 13.8217 45.3138 13.9179C45.2424 13.9723 45.1577 14 45.0727 14C45.0074 14 44.9419 13.9837 44.8819 13.9506L41 11.8112L37.1183 13.9506C36.9801 14.0267 36.8126 14.0141 36.6863 13.9179C36.56 13.8217 36.4967 13.6586 36.5231 13.4973L37.2646 8.96601L34.1239 5.75688C34.0121 5.64268 33.9718 5.47181 34.0201 5.31616Z" fill="#F38C08"/>
<path d="M51.0201 5.31616C51.0683 5.16049 51.1967 5.04703 51.3512 5.02353L55.6912 4.36238L57.6322 0.239663C57.7013 0.0929015 57.8439 0 58 0C58.1561 0 58.2987 0.0929015 58.3678 0.239663L60.3088 4.36238L64.6488 5.02353C64.8033 5.04703 64.9317 5.16049 64.9799 5.31614C65.0282 5.47181 64.9879 5.64268 64.8761 5.75691L61.7357 8.96601L62.477 13.4974C62.5034 13.6587 62.4401 13.8217 62.3138 13.9179C62.2424 13.9723 62.1577 14 62.0727 14C62.0074 14 61.9419 13.9837 61.8819 13.9506L58 11.8112L54.1183 13.9506C53.9801 14.0267 53.8126 14.0141 53.6863 13.9179C53.56 13.8217 53.4967 13.6586 53.5231 13.4973L54.2646 8.96601L51.1239 5.75688C51.0121 5.64268 50.9718 5.47181 51.0201 5.31616Z" fill="#F38C08"/>
<path d="M68.0201 5.31616C68.0683 5.16049 68.1967 5.04703 68.3512 5.02353L72.6912 4.36238L74.6322 0.239663C74.7013 0.0929015 74.8439 0 75 0C75.1561 0 75.2987 0.0929015 75.3678 0.239663L77.3088 4.36238L81.6488 5.02353C81.8033 5.04703 81.9317 5.16049 81.9799 5.31614C82.0282 5.47181 81.9879 5.64268 81.8761 5.75691L78.7357 8.96601L79.477 13.4974C79.5034 13.6587 79.4401 13.8217 79.3138 13.9179C79.2424 13.9723 79.1577 14 79.0727 14C79.0074 14 78.9419 13.9837 78.8819 13.9506L75 11.8112L71.1183 13.9506C70.9801 14.0267 70.8126 14.0141 70.6863 13.9179C70.56 13.8217 70.4967 13.6586 70.5231 13.4973L71.2646 8.96601L68.1239 5.75688C68.0121 5.64268 67.9718 5.47181 68.0201 5.31616Z" fill="#F38C08"/>
</svg>
