<svg width="21" height="19" viewBox="0 0 21 19" fill="none" xmlns="http://www.w3.org/2000/svg">
<path d="M8.4 13.7222V12.6667H1.0605L1.05 16.8889C1.05 18.0606 1.9845 19 3.15 19H17.85C19.0155 19 19.95 18.0606 19.95 16.8889V12.6667H12.6V13.7222H8.4ZM18.9 4.22222H14.6895V2.11111L12.5895 0H8.3895L6.2895 2.11111V4.22222H2.1C0.945 4.22222 0 5.17222 0 6.33333V9.5C0 10.6717 0.9345 11.6111 2.1 11.6111H8.4V9.5H12.6V11.6111H18.9C20.055 11.6111 21 10.6611 21 9.5V6.33333C21 5.17222 20.055 4.22222 18.9 4.22222ZM12.6 4.22222H8.4V2.11111H12.6V4.22222Z" fill="white"/>
</svg>
