<svg width="23" height="23" viewBox="0 0 23 23" fill="none" xmlns="http://www.w3.org/2000/svg">
<path d="M9.71175 10.0948L11.2542 8.68034C11.6763 8.2931 11.9731 7.7886 12.1065 7.23153C12.24 6.67447 12.204 6.09024 12.0031 5.55378L11.344 3.79428C11.0983 3.13756 10.6113 2.59935 9.98234 2.28947C9.35337 1.97959 8.62985 1.9214 7.95944 2.12678C5.49269 2.88147 3.59662 5.17428 4.18025 7.89762C4.56406 9.68875 5.29791 11.937 6.69012 14.3297C7.85665 16.3449 9.32426 18.1701 11.0422 19.7419C13.105 21.6193 16.0518 21.1499 17.9479 19.3825C18.4559 18.9085 18.764 18.2586 18.8097 17.5653C18.8554 16.872 18.6351 16.1874 18.1937 15.6508L16.9855 14.1831C16.6214 13.7405 16.1332 13.4168 15.5838 13.2537C15.0344 13.0905 14.4487 13.0953 13.9021 13.2674L11.9068 13.8963C11.8297 13.8172 11.742 13.7233 11.6438 13.6146C11.2334 13.1609 10.8705 12.6664 10.5606 12.139C10.2588 11.6068 10.0122 11.0451 9.82459 10.4628C9.78446 10.341 9.74683 10.2183 9.71175 10.0948Z" fill="white"/>
</svg>
