<svg width="20" height="18" viewBox="0 0 20 18" fill="none" xmlns="http://www.w3.org/2000/svg">
<path d="M3.57143 0C2.62423 0 1.71582 0.366893 1.04605 1.01997C0.376274 1.67304 0 2.5588 0 3.48238V10.4472C0 10.9045 0.0923778 11.3573 0.271859 11.7798C0.45134 12.2023 0.714409 12.5862 1.04605 12.9096C1.71582 13.5626 2.62423 13.9295 3.57143 13.9295H4.28571V16.6347C4.28566 16.8969 4.36307 17.1536 4.50868 17.374C4.65429 17.5945 4.86194 17.7694 5.1068 17.8778C5.35167 17.9863 5.62337 18.0236 5.88944 17.9855C6.15551 17.9473 6.40467 17.8352 6.60714 17.6627L10.9829 13.9295H16.4286C16.8976 13.9295 17.362 13.8395 17.7953 13.6645C18.2286 13.4894 18.6223 13.2329 18.954 12.9096C19.2856 12.5862 19.5487 12.2023 19.7281 11.7798C19.9076 11.3573 20 10.9045 20 10.4472V3.48238C20 2.5588 19.6237 1.67304 18.954 1.01997C18.2842 0.366893 17.3758 0 16.4286 0H3.57143Z" fill="white"/>
</svg>
