<svg width="22" height="23" viewBox="0 0 22 23" fill="none" xmlns="http://www.w3.org/2000/svg">
<path d="M2.75 6.70834C2.75 6.20001 2.94315 5.7125 3.28697 5.35305C3.63079 4.99361 4.0971 4.79167 4.58333 4.79167H17.4167C17.9029 4.79167 18.3692 4.99361 18.713 5.35305C19.0568 5.7125 19.25 6.20001 19.25 6.70834V16.2917C19.25 16.8 19.0568 17.2875 18.713 17.647C18.3692 18.0064 17.9029 18.2083 17.4167 18.2083H4.58333C4.0971 18.2083 3.63079 18.0064 3.28697 17.647C2.94315 17.2875 2.75 16.8 2.75 16.2917V6.70834Z" stroke="white" stroke-width="2" stroke-linecap="round" stroke-linejoin="round"/>
<path d="M2.75 6.70834L11 12.4583L19.25 6.70834" stroke="white" stroke-width="2" stroke-linecap="round" stroke-linejoin="round"/>
</svg>
