<svg width="24" height="23" viewBox="0 0 24 23" fill="none" xmlns="http://www.w3.org/2000/svg">
<g clip-path="url(#clip0_1_58)">
<path d="M15.271 12.6596C15.8118 12.8226 16.3299 13.0479 16.814 13.3304L16.783 13.3132C17.312 13.5384 17.769 13.8019 18.186 14.1114L18.171 14.1009C18.191 14.1594 18.203 14.2255 18.203 14.2954L18.202 14.3261V14.3252C18.187 14.7363 18.092 15.1225 17.931 15.4742L17.939 15.4541C17.708 15.8978 17.323 16.2399 16.852 16.422L16.838 16.4268C16.3507 16.671 15.8117 16.8057 15.262 16.8207H15.256C14.2068 16.6914 13.1927 16.372 12.268 15.8796L12.311 15.9007C11.3288 15.4742 10.4356 14.8803 9.67502 14.1479L9.67402 14.1469C8.84441 13.3191 8.09219 12.4231 7.42602 11.4693L7.37902 11.3984C6.71795 10.5703 6.33441 9.56952 6.27902 8.5282L6.27802 8.51574V8.3969C6.29269 7.95209 6.40169 7.51479 6.59836 7.11163C6.79504 6.70848 7.07528 6.3479 7.42202 6.05186L7.42502 6.04899C7.63921 5.84447 7.92771 5.72735 8.23002 5.7222H8.23102C8.33202 5.72507 8.42902 5.73274 8.52302 5.74615L8.51002 5.74424C8.59702 5.7567 8.69802 5.76436 8.80202 5.76628H8.80502C8.95061 5.75271 9.09667 5.7872 9.21902 5.86403L9.21702 5.86307C9.32402 5.97616 9.40602 6.1132 9.45502 6.26365L9.45702 6.27132C9.53969 6.46938 9.71036 6.9051 9.96902 7.57849C10.104 7.87941 10.236 8.25028 10.342 8.6317L10.356 8.69207C10.2839 9.02561 10.096 9.32591 9.82302 9.54403L9.82002 9.54595C9.46336 9.90756 9.28502 10.1376 9.28502 10.2359C9.28884 10.3166 9.31698 10.3945 9.36602 10.4602L9.36502 10.4592C9.75178 11.2255 10.2865 11.9145 10.941 12.4899L10.946 12.4947C11.6312 13.0862 12.3993 13.583 13.228 13.9706L13.287 13.9955C13.3884 14.0585 13.5054 14.0946 13.626 14.0999H13.628C13.7834 14.0999 14.0627 13.8597 14.466 13.3793C14.8694 12.8988 15.1374 12.6586 15.27 12.6586L15.271 12.6596ZM12.124 20.5332H12.146C13.4591 20.535 14.7581 20.2742 15.96 19.7675L15.899 19.7905C18.255 18.8379 20.092 17.0775 21.062 14.88L21.086 14.8197C21.576 13.753 21.861 12.5091 21.861 11.2019C21.861 9.89478 21.576 8.65086 21.062 7.52482L21.086 7.58424C20.092 5.32641 18.255 3.56595 15.962 2.63636L15.899 2.61336C14.786 2.14378 13.488 1.87066 12.124 1.87066C10.76 1.87066 9.46202 2.14378 8.28702 2.63636L8.34902 2.61336C5.99302 3.56595 4.15602 5.32641 3.18602 7.52386L3.16202 7.58424C2.64642 8.73015 2.38261 9.96555 2.38702 11.2134C2.38379 13.1865 3.04253 15.1083 4.26602 16.6951L4.24702 16.6702L3.02202 20.1327L6.77402 18.9884C8.3414 20.0001 10.1893 20.5382 12.079 20.5332H12.126H12.124ZM12.124 -1.11895e-05H12.157C13.785 -1.11895e-05 15.333 0.327739 16.732 0.91903L16.659 0.891239C19.484 2.03836 21.687 4.14957 22.855 6.78403L22.884 6.85686C23.472 8.13815 23.814 9.6322 23.814 11.2029C23.814 12.7736 23.472 14.2677 22.855 15.6199L22.884 15.5489C21.687 18.2562 19.484 20.3674 16.735 21.4868L16.659 21.5146C15.332 22.0781 13.784 22.4058 12.156 22.4058H12.122H12.124H12.071C10.012 22.4058 8.07902 21.8874 6.40702 20.9798L6.46402 21.0086L-0.000976562 23L2.10802 16.9826C1.00714 15.2472 0.427835 13.254 0.434023 11.223C0.434023 9.64561 0.776024 8.14486 1.39302 6.78499L1.36402 6.85686C2.56102 4.14957 4.76402 2.03836 7.51302 0.91903L7.58902 0.891239C9.00936 0.298316 10.5428 -0.00518715 12.092 -1.11895e-05H12.124Z" fill="white"/>
</g>
<defs>
<clipPath id="clip0_1_58">
<rect width="24" height="23" fill="white"/>
</clipPath>
</defs>
</svg>
